<svg width="269" height="137" viewBox="0 0 269 137" fill="none" xmlns="http://www.w3.org/2000/svg">
<g filter="url(#filter0_i_8_832)">
<path fill-rule="evenodd" clip-rule="evenodd" d="M136.063 2.19106C134.894 0.269813 132.106 0.269808 130.937 2.19105L123.724 14.0485H15C6.71573 14.0485 0 20.7642 0 29.0485V122C0 130.284 6.71572 137 15 137H254C262.284 137 269 130.284 269 122V29.0485C269 20.7642 262.284 14.0485 254 14.0485H143.276L136.063 2.19106Z" fill="#F7F7F7"/>
</g>
<path d="M23.6168 42.0137C23.6168 42.3017 23.5208 42.5417 23.3288 42.7337C23.1368 42.9257 22.8861 43.0217 22.5768 43.0217C22.2461 43.0217 21.9901 42.9257 21.8088 42.7337C21.6275 42.5417 21.5368 42.3017 21.5368 42.0137C21.5368 41.7364 21.6275 41.507 21.8088 41.3257C21.9901 41.1444 22.2461 41.0537 22.5768 41.0537C22.8861 41.0537 23.1368 41.1444 23.3288 41.3257C23.5208 41.507 23.6168 41.7364 23.6168 42.0137ZM21.6328 42.4137C21.3981 41.827 21.4568 41.2137 21.8088 40.5737C21.9688 40.275 22.1715 40.0084 22.4168 39.7737C22.6728 39.539 22.9235 39.363 23.1688 39.2457L23.6168 39.7577C23.1688 40.099 22.8861 40.499 22.7688 40.9577C22.6621 41.2884 22.6515 41.6724 22.7368 42.1097L21.6328 42.4137ZM28.1913 43.1017V51.5017H26.3993V40.0617H28.1913L33.5673 48.4777V40.0617H35.3593V51.5017H33.5513L28.1913 43.1017ZM41.4908 40.0617H43.1228L47.4588 51.5017H45.5708L44.5788 48.7177H40.0348L39.0428 51.5017H37.1548L41.4908 40.0617ZM42.3068 42.2697L40.5468 47.2617H44.0668L42.3068 42.2697ZM49.2418 40.0617H51.0338V50.0457H56.3138V51.5017H49.2418V40.0617ZM62.2239 40.0617H63.8559L68.1919 51.5017H66.3039L65.3119 48.7177H60.7679L59.7759 51.5017H57.8879L62.2239 40.0617ZM63.0399 42.2697L61.2799 47.2617H64.7999L63.0399 42.2697ZM71.7669 43.1017V51.5017H69.9749V40.0617H71.7669L77.1429 48.4777V40.0617H78.9349V51.5017H77.1269L71.7669 43.1017ZM90.4104 47.8057C90.3358 48.563 90.1224 49.235 89.7704 49.8217C89.4291 50.3977 88.9384 50.851 88.2984 51.1817C87.6584 51.5017 86.8851 51.6617 85.9784 51.6617C85.0611 51.6617 84.2558 51.443 83.5624 51.0057C82.8798 50.5577 82.3518 49.9284 81.9784 49.1177C81.6051 48.307 81.4184 47.3684 81.4184 46.3017V45.2777C81.4184 44.2004 81.6051 43.2564 81.9784 42.4457C82.3624 41.635 82.9064 41.011 83.6104 40.5737C84.3144 40.1257 85.1411 39.9017 86.0904 39.9017C87.3811 39.9017 88.3944 40.2537 89.1304 40.9577C89.8664 41.6617 90.2984 42.611 90.4264 43.8057H88.6024C88.5064 42.995 88.2611 42.387 87.8664 41.9817C87.4824 41.5764 86.8904 41.3737 86.0904 41.3737C85.4718 41.3737 84.9491 41.5284 84.5224 41.8377C84.0958 42.147 83.7758 42.595 83.5624 43.1817C83.3491 43.7577 83.2424 44.451 83.2424 45.2617V46.3017C83.2424 47.0804 83.3384 47.763 83.5304 48.3497C83.7331 48.9257 84.0371 49.379 84.4424 49.7097C84.8478 50.0297 85.3598 50.1897 85.9784 50.1897C86.8318 50.1897 87.4504 49.9977 87.8344 49.6137C88.2291 49.219 88.4851 48.6164 88.6024 47.8057H90.4104ZM92.6768 40.0617H100.021V41.5337H94.4848V44.8777H99.2688V46.3177H94.4848V50.0457H100.069V51.5017H92.6768V40.0617ZM102.16 40.2377C102.16 39.9497 102.256 39.7097 102.448 39.5177C102.64 39.3257 102.891 39.2297 103.2 39.2297C103.531 39.2297 103.787 39.3257 103.968 39.5177C104.15 39.7097 104.24 39.9497 104.24 40.2377C104.24 40.515 104.15 40.7444 103.968 40.9257C103.787 41.107 103.531 41.1977 103.2 41.1977C102.891 41.1977 102.64 41.107 102.448 40.9257C102.256 40.7444 102.16 40.515 102.16 40.2377ZM104.144 39.8377C104.379 40.4244 104.32 41.0377 103.968 41.6777C103.808 41.9764 103.6 42.243 103.344 42.4777C103.099 42.7124 102.854 42.8884 102.608 43.0057L102.16 42.4937C102.608 42.1524 102.891 41.7524 103.008 41.2937C103.115 40.963 103.126 40.579 103.04 40.1417L104.144 39.8377ZM119.638 44.7657H116.198V43.4057H119.638V44.7657ZM114.118 42.2857C114.118 43.363 113.979 44.3924 113.702 45.3737C113.435 46.355 113.035 47.2244 112.502 47.9817C111.969 48.7284 111.323 49.299 110.566 49.6937L109.558 48.3337C110.241 48.003 110.822 47.523 111.302 46.8937C111.793 46.2644 112.161 45.5497 112.406 44.7497C112.662 43.9497 112.79 43.1284 112.79 42.2857V40.2057H114.118V42.2857ZM114.454 42.2857C114.454 43.1177 114.571 43.923 114.806 44.7017C115.051 45.4697 115.409 46.1577 115.878 46.7657C116.358 47.363 116.934 47.8164 117.606 48.1257L116.614 49.4697C115.878 49.0857 115.243 48.5364 114.71 47.8217C114.187 47.0964 113.793 46.2644 113.526 45.3257C113.27 44.3764 113.142 43.363 113.142 42.2857V40.2057H114.454V42.2857ZM120.454 52.4137H118.838V39.1497H120.454V52.4137ZM133.249 52.4137H131.585V39.1497H133.249V52.4137ZM124.865 43.5177H127.857V40.2217H129.489V49.3097H123.201V40.2217H124.865V43.5177ZM127.857 47.9337V44.8297H124.865V47.9337H127.857ZM141.771 40.9577C141.771 41.8964 141.542 42.7817 141.083 43.6137C140.635 44.435 140.006 45.1337 139.195 45.7097C138.395 46.2857 137.489 46.6857 136.475 46.9097L135.755 45.5337C136.641 45.363 137.43 45.0484 138.123 44.5897C138.817 44.1204 139.355 43.5657 139.739 42.9257C140.123 42.275 140.315 41.619 140.315 40.9577V39.9817H141.771V40.9577ZM142.075 40.9577C142.075 41.6297 142.267 42.291 142.651 42.9417C143.046 43.5817 143.59 44.1364 144.283 44.6057C144.987 45.0644 145.782 45.3737 146.667 45.5337L145.931 46.9097C144.918 46.6964 144.011 46.3017 143.211 45.7257C142.411 45.1497 141.787 44.451 141.339 43.6297C140.891 42.7977 140.667 41.907 140.667 40.9577V39.9817H142.075V40.9577ZM147.131 50.7337H135.403V49.3417H147.131V50.7337ZM158.157 41.4857H152.573V40.1257H158.157V41.4857ZM155.901 46.4777H154.269V43.1817H155.901V46.4777ZM159.117 40.9097C159.117 41.5924 159.096 42.2324 159.053 42.8297C159.021 43.4164 158.936 44.0777 158.797 44.8137L157.197 44.6377C157.336 43.9124 157.421 43.2724 157.453 42.7177C157.485 42.163 157.501 41.5604 157.501 40.9097V40.1257H159.117V40.9097ZM162.189 49.0697H160.525V39.1497H162.189V49.0697ZM163.821 44.6697H161.501V43.2617H163.821V44.6697ZM162.589 52.1417H153.693V50.7977H162.589V52.1417ZM155.357 51.1977H153.693V48.1897H155.357V51.1977ZM151.805 45.8537C153.299 45.8537 154.712 45.827 156.045 45.7737C157.379 45.7204 158.627 45.6084 159.789 45.4377L159.869 46.6377C158.685 46.8617 157.432 47.011 156.109 47.0857C154.787 47.1604 153.4 47.1977 151.949 47.1977L151.805 45.8537ZM166.264 45.9177C167.459 45.9177 168.435 45.8964 169.192 45.8537C169.95 45.8004 170.712 45.7044 171.48 45.5657L171.672 46.9097C170.883 47.0484 170.099 47.1444 169.32 47.1977C168.552 47.2404 167.534 47.2617 166.264 47.2617H165.288V45.9177H166.264ZM170.936 44.2057H166.936V46.7017H165.288V42.9417H169.288V41.4217H165.288V40.0777H170.936V44.2057ZM175.56 48.9257H173.912V39.1657H175.56V48.9257ZM174.248 42.5737H171.72V41.2457H174.248V42.5737ZM175.896 52.1097H167.016V50.7497H175.896V52.1097ZM168.664 51.2777H167.016V48.1897H168.664V51.2777ZM174.248 45.5497H171.72V44.1897H174.248V45.5497ZM193.05 47.1017H181.306V45.7417H193.05V47.1017ZM188.122 49.4857H186.506V46.6057H188.122V49.4857ZM191.53 44.5577H182.794V39.7417H191.53V44.5577ZM184.394 43.2457H189.93V41.0537H184.394V43.2457ZM191.738 52.1417H182.714V50.7977H191.738V52.1417ZM184.362 51.2297H182.714V48.3177H184.362V51.2297ZM198.341 40.0617C199.013 40.0617 199.616 40.2004 200.149 40.4777C200.682 40.755 201.104 41.139 201.413 41.6297C201.722 42.1097 201.877 42.659 201.877 43.2777C201.877 43.8857 201.722 44.435 201.413 44.9257C201.104 45.4164 200.682 45.8004 200.149 46.0777C199.616 46.3444 199.013 46.4777 198.341 46.4777C197.68 46.4777 197.077 46.3444 196.533 46.0777C196 45.8004 195.578 45.4164 195.269 44.9257C194.96 44.435 194.805 43.8857 194.805 43.2777C194.805 42.659 194.96 42.1097 195.269 41.6297C195.578 41.139 196 40.755 196.533 40.4777C197.077 40.2004 197.68 40.0617 198.341 40.0617ZM198.341 41.5017C197.978 41.5017 197.653 41.5764 197.365 41.7257C197.077 41.8644 196.848 42.067 196.677 42.3337C196.506 42.6004 196.421 42.915 196.421 43.2777C196.421 43.6297 196.506 43.939 196.677 44.2057C196.848 44.4724 197.077 44.6804 197.365 44.8297C197.653 44.9684 197.978 45.0377 198.341 45.0377C198.704 45.0377 199.029 44.9684 199.317 44.8297C199.616 44.6804 199.85 44.4724 200.021 44.2057C200.192 43.939 200.277 43.6297 200.277 43.2777C200.277 42.915 200.192 42.6004 200.021 42.3337C199.85 42.067 199.616 41.8644 199.317 41.7257C199.029 41.5764 198.704 41.5017 198.341 41.5017ZM204.885 52.4137H203.253V39.1497H204.885V52.4137ZM194.245 48.2857C195.802 48.2857 197.258 48.259 198.613 48.2057C199.978 48.1524 201.269 48.035 202.485 47.8537L202.629 49.0857C201.37 49.331 200.085 49.491 198.773 49.5657C197.461 49.6297 196.016 49.6617 194.437 49.6617L194.245 48.2857ZM211.36 42.2857C211.36 43.3524 211.221 44.371 210.944 45.3417C210.677 46.3124 210.272 47.1764 209.728 47.9337C209.194 48.6804 208.549 49.251 207.792 49.6457L206.816 48.2697C207.488 47.9497 208.064 47.475 208.544 46.8457C209.034 46.2164 209.402 45.507 209.648 44.7177C209.904 43.9284 210.032 43.1177 210.032 42.2857V40.2057H211.36V42.2857ZM211.664 42.2857C211.664 43.0857 211.781 43.8644 212.016 44.6217C212.261 45.379 212.618 46.0617 213.088 46.6697C213.557 47.267 214.112 47.7257 214.752 48.0457L213.76 49.3897C213.034 49.0164 212.416 48.467 211.904 47.7417C211.392 47.0057 211.002 46.1737 210.736 45.2457C210.48 44.307 210.352 43.3204 210.352 42.2857V40.2057H211.664V42.2857ZM217.12 52.3977H215.472V39.1497H217.12V52.3977ZM219.056 45.7577H216.752V44.3177H219.056V45.7577ZM230.042 47.5977H228.41V39.1497H230.042V47.5977ZM231.818 44.0137H229.594V42.6217H231.818V44.0137ZM225.898 47.7097C227.221 47.7097 228.266 47.9177 229.034 48.3337C229.802 48.7497 230.186 49.3257 230.186 50.0617C230.186 50.5417 230.01 50.9577 229.658 51.3097C229.317 51.651 228.821 51.9124 228.17 52.0937C227.53 52.2857 226.773 52.3817 225.898 52.3817C225.013 52.3817 224.245 52.2857 223.594 52.0937C222.954 51.9124 222.458 51.651 222.106 51.3097C221.754 50.9577 221.578 50.5417 221.578 50.0617C221.578 49.3257 221.962 48.7497 222.73 48.3337C223.509 47.9177 224.565 47.7097 225.898 47.7097ZM225.898 49.0057C225.024 49.0057 224.357 49.091 223.898 49.2617C223.44 49.4324 223.21 49.699 223.21 50.0617C223.21 50.403 223.44 50.6697 223.898 50.8617C224.357 51.043 225.024 51.1337 225.898 51.1337C226.752 51.1337 227.402 51.043 227.85 50.8617C228.309 50.6697 228.538 50.403 228.538 50.0617C228.538 49.7097 228.314 49.4484 227.866 49.2777C227.418 49.0964 226.762 49.0057 225.898 49.0057ZM227.53 41.7897H219.914V40.4937H227.53V41.7897ZM223.738 42.3017C224.346 42.3017 224.885 42.403 225.354 42.6057C225.834 42.7977 226.208 43.075 226.474 43.4377C226.741 43.7897 226.874 44.2057 226.874 44.6857C226.874 45.1444 226.741 45.555 226.474 45.9177C226.208 46.2697 225.834 46.5417 225.354 46.7337C224.885 46.9257 224.341 47.0217 223.722 47.0217C223.104 47.0217 222.554 46.9257 222.074 46.7337C221.594 46.5417 221.221 46.2697 220.954 45.9177C220.698 45.555 220.57 45.139 220.57 44.6697C220.57 44.2004 220.704 43.7897 220.97 43.4377C221.237 43.075 221.61 42.7977 222.09 42.6057C222.57 42.403 223.12 42.3017 223.738 42.3017ZM223.722 43.5337C223.253 43.5337 222.874 43.635 222.586 43.8377C222.309 44.0404 222.17 44.3177 222.17 44.6697C222.17 45.0217 222.309 45.299 222.586 45.5017C222.874 45.6937 223.253 45.7897 223.722 45.7897C224.202 45.7897 224.586 45.6937 224.874 45.5017C225.162 45.299 225.306 45.0217 225.306 44.6697C225.306 44.3177 225.162 44.0404 224.874 43.8377C224.586 43.635 224.202 43.5337 223.722 43.5337ZM224.554 41.1817H222.906V39.0697H224.554V41.1817ZM244.453 47.3097H232.757V45.9657H244.453V47.3097ZM243.141 52.1417H234.197V50.7977H243.141V52.1417ZM235.845 51.2137H234.197V48.3017H235.845V51.2137ZM238.613 39.5657C239.541 39.5657 240.352 39.6724 241.045 39.8857C241.739 40.099 242.272 40.4084 242.645 40.8137C243.029 41.219 243.221 41.699 243.221 42.2537C243.221 42.8084 243.029 43.2937 242.645 43.7097C242.272 44.115 241.739 44.4297 241.045 44.6537C240.352 44.867 239.541 44.9737 238.613 44.9737C237.675 44.9737 236.859 44.867 236.165 44.6537C235.472 44.4297 234.933 44.115 234.549 43.7097C234.165 43.2937 233.973 42.8084 233.973 42.2537C233.973 41.699 234.165 41.219 234.549 40.8137C234.933 40.4084 235.472 40.099 236.165 39.8857C236.859 39.6724 237.675 39.5657 238.613 39.5657ZM238.613 40.8937C237.995 40.8937 237.461 40.947 237.013 41.0537C236.576 41.1604 236.24 41.315 236.005 41.5177C235.771 41.7204 235.653 41.9657 235.653 42.2537C235.653 42.691 235.915 43.027 236.437 43.2617C236.96 43.4964 237.685 43.6137 238.613 43.6137C239.541 43.6137 240.261 43.4964 240.773 43.2617C241.285 43.027 241.541 42.691 241.541 42.2537C241.541 41.9657 241.424 41.7204 241.189 41.5177C240.965 41.315 240.629 41.1604 240.181 41.0537C239.744 40.947 239.221 40.8937 238.613 40.8937ZM55.9992 80.2137C55.9992 79.8937 55.8712 79.6324 55.6152 79.4297C55.3592 79.2164 54.8632 79.0297 54.1272 78.8697C53.1352 78.667 52.3779 78.3684 51.8552 77.9737C51.3326 77.579 51.0712 77.0457 51.0712 76.3737C51.0712 75.915 51.2046 75.4937 51.4712 75.1097C51.7379 74.7257 52.1166 74.4217 52.6072 74.1977C53.0979 73.963 53.6632 73.8457 54.3032 73.8457C54.9859 73.8457 55.5779 73.963 56.0792 74.1977C56.5912 74.4324 56.9806 74.7524 57.2472 75.1577C57.5246 75.563 57.6632 76.0164 57.6632 76.5177H55.9192C55.9192 76.283 55.8552 76.0644 55.7272 75.8617C55.5992 75.659 55.4126 75.4937 55.1672 75.3657C54.9219 75.227 54.6339 75.1577 54.3032 75.1577C53.9726 75.1577 53.6899 75.211 53.4552 75.3177C53.2312 75.4244 53.0606 75.5684 52.9432 75.7497C52.8366 75.9204 52.7832 76.107 52.7832 76.3097C52.7832 76.5124 52.8366 76.683 52.9432 76.8217C53.0499 76.9604 53.2312 77.0884 53.4872 77.2057C53.7539 77.3124 54.1272 77.419 54.6072 77.5257C55.6739 77.7497 56.4579 78.059 56.9592 78.4537C57.4712 78.8484 57.7272 79.403 57.7272 80.1177C57.7272 80.6084 57.5832 81.051 57.2952 81.4457C57.0179 81.8297 56.6232 82.1284 56.1112 82.3417C55.6099 82.555 55.0179 82.6617 54.3352 82.6617C53.5992 82.6617 52.9592 82.5284 52.4152 82.2617C51.8819 81.995 51.4766 81.6484 51.1992 81.2217C50.9219 80.7844 50.7832 80.3257 50.7832 79.8457H52.4952C52.5166 80.3577 52.7032 80.7364 53.0552 80.9817C53.4179 81.2164 53.8499 81.3337 54.3512 81.3337C54.6926 81.3337 54.9859 81.2857 55.2312 81.1897C55.4872 81.0937 55.6792 80.9604 55.8072 80.7897C55.9352 80.619 55.9992 80.427 55.9992 80.2137ZM64.6861 80.2137C64.6861 79.8937 64.5581 79.6324 64.3021 79.4297C64.0461 79.2164 63.5501 79.0297 62.8141 78.8697C61.8221 78.667 61.0648 78.3684 60.5421 77.9737C60.0195 77.579 59.7581 77.0457 59.7581 76.3737C59.7581 75.915 59.8915 75.4937 60.1581 75.1097C60.4248 74.7257 60.8035 74.4217 61.2941 74.1977C61.7848 73.963 62.3501 73.8457 62.9901 73.8457C63.6728 73.8457 64.2648 73.963 64.7661 74.1977C65.2781 74.4324 65.6675 74.7524 65.9341 75.1577C66.2115 75.563 66.3501 76.0164 66.3501 76.5177H64.6061C64.6061 76.283 64.5421 76.0644 64.4141 75.8617C64.2861 75.659 64.0995 75.4937 63.8541 75.3657C63.6088 75.227 63.3208 75.1577 62.9901 75.1577C62.6595 75.1577 62.3768 75.211 62.1421 75.3177C61.9181 75.4244 61.7475 75.5684 61.6301 75.7497C61.5235 75.9204 61.4701 76.107 61.4701 76.3097C61.4701 76.5124 61.5235 76.683 61.6301 76.8217C61.7368 76.9604 61.9181 77.0884 62.1741 77.2057C62.4408 77.3124 62.8141 77.419 63.2941 77.5257C64.3608 77.7497 65.1448 78.059 65.6461 78.4537C66.1581 78.8484 66.4141 79.403 66.4141 80.1177C66.4141 80.6084 66.2701 81.051 65.9821 81.4457C65.7048 81.8297 65.3101 82.1284 64.7981 82.3417C64.2968 82.555 63.7048 82.6617 63.0221 82.6617C62.2861 82.6617 61.6461 82.5284 61.1021 82.2617C60.5688 81.995 60.1635 81.6484 59.8861 81.2217C59.6088 80.7844 59.4701 80.3257 59.4701 79.8457H61.1821C61.2035 80.3577 61.3901 80.7364 61.7421 80.9817C62.1048 81.2164 62.5368 81.3337 63.0381 81.3337C63.3795 81.3337 63.6728 81.2857 63.9181 81.1897C64.1741 81.0937 64.3661 80.9604 64.4941 80.7897C64.6221 80.619 64.6861 80.427 64.6861 80.2137ZM75.421 82.5017H73.773L73.725 81.6537C73.4583 81.9737 73.1223 82.2244 72.717 82.4057C72.3117 82.5764 71.8423 82.6617 71.309 82.6617C70.4237 82.6617 69.7303 82.4057 69.229 81.8937C68.7383 81.371 68.493 80.5657 68.493 79.4777V74.0057H70.253V79.4937C70.253 80.1124 70.381 80.555 70.637 80.8217C70.9037 81.0884 71.2503 81.2217 71.677 81.2217C72.189 81.2217 72.6103 81.1257 72.941 80.9337C73.2717 80.7417 73.517 80.475 73.677 80.1337V74.0057H75.421V82.5017ZM84.7172 82.5017H83.0692L83.0212 81.6537C82.7546 81.9737 82.4186 82.2244 82.0132 82.4057C81.6079 82.5764 81.1386 82.6617 80.6052 82.6617C79.7199 82.6617 79.0266 82.4057 78.5252 81.8937C78.0346 81.371 77.7892 80.5657 77.7892 79.4777V74.0057H79.5492V79.4937C79.5492 80.1124 79.6772 80.555 79.9332 80.8217C80.1999 81.0884 80.5466 81.2217 80.9732 81.2217C81.4852 81.2217 81.9066 81.1257 82.2372 80.9337C82.5679 80.7417 82.8132 80.475 82.9732 80.1337V74.0057H84.7172V82.5017ZM94.0135 82.5017H92.3655L92.3175 81.6537C92.0508 81.9737 91.7148 82.2244 91.3095 82.4057C90.9042 82.5764 90.4348 82.6617 89.9015 82.6617C89.0162 82.6617 88.3228 82.4057 87.8215 81.8937C87.3308 81.371 87.0855 80.5657 87.0855 79.4777V74.0057H88.8455V79.4937C88.8455 80.1124 88.9735 80.555 89.2295 80.8217C89.4962 81.0884 89.8428 81.2217 90.2695 81.2217C90.7815 81.2217 91.2028 81.1257 91.5335 80.9337C91.8642 80.7417 92.1095 80.475 92.2695 80.1337V74.0057H94.0135V82.5017ZM96.2858 81.2857L100.03 77.1897C100.659 76.4857 101.091 75.9204 101.326 75.4937C101.571 75.0564 101.694 74.6297 101.694 74.2137C101.694 73.6484 101.534 73.1897 101.214 72.8377C100.894 72.4857 100.451 72.3097 99.8858 72.3097C99.4378 72.3097 99.0591 72.4004 98.7498 72.5817C98.4404 72.763 98.2058 73.0244 98.0458 73.3657C97.8964 73.6964 97.8218 74.075 97.8218 74.5017H96.0618C96.0618 73.8297 96.2111 73.2217 96.5098 72.6777C96.8191 72.1337 97.2618 71.7017 97.8378 71.3817C98.4138 71.0617 99.1018 70.9017 99.9018 70.9017C101.011 70.9017 101.875 71.1844 102.494 71.7497C103.123 72.3044 103.438 73.0617 103.438 74.0217C103.438 74.6724 103.24 75.3337 102.846 76.0057C102.451 76.667 101.891 77.387 101.166 78.1657L98.4618 81.1097H103.918V82.5017H96.2858V81.2857ZM113.256 77.6697C113.256 79.419 112.936 80.6884 112.296 81.4777C111.656 82.267 110.749 82.6617 109.576 82.6617C108.402 82.6617 107.485 82.267 106.824 81.4777C106.173 80.6777 105.848 79.4084 105.848 77.6697V75.8457C105.848 74.0964 106.168 72.8377 106.808 72.0697C107.458 71.291 108.376 70.9017 109.56 70.9017C110.744 70.9017 111.656 71.291 112.296 72.0697C112.936 72.8377 113.256 74.0964 113.256 75.8457V77.6697ZM111.512 75.5737C111.512 74.411 111.346 73.579 111.016 73.0777C110.696 72.5657 110.21 72.3097 109.56 72.3097C108.909 72.3097 108.418 72.5657 108.088 73.0777C107.757 73.579 107.592 74.411 107.592 75.5737V77.9257C107.592 79.0777 107.757 79.9257 108.088 80.4697C108.429 81.003 108.925 81.2697 109.576 81.2697C110.216 81.2697 110.696 81.003 111.016 80.4697C111.346 79.9364 111.512 79.0884 111.512 77.9257V75.5737ZM129.522 76.5977C129.49 77.3444 129.346 78.0484 129.09 78.7097C128.834 79.3604 128.444 79.899 127.922 80.3257C127.399 80.7417 126.743 80.9497 125.954 80.9497C125.484 80.9497 125.074 80.8537 124.722 80.6617C124.38 80.459 124.119 80.1657 123.938 79.7817C123.65 80.1764 123.319 80.4697 122.946 80.6617C122.572 80.8537 122.188 80.9497 121.794 80.9497C121.239 80.9497 120.77 80.8004 120.386 80.5017C120.002 80.203 119.724 79.7817 119.554 79.2377C119.383 78.683 119.335 78.043 119.41 77.3177C119.495 76.4004 119.714 75.595 120.066 74.9017C120.428 74.2084 120.882 73.675 121.426 73.3017C121.97 72.9177 122.546 72.7257 123.154 72.7257C123.559 72.7257 123.906 72.763 124.194 72.8377C124.492 72.9124 124.743 73.0084 124.946 73.1257C125.148 73.243 125.41 73.4084 125.73 73.6217L125.298 78.1337C125.234 78.699 125.287 79.0884 125.458 79.3017C125.628 79.5044 125.863 79.6057 126.162 79.6057C126.738 79.6057 127.186 79.3337 127.506 78.7897C127.836 78.235 128.028 77.5097 128.082 76.6137C128.146 75.5044 128.002 74.507 127.65 73.6217C127.308 72.7257 126.743 72.0164 125.954 71.4937C125.175 70.971 124.194 70.7097 123.01 70.7097C121.9 70.7097 120.93 70.971 120.098 71.4937C119.276 72.0057 118.631 72.731 118.162 73.6697C117.703 74.5977 117.442 75.6644 117.378 76.8697C117.314 78.0004 117.516 79.0297 117.986 79.9577C118.466 80.8857 119.106 81.6164 119.906 82.1497C120.716 82.683 121.564 82.9497 122.45 82.9497C122.962 82.9497 123.474 82.891 123.986 82.7737C124.498 82.6564 124.919 82.507 125.25 82.3257L125.65 83.5897C125.255 83.835 124.759 84.0217 124.162 84.1497C123.575 84.2884 122.994 84.3577 122.418 84.3577C121.244 84.3577 120.135 84.0324 119.09 83.3817C118.055 82.731 117.234 81.835 116.626 80.6937C116.018 79.5524 115.746 78.2777 115.81 76.8697C115.874 75.4404 116.21 74.1497 116.818 72.9977C117.436 71.8457 118.279 70.939 119.346 70.2777C120.423 69.6164 121.655 69.2857 123.042 69.2857C124.428 69.2857 125.618 69.6164 126.61 70.2777C127.612 70.9284 128.364 71.8137 128.866 72.9337C129.367 74.043 129.586 75.2644 129.522 76.5977ZM121.122 77.3337C121.047 78.0377 121.1 78.5604 121.282 78.9017C121.474 79.243 121.788 79.4137 122.226 79.4137C122.492 79.4137 122.759 79.307 123.026 79.0937C123.292 78.8804 123.516 78.539 123.698 78.0697L124.082 74.2937C123.836 74.1977 123.58 74.1497 123.314 74.1497C122.908 74.1497 122.556 74.267 122.258 74.5017C121.959 74.7364 121.708 75.0937 121.506 75.5737C121.314 76.043 121.186 76.6297 121.122 77.3337ZM132.194 71.7497C132.194 71.4724 132.284 71.2484 132.466 71.0777C132.647 70.8964 132.892 70.8057 133.202 70.8057C133.511 70.8057 133.756 70.8964 133.938 71.0777C134.119 71.2484 134.21 71.4724 134.21 71.7497C134.21 72.027 134.119 72.2564 133.938 72.4377C133.756 72.6084 133.511 72.6937 133.202 72.6937C132.892 72.6937 132.647 72.6084 132.466 72.4377C132.284 72.2564 132.194 72.027 132.194 71.7497ZM132.306 74.0057H134.066V82.5017H132.306V74.0057ZM140.303 81.2697C140.794 81.2697 141.21 81.1257 141.551 80.8377C141.903 80.539 142.095 80.1657 142.127 79.7177H143.775C143.754 80.251 143.583 80.7417 143.263 81.1897C142.954 81.6377 142.538 81.995 142.015 82.2617C141.503 82.5284 140.943 82.6617 140.335 82.6617C139.493 82.6617 138.783 82.475 138.207 82.1017C137.642 81.7177 137.215 81.2057 136.927 80.5657C136.639 79.915 136.495 79.195 136.495 78.4057V78.1017C136.495 77.3017 136.639 76.5817 136.927 75.9417C137.215 75.3017 137.647 74.795 138.223 74.4217C138.799 74.0377 139.498 73.8457 140.319 73.8457C140.991 73.8457 141.583 73.979 142.095 74.2457C142.607 74.5124 143.007 74.8857 143.295 75.3657C143.594 75.8457 143.754 76.3897 143.775 76.9977H142.127C142.095 76.4964 141.914 76.0804 141.583 75.7497C141.263 75.4084 140.837 75.2377 140.303 75.2377C139.567 75.2377 139.039 75.5097 138.719 76.0537C138.399 76.5977 138.239 77.2804 138.239 78.1017V78.4057C138.239 79.227 138.394 79.9097 138.703 80.4537C139.023 80.9977 139.557 81.2697 140.303 81.2697ZM146.164 71.0617H147.924V82.5017H146.164V71.0617ZM150.105 78.1657C150.105 77.3444 150.26 76.6084 150.569 75.9577C150.889 75.2964 151.342 74.779 151.929 74.4057C152.526 74.0324 153.225 73.8457 154.025 73.8457C154.825 73.8457 155.518 74.0324 156.105 74.4057C156.702 74.779 157.161 75.2964 157.481 75.9577C157.801 76.6084 157.961 77.3444 157.961 78.1657V78.3417C157.961 79.1737 157.801 79.915 157.481 80.5657C157.161 81.2164 156.702 81.7284 156.105 82.1017C155.518 82.475 154.83 82.6617 154.041 82.6617C153.23 82.6617 152.526 82.475 151.929 82.1017C151.342 81.7284 150.889 81.2164 150.569 80.5657C150.26 79.915 150.105 79.1737 150.105 78.3417V78.1657ZM151.849 78.3417C151.849 78.8857 151.929 79.3817 152.089 79.8297C152.249 80.267 152.494 80.619 152.825 80.8857C153.156 81.1417 153.561 81.2697 154.041 81.2697C154.521 81.2697 154.921 81.1417 155.241 80.8857C155.572 80.619 155.817 80.267 155.977 79.8297C156.137 79.3817 156.217 78.8857 156.217 78.3417V78.1657C156.217 77.6324 156.137 77.147 155.977 76.7097C155.817 76.2617 155.572 75.9044 155.241 75.6377C154.91 75.371 154.505 75.2377 154.025 75.2377C153.545 75.2377 153.14 75.371 152.809 75.6377C152.489 75.9044 152.249 76.2617 152.089 76.7097C151.929 77.147 151.849 77.6324 151.849 78.1657V78.3417ZM166.899 82.5017H165.251L165.203 81.6537C164.936 81.9737 164.6 82.2244 164.195 82.4057C163.79 82.5764 163.32 82.6617 162.787 82.6617C161.902 82.6617 161.208 82.4057 160.707 81.8937C160.216 81.371 159.971 80.5657 159.971 79.4777V74.0057H161.731V79.4937C161.731 80.1124 161.859 80.555 162.115 80.8217C162.382 81.0884 162.728 81.2217 163.155 81.2217C163.667 81.2217 164.088 81.1257 164.419 80.9337C164.75 80.7417 164.995 80.475 165.155 80.1337V74.0057H166.899V82.5017ZM168.963 78.1817C168.963 77.3177 169.097 76.5604 169.363 75.9097C169.641 75.2484 170.03 74.7417 170.531 74.3897C171.043 74.027 171.635 73.8457 172.307 73.8457C172.787 73.8457 173.214 73.931 173.587 74.1017C173.961 74.2617 174.281 74.4964 174.547 74.8057V71.0617H176.307V82.5017H174.723L174.643 81.6057C174.355 81.947 174.019 82.2084 173.635 82.3897C173.251 82.571 172.803 82.6617 172.291 82.6617C171.63 82.6617 171.043 82.4804 170.531 82.1177C170.03 81.7444 169.641 81.227 169.363 80.5657C169.097 79.9044 168.963 79.163 168.963 78.3417V78.1817ZM170.707 78.3417C170.707 79.2057 170.873 79.9044 171.203 80.4377C171.534 80.9604 172.046 81.2217 172.739 81.2217C173.177 81.2217 173.539 81.1257 173.827 80.9337C174.126 80.731 174.366 80.4537 174.547 80.1017V76.3577C174.174 75.643 173.577 75.2857 172.755 75.2857C172.073 75.2857 171.561 75.5524 171.219 76.0857C170.878 76.619 170.707 77.3177 170.707 78.1817V78.3417ZM178.879 81.6217C178.879 81.3337 178.975 81.0937 179.167 80.9017C179.359 80.7097 179.61 80.6137 179.919 80.6137C180.25 80.6137 180.506 80.7097 180.687 80.9017C180.869 81.0937 180.959 81.3337 180.959 81.6217C180.959 81.899 180.869 82.1284 180.687 82.3097C180.506 82.491 180.25 82.5817 179.919 82.5817C179.61 82.5817 179.359 82.491 179.167 82.3097C178.975 82.1284 178.879 81.899 178.879 81.6217ZM186.878 81.2697C187.368 81.2697 187.784 81.1257 188.126 80.8377C188.478 80.539 188.67 80.1657 188.702 79.7177H190.35C190.328 80.251 190.158 80.7417 189.838 81.1897C189.528 81.6377 189.112 81.995 188.59 82.2617C188.078 82.5284 187.518 82.6617 186.91 82.6617C186.067 82.6617 185.358 82.475 184.782 82.1017C184.216 81.7177 183.79 81.2057 183.502 80.5657C183.214 79.915 183.07 79.195 183.07 78.4057V78.1017C183.07 77.3017 183.214 76.5817 183.502 75.9417C183.79 75.3017 184.222 74.795 184.798 74.4217C185.374 74.0377 186.072 73.8457 186.894 73.8457C187.566 73.8457 188.158 73.979 188.67 74.2457C189.182 74.5124 189.582 74.8857 189.87 75.3657C190.168 75.8457 190.328 76.3897 190.35 76.9977H188.702C188.67 76.4964 188.488 76.0804 188.158 75.7497C187.838 75.4084 187.411 75.2377 186.878 75.2377C186.142 75.2377 185.614 75.5097 185.294 76.0537C184.974 76.5977 184.814 77.2804 184.814 78.1017V78.4057C184.814 79.227 184.968 79.9097 185.278 80.4537C185.598 80.9977 186.131 81.2697 186.878 81.2697ZM192.258 78.1657C192.258 77.3444 192.413 76.6084 192.722 75.9577C193.042 75.2964 193.495 74.779 194.082 74.4057C194.679 74.0324 195.378 73.8457 196.178 73.8457C196.978 73.8457 197.671 74.0324 198.258 74.4057C198.855 74.779 199.314 75.2964 199.634 75.9577C199.954 76.6084 200.114 77.3444 200.114 78.1657V78.3417C200.114 79.1737 199.954 79.915 199.634 80.5657C199.314 81.2164 198.855 81.7284 198.258 82.1017C197.671 82.475 196.983 82.6617 196.194 82.6617C195.383 82.6617 194.679 82.475 194.082 82.1017C193.495 81.7284 193.042 81.2164 192.722 80.5657C192.413 79.915 192.258 79.1737 192.258 78.3417V78.1657ZM194.002 78.3417C194.002 78.8857 194.082 79.3817 194.242 79.8297C194.402 80.267 194.647 80.619 194.978 80.8857C195.309 81.1417 195.714 81.2697 196.194 81.2697C196.674 81.2697 197.074 81.1417 197.394 80.8857C197.725 80.619 197.97 80.267 198.13 79.8297C198.29 79.3817 198.37 78.8857 198.37 78.3417V78.1657C198.37 77.6324 198.29 77.147 198.13 76.7097C197.97 76.2617 197.725 75.9044 197.394 75.6377C197.063 75.371 196.658 75.2377 196.178 75.2377C195.698 75.2377 195.293 75.371 194.962 75.6377C194.642 75.9044 194.402 76.2617 194.242 76.7097C194.082 77.147 194.002 77.6324 194.002 78.1657V78.3417ZM202.172 74.0057H203.804L203.868 74.9177C204.167 74.5764 204.524 74.315 204.94 74.1337C205.356 73.9417 205.826 73.8457 206.348 73.8457C207.511 73.8457 208.306 74.2884 208.732 75.1737C209.01 74.7577 209.372 74.4324 209.82 74.1977C210.279 73.963 210.796 73.8457 211.372 73.8457C212.29 73.8457 212.988 74.0964 213.468 74.5977C213.948 75.099 214.188 75.8937 214.188 76.9817V82.5017H212.428V76.9657C212.428 76.411 212.284 75.995 211.996 75.7177C211.708 75.4297 211.308 75.2857 210.796 75.2857C210.466 75.2857 210.167 75.3497 209.9 75.4777C209.634 75.6057 209.426 75.7924 209.276 76.0377C209.127 76.2724 209.052 76.5444 209.052 76.8537V82.5017H207.308V76.9177C207.308 76.3844 207.159 75.979 206.86 75.7017C206.572 75.4244 206.172 75.2857 205.66 75.2857C205.351 75.2857 205.063 75.3497 204.796 75.4777C204.53 75.595 204.316 75.7764 204.156 76.0217C203.996 76.2564 203.916 76.5337 203.916 76.8537V82.5017H202.172V74.0057ZM64.1626 101.886C65.0586 101.886 65.8692 102.04 66.5946 102.35C67.3306 102.659 67.9066 103.102 68.3226 103.678C68.7492 104.243 68.9626 104.894 68.9626 105.63C68.9626 106.376 68.7492 107.038 68.3226 107.614C67.9066 108.179 67.3306 108.622 66.5946 108.942C65.8692 109.262 65.0586 109.422 64.1626 109.422C63.2666 109.422 62.4559 109.262 61.7306 108.942C61.0052 108.622 60.4292 108.179 60.0026 107.614C59.5866 107.038 59.3786 106.376 59.3786 105.63C59.3786 104.894 59.5866 104.243 60.0026 103.678C60.4292 103.102 61.0052 102.659 61.7306 102.35C62.4559 102.04 63.2666 101.886 64.1626 101.886ZM64.1626 103.23C63.5439 103.23 62.9946 103.331 62.5146 103.534C62.0346 103.726 61.6559 104.008 61.3786 104.382C61.1012 104.744 60.9626 105.16 60.9626 105.63C60.9626 106.12 61.1012 106.547 61.3786 106.91C61.6559 107.272 62.0346 107.55 62.5146 107.742C62.9946 107.934 63.5439 108.03 64.1626 108.03C64.7812 108.03 65.3306 107.934 65.8106 107.742C66.3012 107.55 66.6799 107.272 66.9466 106.91C67.2239 106.547 67.3626 106.12 67.3626 105.63C67.3626 105.16 67.2239 104.744 66.9466 104.382C66.6799 104.008 66.3012 103.726 65.8106 103.534C65.3306 103.331 64.7812 103.23 64.1626 103.23ZM70.0346 112.734H58.3066V111.358H70.0346V112.734ZM82.8933 112.878H71.1653V111.502H82.8933V112.878ZM77.8213 112.062H76.1893V108.91H77.8213V112.062ZM81.5333 106.318H74.1893V108.686H72.5413V105.006H79.8853V103.406H72.5253V102.046H81.5333V106.318ZM81.8213 109.358H72.5413V107.998H81.8213V109.358ZM97.4073 104.43H93.5833V103.086H97.4073V104.43ZM97.4073 107.614H93.5833V106.27H97.4073V107.614ZM98.4633 110.862H96.8153V101.166H98.4633V110.862ZM98.7833 114.142H90.0313V112.798H98.7833V114.142ZM91.6473 113.454H90.0313V109.902H91.6473V113.454ZM91.2633 101.95C91.8926 101.95 92.4633 102.099 92.9753 102.398C93.4873 102.696 93.8873 103.107 94.1753 103.63C94.474 104.142 94.6233 104.723 94.6233 105.374C94.6233 106.003 94.474 106.579 94.1753 107.102C93.8873 107.614 93.4873 108.019 92.9753 108.318C92.4633 108.606 91.8926 108.75 91.2633 108.75C90.6233 108.75 90.042 108.606 89.5193 108.318C89.0073 108.019 88.602 107.614 88.3033 107.102C88.0153 106.579 87.8713 105.998 87.8713 105.358C87.8713 104.718 88.0153 104.142 88.3033 103.63C88.602 103.107 89.0073 102.696 89.5193 102.398C90.042 102.099 90.6233 101.95 91.2633 101.95ZM91.2633 103.454C90.9113 103.454 90.5966 103.534 90.3193 103.694C90.042 103.843 89.8233 104.062 89.6633 104.35C89.5033 104.638 89.4233 104.979 89.4233 105.374C89.4233 105.747 89.5033 106.078 89.6633 106.366C89.8233 106.654 90.042 106.878 90.3193 107.038C90.5966 107.187 90.9113 107.262 91.2633 107.262C91.6046 107.262 91.914 107.187 92.1913 107.038C92.4686 106.878 92.6873 106.654 92.8473 106.366C93.0073 106.078 93.0873 105.747 93.0873 105.374C93.0873 104.979 93.0073 104.638 92.8473 104.35C92.6873 104.062 92.4686 103.843 92.1913 103.694C91.914 103.534 91.6046 103.454 91.2633 103.454ZM102.122 107.294C103.455 107.294 104.554 107.272 105.418 107.23C106.293 107.176 107.173 107.07 108.058 106.91L108.218 108.238C107.311 108.408 106.405 108.526 105.498 108.59C104.602 108.643 103.477 108.67 102.122 108.67H101.05V107.294H102.122ZM106.922 105.854H102.698V107.95H101.05V104.574H105.306V103.246H101.034V101.918H106.922V105.854ZM110.698 109.198H109.066V101.166H110.698V109.198ZM112.49 105.758H110.234V104.398H112.49V105.758ZM110.698 114.382H109.066V111.182H102.154V109.838H110.698V114.382ZM119.749 103.022C119.749 103.8 119.535 104.51 119.109 105.15C118.682 105.79 118.085 106.328 117.317 106.766C116.549 107.203 115.658 107.502 114.645 107.662L114.037 106.35C114.89 106.232 115.642 106.003 116.293 105.662C116.943 105.32 117.445 104.92 117.797 104.462C118.149 104.003 118.325 103.523 118.325 103.022V102.59H119.749V103.022ZM120.213 103.022C120.213 103.523 120.389 104.003 120.741 104.462C121.093 104.92 121.594 105.32 122.245 105.662C122.895 106.003 123.653 106.232 124.517 106.35L123.925 107.662C122.901 107.502 121.999 107.203 121.221 106.766C120.453 106.328 119.855 105.79 119.429 105.15C119.002 104.51 118.789 103.8 118.789 103.022V102.59H120.213V103.022ZM120.053 114.382H118.421V109.486H120.053V114.382ZM125.109 109.87H113.413V108.526H125.109V109.87ZM124.037 103.198H114.485V101.902H124.037V103.198ZM130.848 104.286C130.848 105.395 130.704 106.446 130.416 107.438C130.138 108.43 129.717 109.304 129.152 110.062C128.586 110.808 127.909 111.374 127.12 111.758L126.144 110.35C126.848 110.04 127.45 109.571 127.952 108.942C128.453 108.312 128.837 107.598 129.104 106.798C129.37 105.987 129.504 105.15 129.504 104.286V102.206H130.848V104.286ZM131.152 104.286C131.152 105.096 131.28 105.891 131.536 106.67C131.802 107.438 132.181 108.126 132.672 108.734C133.173 109.331 133.76 109.784 134.432 110.094L133.472 111.438C132.704 111.064 132.042 110.52 131.488 109.806C130.944 109.08 130.528 108.248 130.24 107.31C129.962 106.36 129.824 105.352 129.824 104.286V102.206H131.152V104.286ZM136.96 114.414H135.296V101.15H136.96V114.414ZM149.834 107.838H148.186V101.15H149.834V107.838ZM145.946 101.678C145.946 102.862 145.722 103.88 145.274 104.734C144.826 105.587 144.154 106.291 143.258 106.846C142.362 107.4 141.242 107.816 139.898 108.094L139.338 106.75C140.992 106.419 142.208 105.902 142.986 105.198C143.765 104.483 144.154 103.63 144.154 102.638V101.678H145.946ZM145.29 103.038H140.026V101.678H145.29V103.038ZM149.834 111.87H142.97V113.486H141.322V110.654H148.186V109.71H141.29V108.398H149.834V111.87ZM150.186 114.27H141.322V112.958H150.186V114.27ZM165.74 114.398H164.092V101.15H165.74V114.398ZM167.692 107.582H165.388V106.174H167.692V107.582ZM157.756 105.518H160.668V102.222H162.3V111.31H156.108V102.222H157.756V105.518ZM160.668 109.934V106.83H157.756V109.934H160.668ZM178.663 108.478H177.031V101.166H178.663V108.478ZM180.455 105.55H178.199V104.142H180.455V105.55ZM171.975 110.35H177.031V109.022H178.663V114.238H170.343V109.022H171.975V110.35ZM177.031 112.894V111.646H171.975V112.894H177.031ZM170.087 106.894C171.42 106.894 172.519 106.867 173.383 106.814C174.258 106.75 175.138 106.632 176.023 106.462L176.183 107.838C175.266 107.998 174.348 108.11 173.431 108.174C172.524 108.238 171.41 108.27 170.087 108.27H169.015V106.894H170.087ZM174.887 105.582H170.663V107.758H169.015V104.302H173.271V103.118H168.999V101.774H174.887V105.582ZM192.114 114.398H190.482V101.15H192.114V114.398ZM183.746 110.638H182.098V102.43H183.746V110.638ZM183.218 109.662C184.231 109.662 185.25 109.614 186.274 109.518C187.308 109.422 188.338 109.272 189.362 109.07L189.57 110.462C188.503 110.686 187.447 110.846 186.402 110.942C185.367 111.038 184.306 111.086 183.218 111.086H182.098V109.662H183.218ZM204.317 114.414H202.669V101.15H204.317V114.414ZM206.269 107.534H203.965V106.158H206.269V107.534ZM195.853 109.79C197.058 109.79 198.103 109.763 198.989 109.71C199.885 109.646 200.781 109.528 201.677 109.358L201.869 110.782C200.93 110.942 200.007 111.054 199.101 111.118C198.194 111.171 197.111 111.198 195.853 111.198H194.781V109.79H195.853ZM200.797 103.758H196.413V110.462H194.781V102.398H200.797V103.758ZM207.943 102.062H209.783L209.623 110.174H208.103L207.943 102.062ZM207.895 112.654C207.895 112.376 207.986 112.147 208.167 111.966C208.349 111.784 208.594 111.694 208.903 111.694C209.202 111.694 209.442 111.784 209.623 111.966C209.805 112.147 209.895 112.376 209.895 112.654C209.895 112.931 209.805 113.16 209.623 113.342C209.442 113.512 209.202 113.598 208.903 113.598C208.594 113.598 208.349 113.512 208.167 113.342C207.986 113.16 207.895 112.931 207.895 112.654Z" fill="black"/>
<defs>
<filter id="filter0_i_8_832" x="0" y="0.750122" width="269" height="136.25" filterUnits="userSpaceOnUse" color-interpolation-filters="sRGB">
<feFlood flood-opacity="0" result="BackgroundImageFix"/>
<feBlend mode="normal" in="SourceGraphic" in2="BackgroundImageFix" result="shape"/>
<feColorMatrix in="SourceAlpha" type="matrix" values="0 0 0 0 0 0 0 0 0 0 0 0 0 0 0 0 0 0 127 0" result="hardAlpha"/>
<feOffset/>
<feGaussianBlur stdDeviation="2"/>
<feComposite in2="hardAlpha" operator="arithmetic" k2="-1" k3="1"/>
<feColorMatrix type="matrix" values="0 0 0 0 0 0 0 0 0 0 0 0 0 0 0 0 0 0 0.25 0"/>
<feBlend mode="normal" in2="shape" result="effect1_innerShadow_8_832"/>
</filter>
</defs>
</svg>
