<svg xmlns="http://www.w3.org/2000/svg" width="1280" height="832" fill="none">
  <path fill="#fff" d="M0 0h1280v832H0z"/>
  <path fill="#CFB7F2" d="M988.183 334.121c7.436-1.993 14.237 4.811 12.247 12.247l-9.19 34.297c-1.992 7.436-11.287 9.927-16.73 4.483l-25.107-25.107c-5.443-5.443-2.953-14.738 4.483-16.73l34.297-9.19Z"/>
  <path fill="#FFDAA3" d="M1116.2 271.54c.63-7.671 9.34-11.777 15.66-7.39l29.18 20.237c6.32 4.387 5.53 13.977-1.44 17.261l-32.11 15.149c-6.96 3.284-14.87-2.2-14.23-9.872l2.94-35.385Z"/>
  <path fill="#87D1D0" d="M397.347 350.634c4.813 6.007 1.319 14.972-6.29 16.138l-35.098 5.375c-7.609 1.165-13.627-6.344-10.831-13.517l12.894-33.083c2.795-7.172 12.307-8.629 17.121-2.622l22.204 27.709Z"/>
  <path fill="#F3ACA6" d="M209.975 357.4c-1.05 6.069-8.275 8.725-13.005 4.782l-20.056-16.716c-4.731-3.943-3.419-11.529 2.361-13.654l24.505-9.011c5.78-2.125 11.693 2.804 10.643 8.872l-4.448 25.727Z"/>
  <path fill="#D9D9D9" d="M1024.09 237.892c4.06 2.21 4.2 7.981.26 10.389l-11.63 7.105c-3.94 2.408-9.01-.354-9.13-4.972l-.34-13.627c-.11-4.617 4.82-7.626 8.87-5.417l11.97 6.522Z"/>
  <path fill="#DDE89A" d="M1024.09 237.892c4.06 2.21 4.2 7.981.26 10.389l-11.63 7.105c-3.94 2.408-9.01-.354-9.13-4.972l-.34-13.627c-.11-4.617 4.82-7.626 8.87-5.417l11.97 6.522Z"/>
  <path fill="#FDB9A8" d="M273.093 231.892c4.056 2.21 4.199 7.981.257 10.389l-11.633 7.105c-3.941 2.408-9.011-.354-9.125-4.972l-.337-13.627c-.115-4.617 4.812-7.626 8.868-5.417l11.97 6.522Z"/>
  <path fill="#C2E0AE" d="M126.347 315.048c-.497 4.592-5.779 6.924-9.507 4.197l-11.003-8.046c-3.728-2.726-3.107-8.466 1.118-10.332l12.47-5.506c4.225-1.865 8.885 1.543 8.388 6.135l-1.466 13.552Z"/>
</svg>