<svg width="266" height="46" viewBox="0 0 266 46" fill="none" xmlns="http://www.w3.org/2000/svg">
<g opacity="0.12" clip-path="url(#clip0_8_730)">
<path d="M29.1775 44.3099C27.4872 44.3099 25.9073 43.3981 25.0345 41.9415L18.9251 31.6007C18.2732 30.4999 17.2016 29.8772 15.9753 29.8772C14.2629 29.8772 12.44 31.1115 12.44 33.3909V39.462C12.44 42.1306 10.2856 44.3099 7.62307 44.3099H5.46873C2.81724 44.3099 0.651855 42.1417 0.651855 39.462V6.59368C0.662903 3.91396 2.81724 1.74573 5.47978 1.74573H9.44597C11.1142 1.74573 12.6941 2.63526 13.5668 4.08075L19.6874 14.2548C20.3392 15.3334 21.4108 15.956 22.6261 15.956C24.3385 15.956 26.1614 14.7218 26.1614 12.4424V6.59368C26.1614 3.92508 28.3158 1.74573 30.9783 1.74573H32.8675C35.6737 1.74573 37.9495 4.03628 37.9495 6.86055V39.462C37.9495 42.1306 35.7952 44.3099 33.1326 44.3099H29.1885H29.1775Z" fill="black"/>
<path d="M32.8564 2.41291C35.298 2.41291 37.2756 4.40324 37.2756 6.86058V39.462C37.2756 41.7636 35.4195 43.6428 33.1216 43.6428H29.1775C27.7081 43.6428 26.3603 42.8644 25.609 41.5969L19.4995 31.256C18.6599 29.8439 17.312 29.2101 15.9752 29.2101C13.8651 29.2101 11.777 30.8001 11.777 33.3909V39.462C11.777 41.7636 9.921 43.6428 7.62304 43.6428H5.4687C3.18179 43.6428 1.3147 41.7748 1.3147 39.462V6.59372C1.3147 4.29205 3.17074 2.41291 5.4687 2.41291H9.4349C10.8822 2.41291 12.23 3.18014 12.9813 4.42548L19.1018 14.5995C19.9414 15.9894 21.2782 16.6232 22.604 16.6232C24.7141 16.6232 26.8022 15.0332 26.8022 12.4424V6.59372C26.8022 4.29205 28.6582 2.41291 30.9562 2.41291H32.8454M32.8454 1.07861H30.9562C27.9401 1.07861 25.4764 3.54707 25.4764 6.59372V12.4424C25.4764 14.2993 23.996 15.2889 22.604 15.2889C22.0295 15.2889 20.9578 15.111 20.2397 13.9101L14.1302 3.73609C13.147 2.10158 11.3462 1.07861 9.44594 1.07861H5.47975C2.45263 1.07861 0 3.54707 0 6.59372V39.4731C0 42.5086 2.45263 44.9882 5.47975 44.9882H7.63409C10.6502 44.9882 13.1138 42.5197 13.1138 39.4731V33.402C13.1138 32.3457 13.5889 31.6897 13.9866 31.3228C14.5169 30.8335 15.2461 30.5555 15.9863 30.5555C16.5718 30.5555 17.6435 30.7334 18.3726 31.9565L24.4821 42.2974C25.4654 43.9541 27.2662 44.9882 29.1885 44.9882H33.1326C36.1487 44.9882 38.6124 42.5197 38.6124 39.4731V6.86058C38.6124 3.66938 36.0382 1.07861 32.8675 1.07861H32.8454Z" fill="black"/>
<path d="M84.9471 44.3099C82.141 44.3099 79.8651 42.0194 79.8651 39.1951V6.86055C79.8651 4.03628 82.141 1.74573 84.9471 1.74573H86.5601C89.3663 1.74573 91.6422 4.03628 91.6422 6.86055V30.2998C91.6422 32.3902 93.3325 34.0803 95.3984 34.0803H105.717C108.523 34.0803 110.799 36.3708 110.799 39.1951C110.799 42.0194 108.523 44.3099 105.717 44.3099H84.9361H84.9471Z" fill="black"/>
<path d="M86.5712 2.41291C89.0128 2.41291 90.9904 4.40324 90.9904 6.86058V30.2887C90.9904 32.746 92.9679 34.7363 95.4095 34.7363H105.728C108.17 34.7363 110.147 36.7267 110.147 39.184C110.147 41.6413 108.17 43.6317 105.728 43.6317H84.9472C82.5056 43.6317 80.528 41.6413 80.528 39.184V6.86058C80.528 4.40324 82.5056 2.41291 84.9472 2.41291H86.5602M86.5602 1.07861H84.9472C81.7764 1.07861 79.2023 3.66938 79.2023 6.86058V39.1951C79.2023 42.3863 81.7764 44.9771 84.9472 44.9771H105.728C108.899 44.9771 111.473 42.3863 111.473 39.1951C111.473 36.0039 108.899 33.4132 105.728 33.4132H95.4095C93.7081 33.4132 92.3161 32.0121 92.3161 30.2998V6.86058C92.3161 3.66938 89.742 1.07861 86.5712 1.07861H86.5602Z" fill="black"/>
<path d="M181.174 44.2988C178.434 44.2988 176.203 42.0082 176.203 39.1951V34.3694C176.203 31.9009 174.291 30.5777 172.502 30.5777C171.22 30.5777 170.093 31.256 169.408 32.4346L164.006 41.797C163.111 43.3425 161.476 44.2988 159.73 44.2988H156.294C153.555 44.2988 151.323 42.0082 151.323 39.1951V6.86053C151.323 4.04738 153.555 1.75684 156.294 1.75684H157.874C160.614 1.75684 162.846 4.04738 162.846 6.86053V11.475C162.846 13.8545 164.735 15.2666 166.547 15.2666C167.817 15.2666 168.944 14.5995 169.618 13.4431L175.032 4.22529C175.927 2.70197 177.551 1.75684 179.285 1.75684H182.754C185.494 1.75684 187.726 4.04738 187.726 6.86053V39.1951C187.726 42.0082 185.494 44.2988 182.754 44.2988H181.174Z" fill="black"/>
<path d="M182.754 2.4129C185.14 2.4129 187.063 4.40323 187.063 6.86057V39.1951C187.063 41.6525 185.129 43.6428 182.754 43.6428H181.174C178.788 43.6428 176.866 41.6525 176.866 39.1951V34.3694C176.866 31.6007 174.7 29.9106 172.502 29.9106C171.11 29.9106 169.718 30.5889 168.845 32.09L163.442 41.4523C162.669 42.7977 161.255 43.6317 159.741 43.6317H156.306C153.919 43.6317 151.997 41.6413 151.997 39.184V6.86057C151.997 4.40323 153.93 2.4129 156.306 2.4129H157.885C160.272 2.4129 162.194 4.40323 162.194 6.86057V11.475C162.194 14.2437 164.359 15.9338 166.558 15.9338C167.939 15.9338 169.32 15.2667 170.193 13.7878L175.606 4.57002C176.391 3.23572 177.783 2.42402 179.296 2.42402H182.765M182.765 1.10084H179.296C177.341 1.10084 175.496 2.16828 174.479 3.89175L169.066 13.1095C168.292 14.4216 167.166 14.6106 166.558 14.6106C165.078 14.6106 163.509 13.5098 163.509 11.475V6.86057C163.509 3.68049 160.99 1.08972 157.885 1.08972H156.306C153.201 1.08972 150.682 3.68049 150.682 6.86057V39.1951C150.682 42.3752 153.201 44.966 156.306 44.966H159.741C161.719 44.966 163.575 43.8763 164.58 42.1306L169.983 32.7682C170.745 31.4451 171.894 31.2449 172.502 31.2449C173.982 31.2449 175.551 32.3457 175.551 34.3805V39.2062C175.551 42.3863 178.07 44.9771 181.174 44.9771H182.754C185.859 44.9771 188.378 42.3863 188.378 39.2062V6.86057C188.378 3.68049 185.859 1.08972 182.754 1.08972L182.765 1.10084Z" fill="black"/>
<path d="M212.064 45.3439C209.015 45.3439 206.054 44.788 203.27 43.6983C200.541 42.5975 198.155 41.0519 196.177 39.1061C194.144 37.1491 192.598 34.8252 191.449 32.0009C190.278 29.3101 189.703 26.3635 189.703 23.0055C189.703 19.6475 190.278 16.7565 191.449 13.999C192.598 11.2303 194.144 8.90642 196.166 6.90497C198.144 4.95911 200.519 3.41355 203.248 2.31275C206.043 1.21195 209.004 0.667114 212.053 0.667114C216.229 0.667114 219.919 1.56777 223.024 3.33571C225.167 4.6033 227.189 6.30453 229.023 8.38382C229.774 9.23999 230.15 10.3408 230.072 11.4861C229.995 12.6202 229.487 13.6543 228.647 14.3882L227.288 15.5668C226.537 16.2228 225.576 16.5786 224.592 16.5786C223.388 16.5786 222.25 16.0449 221.466 15.1109C220.704 14.188 219.842 13.3874 218.925 12.7092C217.168 11.4527 214.937 10.8189 212.296 10.8189C210.716 10.8189 209.214 11.1303 207.833 11.7418C206.474 12.3756 205.358 13.1984 204.43 14.2659C203.425 15.4111 202.685 16.6787 202.165 18.1353C201.624 19.5808 201.359 21.2042 201.359 22.9833C201.359 24.7624 201.624 26.3635 202.165 27.7645C202.629 29.2211 203.369 30.4998 204.375 31.5895C205.336 32.7459 206.507 33.6021 207.877 34.1692C209.192 34.803 210.661 35.1032 212.396 35.1032C213.788 35.1032 215.003 34.9475 216.086 34.6139C217.08 34.336 218.063 33.8578 219.046 33.2018C219.875 32.6236 220.726 31.8453 221.499 30.9446C222.317 29.9216 223.499 29.3434 224.758 29.3434C225.775 29.3434 226.736 29.7215 227.487 30.422L228.835 31.6674C230.503 33.2129 230.647 35.8704 229.133 37.5828C227.365 39.6064 225.443 41.2298 223.267 42.5419C220.074 44.3877 216.296 45.3217 212.031 45.3217L212.064 45.3439Z" fill="black"/>
<path d="M212.064 1.32318C216.141 1.32318 219.72 2.2016 222.714 3.91395C224.802 5.14818 226.747 6.78269 228.548 8.82862C229.851 10.3075 229.708 12.598 228.227 13.8878L226.868 15.0665C226.217 15.6336 225.399 15.9226 224.604 15.9226C223.631 15.9226 222.659 15.5112 221.985 14.6995C221.179 13.7322 220.295 12.8982 219.323 12.1866C217.433 10.8412 215.091 10.174 212.307 10.174C210.562 10.174 208.971 10.541 207.579 11.1525C206.131 11.8308 204.938 12.7092 203.944 13.8434C202.894 15.0331 202.099 16.3785 201.558 17.9241C200.961 19.5253 200.707 21.2376 200.707 22.9944C200.707 24.7513 200.961 26.4636 201.558 28.0092C202.055 29.5659 202.85 30.9113 203.9 32.0454C204.894 33.2352 206.143 34.1692 207.634 34.7919C209.026 35.459 210.617 35.7704 212.407 35.7704C213.799 35.7704 215.091 35.6147 216.285 35.2589C217.378 34.9475 218.428 34.4361 219.422 33.7578C220.317 33.1351 221.212 32.3123 222.007 31.3783C222.007 31.3783 222.018 31.3561 222.029 31.3449C222.736 30.4665 223.753 29.9995 224.769 29.9995C225.587 29.9995 226.393 30.2886 227.056 30.9002L228.404 32.1455C229.818 33.4576 229.929 35.6814 228.658 37.138C226.924 39.1172 225.034 40.7073 222.946 41.9749C219.908 43.7317 216.284 44.6657 212.053 44.6657C208.971 44.6657 206.131 44.0986 203.502 43.0645C200.817 41.9749 198.531 40.4738 196.641 38.6169C194.653 36.7044 193.161 34.4249 192.068 31.7341C190.919 29.0989 190.377 26.1968 190.377 22.9944C190.377 19.7921 190.93 16.9456 192.068 14.2548C193.161 11.6195 194.653 9.3401 196.641 7.37201C198.531 5.51511 200.817 4.01402 203.502 2.92434C206.143 1.89026 208.971 1.32318 212.053 1.32318M212.053 0C208.927 0 205.888 0.567078 203.016 1.69011C200.199 2.83539 197.746 4.42543 195.702 6.42688C193.603 8.49505 192.012 10.8857 190.83 13.7433C189.626 16.5787 189.04 19.6031 189.04 22.9944C189.04 26.3858 189.626 29.4769 190.841 32.2678C192.012 35.1588 193.614 37.5494 195.713 39.5731C197.735 41.5635 200.188 43.1535 202.994 44.2988C205.877 45.4329 208.916 46 212.042 46C216.428 46 220.317 45.0326 223.598 43.1313C225.852 41.7636 227.818 40.0957 229.641 38.0276C231.387 36.0372 231.232 32.9683 229.288 31.1782L227.94 29.9328C227.067 29.1322 225.94 28.6875 224.758 28.6875C223.3 28.6875 221.919 29.3546 220.991 30.5221C220.262 31.3783 219.455 32.1122 218.66 32.6681C217.754 33.2797 216.826 33.7244 215.92 33.9802C214.87 34.2915 213.732 34.4472 212.396 34.4472C210.75 34.4472 209.38 34.1692 208.186 33.591C208.164 33.591 208.142 33.5688 208.12 33.5577C206.85 33.0351 205.767 32.2345 204.894 31.1893C204.883 31.1781 204.872 31.1559 204.85 31.1448C203.911 30.1218 203.226 28.9321 202.795 27.5978C202.795 27.5755 202.784 27.5533 202.773 27.5311C202.265 26.2079 202.011 24.7179 202.011 22.9944C202.011 21.271 202.265 19.7476 202.773 18.3911C203.27 16.9901 203.966 15.8003 204.916 14.7218C205.789 13.7322 206.827 12.9538 208.109 12.3534C209.38 11.7863 210.794 11.4972 212.285 11.4972C214.782 11.4972 216.881 12.0977 218.538 13.2763C219.4 13.9101 220.218 14.6773 220.947 15.5557C221.853 16.6343 223.167 17.257 224.57 17.257C225.719 17.257 226.835 16.8344 227.697 16.0783L229.056 14.8997C230.039 14.0435 230.625 12.8538 230.713 11.5417C230.801 10.2185 230.371 8.95093 229.498 7.96132C227.62 5.81533 225.543 4.08074 223.344 2.77979C220.129 0.945129 216.329 0.0111192 212.031 0.0111192L212.053 0Z" fill="black"/>
<path d="M234.889 44.3099C233.475 44.3099 232.326 43.1535 232.326 41.7303V4.32537C232.326 2.90212 233.475 1.74573 234.889 1.74573H262.266C263.68 1.74573 264.829 2.90212 264.829 4.32537V9.10662C264.829 10.6744 263.569 11.9531 262.012 11.9531C261.934 11.9531 261.857 11.9531 261.78 11.9531C260.863 11.8753 259.791 11.753 258.642 11.6307C256.267 11.3527 253.582 11.0525 251.13 11.0525C248.224 11.0525 244.633 11.8975 243.418 13.4987C242.965 14.0991 242.844 14.7774 243.065 15.5669C243.374 16.6899 244.302 17.6128 245.55 18.0242C246.732 18.4134 248.202 18.6135 250.025 18.6135C252.544 18.6135 255.261 18.2466 257.659 17.9241C258.609 17.7907 259.504 17.6684 260.31 17.5905C260.432 17.5794 260.542 17.5683 260.664 17.5683C262.432 17.5683 263.879 19.0249 263.879 20.8151V24.7846C263.879 26.3858 262.586 27.6756 260.995 27.6756C260.863 27.6756 260.73 27.6756 260.598 27.6534C260.001 27.5644 259.36 27.4532 258.664 27.3421C256.764 27.0085 254.599 26.6304 251.98 26.6304C248.611 26.6304 242.965 27.1197 242.965 30.4221C242.965 33.5466 248.014 34.2026 252.245 34.2026C254.643 34.2026 256.609 33.8579 258.344 33.5577C259.758 33.313 260.973 33.0907 262.189 33.0907C264.166 33.0907 265.337 34.4583 265.337 36.7489V41.7747C265.337 43.198 264.188 44.3544 262.774 44.3544H234.889V44.3099Z" fill="black"/>
<path d="M262.277 2.41291C263.326 2.41291 264.177 3.26909 264.177 4.32541V9.10665C264.177 10.3186 263.205 11.286 262.023 11.286C261.968 11.286 261.912 11.286 261.846 11.286C259.04 11.0636 254.831 10.3742 251.141 10.3742C247.451 10.3742 241.33 11.6863 242.435 15.7337C242.822 17.1458 243.982 18.191 245.363 18.658C246.732 19.1139 248.345 19.2696 250.047 19.2696C253.626 19.2696 257.581 18.5468 260.399 18.2355C260.487 18.2355 260.587 18.2244 260.675 18.2244C262.067 18.2244 263.227 19.3585 263.227 20.804V24.7736C263.227 26.03 262.211 26.9974 261.006 26.9974C260.907 26.9974 260.796 26.9974 260.697 26.9752C258.454 26.6638 255.637 25.9411 251.991 25.9411C246.732 25.9411 242.313 27.0641 242.313 30.3999C242.313 33.7356 246.732 34.8475 252.256 34.8475C256.609 34.8475 259.57 33.7356 262.2 33.7356C264.409 33.7356 264.685 35.6703 264.685 36.7267V41.7525C264.685 42.8088 263.835 43.665 262.785 43.665H234.9C233.851 43.665 233 42.8088 233 41.7525V4.32541C233 3.26909 233.851 2.41291 234.9 2.41291H262.277ZM262.277 1.07861H234.9C233.121 1.07861 231.674 2.53522 231.674 4.32541V41.7303C231.674 43.5205 233.121 44.9771 234.9 44.9771H262.785C264.564 44.9771 266.011 43.5205 266.011 41.7303V36.7044C266.011 34.0358 264.553 32.3791 262.2 32.3791C260.929 32.3791 259.625 32.6126 258.244 32.8461C256.532 33.1463 254.599 33.491 252.256 33.491C249.66 33.491 243.639 33.1908 243.639 30.3776C243.639 27.5645 249.483 27.2531 251.991 27.2531C254.499 27.2531 256.676 27.6312 258.554 27.9536C259.25 28.076 259.902 28.1871 260.509 28.2761C260.675 28.2983 260.841 28.3095 261.006 28.3095C262.962 28.3095 264.553 26.7083 264.553 24.7513V20.7818C264.553 19.7366 264.144 18.747 263.415 18.0131C262.686 17.2792 261.713 16.879 260.686 16.879C260.542 16.879 260.41 16.879 260.266 16.9012C259.46 16.9901 258.565 17.1125 257.604 17.2459C255.228 17.5683 252.533 17.9353 250.058 17.9353C248.323 17.9353 246.887 17.7462 245.793 17.3904C244.755 17.0457 243.982 16.3008 243.738 15.389C243.573 14.7885 243.65 14.3327 243.982 13.899C245.064 12.4758 248.489 11.7085 251.174 11.7085C253.593 11.7085 256.256 12.0199 258.62 12.2867C259.769 12.4202 260.841 12.5425 261.78 12.6203C261.868 12.6203 261.967 12.6314 262.056 12.6314C262.984 12.6314 263.857 12.2645 264.52 11.5973C265.182 10.9302 265.536 10.0518 265.536 9.10665V4.32541C265.536 2.53522 264.089 1.07861 262.31 1.07861H262.277Z" fill="black"/>
<path d="M69.8006 43.954C68.508 43.954 67.3811 43.0867 66.9724 41.7858L64.6302 34.2359C64.3982 33.4798 63.7464 32.9683 63.0283 32.9683C62.8736 32.9683 62.73 32.9905 62.5753 33.035L53.7591 35.7036C53.2178 35.8704 52.7869 36.3152 52.6101 36.9045L51.0855 41.7969C50.6767 43.0978 49.5499 43.9651 48.2573 43.9651H43.3741C42.4461 43.9651 41.5954 43.5204 41.0209 42.742C40.4133 41.9081 40.2365 40.8184 40.5458 39.8288L49.1411 7.19406C49.4615 5.97095 50.047 4.87015 50.8204 3.99173C53.0741 1.45656 55.571 1.45656 57.5817 1.45656H60.8187C60.9734 1.44545 61.1391 1.43433 61.2938 1.43433C62.962 1.43433 64.1773 1.77902 65.7682 3.60256C66.7625 4.7256 67.5137 6.10438 67.9556 7.58323L77.501 39.8288C77.8104 40.8184 77.6225 41.9081 77.026 42.742C76.4625 43.5204 75.6008 43.9651 74.6728 43.9651H69.7896L69.8006 43.954ZM58.5428 13.2318C56.8967 13.2318 55.5047 15.9893 55.5047 19.2584C55.5047 22.5274 56.8967 25.2849 58.5428 25.2849C60.189 25.2849 61.581 22.5274 61.581 19.2584C61.581 15.9893 60.189 13.2318 58.5428 13.2318Z" fill="black"/>
<path d="M61.3048 2.07927C62.8404 2.07927 63.8458 2.36837 65.3041 4.02513C66.2542 5.10369 66.9502 6.38239 67.348 7.76117L76.8933 40.0068C77.3905 41.6302 76.2636 43.3092 74.6727 43.3092H69.7895C68.7842 43.3092 67.8893 42.6198 67.5689 41.5968L65.2268 34.0469C64.9064 33.0017 63.9894 32.3345 63.0172 32.3345C62.8073 32.3345 62.5974 32.3679 62.3875 32.4235L53.5712 35.0921C52.831 35.3145 52.2344 35.926 51.9914 36.7155L50.4668 41.6079C50.1464 42.6309 49.2515 43.3203 48.2572 43.3203H43.374C41.7831 43.3203 40.6563 41.6413 41.1534 40.0179L49.7597 7.36088C50.047 6.28232 50.5552 5.25936 51.2954 4.42542C53.3392 2.12375 55.582 2.10151 57.5816 2.10151C58.6643 2.10151 59.747 2.10151 60.8187 2.10151C60.9844 2.10151 61.139 2.10151 61.2937 2.10151M58.5317 25.9521C60.5646 25.9521 62.2107 22.9611 62.2107 19.2806C62.2107 15.6002 60.5646 12.6091 58.5317 12.6091C56.4989 12.6091 54.8528 15.6002 54.8528 19.2806C54.8528 22.9611 56.4989 25.9521 58.5317 25.9521ZM61.3048 0.78945C61.139 0.78945 60.9733 0.78945 60.7966 0.78945H59.2057H57.5816H57.5706C55.5488 0.78945 52.7868 0.78945 50.3453 3.547C49.5056 4.49213 48.8759 5.693 48.5224 7.00507L39.916 39.6621C39.5625 40.8073 39.7724 42.1083 40.5016 43.0979C41.1866 44.043 42.2361 44.5767 43.374 44.5767H48.2572C49.826 44.5767 51.207 43.5204 51.6931 41.9637L53.2177 37.0713C53.3392 36.6932 53.6044 36.4041 53.9469 36.3041L62.7631 33.6355C62.8515 33.6132 62.9398 33.591 63.0282 33.591C63.4701 33.591 63.8679 33.9135 64.0225 34.4027L66.3647 41.9526C66.8508 43.5204 68.2318 44.5767 69.8006 44.5767H74.6838C75.8217 44.5767 76.8602 44.0319 77.5562 43.0979C78.2854 42.1083 78.4953 40.7962 78.1307 39.6065L68.5853 7.372C68.1213 5.8042 67.3148 4.33647 66.2653 3.14671C64.5197 1.15638 63.1277 0.767212 61.3048 0.767212V0.78945ZM58.5428 24.6401C57.5595 24.6401 56.1454 22.5385 56.1454 19.2584C56.1454 15.9782 57.5706 13.8767 58.5428 13.8767C59.515 13.8767 60.9402 15.9782 60.9402 19.2584C60.9402 22.5385 59.515 24.6401 58.5428 24.6401Z" fill="black"/>
<path d="M58.5428 12.5869C56.51 12.5869 54.8639 15.578 54.8639 19.2584C54.8639 22.9389 56.51 25.9299 58.5428 25.9299C60.5757 25.9299 62.2218 22.9389 62.2218 19.2584C62.2218 15.578 60.5757 12.5869 58.5428 12.5869Z" fill="white"/>
<path d="M141.535 44.3654C140.242 44.3654 139.115 43.4981 138.706 42.1972L137.182 37.3047C137.005 36.7154 136.563 36.2706 136.033 36.115L127.216 33.4464C127.073 33.4019 126.918 33.3797 126.764 33.3797C126.034 33.3797 125.394 33.8911 125.162 34.6473L122.819 42.1972C122.422 43.4981 121.284 44.3654 119.991 44.3654H115.108C114.18 44.3654 113.329 43.9206 112.755 43.1423C112.147 42.3084 111.97 41.2187 112.28 40.2291L121.825 7.9946C122.267 6.51575 123.018 5.13698 124.013 4.01394C125.615 2.1904 126.819 1.8457 128.487 1.8457C128.642 1.8457 128.807 1.8457 128.984 1.8457H132.21C134.221 1.8457 136.718 1.8457 138.971 4.39199C139.745 5.27041 140.33 6.3712 140.651 7.59431L149.257 40.2513C149.555 41.2187 149.379 42.3084 148.771 43.1423C148.207 43.9206 147.346 44.3654 146.418 44.3654H141.535ZM131.868 13.5319C130.221 13.5319 128.829 16.2895 128.829 19.5585C128.829 20.3814 128.918 21.1819 129.084 21.938C129.095 22.0048 129.106 22.0826 129.095 22.1493C129.028 22.772 129.249 23.3835 129.691 23.7949C129.746 23.8394 129.791 23.895 129.824 23.9617C130.398 24.9958 131.138 25.5851 131.868 25.5851C133.514 25.5851 134.906 22.8276 134.906 19.5585C134.906 16.2895 133.514 13.5319 131.868 13.5319Z" fill="black"/>
<path d="M128.498 2.49065C128.653 2.49065 128.807 2.49065 128.973 2.49065C130.056 2.49065 131.138 2.49065 132.21 2.49065C134.21 2.49065 136.452 2.51289 138.496 4.81456C139.237 5.64849 139.745 6.67146 140.032 7.75002L148.638 40.407C149.135 42.0304 148.009 43.7094 146.418 43.7094H141.534C140.529 43.7094 139.634 43.02 139.325 41.9971L137.8 37.1046C137.557 36.3152 136.961 35.7147 136.22 35.4812L127.404 32.8126C127.194 32.7459 126.984 32.7237 126.775 32.7237C125.791 32.7237 124.885 33.3908 124.565 34.436L122.223 41.9859C121.902 43.0089 121.008 43.6983 120.002 43.6983H115.119C113.528 43.6983 112.401 42.0193 112.898 40.3959L122.444 8.15031C122.853 6.77153 123.549 5.48171 124.488 4.41427C125.935 2.75751 126.951 2.46841 128.487 2.46841M131.868 26.2078C133.9 26.2078 135.547 23.2168 135.547 19.5363C135.547 15.8559 133.9 12.8648 131.868 12.8648C129.835 12.8648 128.189 15.8559 128.189 19.5363C128.189 20.4259 128.288 21.282 128.465 22.0604C128.376 22.8943 128.686 23.7171 129.271 24.2509C129.934 25.4629 130.862 26.2078 131.879 26.2078M128.498 1.17859C126.686 1.17859 125.283 1.56776 123.537 3.55809C122.488 4.75896 121.681 6.21557 121.217 7.78337L111.672 40.029C111.307 41.2076 111.528 42.5085 112.247 43.5093C112.931 44.4544 113.981 44.9881 115.119 44.9881H120.002C121.571 44.9881 122.952 43.9318 123.438 42.364L125.78 34.8141C125.935 34.3248 126.333 34.0024 126.775 34.0024C126.863 34.0024 126.951 34.0135 127.04 34.0469L135.856 36.7155C136.187 36.8155 136.464 37.1046 136.585 37.4827L138.11 42.3751C138.596 43.9429 139.977 44.9881 141.546 44.9881H146.429C147.567 44.9881 148.605 44.4433 149.301 43.5093C150.03 42.5197 150.24 41.2076 149.876 40.0178L141.28 7.41644C140.938 6.10438 140.308 4.90351 139.457 3.95838C137.016 1.20083 134.243 1.20083 132.221 1.20083H129.017C128.84 1.18971 128.675 1.17859 128.509 1.17859H128.498ZM131.879 24.918C131.393 24.918 130.84 24.4288 130.398 23.6171C130.332 23.4948 130.244 23.3836 130.144 23.2946C129.857 23.0278 129.702 22.6052 129.746 22.1938C129.757 22.0493 129.746 21.9047 129.724 21.7713C129.559 21.0597 129.481 20.3036 129.481 19.5363C129.481 16.2562 130.906 14.1547 131.879 14.1547C132.851 14.1547 134.276 16.2562 134.276 19.5363C134.276 22.8165 132.851 24.918 131.879 24.918Z" fill="black"/>
<path d="M131.868 12.8871C129.835 12.8871 128.189 15.8781 128.189 19.5586C128.189 20.4481 128.288 21.3043 128.465 22.0826C128.653 22.9055 128.929 23.6504 129.271 24.2731C129.934 25.4851 130.862 26.2301 131.879 26.2301C133.911 26.2301 135.558 23.239 135.558 19.5586C135.558 15.8781 133.911 12.8871 131.879 12.8871H131.868Z" fill="white"/>
</g>
<defs>
<clipPath id="clip0_8_730">
<rect width="266" height="46" fill="white"/>
</clipPath>
</defs>
</svg>