<svg xmlns="http://www.w3.org/2000/svg" width="44" height="44" viewBox="0 0 44 44" fill="none">
  <g filter="url(#filter0_d_194_460)">
    <rect x="4" y="2" width="36" height="36" rx="18" fill="white"/>
    <rect x="4.5" y="2.5" width="35" height="35" rx="17.5" stroke="#555555"/>
    <path d="M22 9C19.0826 9 16.2847 10.1589 14.2218 12.2218C12.1589 14.2847 11 17.0826 11 20C11 22.9174 12.1589 25.7153 14.2218 27.7782C16.2847 29.8411 19.0826 31 22 31C23.0144 31 23.8333 30.1811 23.8333 29.1667C23.8333 28.69 23.65 28.2622 23.3567 27.9322C23.0756 27.6144 22.8922 27.1867 22.8922 26.7222C22.8922 25.7078 23.7111 24.8889 24.7256 24.8889H26.8889C30.2622 24.8889 33 22.1511 33 18.7778C33 13.3756 28.0744 9 22 9ZM15.2778 20C14.2633 20 13.4444 19.1811 13.4444 18.1667C13.4444 17.1522 14.2633 16.3333 15.2778 16.3333C16.2922 16.3333 17.1111 17.1522 17.1111 18.1667C17.1111 19.1811 16.2922 20 15.2778 20ZM18.9444 15.1111C17.93 15.1111 17.1111 14.2922 17.1111 13.2778C17.1111 12.2633 17.93 11.4444 18.9444 11.4444C19.9589 11.4444 20.7778 12.2633 20.7778 13.2778C20.7778 14.2922 19.9589 15.1111 18.9444 15.1111ZM25.0556 15.1111C24.0411 15.1111 23.2222 14.2922 23.2222 13.2778C23.2222 12.2633 24.0411 11.4444 25.0556 11.4444C26.07 11.4444 26.8889 12.2633 26.8889 13.2778C26.8889 14.2922 26.07 15.1111 25.0556 15.1111ZM28.7222 20C27.7078 20 26.8889 19.1811 26.8889 18.1667C26.8889 17.1522 27.7078 16.3333 28.7222 16.3333C29.7367 16.3333 30.5556 17.1522 30.5556 18.1667C30.5556 19.1811 29.7367 20 28.7222 20Z" fill="#555555"/>
  </g>
  <defs>
    <filter id="filter0_d_194_460" x="0" y="0" width="44" height="44" filterUnits="userSpaceOnUse" color-interpolation-filters="sRGB">
      <feFlood flood-opacity="0" result="BackgroundImageFix"/>
      <feColorMatrix in="SourceAlpha" type="matrix" values="0 0 0 0 0 0 0 0 0 0 0 0 0 0 0 0 0 0 127 0" result="hardAlpha"/>
      <feOffset dy="2"/>
      <feGaussianBlur stdDeviation="2"/>
      <feComposite in2="hardAlpha" operator="out"/>
      <feColorMatrix type="matrix" values="0 0 0 0 0 0 0 0 0 0 0 0 0 0 0 0 0 0 0.25 0"/>
      <feBlend mode="normal" in2="BackgroundImageFix" result="effect1_dropShadow_194_460"/>
      <feBlend mode="normal" in="SourceGraphic" in2="effect1_dropShadow_194_460" result="shape"/>
    </filter>
  </defs>
</svg>