<svg width="36" height="36" viewBox="0 0 36 36" fill="none" xmlns="http://www.w3.org/2000/svg">
<circle cx="18" cy="18" r="10.75" stroke="black" stroke-width="0.5"/>
<path d="M18 11.3542C18.6325 11.3542 19.1458 11.8675 19.1458 12.5V16.8542H23.5C23.8039 16.8542 24.0953 16.9749 24.3102 17.1898C24.5251 17.4047 24.6458 17.6961 24.6458 18C24.6458 18.3039 24.5251 18.5953 24.3102 18.8102C24.0953 19.0251 23.8039 19.1458 23.5 19.1458H19.1458V23.5C19.1458 23.8039 19.0251 24.0953 18.8102 24.3102C18.5953 24.5251 18.3039 24.6458 18 24.6458C17.6961 24.6458 17.4046 24.5251 17.1897 24.3102C16.9748 24.0953 16.8541 23.8039 16.8541 23.5V19.1458H12.5C12.1961 19.1458 11.9046 19.0251 11.6897 18.8102C11.4748 18.5953 11.3541 18.3039 11.3541 18C11.3541 17.6961 11.4748 17.4047 11.6897 17.1898C11.9046 16.9749 12.1961 16.8542 12.5 16.8542H16.8541V12.5C16.8541 11.8675 17.3675 11.3542 18 11.3542Z" fill="black"/>
</svg>
