<svg width="10" height="8" viewBox="0 0 10 8" fill="none" xmlns="http://www.w3.org/2000/svg">
<g id="Group">
<path id="Vector" fill-rule="evenodd" clip-rule="evenodd" d="M9.07801 0.967669C9.20271 1.0924 9.27275 1.26155 9.27275 1.43792C9.27275 1.61429 9.20271 1.78344 9.07801 1.90817L4.09261 6.89358C4.02672 6.95947 3.9485 7.01175 3.86241 7.04741C3.77633 7.08308 3.68406 7.10143 3.59087 7.10143C3.49769 7.10143 3.40542 7.08308 3.31933 7.04741C3.23324 7.01175 3.15502 6.95947 3.08914 6.89358L0.612176 4.41706C0.548649 4.3557 0.497978 4.28231 0.463119 4.20116C0.42826 4.12001 0.409911 4.03273 0.409144 3.94441C0.408376 3.8561 0.425205 3.76851 0.458649 3.68677C0.492093 3.60503 0.541481 3.53076 0.603932 3.46831C0.666383 3.40586 0.740647 3.35647 0.82239 3.32303C0.904132 3.28959 0.991717 3.27276 1.08003 3.27352C1.16835 3.27429 1.25563 3.29264 1.33678 3.3275C1.41793 3.36236 1.49132 3.41303 1.55268 3.47656L3.59065 5.51453L8.13707 0.967669C8.19884 0.905861 8.27218 0.856829 8.35291 0.823376C8.43363 0.789923 8.52016 0.772705 8.60754 0.772705C8.69492 0.772705 8.78145 0.789923 8.86217 0.823376C8.9429 0.856829 9.01624 0.905861 9.07801 0.967669Z" fill="black"/>
</g>
</svg>