<svg width="13" height="11" viewBox="0 0 13 11" fill="none" xmlns="http://www.w3.org/2000/svg">
<g id="Group">
<path id="Vector" fill-rule="evenodd" clip-rule="evenodd" d="M12.7144 0.285947C12.8973 0.468886 13 0.716972 13 0.975648C13 1.23432 12.8973 1.48241 12.7144 1.66535L5.40245 8.97728C5.30582 9.07393 5.1911 9.1506 5.06483 9.20291C4.93857 9.25521 4.80324 9.28214 4.66657 9.28214C4.5299 9.28214 4.39457 9.25521 4.26831 9.20291C4.14205 9.1506 4.02732 9.07393 3.9307 8.97728L0.297818 5.34505C0.204645 5.25506 0.130327 5.14742 0.0792003 5.0284C0.0280737 4.90938 0.00116242 4.78137 3.68327e-05 4.65184C-0.00108875 4.52231 0.0235939 4.39385 0.0726445 4.27396C0.121695 4.15407 0.194131 4.04515 0.285727 3.95356C0.377322 3.86196 0.486242 3.78953 0.606131 3.74048C0.72602 3.69143 0.854478 3.66674 0.984008 3.66787C1.11354 3.66899 1.24155 3.69591 1.36057 3.74703C1.47958 3.79816 1.58723 3.87248 1.67722 3.96565L4.66625 6.95468L11.3343 0.285947C11.4249 0.195295 11.5325 0.123382 11.6509 0.0743176C11.7693 0.0252535 11.8962 0 12.0244 0C12.1525 0 12.2794 0.0252535 12.3978 0.0743176C12.5162 0.123382 12.6238 0.195295 12.7144 0.285947Z" fill="black"/>
</g>
</svg>
