<svg xmlns="http://www.w3.org/2000/svg" width="315" height="154" fill="none">
  <g filter="url(#a)">
    <path fill="#F0F2F0" fill-rule="evenodd" d="M159.217 151.449c-1.122 2.15-4.198 2.15-5.32 0l-13.675-26.211H15c-8.28427 0-15-6.716-15-15V15C0 6.71571 6.71573-.00001526 15-.00001526h285c8.284 0 15 6.71572526 15 15.00001526v95.238c0 8.284-6.716 15-15 15H172.892l-13.675 26.211Z" clip-rule="evenodd"/>
  </g>
  <path fill="#000" d="M30.5307 54.9999h-2.35v-17.775h6.55c1.3166 0 2.4416.2333 3.375.7.95.45 1.6666 1.0833 2.15 1.9.4833.8166.725 1.7583.725 2.825 0 1.1333-.2417 2.1083-.725 2.925-.4834.8-1.1917 1.4083-2.125 1.825-.9334.4166-2.0667.625-3.4.625h-4.2v6.975Zm0-8.875h4.2c1.3166 0 2.2916-.3084 2.925-.925.6333-.6334.95-1.475.95-2.525 0-1-.325-1.8334-.975-2.5-.65-.6834-1.6167-1.025-2.9-1.025h-4.2v6.975Zm27.1058 3.225c-.1333 1.1666-.4666 2.1916-1 3.075-.5166.8833-1.2583 1.575-2.225 2.075-.9666.5-2.1416.75-3.525.75-1.3833 0-2.6-.3417-3.65-1.025-1.05-.6834-1.8666-1.6417-2.45-2.875-.5666-1.25-.85-2.6917-.85-4.325v-1.8c0-1.65.2917-3.0917.875-4.325.5834-1.25 1.4167-2.2167 2.5-2.9 1.0834-.6834 2.35-1.025 3.8-1.025 1.95 0 3.475.5333 4.575 1.6 1.1 1.0666 1.75 2.5166 1.95 4.35h-2.375c-.1833-1.3334-.6-2.3334-1.25-3-.6333-.6834-1.6-1.025-2.9-1.025-1.0333 0-1.9083.2583-2.625.775-.7166.5166-1.2583 1.25-1.625 2.2-.3666.95-.55 2.0583-.55 3.325v1.825c0 1.2.1667 2.275.5 3.225.3334.95.8417 1.7083 1.525 2.275.6834.55 1.5334.825 2.55.825 1.4167 0 2.4417-.325 3.075-.975.65-.6667 1.0834-1.675 1.3-3.025h2.375Zm18.8442 7.05h-2.175v-20.575h2.175v20.575Zm-1.55-11.25h-5.625v-1.825h5.625v1.825Zm-12.025-2.5h5v-5.2h2.125v13.9h-9.3v-13.9h2.175v5.2Zm5 6.875v-5.125h-5v5.125h5Zm27.4714-6.3h-4.925v-1.825h4.925v1.825Zm1 7.675h-2.2v-15.05h2.2v15.05Zm.5 5.05h-13.375v-1.825h13.375v1.825Zm-11.25-.825h-2.125v-5.575h2.125v5.575Zm.9-15.15c0 1.2666-.225 2.4666-.675 3.6-.4333 1.1166-1.0666 2.0916-1.9 2.925-.8333.8333-1.825 1.4666-2.975 1.9l-1.125-1.8c1-.3667 1.8667-.8834 2.6-1.55.75-.6834 1.3167-1.4584 1.7-2.325.4-.8834.6-1.8.6-2.75v-1.525h1.775v1.525Zm.45.025c0 .85.1834 1.6833.55 2.5.3834.8166.9334 1.55 1.65 2.2.7167.6333 1.5584 1.125 2.525 1.475l-1.1 1.775c-1.1166-.4167-2.0833-1.025-2.9-1.825-.8166-.8-1.4416-1.725-1.875-2.775-.4333-1.0667-.65-2.1834-.65-3.35v-1.55h1.8v1.55Zm4.2-.775h-10.675v-1.8h10.675v1.8Zm26.6219 9.1H99.7486v-1.8h18.0504v1.8Zm-2.025 7.625h-13.75v-1.825h13.75v1.825Zm-11.575-1.25h-2.175v-4.7h2.175v4.7Zm4.575-18.2c1.433 0 2.675.1666 3.725.5 1.066.3333 1.883.8166 2.45 1.45.583.6166.875 1.35.875 2.2 0 .85-.292 1.5916-.875 2.225-.567.6166-1.384 1.0916-2.45 1.425-1.05.3333-2.292.5-3.725.5-1.434 0-2.684-.1667-3.75-.5-1.067-.3334-1.892-.8084-2.475-1.425-.584-.6334-.875-1.375-.875-2.225 0-.85.291-1.5834.875-2.2.583-.6334 1.408-1.1167 2.475-1.45 1.066-.3334 2.316-.5 3.75-.5Zm0 1.8c-1 0-1.867.1-2.6.3-.734.1833-1.3.45-1.7.8-.384.35-.575.7666-.575 1.25 0 .7333.433 1.3083 1.3 1.725.866.4 2.058.6 3.575.6 1.5 0 2.675-.2 3.525-.6.866-.4167 1.3-.9917 1.3-1.725 0-.4834-.192-.9-.575-1.25-.384-.35-.942-.6167-1.675-.8-.734-.2-1.592-.3-2.575-.3Zm31.96 18.075h-2.15v-20.55h2.15v20.55Zm3.125-10.4h-3.625v-1.825h3.625v1.825Zm-6.95-5.1h-11.725v-1.825h11.725v1.825Zm-5.775 1.475c.933 0 1.775.2083 2.525.625.75.4 1.333.9666 1.75 1.7.433.7166.65 1.5333.65 2.45 0 .9333-.217 1.7666-.65 2.5-.417.7166-1 1.2833-1.75 1.7-.75.4-1.592.6-2.525.6-.95 0-1.8-.2-2.55-.6-.75-.4-1.342-.9667-1.775-1.7-.417-.7334-.625-1.5667-.625-2.5 0-.9167.208-1.7334.625-2.45.433-.7334 1.025-1.3 1.775-1.7.75-.4167 1.6-.625 2.55-.625Zm0 1.85c-.55 0-1.05.125-1.5.375-.434.25-.775.6-1.025 1.05-.234.4333-.35.9333-.35 1.5 0 .5833.116 1.1.35 1.55.25.45.591.8 1.025 1.05.45.2333.95.35 1.5.35.533 0 1.016-.1167 1.45-.35.433-.25.766-.6 1-1.05.25-.45.375-.9667.375-1.55 0-.5667-.125-1.0667-.375-1.5-.234-.45-.567-.8-1-1.05-.434-.25-.917-.375-1.45-.375Zm1.05-4.4h-2.175v-3.675h2.175v3.675Zm28.946 2.425h-11.575v3.375h-2.2v-5.05h11.525v-2.15h-11.575v-1.8h13.825v5.625Zm.425 4.125h-14.2v-1.825h14.2v1.825Zm1.725 3.7h-18.125v-1.825h18.125v1.825Zm-8 6.35h-2.2v-7.475h2.2v7.475Zm26.247-.025h-2.175v-20.55h2.175v20.55Zm-5.875-18.325c0 2.1-.309 4.0416-.925 5.825-.6 1.7833-1.592 3.425-2.975 4.925-1.367 1.4833-3.159 2.775-5.375 3.875l-1.15-1.8c1.916-.95 3.483-2.0417 4.7-3.275 1.216-1.2334 2.108-2.6084 2.675-4.125.583-1.5167.875-3.2084.875-5.075v-.35h2.175Zm-1.225 1.775h-8.2v-1.775h8.2v1.775Zm28.646 9.05h-18.125v-1.825h18.125v1.825Zm-2.275-7.375h-11.375v2.575h-2.15v-4.2h11.325v-1.8h-11.375v-1.75h13.575v5.175Zm.375 3.625h-13.9v-1.75h13.9v1.75Zm-6.075 2.85h-2.175v-3.725h2.175v3.725Zm5.8 8.225h-2.2v-4.15h-11.7v-1.775h13.9v5.925Zm26.735.175h-2.1v-20.55h2.1v20.55Zm-5.325-10.85h-3.075v-2h3.075v2Zm1.4 9.8h-2.075v-19.025h2.075v19.025Zm-3.95-15.15h-9.075v-1.825h9.075v1.825Zm-9.475 9.4c4.334 0 7.625-.1584 9.875-.475l.15 1.6c-1.383.2833-2.941.4833-4.675.6-1.716.1-3.416.15-5.1.15l-.25-1.875Zm3.875.525h-1.975v-10.575h1.975v10.575Zm4.1 0h-2.025v-10.575h2.025v10.575Zm28.547 6.3h-2.175v-20.575h2.175v20.575Zm-10.6-19c.983 0 1.858.3 2.625.9.783.5833 1.392 1.4166 1.825 2.5.433 1.0833.65 2.35.65 3.8 0 1.45-.217 2.7166-.65 3.8-.433 1.0833-1.042 1.925-1.825 2.525-.767.5833-1.642.875-2.625.875-1 0-1.892-.2917-2.675-.875-.767-.6-1.367-1.4417-1.8-2.525-.433-1.0834-.65-2.35-.65-3.8 0-1.45.217-2.7167.65-3.8.433-1.1 1.033-1.9417 1.8-2.525.783-.5834 1.675-.875 2.675-.875Zm0 2c-.6 0-1.133.2083-1.6.625-.45.4166-.8 1.0166-1.05 1.8-.25.7833-.375 1.7083-.375 2.775 0 1.0666.125 1.9916.375 2.775.25.7666.6 1.3583 1.05 1.775.467.4166 1 .625 1.6.625.583 0 1.1-.2084 1.55-.625.467-.4167.825-1.0167 1.075-1.8.25-.7834.375-1.7.375-2.75s-.125-1.9667-.375-2.75c-.25-.8-.608-1.4084-1.075-1.825-.45-.4167-.967-.625-1.55-.625Zm20.946 2.475c0 1.4833-.241 2.9333-.725 4.35-.483 1.4166-1.15 2.675-2 3.775-.85 1.0833-1.825 1.9083-2.925 2.475l-1.275-1.8c.984-.4667 1.867-1.1667 2.65-2.1.784-.95 1.392-2.0084 1.825-3.175.45-1.1834.675-2.3584.675-3.525v-2.975h1.775v2.975Zm.45 0c0 1.1166.217 2.2333.65 3.35.45 1.1166 1.067 2.1083 1.85 2.975.784.8666 1.675 1.525 2.675 1.975l-1.15 1.775c-1.133-.5167-2.141-1.2917-3.025-2.325-.866-1.0334-1.541-2.2167-2.025-3.55-.483-1.35-.725-2.75-.725-4.2v-2.975h1.75v2.975Zm4.5-2.125h-11.2v-1.85h11.2v1.85Zm4.6 16.625h-2.2v-20.55h2.2v20.55Zm21.597-9.425h-18.125v-1.675h18.125v1.675Zm-2.225 5.975h-11.55v2.175h-2.2v-3.675h11.575v-1.475h-11.6v-1.575h13.775v4.55Zm.625 3.2h-14.375v-1.575h14.375v1.575Zm-.675-15.3h-11.375v2.05h-2.15v-3.5h11.325v-1.45h-11.375v-1.55h13.575v4.45Zm.325 3.1h-13.85v-1.575h13.85v1.575Zm-174.387 52.475h-2.175v-20.575h2.175v20.575Zm-10.6-19c.983 0 1.858.3 2.625.9.783.5833 1.392 1.4166 1.825 2.5.433 1.0833.65 2.35.65 3.8 0 1.45-.217 2.7166-.65 3.8-.433 1.0833-1.042 1.925-1.825 2.525-.767.5833-1.642.875-2.625.875-1 0-1.8915-.2917-2.6749-.875-.7666-.6-1.3666-1.4417-1.8-2.525-.4333-1.0834-.65-2.35-.65-3.8 0-1.45.2167-2.7167.65-3.8.4334-1.1 1.0334-1.9417 1.8-2.525.7834-.5834 1.6749-.875 2.6749-.875Zm0 2c-.6 0-1.133.2083-1.5999.625-.45.4166-.8 1.0166-1.05 1.8-.25.7833-.375 1.7083-.375 2.775 0 1.0666.125 1.9916.375 2.775.25.7666.6 1.3583 1.05 1.775.4669.4166.9999.625 1.5999.625.583 0 1.1-.2084 1.55-.625.467-.4167.825-1.0167 1.075-1.8.25-.7834.375-1.7.375-2.75s-.125-1.9667-.375-2.75c-.25-.8-.608-1.4084-1.075-1.825-.45-.4167-.967-.625-1.55-.625Zm20.597 7.2h-2.2v-3.8h2.2v3.8Zm7.2 0h-2.175v-3.8h2.175v3.8Zm4.35 1.025h-18.05v-1.775h18.05v1.775Zm-9.05 1.4c2.15 0 3.825.3166 5.025.95 1.216.6333 1.825 1.5333 1.825 2.7 0 1.1666-.609 2.0666-1.825 2.7-1.2.6333-2.875.95-5.025.95-2.167 0-3.859-.3167-5.075-.95-1.2-.6334-1.8-1.5334-1.8-2.7 0-1.1667.6-2.0667 1.8-2.7 1.216-.6334 2.908-.95 5.075-.95Zm0 1.7c-1.484 0-2.634.175-3.45.525-.8.3333-1.2.8083-1.2 1.425 0 .6333.4 1.1166 1.2 1.45.8.3333 1.95.5 3.45.5 1.5 0 2.65-.1667 3.45-.5.8-.3334 1.2-.8167 1.2-1.45 0-.6167-.409-1.0917-1.225-1.425-.8-.35-1.942-.525-3.425-.525Zm.025-14.525c1.45 0 2.7.1583 3.75.475 1.066.3 1.883.7416 2.45 1.325.566.5666.85 1.2583.85 2.075 0 1.2-.634 2.1416-1.9 2.825-1.25.6666-2.967 1-5.15 1-2.2 0-3.934-.3334-5.2-1-1.267-.6834-1.9-1.625-1.9-2.825 0-.8.283-1.4917.85-2.075.583-.5834 1.408-1.025 2.475-1.325 1.066-.3167 2.325-.475 3.775-.475Zm0 1.75c-1.534 0-2.734.1833-3.6.55-.85.3666-1.275.8916-1.275 1.575 0 .6666.425 1.1833 1.275 1.55.866.3666 2.066.55 3.6.55 1.516 0 2.7-.1834 3.55-.55.85-.3667 1.275-.8834 1.275-1.55 0-.6834-.425-1.2084-1.275-1.575-.85-.3667-2.034-.55-3.55-.55Zm20.621 3.075h-9.8v-1.825h9.8v1.825Zm-4.9 1.225c.833 0 1.575.2 2.225.6.667.4 1.183.9583 1.55 1.675.367.7166.55 1.5333.55 2.45 0 .9166-.183 1.7416-.55 2.475-.367.7166-.883 1.2833-1.55 1.7-.65.4-1.392.6-2.225.6-.817 0-1.55-.2-2.2-.6-.65-.4167-1.167-.9834-1.55-1.7-.367-.7334-.55-1.5584-.55-2.475 0-.9167.183-1.7334.55-2.45.383-.7167.9-1.275 1.55-1.675.65-.4 1.383-.6 2.2-.6Zm0 1.875c-.7 0-1.275.2666-1.725.8-.433.5166-.65 1.2-.65 2.05 0 .85.217 1.5416.65 2.075.45.5166 1.025.775 1.725.775.467 0 .875-.1167 1.225-.35.367-.2334.65-.5667.85-1 .217-.4334.325-.9334.325-1.5 0-.5667-.108-1.0584-.325-1.475-.2-.4334-.483-.7667-.85-1-.35-.25-.758-.375-1.225-.375Zm12.125 12.25h-2.075v-20.55h2.075v20.55Zm-1.4-10.175h-3.625v-1.825h3.625v1.825Zm-2.9 9.2h-2.025v-19.125h2.025v19.125Zm-6.725-15.075h-2.175v-3.875h2.175v3.875Zm23.622-1.575c0 1.1833-.35 2.275-1.05 3.275-.684.9833-1.625 1.8083-2.825 2.475-1.184.6666-2.509 1.125-3.975 1.375l-.825-1.775c1.25-.1834 2.391-.5417 3.425-1.075 1.033-.5334 1.85-1.175 2.45-1.925.6-.75.9-1.5334.9-2.35v-.775h1.9v.775Zm.6 0c0 .8166.3 1.6.9 2.35.6.75 1.416 1.3916 2.45 1.925 1.033.5333 2.175.8916 3.425 1.075l-.8 1.775c-1.484-.25-2.825-.7084-4.025-1.375-1.184-.6667-2.125-1.4917-2.825-2.475-.684-1-1.025-2.0917-1.025-3.275v-.775h1.9v.775Zm-.2 17.6h-2.175v-7.7h2.175v7.7Zm7.975-7.125h-18.05v-1.825h18.05v1.825Zm-1.7-10.4h-14.675v-1.75h14.675v1.75Zm15.046 6.05h-3.65v-1.85h3.65v1.85Zm-5.85-3.4c0 1.4833-.183 2.925-.55 4.325-.35 1.3833-.875 2.625-1.575 3.725-.683 1.0833-1.508 1.925-2.475 2.525l-1.325-1.65c.9-.5667 1.667-1.3167 2.3-2.25.633-.95 1.108-2 1.425-3.15.333-1.15.5-2.325.5-3.525v-3.75h1.7v3.75Zm.4-.075c0 1.1166.142 2.225.425 3.325.3 1.0833.742 2.075 1.325 2.975.6.9 1.333 1.625 2.2 2.175l-1.225 1.725c-.967-.6-1.783-1.4334-2.45-2.5-.65-1.0667-1.142-2.2584-1.475-3.575-.317-1.3334-.475-2.7084-.475-4.125v-3.675h1.675v3.675Zm10.975 14.975h-2.075v-20.55h2.075v20.55Zm-4.1-1h-2.05v-19.125h2.05v19.125Zm13.422-3.025h-2.15v-5.975h2.15v5.975Zm7.375 0h-2.225v-5.975h2.225v5.975Zm4.275 1.475h-18.1v-1.85h18.1v1.85Zm-9.075-16.8c1.4 0 2.658.225 3.775.675 1.116.45 1.983 1.0833 2.6 1.9.633.8166.95 1.75.95 2.8 0 1.0666-.317 2.0083-.95 2.825-.617.8-1.484 1.425-2.6 1.875-1.1.4333-2.359.65-3.775.65-1.417 0-2.684-.2167-3.8-.65-1.1-.45-1.967-1.075-2.6-1.875-.617-.8167-.925-1.7584-.925-2.825 0-1.05.308-1.9834.925-2.8.633-.8167 1.508-1.45 2.625-1.9 1.116-.45 2.375-.675 3.775-.675Zm0 1.775c-1.017 0-1.917.15-2.7.45-.784.2833-1.392.7-1.825 1.25-.434.55-.65 1.1833-.65 1.9 0 .7166.216 1.35.65 1.9.433.55 1.041.975 1.825 1.275.783.2833 1.683.425 2.7.425 1.016 0 1.916-.1417 2.7-.425.8-.3 1.416-.725 1.85-1.275.45-.55.675-1.1834.675-1.9 0-.7167-.225-1.35-.675-1.9-.434-.55-1.05-.9667-1.85-1.25-.784-.3-1.684-.45-2.7-.45Zm12.221 15.025c0-.4.125-.725.375-.975.25-.2667.592-.4 1.025-.4.45 0 .8.1333 1.05.4.25.25.375.575.375.975 0 .3833-.125.7-.375.95-.25.2333-.6.35-1.05.35-.433 0-.775-.1167-1.025-.35-.25-.25-.375-.5667-.375-.95Z"/>
  <defs>
    <filter id="a" width="315" height="153.062" x="0" y="0" color-interpolation-filters="sRGB" filterUnits="userSpaceOnUse">
      <feFlood flood-opacity="0" result="BackgroundImageFix"/>
      <feBlend in="SourceGraphic" in2="BackgroundImageFix" result="shape"/>
      <feColorMatrix in="SourceAlpha" result="hardAlpha" values="0 0 0 0 0 0 0 0 0 0 0 0 0 0 0 0 0 0 127 0"/>
      <feOffset/>
      <feGaussianBlur stdDeviation="2"/>
      <feComposite in2="hardAlpha" k2="-1" k3="1" operator="arithmetic"/>
      <feColorMatrix values="0 0 0 0 0 0 0 0 0 0 0 0 0 0 0 0 0 0 0.25 0"/>
      <feBlend in2="shape" result="effect1_innerShadow_21_1789"/>
    </filter>
  </defs>
</svg>