<svg xmlns="http://www.w3.org/2000/svg" width="293" height="153" fill="none">
  <g filter="url(#a)">
    <path fill="#F0F2F0" fill-rule="evenodd" d="M148.322 150.986c-1.094 2.253-4.305 2.253-5.398 0l-12.495-25.748H13c-7.1797 0-13-5.82-13-13V13C0 5.82036 5.82031.00006104 13 .00006104h267c7.18 0 13 5.82029896 13 13.00003896v99.2379c0 7.18-5.82 13-13 13H160.817l-12.495 25.748Z" clip-rule="evenodd"/>
  </g>
  <path fill="#000" d="M59.0516 31.325h2.05V53.95h-2.05V31.325Zm1.575 9.3h4.175v1.75h-4.175v-1.75Zm-17.025-5.675h13.325v1.7h-13.325v-1.7Zm6.775 3.55c1.0666 0 2.0083.225 2.825.675.8333.45 1.4833 1.0667 1.95 1.85.4833.7667.725 1.6583.725 2.675 0 1.0167-.2417 1.9167-.725 2.7-.4667.7833-1.1167 1.4-1.95 1.85-.8167.4333-1.7584.65-2.825.65-1.0667 0-2.0167-.2167-2.85-.65-.8167-.45-1.4667-1.0667-1.95-1.85-.4834-.7833-.725-1.6833-.725-2.7 0-1.0167.2416-1.9083.725-2.675.4833-.7833 1.1333-1.4 1.95-1.85.8333-.45 1.7833-.675 2.85-.675Zm0 1.725c-.6834 0-1.2917.15-1.825.45-.5334.3-.9584.7083-1.275 1.225-.3.5167-.45 1.1167-.45 1.8s.15 1.2917.45 1.825c.3166.5167.7416.925 1.275 1.225.5333.2833 1.1416.425 1.825.425.6666 0 1.2666-.1417 1.8-.425.5333-.3.95-.7083 1.25-1.225.3166-.5333.475-1.1417.475-1.825s-.1584-1.2833-.475-1.8c-.3-.5167-.7167-.925-1.25-1.225-.5334-.3-1.1334-.45-1.8-.45Zm-1.075-8.625h2.075v4.1h-2.075v-4.1Zm20.848.625h15.575v5.925h-13.425v3.875h-2.075V36.55h13.4V33.9h-13.475v-1.675Zm.075 8.8h16v1.7h-16v-1.7Zm-2.525 4.025h20.5v1.7h-20.5v-1.7Zm9.175.65h2.075v8.275h-2.075V45.7Zm39.3544-14.375h2.075V53.95h-2.075V31.325Zm-6.625 2.45h2.05c0 1.6333-.2 3.2083-.6 4.725-.383 1.5167-.992 2.9583-1.825 4.325-.833 1.35-1.917 2.6083-3.25 3.775s-2.95 2.2083-4.85 3.125l-1.1-1.675c2.183-1.05 3.983-2.275 5.4-3.675 1.417-1.4 2.467-2.9583 3.15-4.675.683-1.7333 1.025-3.6 1.025-5.6v-.325Zm-8.525 0h9.4v1.675h-9.4v-1.675Zm22.648 10h20.5v1.7h-20.5v-1.7Zm2.6-11.875h15.275v5.5h-13.175v3.025h-2.05V35.85h13.175v-2.3h-13.225V31.9Zm.05 7.85h15.7v1.65h-15.7v-1.65Zm6.575.85h2.05v4h-2.05v-4Zm-6.925 6.6h15.7v6.525h-2.075v-4.85h-13.625V47.2Zm47.054-15.875h2V53.95h-2V31.325Zm-7.425 8.6h3.725v1.85h-3.725v-1.85Zm3.05-8.05h1.975V52.75h-1.975V31.875Zm-12.7 2.325h10.3v1.7h-10.3v-1.7Zm-.225 14.175-.25-1.75h2.525c.934-.0167 1.909-.0417 2.925-.075 1.017-.05 2.025-.1083 3.025-.175 1-.0833 1.934-.1833 2.8-.3l.15 1.55c-1.183.2167-2.458.3833-3.825.5-1.35.1-2.666.1667-3.95.2-1.283.0333-2.416.05-3.4.05Zm2.075-13.075h1.9v11.825h-1.9V35.3Zm4.675 0h1.925v11.825h-1.925V35.3Zm33.673-3.975h2.075v22.65h-2.075v-22.65Zm-9.85 1.75c1.117 0 2.1.325 2.95.975.867.6333 1.542 1.5417 2.025 2.725.5 1.1833.75 2.575.75 4.175 0 1.6-.25 2.9917-.75 4.175-.483 1.1833-1.158 2.1-2.025 2.75-.85.65-1.833.975-2.95.975-1.116 0-2.108-.325-2.975-.975-.866-.65-1.55-1.5667-2.05-2.75-.483-1.1833-.725-2.575-.725-4.175 0-1.6.242-2.9917.725-4.175.5-1.1833 1.184-2.0917 2.05-2.725.867-.65 1.859-.975 2.975-.975Zm0 1.85c-.75 0-1.408.25-1.975.75-.55.4833-.983 1.1833-1.3 2.1-.316.9-.475 1.9583-.475 3.175s.159 2.2833.475 3.2c.317.9.75 1.6 1.3 2.1.567.5 1.225.75 1.975.75.734 0 1.375-.25 1.925-.75.567-.5 1.009-1.2 1.325-2.1.317-.9167.475-1.9833.475-3.2 0-1.2167-.158-2.275-.475-3.175-.316-.9167-.758-1.6167-1.325-2.1-.55-.5-1.191-.75-1.925-.75Zm23.398-.35h1.7v3.65c0 1.2-.166 2.3833-.5 3.55-.333 1.15-.8 2.2417-1.4 3.275-.583 1.0167-1.266 1.9167-2.05 2.7-.783.7833-1.625 1.4-2.525 1.85l-1.2-1.65c.817-.4 1.584-.9417 2.3-1.625.734-.6833 1.375-1.4667 1.925-2.35.55-.8833.975-1.8167 1.275-2.8.317-.9833.475-1.9667.475-2.95v-3.65Zm.425 0h1.675v3.65c0 .95.15 1.9.45 2.85.317.9333.75 1.8167 1.3 2.65.567.8167 1.209 1.5417 1.925 2.175.734.6333 1.517 1.1333 2.35 1.5l-1.15 1.65c-.916-.4333-1.775-1.0167-2.575-1.75-.8-.7333-1.5-1.575-2.1-2.525-.583-.9667-1.041-2-1.375-3.1-.333-1.1167-.5-2.2667-.5-3.45v-3.65Zm-5.675-.925h12.625v1.725h-12.625V33.65Zm15.7-2.325h2.075V53.95h-2.075V31.325Zm7.573 18.1h20.5v1.725h-20.5v-1.725Zm9.175-4.825H239v5.55h-2.05V44.6ZM230.275 33h15.45v6.85h-13.35v4.525h-2.05V38.2h13.35v-3.5h-13.4V33Zm.05 10.5h15.925v1.7h-15.925v-1.7ZM92.6809 71.325h2.075v22.65h-2.075v-22.65Zm-9.85 1.75c1.1166 0 2.1.325 2.95.975.8666.6333 1.5416 1.5417 2.025 2.725.5 1.1833.75 2.575.75 4.175 0 1.6-.25 2.9917-.75 4.175-.4834 1.1833-1.1584 2.1-2.025 2.75-.85.65-1.8334.975-2.95.975-1.1167 0-2.1084-.325-2.975-.975-.8667-.65-1.55-1.5667-2.05-2.75-.4834-1.1833-.725-2.575-.725-4.175 0-1.6.2416-2.9917.725-4.175.5-1.1833 1.1833-2.0917 2.05-2.725.8666-.65 1.8583-.975 2.975-.975Zm0 1.85c-.75 0-1.4084.25-1.975.75-.55.4833-.9834 1.1833-1.3 2.1-.3167.9-.475 1.9583-.475 3.175s.1583 2.2833.475 3.2c.3166.9.75 1.6 1.3 2.1.5666.5 1.225.75 1.975.75.7333 0 1.375-.25 1.925-.75.5666-.5 1.0083-1.2 1.325-2.1.3166-.9167.475-1.9833.475-3.2 0-1.2167-.1584-2.275-.475-3.175-.3167-.9167-.7584-1.6167-1.325-2.1-.55-.5-1.1917-.75-1.925-.75Zm17.4231 7.55h20.45v1.675h-20.45v-1.675Zm9.2-3.625h2.025v4.325h-2.025V78.85Zm-6.625-.65h15.475v1.675h-15.475V78.2Zm0-5.825h15.325v1.65h-13.275V79.2h-2.05v-6.825Zm7.625 13.4c2.417 0 4.308.3583 5.675 1.075 1.367.7 2.05 1.7 2.05 3s-.683 2.3-2.05 3c-1.367.7167-3.258 1.075-5.675 1.075s-4.317-.3583-5.7-1.075c-1.367-.7-2.05-1.7-2.05-3s.683-2.3 2.05-3c1.383-.7167 3.283-1.075 5.7-1.075Zm-.025 1.625c-1.167 0-2.175.1-3.025.3-.833.1833-1.475.4583-1.925.825-.45.35-.675.7917-.675 1.325 0 .5167.225.9583.675 1.325.45.3667 1.092.6417 1.925.825.85.2 1.858.3 3.025.3 1.2 0 2.217-.1 3.05-.3.85-.1833 1.5-.4583 1.95-.825.45-.3667.675-.8083.675-1.325 0-.5333-.225-.975-.675-1.325-.45-.3667-1.1-.6417-1.95-.825-.833-.2-1.85-.3-3.05-.3Zm13.773-12.2h11.225v1.7h-11.225v-1.7Zm5.625 3.2c.95 0 1.783.2167 2.5.65.733.4333 1.308 1.0417 1.725 1.825.417.7667.625 1.6583.625 2.675 0 1.0167-.208 1.9167-.625 2.7-.417.7667-.992 1.375-1.725 1.825-.717.4333-1.55.65-2.5.65-.933 0-1.767-.2167-2.5-.65-.733-.45-1.308-1.0583-1.725-1.825-.417-.7833-.625-1.6833-.625-2.7 0-1.0167.208-1.9083.625-2.675.417-.7667.992-1.3667 1.725-1.8.733-.45 1.567-.675 2.5-.675Zm0 1.75c-.567 0-1.083.15-1.55.45-.45.2833-.808.6833-1.075 1.2-.25.5-.375 1.0833-.375 1.75 0 .6667.125 1.2583.375 1.775.267.5167.625.9167 1.075 1.2.467.2833.983.425 1.55.425.583 0 1.1-.1417 1.55-.425.45-.2833.8-.6833 1.05-1.2.267-.5167.4-1.1083.4-1.775 0-.6667-.133-1.25-.4-1.75-.25-.5167-.6-.9167-1.05-1.2-.45-.3-.967-.45-1.55-.45Zm11.575-8.825h1.975V93.95h-1.975V71.325Zm-3.625 9.525h4.275v1.7h-4.275v-1.7Zm-1.225-9h1.95v21h-1.95v-21Zm-7.75.15h2.05v4.225h-2.05V72Zm28.498 1.575h1.8v.95c0 .8-.158 1.5583-.475 2.275-.317.7167-.758 1.3833-1.325 2-.567.6-1.225 1.1333-1.975 1.6-.75.4667-1.558.8667-2.425 1.2-.85.3167-1.733.55-2.65.7l-.8-1.65c.8-.1 1.575-.2833 2.325-.55.767-.2833 1.483-.6167 2.15-1 .667-.3833 1.25-.8167 1.75-1.3.517-.4833.917-1 1.2-1.55.283-.5667.425-1.1417.425-1.725v-.95Zm.525 0h1.8v.95c0 .5833.142 1.1583.425 1.725.283.55.675 1.0667 1.175 1.55.517.4833 1.108.9167 1.775 1.3.667.3833 1.375.7167 2.125 1 .767.2667 1.55.45 2.35.55l-.775 1.65c-.917-.15-1.808-.3833-2.675-.7-.867-.3333-1.675-.7333-2.425-1.2-.75-.4667-1.408-1-1.975-1.6-.567-.6167-1.008-1.2833-1.325-2-.317-.7167-.475-1.475-.475-2.275v-.95Zm-.425 11.75h2.05v8.6h-2.05v-8.6Zm-9.15-1.125h20.425v1.7H148.25v-1.7Zm1.925-11.475h16.55V74.4h-16.55v-1.675Zm30.973 6.7h4.35v1.725h-4.35v-1.725Zm-4.2-5.975h1.625v4.325c0 1.1667-.125 2.3167-.375 3.45-.233 1.1333-.583 2.2-1.05 3.2-.45 1-1 1.9-1.65 2.7-.65.8-1.383 1.45-2.2 1.95l-1.3-1.55c.767-.4667 1.458-1.05 2.075-1.75.617-.7 1.133-1.4833 1.55-2.35.433-.8833.758-1.8.975-2.75.233-.9667.35-1.9333.35-2.9V73.45Zm.4 0h1.6v4.25c0 .9.1 1.8083.3 2.725.217.9.517 1.7667.9 2.6.4.8167.892 1.5667 1.475 2.25.583.6833 1.242 1.25 1.975 1.7l-1.175 1.6c-.817-.5-1.542-1.1333-2.175-1.9-.633-.7833-1.167-1.6583-1.6-2.625-.433-.9833-.758-2.0167-.975-3.1-.217-1.0833-.325-2.1667-.325-3.25v-4.25Zm12.125-2.125h2V93.95h-2V71.325Zm-4.6.475h1.95v21h-1.95v-21Zm16.398 11.175h2.05v6.75h-2.05v-6.75Zm8.35 0h2.075v6.75h-2.075v-6.75Zm-13.375 6.35h20.5v1.725h-20.5v-1.725Zm10.2-16.575c1.6 0 3.017.2417 4.25.725 1.233.4833 2.2 1.1583 2.9 2.025.717.8667 1.075 1.8917 1.075 3.075 0 1.1667-.358 2.1917-1.075 3.075-.7.8667-1.667 1.5417-2.9 2.025-1.233.4667-2.65.7-4.25.7-1.583 0-3-.2333-4.25-.7-1.233-.4833-2.2-1.1583-2.9-2.025-.7-.8833-1.05-1.9083-1.05-3.075 0-1.1833.35-2.2083 1.05-3.075.7-.8667 1.667-1.5417 2.9-2.025 1.25-.4833 2.667-.725 4.25-.725Zm0 1.65c-1.2 0-2.267.175-3.2.525-.933.35-1.667.8417-2.2 1.475-.533.6167-.8 1.3417-.8 2.175 0 .8333.267 1.5667.8 2.2.533.6167 1.267 1.1 2.2 1.45.933.35 2 .525 3.2.525 1.217 0 2.292-.175 3.225-.525.933-.35 1.667-.8333 2.2-1.45.533-.6333.8-1.3667.8-2.2 0-.8333-.267-1.5583-.8-2.175-.533-.6333-1.267-1.125-2.2-1.475-.933-.35-2.008-.525-3.225-.525Z"/>
  <defs>
    <filter id="a" width="293" height="152.676" x="0" y="0" color-interpolation-filters="sRGB" filterUnits="userSpaceOnUse">
      <feFlood flood-opacity="0" result="BackgroundImageFix"/>
      <feBlend in="SourceGraphic" in2="BackgroundImageFix" result="shape"/>
      <feColorMatrix in="SourceAlpha" result="hardAlpha" values="0 0 0 0 0 0 0 0 0 0 0 0 0 0 0 0 0 0 127 0"/>
      <feOffset/>
      <feGaussianBlur stdDeviation="2"/>
      <feComposite in2="hardAlpha" k2="-1" k3="1" operator="arithmetic"/>
      <feColorMatrix values="0 0 0 0 0 0 0 0 0 0 0 0 0 0 0 0 0 0 0.25 0"/>
      <feBlend in2="shape" result="effect1_innerShadow_90_181"/>
    </filter>
  </defs>
</svg>