<svg width="195" height="200" viewBox="0 0 195 200" fill="none" xmlns="http://www.w3.org/2000/svg">
<path d="M46.9764 6.264H43.5364V4.904H46.9764V6.264ZM41.4564 3.784C41.4564 4.86133 41.3177 5.89067 41.0404 6.872C40.7737 7.85333 40.3737 8.72267 39.8404 9.48C39.307 10.2267 38.6617 10.7973 37.9044 11.192L36.8964 9.832C37.579 9.50133 38.1604 9.02133 38.6404 8.392C39.131 7.76267 39.499 7.048 39.7444 6.248C40.0004 5.448 40.1284 4.62667 40.1284 3.784V1.704H41.4564V3.784ZM41.7924 3.784C41.7924 4.616 41.9097 5.42133 42.1444 6.2C42.3897 6.968 42.747 7.656 43.2164 8.264C43.6964 8.86133 44.2724 9.31467 44.9444 9.624L43.9524 10.968C43.2164 10.584 42.5817 10.0347 42.0484 9.32C41.5257 8.59467 41.131 7.76267 40.8644 6.824C40.6084 5.87467 40.4804 4.86133 40.4804 3.784V1.704H41.7924V3.784ZM47.7924 13.912H46.1764V0.648H47.7924V13.912ZM60.5871 13.912H58.9231V0.648H60.5871V13.912ZM52.2031 5.016H55.1951V1.72H56.8271V10.808H50.5391V1.72H52.2031V5.016ZM55.1951 9.432V6.328H52.2031V9.432H55.1951ZM69.1099 2.456C69.1099 3.39467 68.8805 4.28 68.4219 5.112C67.9739 5.93333 67.3445 6.632 66.5339 7.208C65.7339 7.784 64.8272 8.184 63.8139 8.408L63.0939 7.032C63.9792 6.86133 64.7685 6.54667 65.4619 6.088C66.1552 5.61867 66.6939 5.064 67.0779 4.424C67.4619 3.77333 67.6539 3.11733 67.6539 2.456V1.48H69.1099V2.456ZM69.4139 2.456C69.4139 3.128 69.6059 3.78933 69.9899 4.44C70.3845 5.08 70.9285 5.63467 71.6219 6.104C72.3259 6.56267 73.1205 6.872 74.0059 7.032L73.2699 8.408C72.2565 8.19467 71.3499 7.8 70.5499 7.224C69.7499 6.648 69.1259 5.94933 68.6779 5.128C68.2299 4.296 68.0059 3.40533 68.0059 2.456V1.48H69.4139V2.456ZM74.4699 12.232H62.7419V10.84H74.4699V12.232ZM87.3286 7.896H75.5846V6.648H87.3286V7.896ZM85.9046 11.72H78.6086V12.984H76.9606V10.632H84.2726V9.832H76.9446V8.68H85.9046V11.72ZM86.2886 13.752H76.9606V12.6H86.2886V13.752ZM85.8886 3.928H78.7046V5.144H77.0726V2.872H84.2406V2.072H77.0406V0.936H85.8886V3.928ZM86.0966 5.912H77.0726V4.76H86.0966V5.912ZM93.6986 5.88C95.1173 5.88 96.2266 5.864 97.0266 5.832C97.8373 5.78933 98.6533 5.704 99.4746 5.576L99.6346 6.872C98.8133 7.01067 97.992 7.10133 97.1706 7.144C96.3493 7.18667 95.192 7.208 93.6986 7.208H92.6426V5.88H93.6986ZM98.6746 2.536H94.3066V6.68H92.6426V1.224H98.6746V2.536ZM98.4186 4.792H93.7786V3.544H98.4186V4.792ZM102.275 7.48H100.643V0.648H102.275V7.48ZM104.051 4.68H101.587V3.32H104.051V4.68ZM102.275 11.464H95.4906V13.176H93.8746V10.264H100.659V9.368H93.8586V8.056H102.275V11.464ZM102.675 13.784H93.8746V12.488H102.675V13.784ZM110.077 10.36H108.429V7.704H110.077V10.36ZM112.701 8.136H105.965V6.808H112.701V8.136ZM112.637 3.096H107.613V7.288H105.965V1.752H112.637V3.096ZM112.381 5.592H107.133V4.296H112.381V5.592ZM115.693 13.912H114.061V0.648H115.693V13.912ZM105.053 10.056C106.643 10.056 108.109 10.0293 109.453 9.976C110.797 9.92267 112.077 9.8 113.293 9.608L113.437 10.824C112.189 11.08 110.968 11.24 109.773 11.304C108.579 11.368 107.069 11.4107 105.245 11.432L105.053 10.056ZM127.928 13.896H126.312V0.648H127.928V13.896ZM129.864 7.272H127.56V5.912H129.864V7.272ZM125.352 4.024H117.8V2.664H125.352V4.024ZM121.624 4.856C122.232 4.856 122.781 4.98933 123.272 5.256C123.773 5.52267 124.163 5.89067 124.44 6.36C124.717 6.82933 124.856 7.368 124.856 7.976C124.856 8.584 124.717 9.12267 124.44 9.592C124.163 10.0613 123.773 10.4293 123.272 10.696C122.781 10.9627 122.227 11.096 121.608 11.096C121 11.096 120.445 10.968 119.944 10.712C119.453 10.4453 119.064 10.0773 118.776 9.608C118.499 9.128 118.36 8.584 118.36 7.976C118.36 7.368 118.499 6.82933 118.776 6.36C119.064 5.89067 119.453 5.52267 119.944 5.256C120.445 4.98933 121.005 4.856 121.624 4.856ZM121.608 6.216C121.288 6.216 121 6.29067 120.744 6.44C120.488 6.58933 120.285 6.79733 120.136 7.064C119.997 7.33067 119.928 7.63467 119.928 7.976C119.928 8.328 119.997 8.63733 120.136 8.904C120.285 9.17067 120.488 9.37333 120.744 9.512C121 9.65067 121.288 9.72 121.608 9.72C121.928 9.72 122.216 9.65067 122.472 9.512C122.728 9.37333 122.925 9.17067 123.064 8.904C123.213 8.63733 123.288 8.328 123.288 7.976C123.288 7.63467 123.213 7.33067 123.064 7.064C122.925 6.79733 122.728 6.58933 122.472 6.44C122.216 6.29067 121.928 6.216 121.608 6.216ZM122.424 3.192H120.792V0.839999H122.424V3.192ZM135.283 3.784C135.283 4.89333 135.139 5.944 134.851 6.936C134.574 7.928 134.152 8.80267 133.587 9.56C133.022 10.3067 132.344 10.872 131.555 11.256L130.579 9.848C131.283 9.53867 131.886 9.06933 132.387 8.44C132.888 7.81067 133.272 7.096 133.539 6.296C133.806 5.48533 133.939 4.648 133.939 3.784V1.704H135.283V3.784ZM135.587 3.784C135.587 4.59467 135.715 5.38933 135.971 6.168C136.238 6.936 136.616 7.624 137.107 8.232C137.608 8.82933 138.195 9.28267 138.867 9.592L137.907 10.936C137.139 10.5627 136.478 10.0187 135.923 9.304C135.379 8.57867 134.963 7.74667 134.675 6.808C134.398 5.85867 134.259 4.85067 134.259 3.784V1.704H135.587V3.784ZM141.395 13.912H139.731V0.648H141.395V13.912ZM153.166 4.168H149.806V2.808H153.166V4.168ZM153.214 6.984H149.806V5.656H153.214V6.984ZM150.174 8.12H144.142V1.752H150.174V8.12ZM145.742 6.808H148.558V3.08H145.742V6.808ZM154.334 10.296H152.686V0.664H154.334V10.296ZM154.622 13.64H145.854V12.296H154.622V13.64ZM147.518 12.968H145.854V9.416H147.518V12.968ZM5.00281 34.784C5.00281 35.8507 4.86414 36.8693 4.58681 37.84C4.32014 38.8107 3.91481 39.6747 3.37081 40.432C2.83748 41.1787 2.19214 41.7493 1.43481 42.144L0.45881 40.768C1.13081 40.448 1.70681 39.9733 2.18681 39.344C2.67748 38.7147 3.04548 38.0053 3.29081 37.216C3.54681 36.4267 3.67481 35.616 3.67481 34.784V32.704H5.00281V34.784ZM5.30681 34.784C5.30681 35.584 5.42414 36.3627 5.65881 37.12C5.90414 37.8773 6.26148 38.56 6.73081 39.168C7.20014 39.7653 7.75481 40.224 8.39481 40.544L7.40281 41.888C6.67748 41.5147 6.05881 40.9653 5.54681 40.24C5.03481 39.504 4.64548 38.672 4.37881 37.744C4.12281 36.8053 3.99481 35.8187 3.99481 34.784V32.704H5.30681V34.784ZM10.7628 44.896H9.11481V31.648H10.7628V44.896ZM12.6988 38.256H10.3948V36.816H12.6988V38.256ZM17.8936 38.544H16.2456V36.112H17.8936V38.544ZM22.4856 38.544H20.8536V36.112H22.4856V38.544ZM25.2376 39.328H13.5416V38.016H25.2376V39.328ZM19.3816 40.128C20.7789 40.128 21.8669 40.336 22.6456 40.752C23.4349 41.1573 23.8296 41.7387 23.8296 42.496C23.8296 43.2533 23.4349 43.8347 22.6456 44.24C21.8669 44.656 20.7789 44.864 19.3816 44.864C17.9736 44.864 16.8749 44.656 16.0856 44.24C15.2962 43.8347 14.9016 43.2533 14.9016 42.496C14.9016 41.7387 15.2962 41.1573 16.0856 40.752C16.8749 40.336 17.9736 40.128 19.3816 40.128ZM19.3816 41.392C18.4642 41.392 17.7656 41.488 17.2856 41.68C16.8056 41.8613 16.5656 42.1333 16.5656 42.496C16.5656 42.8587 16.8002 43.136 17.2696 43.328C17.7496 43.52 18.4536 43.616 19.3816 43.616C20.2989 43.616 20.9922 43.52 21.4616 43.328C21.9416 43.136 22.1816 42.8587 22.1816 42.496C22.1816 42.144 21.9416 41.872 21.4616 41.68C20.9816 41.488 20.2882 41.392 19.3816 41.392ZM19.3976 31.856C20.3362 31.856 21.1522 31.9573 21.8456 32.16C22.5389 32.3627 23.0722 32.656 23.4456 33.04C23.8189 33.4133 24.0056 33.8613 24.0056 34.384C24.0056 35.1627 23.5896 35.776 22.7576 36.224C21.9362 36.6613 20.8162 36.88 19.3976 36.88C17.9682 36.88 16.8376 36.6613 16.0056 36.224C15.1736 35.776 14.7576 35.1627 14.7576 34.384C14.7576 33.8613 14.9442 33.4133 15.3176 33.04C15.7016 32.656 16.2402 32.3627 16.9336 32.16C17.6269 31.9573 18.4482 31.856 19.3976 31.856ZM19.3976 33.168C18.4589 33.168 17.7282 33.2747 17.2056 33.488C16.6936 33.6907 16.4376 33.9893 16.4376 34.384C16.4376 34.7787 16.6936 35.0827 17.2056 35.296C17.7176 35.4987 18.4482 35.6 19.3976 35.6C20.3362 35.6 21.0562 35.4987 21.5576 35.296C22.0696 35.0827 22.3256 34.7787 22.3256 34.384C22.3256 33.9893 22.0696 33.6907 21.5576 33.488C21.0562 33.2747 20.3362 33.168 19.3976 33.168ZM30.7043 35.376C30.7043 36.3573 30.555 37.3173 30.2563 38.256C29.9683 39.184 29.5523 40.016 29.0083 40.752C28.4643 41.488 27.8243 42.0373 27.0883 42.4L26.1603 41.056C26.8216 40.736 27.3976 40.272 27.8883 39.664C28.379 39.0453 28.7523 38.3627 29.0083 37.616C29.2643 36.8693 29.3923 36.1227 29.3923 35.376V33.68H30.7043V35.376ZM31.0403 35.376C31.0403 36.0693 31.163 36.768 31.4083 37.472C31.6643 38.176 32.0323 38.816 32.5123 39.392C33.003 39.968 33.5736 40.416 34.2243 40.736L33.3283 42.064C32.5923 41.712 31.9523 41.184 31.4083 40.48C30.875 39.776 30.4643 38.9813 30.1763 38.096C29.8883 37.2107 29.7443 36.304 29.7443 35.376V33.68H31.0403V35.376ZM33.6963 34.32H26.6243V32.96H33.6963V34.32ZM36.4803 44.896H34.8323V31.648H36.4803V44.896ZM38.4163 38.192H36.1123V36.784H38.4163V38.192ZM43.4191 32.56C44.0911 32.56 44.6937 32.6987 45.2271 32.976C45.7604 33.2533 46.1817 33.6373 46.4911 34.128C46.8004 34.608 46.9551 35.1573 46.9551 35.776C46.9551 36.384 46.8004 36.9333 46.4911 37.424C46.1817 37.9147 45.7604 38.2987 45.2271 38.576C44.6937 38.8427 44.0911 38.976 43.4191 38.976C42.7577 38.976 42.1551 38.8427 41.6111 38.576C41.0777 38.2987 40.6564 37.9147 40.3471 37.424C40.0377 36.9333 39.8831 36.384 39.8831 35.776C39.8831 35.1573 40.0377 34.608 40.3471 34.128C40.6564 33.6373 41.0777 33.2533 41.6111 32.976C42.1551 32.6987 42.7577 32.56 43.4191 32.56ZM43.4191 34C43.0564 34 42.7311 34.0747 42.4431 34.224C42.1551 34.3627 41.9257 34.5653 41.7551 34.832C41.5844 35.0987 41.4991 35.4133 41.4991 35.776C41.4991 36.128 41.5844 36.4373 41.7551 36.704C41.9257 36.9707 42.1551 37.1787 42.4431 37.328C42.7311 37.4667 43.0564 37.536 43.4191 37.536C43.7817 37.536 44.1071 37.4667 44.3951 37.328C44.6937 37.1787 44.9284 36.9707 45.0991 36.704C45.2697 36.4373 45.3551 36.128 45.3551 35.776C45.3551 35.4133 45.2697 35.0987 45.0991 34.832C44.9284 34.5653 44.6937 34.3627 44.3951 34.224C44.1071 34.0747 43.7817 34 43.4191 34ZM49.9631 44.912H48.3311V31.648H49.9631V44.912ZM39.3231 40.784C40.8804 40.784 42.3364 40.7573 43.6911 40.704C45.0564 40.6507 46.3471 40.5333 47.5631 40.352L47.7071 41.584C46.4484 41.8293 45.1631 41.9893 43.8511 42.064C42.5391 42.128 41.0937 42.16 39.5151 42.16L39.3231 40.784ZM158.231 38.256H156.599V36.112H158.231V38.256ZM163.863 39.312H162.215V31.664H163.863V39.312ZM153.175 37.792C154.775 37.792 156.241 37.7707 157.575 37.728C158.908 37.6747 160.167 37.5627 161.351 37.392L161.463 38.56C160.247 38.7733 158.988 38.9173 157.687 38.992C156.396 39.0667 154.961 39.1093 153.383 39.12L153.175 37.792ZM160.535 36.592H154.279V35.296H160.535V36.592ZM160.455 33.616H155.927V35.712H154.279V32.272H160.455V33.616ZM156.823 40.976H162.263V39.872H163.863V44.736H155.223V39.872H156.823V40.976ZM162.263 43.392V42.256H156.823V43.392H162.263ZM176.738 44.896H175.106V31.648H176.738V44.896ZM168.37 41.136H166.722V32.928H168.37V41.136ZM167.842 40.16C168.855 40.16 169.874 40.112 170.898 40.016C171.932 39.92 172.962 39.7707 173.986 39.568L174.194 40.96C173.127 41.184 172.071 41.344 171.026 41.44C169.991 41.536 168.93 41.584 167.842 41.584H166.722V40.16H167.842ZM188.94 44.912H187.292V31.648H188.94V44.912ZM190.892 38.032H188.588V36.656H190.892V38.032ZM180.476 40.288C181.682 40.288 182.727 40.2613 183.612 40.208C184.508 40.144 185.404 40.0267 186.3 39.856L186.492 41.28C185.554 41.44 184.631 41.552 183.724 41.616C182.818 41.6693 181.735 41.696 180.476 41.696H179.404V40.288H180.476ZM185.42 34.256H181.036V40.96H179.404V32.896H185.42V34.256ZM192.471 43.12C192.471 42.832 192.567 42.592 192.759 42.4C192.951 42.208 193.202 42.112 193.511 42.112C193.842 42.112 194.098 42.208 194.279 42.4C194.46 42.592 194.551 42.832 194.551 43.12C194.551 43.3973 194.46 43.6267 194.279 43.808C194.098 43.9893 193.842 44.08 193.511 44.08C193.202 44.08 192.951 43.9893 192.759 43.808C192.567 43.6267 192.471 43.3973 192.471 43.12ZM52.9257 65.272H44.6857V63.928H52.9257V65.272ZM55.1497 74.104H43.4537V72.712H55.1497V74.104ZM53.6777 65.416C53.6777 66.6213 53.6511 67.6827 53.5977 68.6C53.5444 69.5173 53.4164 70.5893 53.2137 71.816L51.5657 71.656C51.7791 70.5147 51.9071 69.4907 51.9497 68.584C52.0031 67.6667 52.0297 66.6107 52.0297 65.416V63.928H53.6777V65.416ZM67.0325 75.912H65.3845V62.648H67.0325V75.912ZM58.1525 71.416C59.3792 71.416 60.4725 71.384 61.4325 71.32C62.4032 71.256 63.3952 71.1333 64.4085 70.952L64.5365 72.312C63.5232 72.4933 62.5258 72.6213 61.5445 72.696C60.5632 72.76 59.4325 72.792 58.1525 72.792H57.0165V71.416H58.1525ZM63.0645 68.792H58.6965V71.912H57.0165V67.48H61.3845V65.144H57.0005V63.784H63.0645V68.792ZM78.6433 65.192H70.4033V63.848H78.6433V65.192ZM80.8673 74.2H69.1713V72.84H80.8673V74.2ZM75.0913 73.528H73.4593V68.232H75.0913V73.528ZM79.6833 65.112C79.6833 66.2533 79.6513 67.2773 79.5873 68.184C79.5339 69.0907 79.3953 70.1573 79.1713 71.384L77.5233 71.208C77.7473 70.056 77.8859 69.032 77.9393 68.136C77.9926 67.24 78.0193 66.232 78.0193 65.112V63.848H79.6833V65.112ZM91.9413 66.072H85.6853V64.728H91.9413V66.072ZM88.8213 66.76C89.3653 66.76 89.8506 66.8933 90.2773 67.16C90.7039 67.4267 91.0346 67.7947 91.2693 68.264C91.5146 68.7333 91.6373 69.2667 91.6373 69.864C91.6373 70.4613 91.5146 71 91.2693 71.48C91.0346 71.9493 90.7039 72.3173 90.2773 72.584C89.8506 72.8507 89.3706 72.984 88.8373 72.984C88.2933 72.984 87.8079 72.8507 87.3813 72.584C86.9653 72.3173 86.6346 71.9493 86.3893 71.48C86.1439 71 86.0213 70.4613 86.0213 69.864C86.0213 69.256 86.1439 68.7227 86.3893 68.264C86.6346 67.7947 86.9653 67.4267 87.3813 67.16C87.8079 66.8933 88.2879 66.76 88.8213 66.76ZM88.8213 68.168C88.4266 68.168 88.1013 68.3227 87.8453 68.632C87.5893 68.9307 87.4613 69.3413 87.4613 69.864C87.4613 70.376 87.5893 70.7867 87.8453 71.096C88.1013 71.4053 88.4266 71.56 88.8213 71.56C89.0879 71.56 89.3226 71.4907 89.5253 71.352C89.7386 71.2133 89.9039 71.016 90.0213 70.76C90.1386 70.504 90.1973 70.2053 90.1973 69.864C90.1973 69.5227 90.1386 69.224 90.0213 68.968C89.9039 68.712 89.7386 68.5147 89.5253 68.376C89.3226 68.2373 89.0879 68.168 88.8213 68.168ZM96.7573 75.896H95.2053V62.648H96.7573V75.896ZM95.7173 69.448H93.4613V68.088H95.7173V69.448ZM93.9893 75.304H92.4533V62.92H93.9893V75.304ZM89.6373 65.576H88.0213V63.032H89.6373V65.576ZM108.736 70.36H107.072V62.648H108.736V70.36ZM110.48 67.24H108.256V65.864H110.48V67.24ZM104.528 70.616C105.851 70.616 106.896 70.8507 107.664 71.32C108.443 71.7787 108.832 72.4187 108.832 73.24C108.832 74.0613 108.443 74.7067 107.664 75.176C106.896 75.6453 105.851 75.88 104.528 75.88C103.184 75.88 102.123 75.6453 101.344 75.176C100.565 74.7067 100.176 74.0613 100.176 73.24C100.176 72.4187 100.565 71.7787 101.344 71.32C102.123 70.8507 103.184 70.616 104.528 70.616ZM104.528 71.944C103.653 71.944 102.976 72.056 102.496 72.28C102.027 72.504 101.792 72.824 101.792 73.24C101.792 73.5173 101.899 73.7573 102.112 73.96C102.325 74.152 102.635 74.3013 103.04 74.408C103.456 74.504 103.952 74.552 104.528 74.552C105.104 74.552 105.589 74.504 105.984 74.408C106.389 74.3013 106.699 74.152 106.912 73.96C107.125 73.7573 107.232 73.5173 107.232 73.24C107.232 72.824 106.997 72.504 106.528 72.28C106.069 72.056 105.403 71.944 104.528 71.944ZM100.112 68.2C101.627 68.2 102.789 68.1733 103.6 68.12C104.411 68.0667 105.2 67.9547 105.968 67.784L106.112 69.144C105.355 69.3147 104.56 69.4267 103.728 69.48C102.896 69.5227 101.691 69.544 100.112 69.544H99.056V68.2H100.112ZM104.816 64.936H100.688V69.128H99.056V63.576H104.816V64.936ZM125.81 75.896H124.162V62.648H125.81V75.896ZM121.986 64.056C121.986 65.4427 121.794 66.7173 121.41 67.88C121.037 69.032 120.407 70.0933 119.522 71.064C118.647 72.024 117.479 72.8613 116.018 73.576L115.154 72.232C116.391 71.624 117.389 70.936 118.146 70.168C118.914 69.4 119.474 68.5413 119.826 67.592C120.178 66.632 120.354 65.544 120.354 64.328V64.056H121.986ZM121.106 65.368H115.842V64.056H121.106V65.368ZM139.677 71.16H127.933V69.816H139.677V71.16ZM138.237 66.408H131.053V67.944H129.421V65.192H136.589V64.232H129.389V62.92H138.237V66.408ZM138.461 68.728H129.421V67.432H138.461V68.728ZM134.621 70.52H132.989V68.056H134.621V70.52ZM138.301 75.816H136.653V73.304H129.277V71.976H138.301V75.816ZM152.504 70.808H140.808V69.464H152.504V70.808ZM151.192 75.64H142.248V74.296H151.192V75.64ZM143.896 74.712H142.248V71.8H143.896V74.712ZM146.664 63.064C147.592 63.064 148.402 63.1707 149.096 63.384C149.789 63.5973 150.322 63.9067 150.696 64.312C151.08 64.7173 151.272 65.1973 151.272 65.752C151.272 66.3067 151.08 66.792 150.696 67.208C150.322 67.6133 149.789 67.928 149.096 68.152C148.402 68.3653 147.592 68.472 146.664 68.472C145.725 68.472 144.909 68.3653 144.216 68.152C143.522 67.928 142.984 67.6133 142.6 67.208C142.216 66.792 142.024 66.3067 142.024 65.752C142.024 65.1973 142.216 64.7173 142.6 64.312C142.984 63.9067 143.522 63.5973 144.216 63.384C144.909 63.1707 145.725 63.064 146.664 63.064ZM146.664 64.392C146.045 64.392 145.512 64.4453 145.064 64.552C144.626 64.6587 144.29 64.8133 144.056 65.016C143.821 65.2187 143.704 65.464 143.704 65.752C143.704 66.1893 143.965 66.5253 144.488 66.76C145.01 66.9947 145.736 67.112 146.664 67.112C147.592 67.112 148.312 66.9947 148.824 66.76C149.336 66.5253 149.592 66.1893 149.592 65.752C149.592 65.464 149.474 65.2187 149.24 65.016C149.016 64.8133 148.68 64.6587 148.232 64.552C147.794 64.4453 147.272 64.392 146.664 64.392ZM32.4946 106.912H30.8466V93.648H32.4946V106.912ZM25.5826 94.608C26.2226 94.608 26.7932 94.8053 27.2946 95.2C27.8066 95.584 28.2066 96.128 28.4946 96.832C28.7826 97.536 28.9266 98.3573 28.9266 99.296C28.9266 100.245 28.7826 101.072 28.4946 101.776C28.2066 102.48 27.8066 103.024 27.2946 103.408C26.7932 103.792 26.2226 103.984 25.5826 103.984C24.9319 103.984 24.3506 103.792 23.8386 103.408C23.3266 103.024 22.9266 102.48 22.6386 101.776C22.3506 101.072 22.2066 100.245 22.2066 99.296C22.2066 98.3573 22.3506 97.536 22.6386 96.832C22.9266 96.1173 23.3266 95.568 23.8386 95.184C24.3506 94.8 24.9319 94.608 25.5826 94.608ZM25.5826 96.112C25.2199 96.112 24.9052 96.24 24.6386 96.496C24.3719 96.7413 24.1639 97.104 24.0146 97.584C23.8652 98.064 23.7906 98.6347 23.7906 99.296C23.7906 99.968 23.8652 100.539 24.0146 101.008C24.1639 101.477 24.3719 101.84 24.6386 102.096C24.9052 102.341 25.2199 102.464 25.5826 102.464C25.9239 102.464 26.2279 102.341 26.4946 102.096C26.7612 101.84 26.9692 101.477 27.1186 101.008C27.2679 100.528 27.3426 99.9573 27.3426 99.296C27.3426 98.6347 27.2679 98.064 27.1186 97.584C26.9692 97.104 26.7612 96.7413 26.4946 96.496C26.2279 96.24 25.9239 96.112 25.5826 96.112ZM45.7373 96.416H35.2573V95.056H45.7373V96.416ZM46.3933 103.584H34.6653V102.224H46.3933V103.584ZM41.3213 106.912H39.6893V103.392H41.3213V106.912ZM40.5213 97.008C41.8973 97.008 42.964 97.2053 43.7213 97.6C44.4893 97.984 44.8733 98.5333 44.8733 99.248C44.8733 99.9627 44.4893 100.517 43.7213 100.912C42.9533 101.307 41.8866 101.504 40.5213 101.504C39.1453 101.504 38.0733 101.307 37.3053 100.912C36.5373 100.517 36.1533 99.9627 36.1533 99.248C36.1533 98.5333 36.532 97.984 37.2893 97.6C38.0573 97.2053 39.1346 97.008 40.5213 97.008ZM40.5213 98.256C39.636 98.256 38.9693 98.3413 38.5213 98.512C38.0733 98.672 37.8493 98.9173 37.8493 99.248C37.8493 99.5787 38.0733 99.8293 38.5213 100C38.9693 100.16 39.636 100.24 40.5213 100.24C41.396 100.24 42.0573 100.16 42.5053 100C42.9533 99.8293 43.1773 99.5787 43.1773 99.248C43.1773 98.9173 42.9533 98.672 42.5053 98.512C42.0573 98.3413 41.396 98.256 40.5213 98.256ZM41.3213 95.952H39.6893V93.616H41.3213V95.952ZM142.163 101.392H140.531V93.648H142.163V101.392ZM143.939 98.288H141.507V96.912H143.939V98.288ZM135.475 103.04H140.531V101.92H142.163V106.736H133.843V101.92H135.475V103.04ZM140.531 105.408V104.32H135.475V105.408H140.531ZM139.651 96.208H132.035V94.88H139.651V96.208ZM135.843 96.64C136.462 96.64 137.006 96.7413 137.475 96.944C137.955 97.136 138.328 97.408 138.595 97.76C138.862 98.1013 138.995 98.5067 138.995 98.976C138.995 99.4347 138.862 99.84 138.595 100.192C138.328 100.544 137.955 100.821 137.475 101.024C137.006 101.216 136.462 101.312 135.843 101.312C135.224 101.312 134.675 101.216 134.195 101.024C133.715 100.832 133.342 100.56 133.075 100.208C132.819 99.856 132.691 99.4453 132.691 98.976C132.691 98.5067 132.824 98.096 133.091 97.744C133.358 97.392 133.731 97.12 134.211 96.928C134.691 96.736 135.235 96.64 135.843 96.64ZM135.843 97.888C135.374 97.888 134.995 97.984 134.707 98.176C134.43 98.368 134.291 98.6347 134.291 98.976C134.291 99.3173 134.43 99.584 134.707 99.776C134.995 99.968 135.379 100.064 135.859 100.064C136.339 100.064 136.718 99.968 136.995 99.776C137.283 99.584 137.427 99.3173 137.427 98.976C137.427 98.6347 137.283 98.368 136.995 98.176C136.707 97.984 136.323 97.888 135.843 97.888ZM136.675 95.6H135.027V93.552H136.675V95.6ZM155.614 106.896H153.982V93.648H155.614V106.896ZM147.246 103.136H145.598V94.928H147.246V103.136ZM146.718 102.16C147.731 102.16 148.75 102.112 149.774 102.016C150.808 101.92 151.838 101.771 152.862 101.568L153.07 102.96C152.003 103.184 150.947 103.344 149.902 103.44C148.867 103.536 147.806 103.584 146.718 103.584H145.598V102.16H146.718ZM167.817 106.912H166.169V93.648H167.817V106.912ZM169.769 100.032H167.465V98.656H169.769V100.032ZM159.353 102.288C160.558 102.288 161.603 102.261 162.489 102.208C163.385 102.144 164.281 102.027 165.177 101.856L165.369 103.28C164.43 103.44 163.507 103.552 162.601 103.616C161.694 103.669 160.611 103.696 159.353 103.696H158.281V102.288H159.353ZM164.297 96.256H159.913V102.96H158.281V94.896H164.297V96.256ZM171.347 105.12C171.347 104.832 171.443 104.592 171.635 104.4C171.827 104.208 172.078 104.112 172.387 104.112C172.718 104.112 172.974 104.208 173.155 104.4C173.337 104.592 173.427 104.832 173.427 105.12C173.427 105.397 173.337 105.627 173.155 105.808C172.974 105.989 172.718 106.08 172.387 106.08C172.078 106.08 171.827 105.989 171.635 105.808C171.443 105.627 171.347 105.397 171.347 105.12ZM14.9286 158.272H6.68856V156.928H14.9286V158.272ZM17.1526 167.104H5.45656V165.712H17.1526V167.104ZM15.6806 158.416C15.6806 159.621 15.6539 160.683 15.6006 161.6C15.5472 162.517 15.4192 163.589 15.2166 164.816L13.5686 164.656C13.7819 163.515 13.9099 162.491 13.9526 161.584C14.0059 160.667 14.0326 159.611 14.0326 158.416V156.928H15.6806V158.416ZM19.5633 164.496C20.502 164.496 21.3126 164.48 21.9953 164.448C22.6886 164.405 23.4086 164.32 24.1553 164.192L24.2833 165.536C23.494 165.685 22.7366 165.787 22.0113 165.84C21.286 165.883 20.47 165.904 19.5633 165.904H18.6993V164.496H19.5633ZM23.5633 161.952H20.2833V165.008H18.6993V160.608H21.9633V158.336H18.6833V156.992H23.5633V161.952ZM29.3713 168.896H27.8193V155.648H29.3713V168.896ZM28.2033 162.08H25.9473V160.72H28.2033V162.08ZM26.4433 168.24H24.9233V155.904H26.4433V168.24ZM41.6221 162.976H32.5821V161.648H41.6221V162.976ZM42.9021 167.344H31.1741V165.968H42.9021V167.344ZM37.8301 166.432H36.1981V162.256H37.8301V166.432ZM41.5101 157.952H34.2461V162.24H32.5821V156.624H41.5101V157.952ZM50.4881 158.512C50.4881 158.8 50.3921 159.04 50.2001 159.232C50.0081 159.424 49.7574 159.52 49.4481 159.52C49.1174 159.52 48.8614 159.424 48.6801 159.232C48.4987 159.04 48.4081 158.8 48.4081 158.512C48.4081 158.235 48.4987 158.005 48.6801 157.824C48.8614 157.643 49.1174 157.552 49.4481 157.552C49.7574 157.552 50.0081 157.643 50.2001 157.824C50.3921 158.005 50.4881 158.235 50.4881 158.512ZM48.5041 158.912C48.2694 158.325 48.3281 157.712 48.6801 157.072C48.8401 156.773 49.0427 156.507 49.2881 156.272C49.5441 156.037 49.7947 155.861 50.0401 155.744L50.4881 156.256C50.0401 156.597 49.7574 156.997 49.6401 157.456C49.5334 157.787 49.5227 158.171 49.6081 158.608L48.5041 158.912ZM55.0626 159.6V168H53.2706V156.56H55.0626L60.4386 164.976V156.56H62.2306V168H60.4226L55.0626 159.6ZM68.3621 156.56H69.9941L74.3301 168H72.4421L71.4501 165.216H66.9061L65.9141 168H64.0261L68.3621 156.56ZM69.1781 158.768L67.4181 163.76H70.9381L69.1781 158.768ZM76.1131 156.56H77.9051V166.544H83.1851V168H76.1131V156.56ZM89.0952 156.56H90.7272L95.0632 168H93.1752L92.1832 165.216H87.6392L86.6472 168H84.7592L89.0952 156.56ZM89.9112 158.768L88.1512 163.76H91.6712L89.9112 158.768ZM98.6382 159.6V168H96.8462V156.56H98.6382L104.014 164.976V156.56H105.806V168H103.998L98.6382 159.6ZM117.282 164.304C117.207 165.061 116.994 165.733 116.642 166.32C116.3 166.896 115.81 167.349 115.17 167.68C114.53 168 113.756 168.16 112.85 168.16C111.932 168.16 111.127 167.941 110.434 167.504C109.751 167.056 109.223 166.427 108.85 165.616C108.476 164.805 108.29 163.867 108.29 162.8V161.776C108.29 160.699 108.476 159.755 108.85 158.944C109.234 158.133 109.778 157.509 110.482 157.072C111.186 156.624 112.012 156.4 112.962 156.4C114.252 156.4 115.266 156.752 116.002 157.456C116.738 158.16 117.17 159.109 117.298 160.304H115.474C115.378 159.493 115.132 158.885 114.738 158.48C114.354 158.075 113.762 157.872 112.962 157.872C112.343 157.872 111.82 158.027 111.394 158.336C110.967 158.645 110.647 159.093 110.434 159.68C110.22 160.256 110.114 160.949 110.114 161.76V162.8C110.114 163.579 110.21 164.261 110.402 164.848C110.604 165.424 110.908 165.877 111.314 166.208C111.719 166.528 112.231 166.688 112.85 166.688C113.703 166.688 114.322 166.496 114.706 166.112C115.1 165.717 115.356 165.115 115.474 164.304H117.282ZM119.548 156.56H126.892V158.032H121.356V161.376H126.14V162.816H121.356V166.544H126.94V168H119.548V156.56ZM129.031 156.736C129.031 156.448 129.127 156.208 129.319 156.016C129.511 155.824 129.762 155.728 130.071 155.728C130.402 155.728 130.658 155.824 130.839 156.016C131.021 156.208 131.111 156.448 131.111 156.736C131.111 157.013 131.021 157.243 130.839 157.424C130.658 157.605 130.402 157.696 130.071 157.696C129.762 157.696 129.511 157.605 129.319 157.424C129.127 157.243 129.031 157.013 129.031 156.736ZM131.015 156.336C131.25 156.923 131.191 157.536 130.839 158.176C130.679 158.475 130.471 158.741 130.215 158.976C129.97 159.211 129.725 159.387 129.479 159.504L129.031 158.992C129.479 158.651 129.762 158.251 129.879 157.792C129.986 157.461 129.997 157.077 129.911 156.64L131.015 156.336ZM146.509 161.264H143.069V159.904H146.509V161.264ZM140.989 158.784C140.989 159.861 140.851 160.891 140.573 161.872C140.307 162.853 139.907 163.723 139.373 164.48C138.84 165.227 138.195 165.797 137.437 166.192L136.429 164.832C137.112 164.501 137.693 164.021 138.173 163.392C138.664 162.763 139.032 162.048 139.277 161.248C139.533 160.448 139.661 159.627 139.661 158.784V156.704H140.989V158.784ZM141.325 158.784C141.325 159.616 141.443 160.421 141.677 161.2C141.923 161.968 142.28 162.656 142.749 163.264C143.229 163.861 143.805 164.315 144.477 164.624L143.485 165.968C142.749 165.584 142.115 165.035 141.581 164.32C141.059 163.595 140.664 162.763 140.397 161.824C140.141 160.875 140.013 159.861 140.013 158.784V156.704H141.325V158.784ZM147.325 168.912H145.709V155.648H147.325V168.912ZM160.12 168.912H158.456V155.648H160.12V168.912ZM151.736 160.016H154.728V156.72H156.36V165.808H150.072V156.72H151.736V160.016ZM154.728 164.432V161.328H151.736V164.432H154.728ZM168.643 157.456C168.643 158.395 168.413 159.28 167.955 160.112C167.507 160.933 166.877 161.632 166.067 162.208C165.267 162.784 164.36 163.184 163.347 163.408L162.627 162.032C163.512 161.861 164.301 161.547 164.995 161.088C165.688 160.619 166.227 160.064 166.611 159.424C166.995 158.773 167.187 158.117 167.187 157.456V156.48H168.643V157.456ZM168.947 157.456C168.947 158.128 169.139 158.789 169.523 159.44C169.917 160.08 170.461 160.635 171.155 161.104C171.859 161.563 172.653 161.872 173.539 162.032L172.803 163.408C171.789 163.195 170.883 162.8 170.083 162.224C169.283 161.648 168.659 160.949 168.211 160.128C167.763 159.296 167.539 158.405 167.539 157.456V156.48H168.947V157.456ZM174.003 167.232H162.275V165.84H174.003V167.232ZM186.861 162.896H175.117V161.648H186.861V162.896ZM185.437 166.72H178.141V167.984H176.493V165.632H183.805V164.832H176.477V163.68H185.437V166.72ZM185.821 168.752H176.493V167.6H185.821V168.752ZM185.421 158.928H178.237V160.144H176.605V157.872H183.773V157.072H176.573V155.936H185.421V158.928ZM185.629 160.912H176.605V159.76H185.629V160.912ZM44.3339 191.88C45.7526 191.88 46.8619 191.864 47.6619 191.832C48.4726 191.789 49.2886 191.704 50.1099 191.576L50.2699 192.872C49.4486 193.011 48.6273 193.101 47.8059 193.144C46.9846 193.187 45.8273 193.208 44.3339 193.208H43.2779V191.88H44.3339ZM49.3099 188.536H44.9419V192.68H43.2779V187.224H49.3099V188.536ZM49.0539 190.792H44.4139V189.544H49.0539V190.792ZM52.9099 193.48H51.2779V186.648H52.9099V193.48ZM54.6859 190.68H52.2219V189.32H54.6859V190.68ZM52.9099 197.464H46.1259V199.176H44.5099V196.264H51.2939V195.368H44.4939V194.056H52.9099V197.464ZM53.3099 199.784H44.5099V198.488H53.3099V199.784ZM60.7127 196.36H59.0647V193.704H60.7127V196.36ZM63.3367 194.136H56.6007V192.808H63.3367V194.136ZM63.2727 189.096H58.2487V193.288H56.6007V187.752H63.2727V189.096ZM63.0167 191.592H57.7687V190.296H63.0167V191.592ZM66.3287 199.912H64.6967V186.648H66.3287V199.912ZM55.6887 196.056C57.278 196.056 58.7447 196.029 60.0887 195.976C61.4327 195.923 62.7127 195.8 63.9287 195.608L64.0727 196.824C62.8247 197.08 61.6034 197.24 60.4087 197.304C59.214 197.368 57.7047 197.411 55.8807 197.432L55.6887 196.056ZM78.5634 199.896H76.9474V186.648H78.5634V199.896ZM80.4994 193.272H78.1954V191.912H80.4994V193.272ZM75.9874 190.024H68.4354V188.664H75.9874V190.024ZM72.2594 190.856C72.8674 190.856 73.4168 190.989 73.9074 191.256C74.4088 191.523 74.7981 191.891 75.0754 192.36C75.3528 192.829 75.4914 193.368 75.4914 193.976C75.4914 194.584 75.3528 195.123 75.0754 195.592C74.7981 196.061 74.4088 196.429 73.9074 196.696C73.4168 196.963 72.8621 197.096 72.2434 197.096C71.6354 197.096 71.0808 196.968 70.5794 196.712C70.0888 196.445 69.6994 196.077 69.4114 195.608C69.1341 195.128 68.9954 194.584 68.9954 193.976C68.9954 193.368 69.1341 192.829 69.4114 192.36C69.6994 191.891 70.0888 191.523 70.5794 191.256C71.0808 190.989 71.6408 190.856 72.2594 190.856ZM72.2434 192.216C71.9234 192.216 71.6354 192.291 71.3794 192.44C71.1234 192.589 70.9208 192.797 70.7714 193.064C70.6328 193.331 70.5634 193.635 70.5634 193.976C70.5634 194.328 70.6328 194.637 70.7714 194.904C70.9208 195.171 71.1234 195.373 71.3794 195.512C71.6354 195.651 71.9234 195.72 72.2434 195.72C72.5634 195.72 72.8514 195.651 73.1074 195.512C73.3634 195.373 73.5608 195.171 73.6994 194.904C73.8488 194.637 73.9234 194.328 73.9234 193.976C73.9234 193.635 73.8488 193.331 73.6994 193.064C73.5608 192.797 73.3634 192.589 73.1074 192.44C72.8514 192.291 72.5634 192.216 72.2434 192.216ZM73.0594 189.192H71.4274V186.84H73.0594V189.192ZM85.9182 189.784C85.9182 190.893 85.7742 191.944 85.4862 192.936C85.2089 193.928 84.7875 194.803 84.2222 195.56C83.6569 196.307 82.9795 196.872 82.1902 197.256L81.2142 195.848C81.9182 195.539 82.5209 195.069 83.0222 194.44C83.5235 193.811 83.9075 193.096 84.1742 192.296C84.4409 191.485 84.5742 190.648 84.5742 189.784V187.704H85.9182V189.784ZM86.2222 189.784C86.2222 190.595 86.3502 191.389 86.6062 192.168C86.8729 192.936 87.2515 193.624 87.7422 194.232C88.2435 194.829 88.8302 195.283 89.5022 195.592L88.5422 196.936C87.7742 196.563 87.1129 196.019 86.5582 195.304C86.0142 194.579 85.5982 193.747 85.3102 192.808C85.0329 191.859 84.8942 190.851 84.8942 189.784V187.704H86.2222V189.784ZM92.0302 199.912H90.3662V186.648H92.0302V199.912ZM99.8969 187.576C99.8969 189.229 99.4969 190.632 98.6969 191.784C97.9076 192.936 96.6969 193.864 95.0649 194.568L94.2649 193.32C95.6196 192.776 96.6169 192.077 97.2569 191.224C97.9076 190.371 98.2329 189.352 98.2329 188.168V187.576H99.8969ZM98.8729 188.936H94.8729V187.576H98.8729V188.936ZM105.193 194.216H103.641V186.664H105.193V194.216ZM101.305 191.544H98.4409V190.184H101.305V191.544ZM102.569 194.024H101.017V186.92H102.569V194.024ZM98.5369 195.32C98.5369 195.981 98.4303 196.605 98.2169 197.192C98.0036 197.779 97.6836 198.301 97.2569 198.76C96.8303 199.219 96.2969 199.571 95.6569 199.816L94.8569 198.584C95.3903 198.392 95.8436 198.125 96.2169 197.784C96.5903 197.432 96.8676 197.048 97.0489 196.632C97.2409 196.205 97.3369 195.768 97.3369 195.32V194.648H98.5369V195.32ZM98.8889 195.32C98.8889 196.024 99.0756 196.685 99.4489 197.304C99.8329 197.912 100.398 198.371 101.145 198.68L100.473 199.912C99.5343 199.549 98.8409 198.952 98.3929 198.12C97.9449 197.277 97.7209 196.344 97.7209 195.32V194.648H98.8889V195.32ZM103.193 195.32C103.193 195.939 103.097 196.552 102.905 197.16C102.724 197.757 102.425 198.301 102.009 198.792C101.604 199.272 101.092 199.645 100.473 199.912L99.7849 198.68C100.286 198.445 100.702 198.141 101.033 197.768C101.374 197.395 101.625 196.995 101.785 196.568C101.956 196.141 102.041 195.725 102.041 195.32V194.648H103.193V195.32ZM103.641 195.32C103.641 196.045 103.849 196.707 104.265 197.304C104.692 197.891 105.3 198.317 106.089 198.584L105.321 199.816C104.35 199.464 103.62 198.888 103.129 198.088C102.649 197.288 102.409 196.365 102.409 195.32V194.648H103.641V195.32ZM110.084 195.832H115.636V194.6H117.252V199.736H108.452V194.6H110.084V195.832ZM115.636 198.408V197.112H110.084V198.408H115.636ZM118.756 193.832H107.06V192.504H118.756V193.832ZM113.476 187.272C113.476 188.019 113.257 188.712 112.82 189.352C112.382 189.992 111.769 190.525 110.98 190.952C110.201 191.379 109.3 191.667 108.276 191.816L107.668 190.504C108.553 190.397 109.326 190.184 109.988 189.864C110.66 189.533 111.172 189.144 111.524 188.696C111.886 188.237 112.068 187.763 112.068 187.272V186.792H113.476V187.272ZM113.764 187.272C113.764 187.741 113.94 188.205 114.292 188.664C114.654 189.123 115.166 189.517 115.828 189.848C116.5 190.179 117.268 190.397 118.132 190.504L117.572 191.816C116.537 191.677 115.625 191.395 114.836 190.968C114.046 190.531 113.433 189.992 112.996 189.352C112.569 188.712 112.356 188.019 112.356 187.272V186.792H113.764V187.272ZM130.654 199.896H129.022V186.648H130.654V199.896ZM122.286 196.136H120.638V187.928H122.286V196.136ZM121.758 195.16C122.772 195.16 123.79 195.112 124.814 195.016C125.849 194.92 126.878 194.771 127.902 194.568L128.11 195.96C127.044 196.184 125.988 196.344 124.942 196.44C123.908 196.536 122.846 196.584 121.758 196.584H120.638V195.16H121.758ZM143.033 199.896H141.385V186.648H143.033V199.896ZM144.777 193.288H142.505V191.912H144.777V193.288ZM136.617 188.024C136.617 189.336 136.543 190.499 136.393 191.512C136.255 192.515 135.983 193.48 135.577 194.408C135.183 195.336 134.612 196.216 133.865 197.048L132.601 196.088C133.263 195.363 133.769 194.605 134.121 193.816C134.484 193.016 134.735 192.179 134.873 191.304C135.012 190.429 135.081 189.405 135.081 188.232V188.024H136.617ZM135.721 189.4H133.113V188.024H135.721V189.4ZM140.169 188.024C140.169 189.4 140.105 190.643 139.977 191.752C139.849 192.851 139.588 193.923 139.193 194.968C138.809 196.003 138.249 196.973 137.513 197.88L136.233 196.968C136.884 196.147 137.385 195.288 137.737 194.392C138.089 193.485 138.324 192.547 138.441 191.576C138.569 190.595 138.633 189.475 138.633 188.216V188.024H140.169ZM139.305 189.4H137.065V188.024H139.305V189.4ZM148.388 195.672C148.388 195.181 148.425 194.776 148.5 194.456C148.585 194.125 148.719 193.827 148.9 193.56C149.081 193.293 149.343 192.989 149.684 192.648L149.908 192.44C150.281 192.067 150.553 191.747 150.724 191.48C150.905 191.203 150.996 190.867 150.996 190.472C150.996 189.96 150.863 189.565 150.596 189.288C150.34 189 149.967 188.856 149.476 188.856C149.028 188.856 148.649 188.984 148.34 189.24C148.031 189.496 147.876 189.869 147.876 190.36H146.132C146.132 189.741 146.276 189.208 146.564 188.76C146.863 188.312 147.263 187.976 147.764 187.752C148.265 187.517 148.836 187.4 149.476 187.4C150.511 187.4 151.311 187.667 151.876 188.2C152.452 188.733 152.74 189.469 152.74 190.408C152.74 190.845 152.655 191.256 152.484 191.64C152.313 192.013 152.095 192.355 151.828 192.664C151.561 192.973 151.215 193.325 150.788 193.72C150.521 193.976 150.335 194.259 150.228 194.568C150.121 194.877 150.063 195.245 150.052 195.672H148.388ZM148.26 198.152C148.26 197.864 148.351 197.629 148.532 197.448C148.724 197.267 148.975 197.176 149.284 197.176C149.593 197.176 149.833 197.267 150.004 197.448C150.185 197.629 150.276 197.864 150.276 198.152C150.276 198.419 150.185 198.643 150.004 198.824C149.823 198.995 149.583 199.08 149.284 199.08C148.975 199.08 148.724 198.995 148.532 198.824C148.351 198.643 148.26 198.419 148.26 198.152Z" fill="black"/>
<path d="M67.5171 43.296H55.7891V41.92H67.5171V43.296ZM62.4451 42.256H60.8131V38.832H62.4451V42.256ZM66.1891 39.088H57.0851V32.656H66.1891V39.088ZM58.6851 37.744H64.5731V34H58.6851V37.744ZM80.3758 39.568H68.6478V38.24H80.3758V39.568ZM79.0638 37.056H70.0878V35.696H79.0638V37.056ZM78.9518 33.488H71.7358V36.16H70.0878V32.16H78.9518V33.488ZM79.1278 44.624H70.0878V43.28H79.1278V44.624ZM71.7198 43.632H70.0878V40.72H71.7198V43.632ZM95.8978 44.896H94.2498V31.648H95.8978V44.896ZM92.0738 33.056C92.0738 34.4427 91.8818 35.7173 91.4978 36.88C91.1245 38.032 90.4951 39.0933 89.6098 40.064C88.7351 41.024 87.5671 41.8613 86.1058 42.576L85.2418 41.232C86.4791 40.624 87.4765 39.936 88.2338 39.168C89.0018 38.4 89.5618 37.5413 89.9138 36.592C90.2658 35.632 90.4418 34.544 90.4418 33.328V33.056H92.0738ZM91.1938 34.368H85.9298V33.056H91.1938V34.368ZM109.765 40.16H98.0206V38.816H109.765V40.16ZM108.325 35.408H101.141V36.944H99.5086V34.192H106.677V33.232H99.4766V31.92H108.325V35.408ZM108.549 37.728H99.5086V36.432H108.549V37.728ZM104.709 39.52H103.077V37.056H104.709V39.52ZM108.389 44.816H106.741V42.304H99.3646V40.976H108.389V44.816ZM121.583 44.912H119.935V31.648H121.583V44.912ZM114.671 32.608C115.311 32.608 115.882 32.8053 116.383 33.2C116.895 33.584 117.295 34.128 117.583 34.832C117.871 35.536 118.015 36.3573 118.015 37.296C118.015 38.2453 117.871 39.072 117.583 39.776C117.295 40.48 116.895 41.024 116.383 41.408C115.882 41.792 115.311 41.984 114.671 41.984C114.021 41.984 113.439 41.792 112.927 41.408C112.415 41.024 112.015 40.48 111.727 39.776C111.439 39.072 111.295 38.2453 111.295 37.296C111.295 36.3573 111.439 35.536 111.727 34.832C112.015 34.1173 112.415 33.568 112.927 33.184C113.439 32.8 114.021 32.608 114.671 32.608ZM114.671 34.112C114.309 34.112 113.994 34.24 113.727 34.496C113.461 34.7413 113.253 35.104 113.103 35.584C112.954 36.064 112.879 36.6347 112.879 37.296C112.879 37.968 112.954 38.5387 113.103 39.008C113.253 39.4773 113.461 39.84 113.727 40.096C113.994 40.3413 114.309 40.464 114.671 40.464C115.013 40.464 115.317 40.3413 115.583 40.096C115.85 39.84 116.058 39.4773 116.207 39.008C116.357 38.528 116.431 37.9573 116.431 37.296C116.431 36.6347 116.357 36.064 116.207 35.584C116.058 35.104 115.85 34.7413 115.583 34.496C115.317 34.24 115.013 34.112 114.671 34.112ZM131.761 33.584C131.761 34.896 131.452 36.048 130.833 37.04C130.225 38.032 129.335 38.7307 128.161 39.136L127.345 37.792C128.017 37.568 128.583 37.2427 129.041 36.816C129.5 36.3893 129.847 35.8987 130.081 35.344C130.316 34.7893 130.433 34.2027 130.433 33.584V32.336H131.761V33.584ZM132.065 33.728C132.065 34.2827 132.177 34.8213 132.401 35.344C132.625 35.856 132.961 36.3093 133.409 36.704C133.868 37.0987 134.417 37.4027 135.057 37.616L134.257 38.944C133.5 38.688 132.86 38.304 132.337 37.792C131.815 37.2693 131.415 36.6613 131.137 35.968C130.871 35.2747 130.737 34.528 130.737 33.728V32.336H132.065V33.728ZM137.569 39.648H135.921V31.648H137.569V39.648ZM139.329 36.368H137.121V34.96H139.329V36.368ZM137.569 44.896H135.921V41.6H129.009V40.24H137.569V44.896ZM151.34 44.896H149.788V31.648H151.34V44.896ZM147.628 37.616H145.372V36.256H147.628V37.616ZM148.716 44.256H147.18V31.888H148.716V44.256ZM143.932 35.232C143.932 36.2453 143.825 37.216 143.612 38.144C143.399 39.072 143.073 39.904 142.636 40.64C142.209 41.376 141.676 41.9467 141.036 42.352L140.06 41.104C140.647 40.7307 141.137 40.2347 141.532 39.616C141.937 38.9867 142.231 38.304 142.412 37.568C142.604 36.8213 142.7 36.0427 142.7 35.232V33.792H143.932V35.232ZM144.268 35.232C144.268 36.0107 144.359 36.7573 144.54 37.472C144.721 38.1867 145.004 38.8373 145.388 39.424C145.783 40 146.273 40.464 146.86 40.816L145.9 42.048C145.249 41.6533 144.711 41.1093 144.284 40.416C143.868 39.7227 143.559 38.9333 143.356 38.048C143.153 37.1627 143.052 36.224 143.052 35.232V33.792H144.268V35.232ZM146.316 34.4H140.508V33.056H146.316V34.4ZM62.8913 101.632H51.1953V100.304H62.8913V101.632ZM57.8673 100.608H56.2033V98.496H57.8673V100.608ZM61.4833 106.896H59.8193V103.984H52.5233V102.672H61.4833V106.896ZM54.3313 95.264H59.7713V93.968H61.3873V99.056H52.6993V93.968H54.3313V95.264ZM59.7713 97.712V96.512H54.3313V97.712H59.7713ZM73.5581 95.776H65.4301V94.448H73.5581V95.776ZM75.7501 101.456H64.0541V100.096H75.7501V101.456ZM70.6781 106.912H69.0141V101.056H70.6781V106.912ZM74.3421 95.632C74.3421 96.592 74.3154 97.456 74.2621 98.224C74.2087 98.992 74.0701 99.8933 73.8461 100.928L72.1981 100.72C72.4221 99.7493 72.5607 98.8907 72.6141 98.144C72.6674 97.3973 72.6941 96.56 72.6941 95.632V94.448H74.3421V95.632ZM86.9928 106.864H85.3448V93.648H86.9928V106.864ZM88.8488 100.192H86.5608V98.8H88.8488V100.192ZM83.5848 95.024C83.5848 97.0933 83.1261 98.9333 82.2088 100.544C81.2915 102.155 79.8141 103.483 77.7768 104.528L76.8648 103.248C78.6035 102.341 79.8888 101.237 80.7208 99.936C81.5635 98.6347 81.9848 97.0933 81.9848 95.312V95.024H83.5848ZM82.8168 96.4H77.5368V95.024H82.8168V96.4ZM100.099 101.936H98.4508V100.032H100.099V101.936ZM96.5788 94.848H102.019V93.84H103.635V98.272H94.9468V93.84H96.5788V94.848ZM102.019 97.008V96.08H96.5788V97.008H102.019ZM105.139 100.416H93.4428V99.072H105.139V100.416ZM103.699 104.624H96.4508V105.936H94.8348V103.456H102.083V102.624H94.8028V101.376H103.699V104.624ZM104.035 106.784H94.8348V105.504H104.035V106.784ZM116.382 106.864H114.734V93.648H116.382V106.864ZM118.238 100.192H115.95V98.8H118.238V100.192ZM112.974 95.024C112.974 97.0933 112.515 98.9333 111.598 100.544C110.68 102.155 109.203 103.483 107.166 104.528L106.254 103.248C107.992 102.341 109.278 101.237 110.11 99.936C110.952 98.6347 111.374 97.0933 111.374 95.312V95.024H112.974ZM112.206 96.4H106.926V95.024H112.206V96.4ZM129.56 98.4H120.664V97.056H129.56V98.4ZM122.312 97.664H120.664V93.872H122.312V97.664ZM130.888 101.008H119.16V99.664H130.888V101.008ZM125 101.952C126.398 101.952 127.486 102.171 128.264 102.608C129.054 103.035 129.448 103.632 129.448 104.4C129.448 105.179 129.054 105.781 128.264 106.208C127.486 106.635 126.398 106.848 125 106.848C123.603 106.848 122.504 106.635 121.704 106.208C120.915 105.781 120.52 105.179 120.52 104.4C120.52 103.632 120.915 103.035 121.704 102.608C122.504 102.171 123.603 101.952 125 101.952ZM125 103.264C124.072 103.264 123.368 103.36 122.888 103.552C122.419 103.733 122.184 104.016 122.184 104.4C122.184 104.773 122.424 105.061 122.904 105.264C123.384 105.456 124.083 105.552 125 105.552C125.907 105.552 126.6 105.456 127.08 105.264C127.56 105.061 127.8 104.773 127.8 104.4C127.8 104.016 127.566 103.733 127.096 103.552C126.627 103.36 125.928 103.264 125 103.264Z" fill="#E40606"/>
</svg>
