<svg width="161" height="85" viewBox="0 0 161 85" fill="none" xmlns="http://www.w3.org/2000/svg">
<g filter="url(#filter0_d_8_1308)">
<rect x="4" y="2" width="153" height="77" rx="38.5" fill="#555555" shape-rendering="crispEdges"/>
<path d="M50.26 38.6C52.0333 38.6 53.42 38.58 54.42 38.54C55.4333 38.4867 56.4533 38.38 57.48 38.22L57.68 39.84C56.6533 40.0133 55.6267 40.1267 54.6 40.18C53.5733 40.2333 52.1267 40.26 50.26 40.26H48.94V38.6H50.26ZM56.48 34.42H51.02V39.6H48.94V32.78H56.48V34.42ZM56.16 37.24H50.36V35.68H56.16V37.24ZM60.98 40.6H58.94V32.06H60.98V40.6ZM63.2 37.1H60.12V35.4H63.2V37.1ZM60.98 45.58H52.5V47.72H50.48V44.08H58.96V42.96H50.46V41.32H60.98V45.58ZM61.48 48.48H50.48V46.86H61.48V48.48ZM71.1334 44.2H69.0734V40.88H71.1334V44.2ZM74.4134 41.42H65.9934V39.76H74.4134V41.42ZM74.3334 35.12H68.0534V40.36H65.9934V33.44H74.3334V35.12ZM74.0134 38.24H67.4534V36.62H74.0134V38.24ZM78.1534 48.64H76.1134V32.06H78.1534V48.64ZM64.8534 43.82C66.8401 43.82 68.6734 43.7867 70.3534 43.72C72.0334 43.6533 73.6334 43.5 75.1534 43.26L75.3334 44.78C73.7734 45.1 72.2468 45.3 70.7534 45.38C69.2601 45.46 67.3734 45.5133 65.0934 45.54L64.8534 43.82ZM93.8469 48.62H91.8269V32.06H93.8469V48.62ZM96.2669 40.34H93.3869V38.64H96.2669V40.34ZM90.6269 36.28H81.1869V34.58H90.6269V36.28ZM85.9669 37.32C86.7269 37.32 87.4135 37.4867 88.0269 37.82C88.6535 38.1533 89.1402 38.6133 89.4869 39.2C89.8335 39.7867 90.0069 40.46 90.0069 41.22C90.0069 41.98 89.8335 42.6533 89.4869 43.24C89.1402 43.8267 88.6535 44.2867 88.0269 44.62C87.4135 44.9533 86.7202 45.12 85.9469 45.12C85.1869 45.12 84.4935 44.96 83.8669 44.64C83.2535 44.3067 82.7669 43.8467 82.4069 43.26C82.0602 42.66 81.8869 41.98 81.8869 41.22C81.8869 40.46 82.0602 39.7867 82.4069 39.2C82.7669 38.6133 83.2535 38.1533 83.8669 37.82C84.4935 37.4867 85.1935 37.32 85.9669 37.32ZM85.9469 39.02C85.5469 39.02 85.1869 39.1133 84.8669 39.3C84.5469 39.4867 84.2935 39.7467 84.1069 40.08C83.9335 40.4133 83.8469 40.7933 83.8469 41.22C83.8469 41.66 83.9335 42.0467 84.1069 42.38C84.2935 42.7133 84.5469 42.9667 84.8669 43.14C85.1869 43.3133 85.5469 43.4 85.9469 43.4C86.3469 43.4 86.7069 43.3133 87.0269 43.14C87.3469 42.9667 87.5935 42.7133 87.7669 42.38C87.9535 42.0467 88.0469 41.66 88.0469 41.22C88.0469 40.7933 87.9535 40.4133 87.7669 40.08C87.5935 39.7467 87.3469 39.4867 87.0269 39.3C86.7069 39.1133 86.3469 39.02 85.9469 39.02ZM86.9669 35.24H84.9269V32.3H86.9669V35.24ZM111.12 48.62H109.06V32.06H111.12V48.62ZM106.34 33.82C106.34 35.5533 106.1 37.1467 105.62 38.6C105.154 40.04 104.367 41.3667 103.26 42.58C102.167 43.78 100.707 44.8267 98.8803 45.72L97.8003 44.04C99.347 43.28 100.594 42.42 101.54 41.46C102.5 40.5 103.2 39.4267 103.64 38.24C104.08 37.04 104.3 35.68 104.3 34.16V33.82H106.34ZM105.24 35.46H98.6603V33.82H105.24V35.46Z" fill="white"/>
</g>
<defs>
<filter id="filter0_d_8_1308" x="0" y="0" width="161" height="85" filterUnits="userSpaceOnUse" color-interpolation-filters="sRGB">
<feFlood flood-opacity="0" result="BackgroundImageFix"/>
<feColorMatrix in="SourceAlpha" type="matrix" values="0 0 0 0 0 0 0 0 0 0 0 0 0 0 0 0 0 0 127 0" result="hardAlpha"/>
<feOffset dy="2"/>
<feGaussianBlur stdDeviation="2"/>
<feComposite in2="hardAlpha" operator="out"/>
<feColorMatrix type="matrix" values="0 0 0 0 0 0 0 0 0 0 0 0 0 0 0 0 0 0 0.25 0"/>
<feBlend mode="normal" in2="BackgroundImageFix" result="effect1_dropShadow_8_1308"/>
<feBlend mode="normal" in="SourceGraphic" in2="effect1_dropShadow_8_1308" result="shape"/>
</filter>
</defs>
</svg>
