<svg width="21" height="21" viewBox="0 0 21 21" fill="none" xmlns="http://www.w3.org/2000/svg">
<g id="eva:eye-off-2-outline">
<path id="Vector" d="M15.5838 9.28376C17.1242 10.549 18.1227 12.3552 18.3751 14.3325C18.3888 14.4474 18.3799 14.5639 18.3486 14.6753C18.3174 14.7868 18.2645 14.891 18.193 14.982C18.1215 15.073 18.0328 15.149 17.9319 15.2057C17.831 15.2624 17.72 15.2987 17.6051 15.3125C17.4901 15.3263 17.3736 15.3173 17.2622 15.2861C17.1508 15.2549 17.0466 15.202 16.9556 15.1305C16.8646 15.059 16.7885 14.9702 16.7318 14.8694C16.6751 14.7685 16.6388 14.6574 16.6251 14.5425C16.4159 13.067 15.6811 11.7166 14.5558 10.7396C13.4305 9.76259 11.9903 9.22463 10.5001 9.22463C9.0098 9.22463 7.56963 9.76259 6.44433 10.7396C5.31903 11.7166 4.58424 13.067 4.37505 14.5425C4.36126 14.6574 4.32498 14.7685 4.26826 14.8694C4.21155 14.9702 4.13553 15.059 4.04452 15.1305C3.95352 15.202 3.84933 15.2549 3.73789 15.2861C3.62646 15.3173 3.50996 15.3263 3.39505 15.3125C3.28015 15.2987 3.16908 15.2624 3.0682 15.2057C2.96731 15.149 2.87859 15.073 2.80709 14.982C2.73559 14.891 2.68271 14.7868 2.65148 14.6753C2.62024 14.5639 2.61126 14.4474 2.62505 14.3325C2.87516 12.3565 3.87046 10.5505 5.40755 9.28376L3.39505 7.25376C3.2517 7.08637 3.1768 6.87105 3.1853 6.65084C3.19381 6.43062 3.2851 6.22172 3.44093 6.06589C3.59677 5.91006 3.80566 5.81877 4.02588 5.81026C4.2461 5.80176 4.46141 5.87666 4.6288 6.02001L6.91255 8.29501C7.7607 7.86511 8.6797 7.59238 9.62505 7.49001V4.37501C9.62505 4.14294 9.71724 3.92038 9.88133 3.75629C10.0454 3.5922 10.268 3.50001 10.5001 3.50001C10.7321 3.50001 10.9547 3.5922 11.1188 3.75629C11.2829 3.92038 11.3751 4.14294 11.3751 4.37501V7.49001C12.3204 7.59238 13.2394 7.86511 14.0876 8.29501L16.3713 6.02001C16.5387 5.87666 16.754 5.80176 16.9742 5.81026C17.1944 5.81877 17.4033 5.91006 17.5592 6.06589C17.715 6.22172 17.8063 6.43062 17.8148 6.65084C17.8233 6.87105 17.7484 7.08637 17.6051 7.25376L15.5838 9.28376Z" fill="#6B6B6B"/>
</g>
</svg>