<svg width="21" height="21" viewBox="0 0 21 21" fill="none" xmlns="http://www.w3.org/2000/svg">
<g id="eva:eye-off-2-outline">
<path id="Vector" d="M15.5837 11.7162C17.1241 10.451 18.1226 8.64484 18.375 6.66749C18.3888 6.55258 18.3798 6.43609 18.3486 6.32465C18.3173 6.21321 18.2645 6.10902 18.193 6.01802C18.1215 5.92702 18.0327 5.85099 17.9318 5.79428C17.831 5.73757 17.7199 5.70128 17.605 5.68749C17.4901 5.6737 17.3736 5.68268 17.2621 5.71391C17.1507 5.74515 17.0465 5.79802 16.9555 5.86953C16.8645 5.94103 16.7885 6.02975 16.7318 6.13064C16.6751 6.23152 16.6388 6.34258 16.625 6.45749C16.4158 7.93299 15.681 9.28338 14.5557 10.2604C13.4304 11.2374 11.9902 11.7754 10.5 11.7754C9.00974 11.7754 7.56957 11.2374 6.44427 10.2604C5.31897 9.28338 4.58418 7.93299 4.37499 6.45749C4.3612 6.34258 4.32492 6.23152 4.2682 6.13064C4.21149 6.02975 4.13546 5.94103 4.04446 5.86953C3.95346 5.79802 3.84927 5.74515 3.73783 5.71391C3.62639 5.68268 3.5099 5.6737 3.39499 5.68749C3.28008 5.70128 3.16902 5.73757 3.06814 5.79428C2.96725 5.85099 2.87853 5.92702 2.80703 6.01802C2.73553 6.10902 2.68265 6.21321 2.65141 6.32465C2.62018 6.43609 2.6112 6.55258 2.62499 6.66749C2.8751 8.64354 3.8704 10.4495 5.40749 11.7162L3.39499 13.7462C3.25164 13.9136 3.17674 14.1289 3.18524 14.3492C3.19375 14.5694 3.28504 14.7783 3.44087 14.9341C3.59671 15.0899 3.8056 15.1812 4.02582 15.1897C4.24604 15.1982 4.46135 15.1233 4.62874 14.98L6.91249 12.705C7.76064 13.1349 8.67964 13.4076 9.62499 13.51V16.625C9.62499 16.8571 9.71718 17.0796 9.88127 17.2437C10.0454 17.4078 10.2679 17.5 10.5 17.5C10.7321 17.5 10.9546 17.4078 11.1187 17.2437C11.2828 17.0796 11.375 16.8571 11.375 16.625V13.51C12.3203 13.4076 13.2393 13.1349 14.0875 12.705L16.3712 14.98C16.5386 15.1233 16.7539 15.1982 16.9742 15.1897C17.1944 15.1812 17.4033 15.0899 17.5591 14.9341C17.7149 14.7783 17.8062 14.5694 17.8147 14.3492C17.8232 14.1289 17.7483 13.9136 17.605 13.7462L15.5837 11.7162Z" fill="#6B6B6B"/>
</g>
</svg>
