<svg xmlns="http://www.w3.org/2000/svg" width="204" height="35" fill="none">
  <g clip-path="url(#a)" opacity=".3">
    <path fill="#000" d="M22.3767 33.714c-1.2964 0-2.508-.6937-3.1773-1.802l-4.6855-7.868c-.4999-.8376-1.3217-1.3114-2.2622-1.3114-1.3133 0-2.71133.9391-2.71133 2.6735v4.6193c0 2.0304-1.6522 3.6886-3.69415 3.6886H4.19403c-2.03348 0-3.694152-1.6497-3.694152-3.6886V5.01691C.508351 2.97799 2.16055 1.32825 4.2025 1.32825h3.04174c1.27939 0 2.49101.67682 3.16036 1.77665l4.6939 7.7411c.4999.8207 1.3218 1.2944 2.2538 1.2944 1.3133 0 2.7113-.9391 2.7113-2.6734V5.01691c0-2.03046 1.6522-3.68866 3.6942-3.68866h1.4488c2.1521 0 3.8975 1.74281 3.8975 3.89171V30.0254c0 2.0304-1.6522 3.6886-3.6941 3.6886h-3.0333Z"/>
    <path fill="#000" d="M25.1982 1.83591c1.8724 0 3.3891 1.51438 3.3891 3.38409v24.8054c0 1.7513-1.4235 3.1811-3.1858 3.1811h-3.0248c-1.1269 0-2.1606-.5923-2.7367-1.5567l-4.6855-7.868c-.6439-1.0745-1.6776-1.5567-2.7028-1.5567-1.6183 0-3.21968 1.2098-3.21968 3.181v4.6193c0 1.7513-1.42343 3.1811-3.18578 3.1811h-1.6522c-1.75387 0-3.18577-1.4214-3.18577-3.1811V5.01696c0-1.75127 1.42343-3.18105 3.18577-3.18105h3.04175c1.10993 0 2.14362.58375 2.71977 1.5313l4.69394 7.74109c.6439 1.0576 1.6691 1.5398 2.6859 1.5398 1.6183 0 3.2197-1.2098 3.2197-3.18106V5.01696c0-1.75127 1.4234-3.18105 3.1857-3.18105h1.4489m0-1.015231h-1.4489c-2.313 0-4.2025 1.878171-4.2025 4.196281v4.45008c0 1.41286-1.1353 2.16586-2.2029 2.16586-.4406 0-1.2625-.1354-1.8132-1.0491l-4.6855-7.74112C10.0827 1.59902 8.70158.820679 7.24426.820679H4.20252C1.88097.820679 0 2.69885 0 5.01696V30.0339c0 2.3096 1.88097 4.1963 4.20252 4.1963h1.6522c2.31308 0 4.20248-1.8782 4.20248-4.1963v-4.6193c0-.8037.3644-1.3029.6694-1.5821.4067-.3722.9659-.5837 1.5336-.5837.449 0 1.2709.1353 1.8301 1.066l4.6855 7.868c.754 1.2606 2.1351 2.0474 3.6094 2.0474H25.41c2.3131 0 4.2025-1.8782 4.2025-4.1963V5.22c0-2.42809-1.9742-4.399321-4.4059-4.399321h-.0169ZM65.1475 33.714c-2.1521 0-3.8975-1.7428-3.8975-3.8917V5.21996c0-2.1489 1.7454-3.89171 3.8975-3.89171h1.237c2.1521 0 3.8975 1.74281 3.8975 3.89171V23.0541c0 1.5906 1.2964 2.8765 2.8808 2.8765h7.9136c2.1521 0 3.8975 1.7428 3.8975 3.8917 0 2.1489-1.7454 3.8917-3.8975 3.8917H65.139h.0085Z"/>
    <path fill="#000" d="M66.3929 1.83591c1.8725 0 3.3892 1.51438 3.3892 3.38409v17.8257c0 1.8697 1.5166 3.3841 3.3891 3.3841h7.9136c1.8725 0 3.3891 1.5144 3.3891 3.3841 0 1.8697-1.5166 3.3841-3.3891 3.3841H65.1474c-1.8725 0-3.3891-1.5144-3.3891-3.3841V5.22c0-1.86971 1.5166-3.38409 3.3891-3.38409h1.2371m0-1.015231h-1.2371c-2.4317 0-4.4058 1.971231-4.4058 4.399321v24.6024c0 2.4281 1.9741 4.3993 4.4058 4.3993h15.9374c2.4317 0 4.4059-1.9712 4.4059-4.3993s-1.9742-4.3994-4.4059-4.3994h-7.9136c-1.3048 0-2.3724-1.0659-2.3724-2.3688V5.22c0-2.42809-1.9742-4.399321-4.4059-4.399321h-.0084ZM138.946 33.7055c-2.101 0-3.813-1.7428-3.813-3.8832v-3.6718c0-1.8781-1.466-2.8849-2.838-2.8849-.983 0-1.847.5161-2.373 1.4129l-4.143 7.1235c-.686 1.176-1.94 1.9035-3.279 1.9035h-2.635c-2.101 0-3.813-1.7428-3.813-3.8832V5.21992c0-2.14044 1.712-3.88325 3.813-3.88325h1.212c2.101 0 3.812 1.74281 3.812 3.88325v3.511c0 1.81048 1.449 2.88498 2.839 2.88498.974 0 1.838-.5077 2.355-1.3875l4.152-7.01356c.686-1.15905 1.932-1.87817 3.262-1.87817h2.66c2.102 0 3.813 1.74281 3.813 3.88325V29.8223c0 2.1404-1.711 3.8832-3.813 3.8832h-1.211Z"/>
    <path fill="#000" d="M140.157 1.83587c1.831 0 3.305 1.51438 3.305 3.38409V29.8223c0 1.8697-1.483 3.3841-3.305 3.3841h-1.211c-1.83 0-3.305-1.5144-3.305-3.3841v-3.6717c0-2.1066-1.66-3.3926-3.346-3.3926-1.068 0-2.136.5161-2.805 1.6582l-4.143 7.1236c-.593 1.0236-1.678 1.6582-2.839 1.6582h-2.635c-1.83 0-3.304-1.5144-3.304-3.3841V5.21996c0-1.86971 1.483-3.38409 3.304-3.38409h1.212c1.83 0 3.304 1.51438 3.304 3.38409v3.511c0 2.10664 1.661 3.39254 3.347 3.39254 1.059 0 2.118-.5076 2.788-1.6328l4.151-7.01354c.602-1.01523 1.67-1.63283 2.83-1.63283h2.661m0-1.006768h-2.661c-1.499 0-2.914.812178-3.694 2.123518l-4.151 7.01354c-.594.99828-1.458 1.14208-1.924 1.14208-1.135 0-2.338-.8375-2.338-2.38574v-3.511c0-2.41962-1.932-4.390858-4.313-4.390858h-1.212c-2.38 0-4.312 1.971238-4.312 4.390858V29.8223c0 2.4197 1.932 4.3909 4.312 4.3909h2.635c1.517 0 2.941-.8291 3.712-2.1574l4.143-7.1235c.584-1.0068 1.466-1.159 1.932-1.159 1.135 0 2.338.8375 2.338 2.3858v3.6717c0 2.4196 1.932 4.3909 4.313 4.3909h1.211c2.381 0 4.313-1.9713 4.313-4.3909V5.21996c0-2.41962-1.932-4.390858-4.313-4.390858l.009.00846ZM162.636 34.5008c-2.339 0-4.609-.423-6.745-1.2521-2.092-.8376-3.922-2.0136-5.439-3.4941-1.559-1.489-2.745-3.2572-3.626-5.4061-.899-2.0474-1.339-4.2893-1.339-6.8443 0-2.555.44-4.7547 1.339-6.8528.881-2.10661 2.067-3.8748 3.617-5.39764 1.517-1.48054 3.339-2.65651 5.431-3.49408 2.144-.83756 4.415-1.252112 6.753-1.252112 3.203 0 6.033.685282 8.414 2.030462 1.644.96446 3.194 2.25888 4.601 3.84094.576.65144.864 1.489.804 2.36041-.059.86294-.449 1.64972-1.093 2.20812l-1.042.8968c-.576.4991-1.313.7699-2.067.7699-.924 0-1.796-.4061-2.398-1.1168-.584-.7022-1.245-1.3113-1.949-1.8274-1.347-.956-3.058-1.43824-5.083-1.43824-1.212 0-2.364.23689-3.423.7022-1.042.48224-1.898 1.10834-2.61 1.92044-.771.8714-1.339 1.8359-1.737 2.9442-.415 1.0998-.618 2.335-.618 3.6887 0 1.3536.203 2.5719.618 3.6379.356 1.1083.924 2.0812 1.695 2.9103.737.8799 1.635 1.5313 2.686 1.9628 1.008.4822 2.135.7106 3.465.7106 1.068 0 2-.1184 2.83-.3722.762-.2115 1.517-.5753 2.271-1.0745.635-.4399 1.287-1.0321 1.881-1.7174.627-.7783 1.533-1.2183 2.499-1.2183.78 0 1.517.2877 2.093.8207l1.034.9475c1.279 1.176 1.389 3.198.228 4.5009-1.355 1.5397-2.83 2.7749-4.499 3.7732-2.448 1.4044-5.346 2.1151-8.617 2.1151l.026.0169Z"/>
    <path fill="#000" d="M162.636 1.00677c3.126 0 5.871.66836 8.168 1.97123 1.601.93909 3.092 2.18274 4.473 3.73943 1 1.12521.89 2.86802-.246 3.84937l-1.042.8968c-.5.4315-1.127.6515-1.737.6515-.745 0-1.491-.3131-2.008-.9307-.618-.736-1.296-1.37052-2.042-1.91198-1.448-1.02369-3.245-1.5313-5.38-1.5313-1.339 0-2.559.27918-3.626.7445-1.11.51607-2.025 1.18443-2.788 2.04738-.805.9052-1.415 1.9289-1.83 3.1049-.457 1.2183-.652 2.5212-.652 3.8579s.195 2.6396.652 3.8155c.381 1.1845.991 2.2082 1.796 3.0711.763.9052 1.72 1.6159 2.864 2.0897 1.068.5076 2.288.7445 3.66.7445 1.068 0 2.059-.1185 2.974-.3892.839-.2369 1.644-.626 2.407-1.1421.686-.4738 1.372-1.0999 1.982-1.8105 0 0 .009-.0169.017-.0254.542-.6683 1.322-1.0237 2.101-1.0237.627 0 1.246.22 1.754.6853l1.034.9475c1.085.9984 1.169 2.6904.195 3.7987-1.33 1.5059-2.779 2.7157-4.381 3.6802-2.33 1.3367-5.109 2.0474-8.354 2.0474-2.364 0-4.541-.4315-6.558-1.2183-2.059-.8291-3.812-1.9712-5.261-3.3841-1.525-1.4552-2.669-3.1895-3.508-5.2369-.881-2.0051-1.296-4.2132-1.296-6.6497 0-2.4366.423-4.6024 1.296-6.6498.839-2.00505 1.983-3.7394 3.508-5.23686 1.449-1.41286 3.202-2.55499 5.261-3.3841 2.025-.7868 4.194-1.21827 6.558-1.21827m0-1.00677c-2.398 0-4.728.431472-6.93 1.28596-2.161.8714-4.042 2.08121-5.609 3.60406-1.61 1.5736-2.83 3.39255-3.737 5.56688-.924 2.1573-1.373 4.4585-1.373 7.0389 0 2.5803.449 4.9323 1.381 7.0558.899 2.1997 2.127 4.0186 3.737 5.5584 1.55 1.5144 3.431 2.7242 5.584 3.5956 2.211.8629 4.541 1.2944 6.939 1.2944 3.363 0 6.346-.736 8.862-2.1827 1.729-1.0406 3.237-2.3097 4.635-3.8833 1.339-1.5144 1.22-3.8494-.271-5.2115l-1.034-.9475c-.669-.6092-1.533-.9476-2.44-.9476-1.118 0-2.178.5076-2.889 1.396-.559.6514-1.178 1.2098-1.788 1.6328-.695.4653-1.406.8037-2.101.9983-.805.2369-1.678.3553-2.703.3553-1.263 0-2.313-.2115-3.228-.6514-.017 0-.034-.0169-.051-.0254-.974-.3976-1.805-1.0068-2.474-1.802-.009-.0085-.017-.0254-.034-.0339-.72-.7783-1.246-1.6836-1.576-2.6988 0-.0169-.008-.0338-.017-.0508-.39-1.0067-.585-2.1404-.585-3.4517 0-1.3114.195-2.4704.585-3.5026.381-1.066.915-1.9712 1.644-2.7918.669-.753 1.466-1.34522 2.448-1.80208.975-.43147 2.059-.65143 3.203-.65143 1.915 0 3.525.45685 4.796 1.35361.661.4823 1.288 1.066 1.847 1.7344.695.8206 1.703 1.2944 2.779 1.2944.881 0 1.737-.3215 2.398-.8968l1.042-.8968c.754-.6514 1.203-1.55667 1.271-2.55497.068-1.00677-.263-1.97124-.932-2.7242-1.441-1.63283-3.033-2.95262-4.72-3.94247-2.465-1.39594-5.38-2.10659976-8.676-2.10659976L162.627 0ZM180.141 33.714c-1.085 0-1.966-.8798-1.966-1.9627V3.29102c0-1.08291.881-1.96277 1.966-1.96277h20.995c1.085 0 1.966.87986 1.966 1.96277v3.6379c0 1.1929-.966 2.16582-2.161 2.16582h-.178c-.703-.05922-1.525-.15228-2.406-.24534-1.822-.21151-3.88-.43993-5.761-.43993-2.229 0-4.982.64297-5.914 1.86123-.348.4569-.441.9729-.272 1.5736.238.8545.949 1.5567 1.907 1.8697.906.2961 2.033.4484 3.431.4484 1.932 0 4.016-.2792 5.855-.5245.729-.1015 1.415-.1946 2.033-.2538.094-.0085.178-.0169.272-.0169 1.355 0 2.465 1.1083 2.465 2.4704v3.0203c0 1.2182-.991 2.1996-2.211 2.1996-.102 0-.204 0-.305-.0169-.458-.0677-.949-.1523-1.483-.2369-1.457-.2538-3.118-.5414-5.126-.5414-2.584 0-6.914.3722-6.914 2.8849 0 2.3773 3.872 2.8765 7.117 2.8765 1.839 0 3.347-.2623 4.677-.4907 1.085-.1861 2.017-.3553 2.949-.3553 1.516 0 2.415 1.0406 2.415 2.7834v3.824c0 1.0829-.882 1.9628-1.966 1.9628h-21.385v-.0339Z"/>
    <path fill="#000" d="M201.145 1.83591c.805 0 1.457.65144 1.457 1.45516v3.6379c0 .92217-.746 1.65821-1.652 1.65821h-.136c-2.152-.16921-5.38-.69374-8.21-.69374-2.83 0-7.524.9983-6.677 4.07786.297 1.0744 1.187 1.8697 2.246 2.225 1.05.3469 2.287.4653 3.592.4653 2.745 0 5.779-.5499 7.939-.7868.068 0 .144-.0084.212-.0084 1.068 0 1.957.8629 1.957 1.9627v3.0203c0 .9561-.779 1.6921-1.703 1.6921-.076 0-.161 0-.237-.0169-1.72-.2369-3.881-.7868-6.677-.7868-4.033 0-7.422.8545-7.422 3.3925 0 2.5381 3.389 3.3841 7.626 3.3841 3.338 0 5.609-.846 7.625-.846 1.695 0 1.907 1.4721 1.907 2.2758v3.824c0 .8037-.653 1.4552-1.458 1.4552h-21.385c-.805 0-1.457-.6515-1.457-1.4552V3.29107c0-.80372.652-1.45516 1.457-1.45516h20.996Zm0-1.015231h-20.996c-1.364 0-2.474 1.108291-2.474 2.470391V31.7513c0 1.3621 1.11 2.4704 2.474 2.4704h21.385c1.365 0 2.474-1.1083 2.474-2.4704v-3.824c0-2.0305-1.118-3.2911-2.923-3.2911-.974 0-1.974.1777-3.033.3554-1.313.2284-2.796.4907-4.592.4907-1.991 0-6.609-.2285-6.609-2.3689s4.482-2.3773 6.405-2.3773c1.924 0 3.593.2876 5.033.533.534.093 1.034.1776 1.5.2453.127.0169.254.0254.381.0254 1.5 0 2.72-1.2183 2.72-2.7073v-3.0203c0-.7952-.313-1.5482-.873-2.1066-.559-.5584-1.304-.8629-2.092-.8629-.111 0-.212 0-.322.0169-.619.0677-1.305.1607-2.042.2623-1.822.2453-3.889.5245-5.787.5245-1.331 0-2.432-.1438-3.271-.4146-.796-.2622-1.389-.8291-1.576-1.5228-.127-.4568-.068-.8037.187-1.1337.83-1.08288 3.457-1.66663 5.515-1.66663 1.856 0 3.898.23688 5.711.43993.881.10152 1.703.19458 2.423.25381.068 0 .144.00845.212.00845.712 0 1.381-.27918 1.89-.7868.508-.50761.779-1.17597.779-1.89509v-3.6379c0-1.3621-1.11-2.470391-2.474-2.470391h-.025ZM53.5312 33.4433c-.9913 0-1.8555-.6599-2.169-1.6498L49.566 26.049c-.178-.5753-.6779-.9645-1.2286-.9645-.1186 0-.2288.017-.3474.0508l-6.7613 2.0305c-.4152.1269-.7456.4653-.8812.9052l-1.1692 3.7225c-.3135.9899-1.1777 1.6498-2.1691 1.6498h-3.7449c-.7118 0-1.3642-.3385-1.8047-.9307-.4661-.6345-.6016-1.4636-.3644-2.2166l6.5919-24.82229c.2457-.93062.6947-1.76819 1.2878-2.43655 1.7285-1.92893 3.6433-1.92893 5.1854-1.92893h2.4825c.1187-.00846.2457-.01692.3644-.01692 1.2794 0 2.2114.26227 3.4315 1.64974.7625.85449 1.3387 1.90356 1.6776 3.02877l7.3205 24.53468c.2372.753.0932 1.5821-.3728 2.2166-.4321.5922-1.093.9306-1.8047.9306h-3.745l.0169-.0084Zm-8.2694-18.105c-.4576 0-1.0252.2369-1.2286.9053-.144.4653-.0678.956.2118 1.3452.2542.3384.6185.533 1.0083.533.1186 0 .2372-.017.3559-.0508.3304-.1015.6015-.3299.7795-.6514.1864-.3554.2287-.7784.1101-1.1675-.2033-.6684-.771-.9053-1.2286-.9053l-.0084-.0085Z"/>
    <path fill="#000" d="M47.0156 1.58205c1.1777 0 1.9488.21996 3.0672 1.48054.7286.82064 1.2624 1.80203 1.5675 2.84264l7.3205 24.53467c.3812 1.2352-.483 2.5127-1.7031 2.5127h-3.745c-.771 0-1.4573-.5245-1.703-1.3029l-1.7962-5.7445c-.2457-.7952-.949-1.3028-1.6946-1.3028-.161 0-.322.0253-.4829.0676l-6.7613 2.0305c-.5677.1692-1.0253.6345-1.2117 1.2352l-1.1692 3.7225c-.2457.7783-.932 1.3029-1.6946 1.3029h-3.745c-1.22 0-2.0843-1.2775-1.703-2.5127l6.6003-24.84774c.2203-.82064.6101-1.59898 1.1778-2.2335 1.5674-1.75127 3.2874-1.76819 4.821-1.76819H47.0072M45.2448 18.6294c.161 0 .3304-.0254.4999-.0761.9828-.2961 1.5251-1.4044 1.2116-2.4366-.2542-.8375-.9828-1.2521-1.703-1.2521-.7202 0-1.4404.4146-1.6946 1.2437-.3982 1.2775.5253 2.5127 1.6861 2.5127M47.0156.600661h-2.8553c-1.5505 0-3.6687 0-5.5412 2.098139-.644.71912-1.1269 1.63283-1.3981 2.63113L30.6207 30.1777c-.2711.8714-.1101 1.8612.4491 2.6142.5253.7191 1.3302 1.1252 2.2029 1.1252h3.745c1.2031 0 2.2622-.8037 2.635-1.9882l1.1693-3.7225c.0932-.2876.2965-.5076.5592-.5837l6.7613-2.0305c.0678-.0169.1356-.0338.2034-.0338.3389 0 .6439.2453.7625.6176l1.7962 5.7445c.3729 1.1929 1.432 1.9966 2.6351 1.9966h3.745c.8727 0 1.6691-.4146 2.2029-1.1252.5592-.753.7202-1.7513.4406-2.6566L52.6077 5.60912c-.3559-1.19289-.9744-2.30118-1.7793-3.21489C49.4897.879848 48.4221.58374 47.0241.58374l-.0085.016921ZM45.2533 17.6311c-.2288 0-.4491-.1184-.6101-.3384-.1864-.2538-.2372-.5837-.144-.9052.161-.5161.6185-.5584.7625-.5584.1441 0 .6016.0423.7626.5584.0847.2622.0593.5499-.0678.7868-.1101.203-.2796.3553-.4829.4145-.0763.0254-.1441.0339-.2119.0339l-.0084.0084ZM108.554 33.7564c-.992 0-1.856-.6599-2.169-1.6497l-1.17-3.7225c-.135-.4484-.474-.7868-.881-.9053l-6.7611-2.0304c-.1101-.0339-.2287-.0508-.3474-.0508-.5592 0-1.0506.3892-1.2285.956l-1.7963 5.7445c-.305.9898-1.1777 1.6497-2.169 1.6497h-3.745c-.7117 0-1.3641-.3384-1.8047-.9306-.466-.6345-.6016-1.4636-.3643-2.2166l7.3205-24.52619c.3389-1.12521.9151-2.17428 1.6776-3.02877C96.3444 1.66672 97.2679 1.396 98.5473 1.396h2.8557c1.533 0 3.457 0 5.185 1.93739.593.66836 1.042 1.50592 1.288 2.43655l6.6 24.84776c.229.736.093 1.5651-.373 2.1996-.432.5922-1.093.9306-1.804.9306h-3.745v.0085Zm-8.253-18.1049c-.4574 0-1.025.2369-1.2284.9052-.1186.3892-.0762.8122.1102 1.1676.1694.3214.449.5583.771.6514.1182.0338.2372.0508.3562.0508.389 0 .754-.1946 1.008-.533.28-.3808.364-.8714.212-1.3452-.212-.6684-.771-.9053-1.229-.9053v.0085Z"/>
    <path fill="#000" d="M98.5473 1.89512h2.8467c1.534 0 3.254.01692 4.821 1.76819.568.63452.958 1.41286 1.178 2.2335l6.6 24.84769c.382 1.2352-.483 2.5127-1.703 2.5127h-3.745c-.771 0-1.457-.5245-1.694-1.3029l-1.17-3.7225c-.186-.6006-.643-1.0575-1.211-1.2352l-6.7615-2.0304c-.161-.0508-.3219-.0677-.4829-.0677-.7541 0-1.4489.5076-1.6946 1.3029l-1.7962 5.7445c-.2457.7783-.932 1.3029-1.7031 1.3029h-3.7449c-1.2201 0-2.0844-1.2775-1.7031-2.5127l7.3205-24.53472c.3135-1.04907.8473-2.03045 1.5675-2.84264 1.1099-1.26057 1.8894-1.48054 3.0672-1.48054m1.7621 17.0305c1.169 0 2.093-1.2352 1.686-2.5127-.262-.8291-.983-1.2437-1.694-1.2437-.712 0-1.4406.4146-1.7033 1.2521-.322 1.0322.2288 2.1405 1.2116 2.4366.1695.0507.3387.0761.4997.0761M98.5389.905273c-1.3896 0-2.4656.296107-3.8043 1.810487-.8049.91371-1.4235 2.022-1.7793 3.21489L85.6348 30.4653c-.2796.8968-.1102 1.8867.4405 2.6481.5254.7191 1.3303 1.1252 2.203 1.1252h3.745c1.2031 0 2.2622-.8037 2.635-1.9966l1.7962-5.7445c.1187-.3723.4237-.6176.7626-.6176.0678 0 .1356.0085.2034.0338l6.7615 2.0305c.254.0761.466.2961.559.5838l1.169 3.7225c.373 1.1928 1.432 1.9881 2.635 1.9881h3.745c.873 0 1.669-.4145 2.203-1.1252.559-.753.72-1.7513.441-2.6565l-6.592-24.80543c-.263-.99831-.746-1.91202-1.398-2.63114-1.873-2.098136-3.999-2.098136-5.55-2.098136h-2.4569c-.1356-.00846-.2627-.016921-.3898-.016921h-.0084ZM100.301 17.9357c-.068 0-.144-.0084-.212-.0338-.203-.0592-.3724-.2115-.4826-.4146-.1271-.2368-.1525-.5245-.0762-.7868.161-.5245.6268-.5583.7628-.5583.135 0 .601.0423.762.5583.102.3215.051.6515-.144.9053-.161.2115-.381.3384-.61.3384v-.0085Z"/>
    <path fill="#fff" d="M44.8975 19.7293c1.5582 0 2.8214-2.2727 2.8214-5.0761 0-2.8035-1.2632-5.07617-2.8214-5.07617S42.076 11.8497 42.076 14.6532c0 2.8034 1.2633 5.0761 2.8215 5.0761ZM101.132 19.9577c1.558 0 2.821-2.2727 2.821-5.0761 0-2.8035-1.263-5.07618-2.821-5.07618-1.5587 0-2.8219 2.27268-2.8219 5.07618 0 2.8034 1.2632 5.0761 2.8219 5.0761Z"/>
  </g>
  <defs>
    <clipPath id="a">
      <path fill="#fff" d="M0 0h204v35H0z"/>
    </clipPath>
  </defs>
</svg>