<svg xmlns="http://www.w3.org/2000/svg" width="36" height="36" fill="none">
  <path fill="#D9D9D9" fill-rule="evenodd" d="M4.17157 4.17154C3 5.34312 3 7.22873 3 11v14c0 3.7712 0 5.6568 1.17157 6.8284C5.34315 33 7.22876 33 11 33h14c3.7712 0 5.6569 0 6.8284-1.1716C33 30.6568 33 28.7712 33 25V11c0-3.25026 0-5.09989-.75-6.29892V25.5c-.5832 0-.8748 0-1.1536-.0395-.6693-.0947-1.3036-.3574-1.8437-.7637-.2251-.1693-.4313-.3754-.8437-.7878l-1.5806-1.5806c-1.3333-1.3333-2-2-2.8284-2-.8284 0-1.4951.6667-2.8284 2l-1.0828 1.0827c-.9464.9464-1.4196 1.4196-1.9406 1.3193-.521-.1003-.7846-.7154-1.3119-1.9456l-1.009-2.3544c-1.0544-2.4604-1.5817-3.6906-2.6237-3.8913-1.0421-.2007-1.9885.7457-3.88128 2.6385L5.25 23.25V3.47504c-.42139.16677-.77401.39209-1.07843.6965Z" clip-rule="evenodd"/>
  <path stroke="#D9D9D9" stroke-width="2" d="M4 11c0-1.91389.00212-3.24871.13753-4.25584.13154-.97837.37213-1.49646.74115-1.86548.36902-.36902.88711-.60961 1.86548-.74115C7.75129 4.00212 9.08611 4 11 4h14c1.9139 0 3.2487.00212 4.2558.13753.9784.13154 1.4965.37213 1.8655.74115.369.36902.6096.88711.7412 1.86548C31.9979 7.75129 32 9.08611 32 11v14c0 1.9139-.0021 3.2487-.1375 4.2558-.1316.9784-.3722 1.4965-.7412 1.8655s-.8871.6096-1.8655.7412C28.2487 31.9979 26.9139 32 25 32H11c-1.91389 0-3.24871-.0021-4.25584-.1375-.97837-.1316-1.49646-.3722-1.86548-.7412-.36902-.369-.60961-.8871-.74115-1.8655C4.00212 28.2487 4 26.9139 4 25V11Z"/>
  <circle cx="22.5" cy="13.5" r="3" fill="#D9D9D9"/>
</svg>