<svg xmlns="http://www.w3.org/2000/svg" width="164" height="44" fill="none">
<g opacity=".08">
<path fill="#000" d="M25.794 33.797c-.915 0-1.77-.49-2.242-1.272l-3.308-5.554c-.352-.591-.933-.925-1.596-.925-.927 0-1.914.662-1.914 1.887v3.26a2.608 2.608 0 0 1-2.608 2.604H12.96a2.608 2.608 0 0 1-2.608-2.604V13.541a2.613 2.613 0 0 1 2.614-2.604h2.147c.903 0 1.758.478 2.23 1.254l3.314 5.464c.353.58.933.914 1.59.914.928 0 1.915-.663 1.915-1.887v-3.141a2.608 2.608 0 0 1 2.607-2.604h1.023a2.75 2.75 0 0 1 2.75 2.747v17.51a2.608 2.608 0 0 1-2.607 2.603H25.794Z"/>
<path fill="#000" d="M27.786 11.296a2.39 2.39 0 0 1 2.392 2.389v17.509a2.248 2.248 0 0 1-2.248 2.245h-2.135a2.247 2.247 0 0 1-1.932-1.099l-3.307-5.554c-.455-.758-1.184-1.098-1.908-1.098-1.142 0-2.273.854-2.273 2.245v3.26a2.248 2.248 0 0 1-2.248 2.246H12.96a2.248 2.248 0 0 1-2.248-2.245V13.54a2.248 2.248 0 0 1 2.248-2.245h2.147c.784 0 1.513.412 1.92 1.08l3.313 5.465c.455.746 1.178 1.087 1.896 1.087 1.142 0 2.273-.854 2.273-2.245V13.54a2.248 2.248 0 0 1 2.248-2.245h1.023m0-.716h-1.023a2.967 2.967 0 0 0-2.966 2.961v3.142c0 .997-.801 1.528-1.555 1.528-.31 0-.891-.095-1.28-.74l-3.307-5.464a2.988 2.988 0 0 0-2.536-1.428h-2.147A2.964 2.964 0 0 0 10 13.541V31.2a2.967 2.967 0 0 0 2.966 2.961h1.167a2.967 2.967 0 0 0 2.966-2.961v-3.261c0-.567.257-.92.472-1.117a1.617 1.617 0 0 1 1.083-.412c.317 0 .897.096 1.292.753l3.307 5.553a2.983 2.983 0 0 0 2.547 1.445h2.136a2.967 2.967 0 0 0 2.966-2.961V13.685a3.109 3.109 0 0 0-3.11-3.106h-.012ZM55.987 33.797a2.75 2.75 0 0 1-2.751-2.747V13.684a2.75 2.75 0 0 1 2.75-2.747h.874a2.75 2.75 0 0 1 2.75 2.747v12.588c0 1.123.916 2.03 2.034 2.03h5.586a2.75 2.75 0 0 1 2.751 2.748 2.75 2.75 0 0 1-2.751 2.747H55.98h.007Z"/>
<path fill="#000" d="M56.863 11.296a2.39 2.39 0 0 1 2.392 2.389v12.582a2.39 2.39 0 0 0 2.392 2.389h5.586a2.39 2.39 0 1 1 0 4.777h-11.25a2.39 2.39 0 0 1-2.392-2.389v-17.36a2.39 2.39 0 0 1 2.393-2.388h.873m0-.717h-.873a3.109 3.109 0 0 0-3.11 3.106V31.05a3.109 3.109 0 0 0 3.11 3.105h11.249a3.109 3.109 0 0 0 3.11-3.105 3.11 3.11 0 0 0-3.11-3.105h-5.586a1.678 1.678 0 0 1-1.674-1.672V13.685a3.109 3.109 0 0 0-3.11-3.106h-.006ZM108.074 33.791c-1.483 0-2.691-1.23-2.691-2.74v-2.592c0-1.326-1.035-2.037-2.004-2.037-.693 0-1.303.364-1.674.997l-2.925 5.029a2.693 2.693 0 0 1-2.314 1.343h-1.86c-1.483 0-2.691-1.23-2.691-2.74V13.684c0-1.511 1.208-2.741 2.691-2.741h.855c1.483 0 2.692 1.23 2.692 2.74v2.479c0 1.278 1.022 2.036 2.003 2.036.688 0 1.298-.358 1.663-.979l2.93-4.95a2.69 2.69 0 0 1 2.302-1.326h1.878c1.484 0 2.692 1.23 2.692 2.74V31.05c0 1.511-1.208 2.741-2.692 2.741h-.855Z"/>
<path fill="#000" d="M108.928 11.296c1.292 0 2.333 1.069 2.333 2.388V31.05c0 1.32-1.047 2.388-2.333 2.388h-.855c-1.292 0-2.332-1.069-2.332-2.388v-2.592c0-1.487-1.172-2.395-2.363-2.395-.753 0-1.507.365-1.979 1.17l-2.925 5.029a2.328 2.328 0 0 1-2.003 1.17h-1.86c-1.292 0-2.332-1.069-2.332-2.388v-17.36c0-1.32 1.046-2.388 2.332-2.388h.855c1.292 0 2.333 1.069 2.333 2.388v2.478c0 1.487 1.172 2.395 2.362 2.395.747 0 1.495-.358 1.967-1.152l2.931-4.95a2.32 2.32 0 0 1 1.997-1.153h1.878m0-.711h-1.878a3.053 3.053 0 0 0-2.607 1.499l-2.931 4.95c-.418.705-1.028.806-1.357.806-.802 0-1.65-.59-1.65-1.684v-2.478c0-1.708-1.364-3.1-3.045-3.1h-.855c-1.68 0-3.044 1.392-3.044 3.1V31.05c0 1.708 1.363 3.099 3.044 3.099h1.86c1.07 0 2.075-.585 2.62-1.523l2.924-5.028c.413-.71 1.034-.818 1.363-.818.802 0 1.651.591 1.651 1.684v2.592c0 1.708 1.364 3.099 3.044 3.099h.855c1.681 0 3.044-1.391 3.044-3.1v-17.37c0-1.709-1.363-3.1-3.044-3.1l.006.006ZM124.796 34.352c-1.651 0-3.254-.299-4.761-.884-1.477-.591-2.769-1.422-3.839-2.467-1.101-1.05-1.938-2.299-2.56-3.815-.634-1.445-.945-3.028-.945-4.831 0-1.804.311-3.357.945-4.838.622-1.486 1.459-2.734 2.554-3.81 1.07-1.044 2.356-1.875 3.833-2.466a13.033 13.033 0 0 1 4.767-.883c2.26 0 4.258.483 5.938 1.433 1.161.68 2.255 1.594 3.248 2.71.407.46.61 1.052.568 1.667a2.253 2.253 0 0 1-.772 1.559l-.735.633a2.232 2.232 0 0 1-1.459.543 2.215 2.215 0 0 1-1.693-.788 7.79 7.79 0 0 0-1.375-1.29c-.951-.675-2.159-1.015-3.589-1.015a5.97 5.97 0 0 0-2.416.495 5.424 5.424 0 0 0-1.842 1.356 6.289 6.289 0 0 0-1.226 2.078c-.293.776-.436 1.648-.436 2.604 0 .955.143 1.815.436 2.567a5.412 5.412 0 0 0 1.196 2.055 4.843 4.843 0 0 0 1.896 1.385c.712.34 1.507.502 2.446.502.754 0 1.412-.084 1.998-.263.538-.15 1.07-.406 1.602-.758a7.29 7.29 0 0 0 1.328-1.213 2.258 2.258 0 0 1 1.764-.86 2.16 2.16 0 0 1 1.478.58l.729.668a2.28 2.28 0 0 1 .162 3.177 13.248 13.248 0 0 1-3.176 2.664c-1.728.991-3.774 1.493-6.082 1.493l.018.012Z"/>
<path fill="#000" d="M124.797 10.71c2.206 0 4.144.472 5.765 1.392 1.13.663 2.183 1.54 3.158 2.64a1.92 1.92 0 0 1-.174 2.717l-.735.633c-.353.304-.796.46-1.226.46a1.842 1.842 0 0 1-1.418-.657 8.063 8.063 0 0 0-1.441-1.35c-1.023-.723-2.291-1.081-3.798-1.081-.945 0-1.806.197-2.559.526a5.856 5.856 0 0 0-1.968 1.445 6.523 6.523 0 0 0-1.292 2.191c-.323.86-.46 1.78-.46 2.723 0 .944.137 1.863.46 2.694.269.836.7 1.558 1.268 2.167a5.233 5.233 0 0 0 2.021 1.475c.754.359 1.615.526 2.584.526.754 0 1.453-.084 2.099-.275a5.907 5.907 0 0 0 1.699-.806 7.51 7.51 0 0 0 1.399-1.278s.006-.012.012-.018a1.917 1.917 0 0 1 1.483-.723c.443 0 .879.156 1.238.484l.73.669c.765.705.825 1.899.137 2.681a13.137 13.137 0 0 1-3.092 2.598c-1.644.943-3.606 1.445-5.896 1.445-1.669 0-3.206-.304-4.629-.86-1.454-.585-2.691-1.391-3.714-2.389-1.077-1.027-1.884-2.25-2.476-3.696-.622-1.415-.915-2.974-.915-4.694 0-1.72.299-3.248.915-4.693.592-1.416 1.399-2.64 2.476-3.697 1.023-.997 2.26-1.803 3.714-2.389 1.429-.555 2.96-.86 4.629-.86m0-.71c-1.693 0-3.337.305-4.892.908-1.525.615-2.853 1.469-3.959 2.544-1.137 1.11-1.998 2.394-2.638 3.929-.652 1.523-.969 3.147-.969 4.968 0 1.822.317 3.482.975 4.98.634 1.553 1.501 2.837 2.637 3.924 1.095 1.069 2.423 1.923 3.942 2.538a13.4 13.4 0 0 0 4.898.914c2.374 0 4.479-.52 6.255-1.541a13.946 13.946 0 0 0 3.272-2.741 2.636 2.636 0 0 0-.192-3.678l-.729-.67a2.555 2.555 0 0 0-1.723-.668c-.789 0-1.537.358-2.039.985a6.81 6.81 0 0 1-1.262 1.153c-.49.328-.993.567-1.483.704-.568.168-1.184.251-1.908.251-.891 0-1.633-.15-2.279-.46-.011 0-.023-.012-.035-.018a4.47 4.47 0 0 1-1.747-1.272c-.006-.006-.012-.017-.024-.023a5.1 5.1 0 0 1-1.124-1.941c-.275-.71-.413-1.511-.413-2.437 0-.925.138-1.743.413-2.472a5.886 5.886 0 0 1 1.16-1.97 5.187 5.187 0 0 1 1.729-1.273 5.558 5.558 0 0 1 2.26-.46c1.352 0 2.488.323 3.385.956.467.34.909.753 1.304 1.224.49.58 1.202.914 1.962.914.622 0 1.226-.227 1.692-.633l.736-.633c.532-.46.849-1.099.897-1.803a2.606 2.606 0 0 0-.658-1.923c-1.017-1.153-2.141-2.084-3.331-2.783-1.741-.985-3.798-1.487-6.124-1.487l.012-.006ZM137.153 33.797a1.388 1.388 0 0 1-1.388-1.386V12.323c0-.765.622-1.386 1.388-1.386h14.819c.766 0 1.388.621 1.388 1.386v2.567c0 .842-.682 1.53-1.525 1.53h-.126c-.496-.043-1.076-.108-1.698-.174-1.286-.15-2.739-.31-4.067-.31-1.573 0-3.517.453-4.174 1.313-.246.323-.311.687-.192 1.111.168.603.67 1.099 1.346 1.32.64.209 1.435.316 2.422.316 1.363 0 2.835-.197 4.132-.37.515-.072.999-.137 1.436-.18.066-.005.125-.011.191-.011.957 0 1.741.782 1.741 1.744v2.132c0 .86-.7 1.552-1.561 1.552-.072 0-.144 0-.216-.012-.323-.048-.67-.107-1.046-.167-1.029-.18-2.201-.382-3.619-.382-1.824 0-4.88.262-4.88 2.036 0 1.678 2.733 2.03 5.024 2.03 1.298 0 2.362-.185 3.301-.346.766-.131 1.424-.25 2.081-.25 1.071 0 1.705.734 1.705 1.964v2.7c0 .764-.622 1.385-1.388 1.385h-15.094v-.024Z"/>
<path fill="#000" d="M151.979 11.296c.568 0 1.028.46 1.028 1.027v2.568c0 .65-.526 1.17-1.166 1.17h-.096c-1.519-.12-3.797-.49-5.795-.49-1.997 0-5.31.705-4.712 2.879.209.758.837 1.32 1.584 1.57.742.245 1.615.329 2.536.329 1.938 0 4.079-.388 5.604-.555.048 0 .102-.006.149-.006.754 0 1.382.609 1.382 1.385v2.132c0 .675-.55 1.194-1.202 1.194-.054 0-.114 0-.168-.012-1.214-.167-2.739-.555-4.712-.555-2.847 0-5.239.603-5.239 2.395 0 1.791 2.392 2.388 5.382 2.388 2.357 0 3.959-.597 5.383-.597 1.196 0 1.345 1.04 1.345 1.607v2.699c0 .567-.46 1.027-1.028 1.027h-15.095c-.568 0-1.029-.46-1.029-1.027v-20.1c0-.568.461-1.028 1.029-1.028h14.82Zm0-.717h-14.82c-.963 0-1.746.783-1.746 1.744v20.089c0 .961.783 1.743 1.746 1.743h15.095c.963 0 1.746-.782 1.746-1.743v-2.7c0-1.433-.789-2.322-2.063-2.322-.688 0-1.394.125-2.141.25-.927.162-1.974.347-3.242.347-1.405 0-4.664-.161-4.664-1.672s3.163-1.678 4.521-1.678c1.357 0 2.536.203 3.552.376.377.065.73.125 1.059.173a1.92 1.92 0 0 0 2.189-1.893v-2.132c0-.561-.222-1.093-.616-1.487a2.079 2.079 0 0 0-1.478-.609c-.077 0-.149 0-.227.012-.436.048-.921.113-1.441.185-1.286.173-2.745.37-4.085.37-.939 0-1.716-.101-2.308-.292-.562-.185-.981-.585-1.113-1.075-.089-.323-.048-.567.132-.8.586-.765 2.44-1.177 3.893-1.177 1.31 0 2.751.168 4.031.31.622.073 1.202.138 1.711.18.047 0 .101.006.149.006.502 0 .975-.197 1.334-.555.359-.359.55-.83.55-1.338v-2.568c0-.961-.784-1.744-1.746-1.744h-.018ZM47.785 33.606c-.7 0-1.31-.466-1.53-1.165l-1.269-4.055c-.125-.406-.478-.68-.867-.68a.87.87 0 0 0-.245.035l-4.773 1.434a.952.952 0 0 0-.621.639l-.826 2.627c-.221.699-.831 1.165-1.53 1.165H33.48c-.502 0-.963-.24-1.274-.657a1.76 1.76 0 0 1-.257-1.565l4.653-17.52c.173-.658.49-1.249.909-1.72 1.22-1.362 2.571-1.362 3.66-1.362h1.752c.084-.006.173-.012.257-.012.903 0 1.561.185 2.422 1.165a5.686 5.686 0 0 1 1.184 2.137l5.168 17.318a1.761 1.761 0 0 1-.264 1.565 1.568 1.568 0 0 1-1.273.657h-2.644l.012-.006Zm-5.837-12.78c-.323 0-.723.168-.867.64a1.07 1.07 0 0 0 .15.949c.179.239.436.376.711.376a.912.912 0 0 0 .252-.036.946.946 0 0 0 .55-.46c.131-.25.161-.549.077-.824-.143-.471-.544-.639-.867-.639l-.006-.006Z"/>
<path fill="#000" d="M43.184 11.117c.832 0 1.376.155 2.165 1.045.515.58.891 1.272 1.107 2.006l5.167 17.318c.269.872-.341 1.774-1.202 1.774h-2.644c-.544 0-1.028-.37-1.202-.92l-1.268-4.055c-.173-.561-.67-.92-1.196-.92-.113 0-.227.019-.34.048l-4.773 1.434c-.4.119-.724.447-.855.871l-.825 2.628c-.174.55-.658.92-1.197.92h-2.643c-.861 0-1.471-.902-1.202-1.774l4.659-17.539c.155-.579.43-1.128.831-1.576 1.106-1.236 2.32-1.248 3.403-1.248h2.009m-1.244 12.02c.114 0 .234-.017.353-.053.694-.21 1.077-.991.855-1.72-.179-.591-.693-.884-1.202-.884-.508 0-1.016.293-1.196.878-.28.902.371 1.774 1.19 1.774m1.25-12.72H41.17c-1.094 0-2.59 0-3.911 1.481a4.597 4.597 0 0 0-.987 1.857l-4.659 17.539a2.085 2.085 0 0 0 .317 1.845c.37.508.939.794 1.555.794h2.643c.85 0 1.597-.567 1.86-1.403l.826-2.627a.607.607 0 0 1 .394-.413l4.773-1.433c.048-.012.096-.024.143-.024.24 0 .455.174.538.436l1.268 4.055c.264.842 1.011 1.41 1.86 1.41h2.644c.616 0 1.178-.293 1.555-.795a2.114 2.114 0 0 0 .31-1.875L47.133 13.96a6.086 6.086 0 0 0-1.256-2.269c-.945-1.069-1.699-1.278-2.686-1.278l-.006.012ZM41.94 22.445a.537.537 0 0 1-.43-.239.727.727 0 0 1-.102-.639.544.544 0 0 1 .538-.394c.102 0 .425.03.539.394a.716.716 0 0 1-.048.555.583.583 0 0 1-.341.293.459.459 0 0 1-.15.024l-.006.006ZM86.62 33.827c-.699 0-1.31-.466-1.53-1.165l-.826-2.627a.94.94 0 0 0-.622-.64l-4.772-1.432a.839.839 0 0 0-.245-.036c-.395 0-.742.274-.867.675l-1.268 4.054c-.216.699-.832 1.165-1.531 1.165h-2.644c-.502 0-.963-.24-1.274-.657a1.759 1.759 0 0 1-.257-1.565l5.167-17.311a5.688 5.688 0 0 1 1.185-2.138c.867-.974 1.519-1.165 2.422-1.165h2.015c1.083 0 2.44 0 3.66 1.368.419.472.736 1.063.91 1.72L90.8 31.61c.162.52.066 1.105-.263 1.553a1.569 1.569 0 0 1-1.274.657h-2.643v.006Zm-5.824-12.78c-.323 0-.724.168-.868.64-.083.274-.053.573.078.823.12.227.317.395.544.46a.91.91 0 0 0 .252.036.892.892 0 0 0 .711-.376c.198-.269.257-.615.15-.95a.886.886 0 0 0-.867-.639v.006Z"/>
<path fill="#000" d="M79.558 11.337h2.009c1.083 0 2.297.012 3.403 1.248.401.448.676.998.832 1.577L90.46 31.7c.27.871-.34 1.773-1.201 1.773h-2.644c-.544 0-1.029-.37-1.196-.92l-.825-2.627a1.314 1.314 0 0 0-.856-.872l-4.772-1.433a1.118 1.118 0 0 0-.34-.048c-.533 0-1.024.358-1.197.92l-1.268 4.055c-.173.549-.658.92-1.202.92h-2.643c-.862 0-1.472-.903-1.202-1.774l5.167-17.318a5.333 5.333 0 0 1 1.106-2.007c.784-.89 1.334-1.045 2.165-1.045m1.244 12.021c.825 0 1.477-.872 1.19-1.773a1.235 1.235 0 0 0-1.196-.878 1.24 1.24 0 0 0-1.202.884c-.227.728.161 1.51.855 1.72.12.035.24.053.353.053M79.552 10.64c-.98 0-1.74.209-2.685 1.278a6.086 6.086 0 0 0-1.256 2.269l-5.167 17.317a2.127 2.127 0 0 0 .31 1.87c.371.507.94.794 1.556.794h2.643c.85 0 1.597-.567 1.86-1.41l1.268-4.054c.084-.263.299-.436.538-.436.048 0 .096.006.144.024l4.772 1.433a.62.62 0 0 1 .395.412l.825 2.628c.263.841 1.01 1.403 1.86 1.403h2.644c.615 0 1.178-.293 1.554-.794a2.115 2.115 0 0 0 .311-1.875l-4.652-17.51a4.458 4.458 0 0 0-.987-1.856c-1.322-1.481-2.823-1.481-3.918-1.481h-1.734c-.096-.006-.185-.012-.275-.012h-.006Zm1.244 12.02a.433.433 0 0 1-.15-.023.583.583 0 0 1-.34-.293.745.745 0 0 1-.054-.555.54.54 0 0 1 .538-.395c.096 0 .425.03.538.395a.691.691 0 0 1-.101.639.553.553 0 0 1-.431.239v-.006Z"/>
<path fill="#fff" d="M41.693 23.926c1.1 0 1.991-1.604 1.991-3.583 0-1.98-.891-3.583-1.991-3.583S39.7 18.364 39.7 20.343s.892 3.583 1.992 3.583ZM81.384 24.087c1.1 0 1.992-1.604 1.992-3.583s-.892-3.583-1.992-3.583-1.991 1.605-1.991 3.583c0 1.98.891 3.583 1.991 3.583Z"/>
</g>
</svg>
