<svg xmlns="http://www.w3.org/2000/svg" width="131" height="50" fill="none">
  <g filter="url(#a)">
    <rect width="131" height="50" fill="#fff" rx="25"/>
    <rect width="130.7" height="49.7" x=".15" y=".15" stroke="#000" stroke-width=".3" rx="24.85"/>
    <path fill="#2F2F2F" d="M39.7531 29.28h-2.02v-2.7h2.02v2.7Zm7.08 3.84h-2.04V16.56h2.04v16.56Zm-13.3-4.6h1.24c1.88-.0133 3.54-.0533 4.98-.12 1.44-.0667 2.8134-.1933 4.12-.38l.14 1.54c-1.56.28-3.18.4667-4.86.56-1.6666.08-3.4533.12-5.36.12l-.26-1.72Zm10.08-8.4h-9.76v-1.64h9.76v1.64Zm-4.88.74c.7734 0 1.46.1267 2.06.38.6134.2533 1.0867.62 1.42 1.1.3334.4667.5 1 .5 1.6 0 .6133-.1666 1.1533-.5 1.62-.3333.4667-.8.8333-1.4 1.1-.6.2533-1.2933.38-2.08.38-.7733 0-1.4666-.1267-2.08-.38-.6-.2667-1.0666-.6333-1.4-1.1-.32-.4667-.48-1.0067-.48-1.62 0-.6.16-1.1333.48-1.6.3334-.48.8-.8467 1.4-1.1.6134-.2533 1.3067-.38 2.08-.38Zm0 1.6c-.6 0-1.0933.1333-1.48.4-.3733.2667-.56.6267-.56 1.08 0 .4667.1867.8333.56 1.1.3734.2533.8667.38 1.48.38.6267 0 1.12-.1267 1.48-.38.3734-.2667.56-.6333.56-1.1 0-.4533-.1866-.8133-.56-1.08-.3733-.2667-.8666-.4-1.48-.4Zm1.04-3.08h-2.04v-2.76h2.04v2.76Zm16.5135 9.28h-2.04V25h2.04v3.66Zm7.12.44h-2.06V16.58h2.06V29.1Zm.36 3.7h-11.8v-1.68h11.8v1.68Zm-9.74-1.24h-2.06V27.9h2.06v3.66Zm-2.88-7.56c1.8133-.04 3.4466-.0933 4.9-.16 1.4533-.0667 2.8333-.18 4.14-.34l.12 1.5c-1.5467.2667-3.1734.4467-4.88.54-1.7067.0933-3.48.14-5.32.14l-.24-1.66 1.28-.02Zm10.68 3.68h-3.6v-1.44h3.6v1.44Zm-6.74-10.52c.7733 0 1.46.1267 2.06.38.6133.24 1.0866.5867 1.42 1.04.3333.44.5.9467.5 1.52 0 .5867-.1667 1.1-.5 1.54-.3334.44-.8067.78-1.42 1.02-.6.24-1.2867.36-2.06.36-.7867 0-1.48-.12-2.08-.36-.6-.24-1.0734-.58-1.42-1.02-.3334-.44-.5-.9533-.5-1.54 0-.5733.1666-1.08.5-1.52.3466-.4533.82-.8 1.42-1.04.6133-.2533 1.3066-.38 2.08-.38Zm0 1.54c-.6267 0-1.1334.1267-1.52.38-.3734.24-.56.58-.56 1.02 0 .44.1866.78.56 1.02.3866.24.8933.36 1.52.36.6 0 1.0866-.12 1.46-.36.3866-.2533.58-.5933.58-1.02 0-.44-.1934-.78-.58-1.02-.3734-.2533-.86-.38-1.46-.38ZM79 33.08h-2.06V16.56H79v16.52Zm2.32-8.34h-2.86V23h2.86v1.74Zm-6.58-6.46c0 2.5867-.5733 4.8867-1.72 6.9s-2.9933 3.6733-5.54 4.98l-1.14-1.6c2.1733-1.1333 3.78-2.5133 4.82-4.14 1.0533-1.6267 1.58-3.5533 1.58-5.78v-.36h2ZM73.78 20h-6.6v-1.72h6.6V20Zm22.4534 5.46h-2.04v-8.9h2.04v8.9Zm-8.62 2.42h6.6V26.2h2.02v6.72h-10.62V26.2h2v1.68Zm6.6 3.34V29.5h-6.6v1.72h6.6Zm-6.7-13.96c.8134 0 1.5467.1667 2.2.5.6667.3333 1.18.8 1.54 1.4.3734.5867.56 1.26.56 2.02 0 .7467-.1866 1.4133-.56 2-.36.5867-.8733 1.0467-1.54 1.38-.6533.32-1.3866.48-2.2.48-.8266 0-1.5733-.16-2.24-.48-.6533-.3333-1.1733-.7933-1.56-1.38-.3733-.5867-.56-1.2533-.56-2 0-.76.1867-1.4333.56-2.02.3867-.6.9067-1.0667 1.56-1.4.6667-.3333 1.4134-.5 2.24-.5Zm0 1.76c-.4533 0-.86.0867-1.22.26s-.64.4267-.84.76c-.2.32-.3.6933-.3 1.12 0 .4267.1.8067.3 1.14.2.32.4734.5667.82.74.36.1733.7734.26 1.24.26.4267 0 .8134-.0867 1.16-.26.36-.1733.64-.42.84-.74.2-.3333.3-.7133.3-1.14 0-.4267-.1-.8-.3-1.12-.2-.3333-.48-.5867-.84-.76-.3466-.1733-.7333-.26-1.16-.26Z"/>
  </g>
  <defs>
    <filter id="a" width="131" height="50" x="0" y="0" color-interpolation-filters="sRGB" filterUnits="userSpaceOnUse">
      <feFlood flood-opacity="0" result="BackgroundImageFix"/>
      <feBlend in="SourceGraphic" in2="BackgroundImageFix" result="shape"/>
      <feColorMatrix in="SourceAlpha" result="hardAlpha" values="0 0 0 0 0 0 0 0 0 0 0 0 0 0 0 0 0 0 127 0"/>
      <feOffset/>
      <feGaussianBlur stdDeviation="2"/>
      <feComposite in2="hardAlpha" k2="-1" k3="1" operator="arithmetic"/>
      <feColorMatrix values="0 0 0 0 0 0 0 0 0 0 0 0 0 0 0 0 0 0 0.25 0"/>
      <feBlend in2="shape" result="effect1_innerShadow_1389_1595"/>
    </filter>
  </defs>
</svg>