<svg xmlns="http://www.w3.org/2000/svg" width="111" height="37" fill="none">
  <g filter="url(#a)">
    <path fill="#F0F2F0" fill-rule="evenodd" d="M13 0C5.8203 0 0 5.8203 0 13v11c0 7.1797 5.8203 13 13 13h77c6.9798 0 12.675-5.5007 12.987-12.4036l6.075-3.5079c2-1.1547 2-4.0414 0-5.1961l-6.076-3.5084C102.664 5.49034 96.9732 0 90 0H13Z" clip-rule="evenodd"/>
  </g>
  <path fill="#707070" d="m23.8524 14.92-2.73 7.08h-.73l2.73-7.08h.73Zm-2.56 0-2.73 7.08h-.73l2.73-7.08h.73Zm3.23 1.72-.26.68-6.09.01.27-.68 6.08-.01Zm-.87 2.54-.26.68-6.1.01.27-.69h6.09Zm10.8055-.92h-1.45v-.63h1.45v.63Zm-1.26 4.26h-.73v-8.14h.73v8.14Zm-5.03-2.29h-.73v-5.05h.73v5.05Zm-.1-.4c.62 0 1.23-.0267 1.83-.08.6066-.06 1.22-.1567 1.84-.29l.09.65c-.6334.1333-1.2534.2267-1.86.28-.6067.0467-1.24.07-1.9.07h-.63v-.63h.63Zm9.3097-4.85c.4067 0 .77.08 1.09.24.32.16.57.3867.75.68.1867.2867.28.62.28 1 0 .3733-.0933.7067-.28 1-.18.2867-.43.51-.75.67-.32.16-.6833.24-1.09.24-.4066 0-.77-.08-1.09-.24-.32-.16-.5733-.3833-.76-.67-.1866-.2933-.28-.6267-.28-1 0-.38.0934-.7133.28-1 .1867-.2933.44-.52.76-.68.3267-.16.69-.24 1.09-.24Zm0 .65c-.2666 0-.5066.0533-.72.16-.2066.1067-.37.2567-.49.45-.12.1933-.18.4133-.18.66 0 .24.06.4567.18.65.12.1933.2834.3433.49.45.2134.1067.4534.16.72.16.2667 0 .5067-.0533.72-.16.2134-.1067.38-.2567.5-.45.12-.1933.18-.41.18-.65 0-.2467-.06-.4667-.18-.66-.12-.1933-.2866-.3433-.5-.45-.2133-.1067-.4533-.16-.72-.16Zm3.88 6.91h-.73v-8.16h.73v8.16Zm-6.39-2.41c.9934 0 1.9067-.0167 2.74-.05.84-.04 1.64-.1167 2.4-.23l.07.56c-.7866.1533-1.5866.2533-2.4.3-.8066.04-1.7133.06-2.72.06l-.09-.64Zm12.2555-4.76c0 .7733-.2 1.4533-.6 2.04-.4.5867-.94 1.01-1.62 1.27l-.37-.62c.4-.14.7467-.3433 1.04-.61.3-.2667.53-.5767.69-.93.1667-.36.25-.7433.25-1.15v-.67h.61v.67Zm.12-.02c0 .3733.0767.7233.23 1.05.16.3267.3867.6133.68.86.2933.2467.6367.4333 1.03.56l-.4.6c-.6533-.24-1.1733-.63-1.56-1.17-.3867-.5467-.58-1.18-.58-1.9v-.65h.6v.65Zm3.48 3.37h-.74v-4.34h.74v4.34Zm1.15-1.93h-1.48v-.62h1.48v.62Zm-4.11 4.22h-1.76v1.13h-.73v-1.68h1.78v-.74h-1.8v-.58h2.51v1.87Zm2.96 1.46h-2.48v-3.33h2.48v3.33Zm-1.84-.58h1.19v-2.18h-1.19v2.18Zm-3.19-.01c.58 0 1.0167-.01 1.31-.03.2933-.02.6-.0633.92-.13l.07.6c-.3333.0667-.6567.1067-.97.12-.3133.02-.7567.03-1.33.03h-.42v-.59h.42Zm9.1498-6.9c.4066 0 .77.08 1.09.24.32.16.57.3867.75.68.1866.2867.28.62.28 1 0 .3733-.0934.7067-.28 1-.18.2867-.43.51-.75.67-.32.16-.6834.24-1.09.24-.4067 0-.77-.08-1.09-.24-.32-.16-.5734-.3833-.76-.67-.1867-.2933-.28-.6267-.28-1 0-.38.0933-.7133.28-1 .1866-.2933.44-.52.76-.68.3266-.16.69-.24 1.09-.24Zm0 .65c-.2667 0-.5067.0533-.72.16-.2067.1067-.37.2567-.49.45-.12.1933-.18.4133-.18.66 0 .24.06.4567.18.65.12.1933.2833.3433.49.45.2133.1067.4533.16.72.16.2666 0 .5066-.0533.72-.16.2133-.1067.38-.2567.5-.45.12-.1933.18-.41.18-.65 0-.2467-.06-.4667-.18-.66-.12-.1933-.2867-.3433-.5-.45-.2134-.1067-.4534-.16-.72-.16Zm3.88 6.91h-.73v-8.16h.73v8.16Zm-6.39-2.41c.9933 0 1.9066-.0167 2.74-.05.84-.04 1.64-.1167 2.4-.23l.07.56c-.7867.1533-1.5867.2533-2.4.3-.8067.04-1.7134.06-2.72.06l-.09-.64Zm10.7654-4.25h1.67v-1.06h.7v3.43h-3.08v-3.43h.71v1.06Zm1.67 1.76v-1.17h-1.67v1.17h1.67Zm3.95 1h-.71v-4.25h.71v4.25Zm-.48-1.82h-1.49v-.62h1.49v.62Zm-1.23 1.73h-.69v-4.01h.69v4.01Zm1.71 2.4h-4.47v1.22h-.74v-1.79h4.47v-.78h-4.49v-.61h5.23v1.96Zm.28 1.49h-5.49v-.6h5.49v.6Zm1.6798-3.8c.8067 0 1.4667-.0133 1.98-.04.5133-.0333 1.0267-.0967 1.54-.19l.07.63c-.5267.0867-1.0533.1467-1.58.18-.52.0267-1.19.04-2.01.04h-.6v-.62h.6Zm2.89-1.29h-2.75v1.68h-.74v-2.28h2.76v-1.18h-2.77v-.61h3.5v2.39Zm2.7 3.02h-.75v-5.98h.75v5.98Zm.23 1.98h-5.34v-.62h5.34v.62Zm-4.61-.42h-.73v-2.01h.73v2.01Zm3.81-4.78h-1.65v-.65h1.65v.65Zm5.5798-1.57c0 .56-.15 1.0867-.45 1.58-.3.4867-.6967.8967-1.19 1.23-.4867.3333-1.0034.5667-1.55.7l-.33-.62c.4733-.0933.93-.2833 1.37-.57.44-.2933.7966-.6433 1.07-1.05.28-.4133.42-.8367.42-1.27v-.63h.66v.63Zm.12 0c0 .44.14.8667.42 1.28.28.4067.64.7533 1.08 1.04.4466.2867.9066.4767 1.38.57l-.34.62c-.54-.1267-1.0534-.3567-1.54-.69-.4867-.3333-.88-.7433-1.18-1.23-.3-.4933-.45-1.0233-.45-1.59v-.63h.63v.63Zm3.23 5.86h-7.16v-.64h7.16v.64Z"/>
  <defs>
    <filter id="a" width="110.562" height="37" x="0" y="0" color-interpolation-filters="sRGB" filterUnits="userSpaceOnUse">
      <feFlood flood-opacity="0" result="BackgroundImageFix"/>
      <feBlend in="SourceGraphic" in2="BackgroundImageFix" result="shape"/>
      <feColorMatrix in="SourceAlpha" result="hardAlpha" values="0 0 0 0 0 0 0 0 0 0 0 0 0 0 0 0 0 0 127 0"/>
      <feOffset/>
      <feGaussianBlur stdDeviation="2"/>
      <feComposite in2="hardAlpha" k2="-1" k3="1" operator="arithmetic"/>
      <feColorMatrix values="0 0 0 0 0 0 0 0 0 0 0 0 0 0 0 0 0 0 0.25 0"/>
      <feBlend in2="shape" result="effect1_innerShadow_33_392"/>
    </filter>
  </defs>
</svg>