<svg xmlns="http://www.w3.org/2000/svg" width="131" height="50" fill="none">
  <rect width="130.7" height="49.7" x=".15" y=".15" fill="#555" rx="24.85"/>
  <rect width="130.7" height="49.7" x=".15" y=".15" stroke="#000" stroke-width=".3" rx="24.85"/>
  <path fill="#fff" d="M39.9056 29.26h-1.74v-2.7h1.74v2.7Zm6.98 3.84h-1.72V16.66h1.72V33.1Zm-13.02-4.48h1.22c1.7867-.0133 3.42-.0533 4.9-.12 1.48-.0667 2.88-.1933 4.2-.38l.12 1.32c-1.56.28-3.18.4667-4.86.56-1.68.08-3.4666.12-5.36.12l-.22-1.5Zm9.98-8.56h-9.66v-1.42h9.66v1.42Zm-4.84.82c.76 0 1.4334.1267 2.02.38.6.2533 1.06.6133 1.38 1.08.3334.4667.5 1 .5 1.6 0 .6-.1666 1.1333-.5 1.6-.32.4533-.7733.8067-1.36 1.06-.5866.2533-1.2666.38-2.04.38-.76 0-1.4333-.1267-2.02-.38-.5866-.2533-1.04-.6067-1.36-1.06-.32-.4667-.48-1-.48-1.6 0-.6.16-1.1333.48-1.6.32-.4667.7734-.8267 1.36-1.08.5867-.2533 1.26-.38 2.02-.38Zm0 1.38c-.6533 0-1.1866.1533-1.6.46-.4133.3067-.62.7133-.62 1.22 0 .5067.2067.9133.62 1.22.4134.2933.9467.44 1.6.44.68 0 1.22-.1467 1.62-.44.4134-.3067.62-.7133.62-1.22 0-.5067-.2066-.9133-.62-1.22-.4133-.3067-.9533-.46-1.62-.46Zm.9-2.86h-1.74v-2.68h1.74v2.68Zm16.3172 9.24h-1.72V25h1.72v3.64Zm7.06.5h-1.74V16.68h1.74v12.46Zm.38 3.62h-11.48V31.3h11.48v1.46Zm-9.72-1.08h-1.76v-3.74h1.76v3.74Zm-2.66-7.52c1.76-.0267 3.3667-.0733 4.82-.14 1.4667-.0667 2.8533-.18 4.16-.34l.12 1.28c-1.5333.2667-3.1533.4467-4.86.54-1.6933.08-3.46.12-5.3.12l-.22-1.44 1.28-.02Zm10.68 3.44h-3.6v-1.26h3.6v1.26Zm-6.76-10.28c.7733 0 1.4533.12 2.04.36.6.24 1.06.58 1.38 1.02.3333.4267.5.9267.5 1.5s-.1667 1.08-.5 1.52c-.32.4267-.78.76-1.38 1-.5867.24-1.2667.36-2.04.36-.7733 0-1.46-.12-2.06-.36-.5867-.24-1.0467-.5733-1.38-1-.3333-.44-.5-.9467-.5-1.52s.1667-1.0733.5-1.5c.3333-.44.7933-.78 1.38-1.02.6-.24 1.2867-.36 2.06-.36Zm0 1.32c-.6933 0-1.2533.14-1.68.42-.4267.28-.64.66-.64 1.14 0 .48.2133.86.64 1.14.4267.2667.9867.4 1.68.4.6667 0 1.2067-.14 1.62-.42.4267-.28.64-.6533.64-1.12 0-.48-.2133-.86-.64-1.14-.4133-.28-.9533-.42-1.62-.42ZM78.78 33.06h-1.74v-16.4h1.74v16.4Zm2.42-8.38h-2.88V23.2h2.88v1.48Zm-6.58-6.26c0 2.5067-.58 4.7533-1.74 6.74-1.1467 1.9867-2.9733 3.62-5.48 4.9l-.96-1.36c2.1733-1.1333 3.7933-2.5333 4.86-4.2 1.08-1.6667 1.62-3.6 1.62-5.8v-.28h1.7Zm-.82 1.48h-6.58v-1.48h6.58v1.48Zm22.0772 5.6h-1.74v-8.84h1.74v8.84Zm-8.7 2.6h6.98v-1.82h1.72v6.6h-10.38v-6.6h1.68v1.82Zm6.98 3.32V29.5h-6.98v1.92h6.98Zm-6.88-14c.8 0 1.52.1667 2.16.5.6533.32 1.16.7733 1.52 1.36.36.5733.54 1.2267.54 1.96 0 .7467-.18 1.4133-.54 2-.36.5733-.8667 1.02-1.52 1.34-.64.32-1.36.48-2.16.48s-1.5267-.16-2.18-.48c-.64-.32-1.1467-.7667-1.52-1.34-.36-.5867-.54-1.2533-.54-2 0-.7333.18-1.3867.54-1.96.3733-.5867.88-1.04 1.52-1.36.6533-.3333 1.38-.5 2.18-.5Zm0 1.5c-.4933 0-.9333.1-1.32.3-.3733.1867-.6733.46-.9.82-.2133.3467-.32.7467-.32 1.2 0 .4533.1067.86.32 1.22.2133.3467.5133.62.9.82.3867.1867.8267.28 1.32.28.48 0 .9067-.0933 1.28-.28.3867-.2.6867-.4733.9-.82.2133-.36.32-.7667.32-1.22 0-.4533-.1067-.8533-.32-1.2-.2133-.36-.5133-.6333-.9-.82-.3733-.2-.8-.3-1.28-.3Z"/>
</svg>