<svg xmlns="http://www.w3.org/2000/svg" width="112" height="37" fill="none">
  <g filter="url(#a)">
    <path fill="#F0F2F0" fill-rule="evenodd" d="M8.63694 25.2091 1.5 21.0886c-2.000001-1.1547-1.999999-4.0415 0-5.1962l7.13881-4.1216C9.25809 5.1676 14.8163 0 21.5815 0h77c7.1795 0 12.9995 5.8203 12.9995 13v11c0 7.1797-5.82 13-12.9995 13h-77c-6.7721 0-12.33466-5.1781-12.94456-11.7909Z" clip-rule="evenodd"/>
  </g>
  <path fill="#707070" d="M28.579 14.92 25.849 22h-.73l2.73-7.08h.73Zm-2.56 0L23.289 22h-.73l2.73-7.08h.73Zm3.23 1.72-.26.68-6.09.01.27-.68 6.08-.01Zm-.87 2.54-.26.68-6.1.01.27-.69h6.09Zm10.8054-.92h-1.45v-.63h1.45v.63Zm-1.26 4.26h-.73v-8.14h.73v8.14Zm-5.03-2.29h-.73v-5.05h.73v5.05Zm-.1-.4c.62 0 1.23-.0267 1.83-.08.6067-.06 1.22-.1567 1.84-.29l.09.65c-.6333.1333-1.2533.2267-1.86.28-.6066.0467-1.24.07-1.9.07h-.63v-.63h.63Zm9.3098-4.85c.4067 0 .77.08 1.09.24.32.16.57.3867.75.68.1867.2867.28.62.28 1 0 .3733-.0933.7067-.28 1-.18.2867-.43.51-.75.67-.32.16-.6833.24-1.09.24-.4067 0-.77-.08-1.09-.24-.32-.16-.5733-.3833-.76-.67-.1867-.2933-.28-.6267-.28-1 0-.38.0933-.7133.28-1 .1867-.2933.44-.52.76-.68.3267-.16.69-.24 1.09-.24Zm0 .65c-.2667 0-.5067.0533-.72.16-.2067.1067-.37.2567-.49.45-.12.1933-.18.4133-.18.66 0 .24.06.4567.18.65.12.1933.2833.3433.49.45.2133.1067.4533.16.72.16s.5067-.0533.72-.16c.2133-.1067.38-.2567.5-.45.12-.1933.18-.41.18-.65 0-.2467-.06-.4667-.18-.66-.12-.1933-.2867-.3433-.5-.45-.2133-.1067-.4533-.16-.72-.16Zm3.88 6.91h-.73v-8.16h.73v8.16Zm-6.39-2.41c.9933 0 1.9067-.0167 2.74-.05.84-.04 1.64-.1167 2.4-.23l.07.56c-.7867.1533-1.5867.2533-2.4.3-.8067.04-1.7133.06-2.72.06l-.09-.64Zm16.4555 2.41h-.71v-8.16h.71v8.16Zm-2-4.39h-1.29v-.67h1.29v.67Zm.46 3.95h-.7v-7.52h.7v7.52Zm-1.53-6.06h-3.6v-.63h3.6v.63Zm-3.76 3.85c1.7133 0 3.0233-.0633 3.93-.19l.06.54c-.5534.1133-1.1767.19-1.87.23-.6867.04-1.3634.06-2.03.06l-.09-.64Zm1.48.18h-.67v-4.25h.67v4.25Zm1.64 0h-.69v-4.25h.69v4.25Zm11.8397 1.44h-7.16v-.63h7.16v.63Zm-.88-4.02h-4.65v1.61h-.75v-2.23h4.67v-1.24h-4.68v-.62h5.41v2.48Zm.18 1.91h-5.58v-.61h5.58v.61Zm8.4098 2.07h-7.16v-.61h7.16v.61Zm-3.24-.42h-.74v-2.18h.74v2.18Zm-.11-5.5c0 .56-.1533 1.08-.46 1.56-.3.4733-.6967.8733-1.19 1.2-.4867.3267-1.0067.55-1.56.67l-.33-.63c.48-.0867.94-.2667 1.38-.54.4467-.28.8067-.6167 1.08-1.01.28-.4.42-.8167.42-1.25v-.61h.66v.61Zm.12 0c0 .4333.14.85.42 1.25.28.3933.6433.73 1.09 1.01.4467.2733.91.4533 1.39.54l-.32.63c-.5467-.1133-1.0667-.3333-1.56-.66-.4933-.3267-.8933-.73-1.2-1.21s-.46-1-.46-1.56v-.61h.64v.61Zm11.1198 2.71h-1.45v-.63h1.45v.63Zm-1.26 4.26h-.73v-8.14h.73v8.14Zm-5.03-2.29h-.73v-5.05h.73v5.05Zm-.1-.4c.62 0 1.23-.0267 1.83-.08.6066-.06 1.22-.1567 1.84-.29l.09.65c-.6334.1333-1.2534.2267-1.86.28-.6067.0467-1.24.07-1.9.07h-.63v-.63h.63Zm11.3754-3.76c0 .6867-.2 1.2967-.6 1.83-.4.5333-.9366.91-1.61 1.13l-.36-.6c.3867-.12.73-.2967 1.03-.53.3-.24.53-.5167.69-.83.1667-.3133.25-.6467.25-1v-.35h.6v.35Zm.14 0c0 .32.08.63.24.93.16.2933.3834.5533.67.78.2934.22.63.3867 1.01.5l-.34.59c-.6666-.2067-1.2-.56-1.6-1.06-.4-.5067-.6-1.0867-.6-1.74v-.35h.62v.35Zm1.74-.13h-4.23v-.62h4.23v.62Zm-1.74-.36h-.74v-1.23h.74v1.23Zm3.43 3.53h-.74v-4.73h.74v4.73Zm1.15-2.1h-1.35v-.62h1.35v.62Zm-3.37 2.99c0 .4133-.1266.7933-.38 1.14-.2533.3467-.5966.6367-1.03.87-.4333.24-.9133.4033-1.44.49l-.29-.59c.46-.0733.88-.2033 1.26-.39.3867-.1867.6934-.4133.92-.68.2267-.2667.34-.5467.34-.84v-.21h.62V20Zm.15 0c0 .2867.1134.5667.34.84.2267.2667.53.4967.91.69.3867.1867.8067.32 1.26.4l-.28.57c-.5266-.0867-1.01-.25-1.45-.49-.4333-.2333-.7766-.5233-1.03-.87-.2533-.3533-.38-.7333-.38-1.14v-.21h.63V20Zm2.2.15h-5.17v-.6h5.17v.6Zm7.9198 2.39h-.74v-8.16h.74v8.16Zm-2.32-7.27c0 .8133-.1267 1.5733-.38 2.28-.2467.7-.6433 1.3467-1.19 1.94-.5467.5867-1.2533 1.0967-2.12 1.53l-.39-.61c.76-.38 1.3867-.82 1.88-1.32.4933-.5067.86-1.0667 1.1-1.68.24-.6133.36-1.29.36-2.03v-.11h.74Zm-.43.61h-3.27v-.61h3.27v.61Z"/>
  <defs>
    <filter id="a" width="111.581" height="37" x="0" y="0" color-interpolation-filters="sRGB" filterUnits="userSpaceOnUse">
      <feFlood flood-opacity="0" result="BackgroundImageFix"/>
      <feBlend in="SourceGraphic" in2="BackgroundImageFix" result="shape"/>
      <feColorMatrix in="SourceAlpha" result="hardAlpha" values="0 0 0 0 0 0 0 0 0 0 0 0 0 0 0 0 0 0 127 0"/>
      <feOffset/>
      <feGaussianBlur stdDeviation="2"/>
      <feComposite in2="hardAlpha" k2="-1" k3="1" operator="arithmetic"/>
      <feColorMatrix values="0 0 0 0 0 0 0 0 0 0 0 0 0 0 0 0 0 0 0.25 0"/>
      <feBlend in2="shape" result="effect1_innerShadow_33_397"/>
    </filter>
  </defs>
</svg>