<svg width="579" height="100" viewBox="0 0 579 100" fill="none" xmlns="http://www.w3.org/2000/svg">
<path d="M61.2576 96.9528C57.4607 96.9528 53.9541 94.8972 52.0919 91.6082L40.4111 70.9794C39.0085 68.5127 36.6385 67.0858 33.8815 67.0858C30.133 67.0858 26.1427 69.7702 26.1427 74.7279V86.4087C26.1427 92.2128 21.4269 96.9528 15.5986 96.9528H11.9952C6.19107 96.9528 1.45105 92.237 1.45105 86.4087V15.1148C1.45105 9.28653 6.16689 4.57069 11.9952 4.57069H22.0073C25.7558 4.57069 29.2624 6.57795 31.1246 9.84276L42.8295 30.133C44.2322 32.5755 46.6022 33.954 49.335 33.954C53.0835 33.954 57.0738 31.2696 57.0738 26.3119V15.0906C57.0738 9.28653 61.7896 4.54651 67.6179 4.54651H70.6167C76.7594 4.54651 81.7413 9.52837 81.7413 15.6711V86.3845C81.7413 92.1886 77.0254 96.9286 71.1971 96.9286H61.2334L61.2576 96.9528Z" fill="#2F2F2F"/>
<path d="M70.6167 6.02181C75.9613 6.02181 80.2902 10.3507 80.2902 15.6953V86.4088C80.2902 91.4148 76.2273 95.5019 71.1971 95.5019H61.2334C57.9686 95.5019 54.9456 93.7364 53.3253 90.8828L41.6445 70.254C39.8307 67.0617 36.8319 65.6349 33.8331 65.6349C29.214 65.6349 24.6433 69.069 24.6433 74.728V86.4088C24.6433 91.4148 20.5804 95.5019 15.5502 95.5019H11.9468C6.94075 95.5019 2.85369 91.439 2.85369 86.4088V15.1149C2.85369 10.1089 6.91657 6.02181 11.9468 6.02181H21.9589C25.1995 6.02181 28.1983 7.76304 29.8186 10.5684L41.5236 30.8586C43.3374 34.0025 46.3362 35.4293 49.2866 35.4293C53.9057 35.4293 58.4764 31.9952 58.4764 26.3362V15.1149C58.4764 10.1089 62.5393 6.02181 67.5695 6.02181H70.5683M70.5683 3.11975H67.5695C60.9674 3.11975 55.5744 8.48855 55.5744 15.1149V26.3362C55.5744 30.3507 52.3337 32.5272 49.2866 32.5272C48.0048 32.5272 45.5865 32.1161 44.0387 29.4075L32.3821 9.11733C30.2539 5.41721 26.2636 3.11975 22.0073 3.11975H11.9952C5.3688 3.11975 0 8.48855 0 15.1149V86.4329C0 93.0351 5.3688 98.4281 11.9952 98.4281H15.5985C22.2007 98.4281 27.5937 93.0593 27.5937 86.4329V74.7522C27.5937 72.4547 28.6336 71.0279 29.5042 70.2298C30.6651 69.1657 32.2612 68.5611 33.8815 68.5611C35.1874 68.5611 37.6058 68.9722 39.1536 71.705L50.8343 92.3338C52.9625 96.0823 56.9528 98.4039 61.2576 98.4039H71.2213C77.8235 98.4039 83.2164 93.0351 83.2164 86.4088V15.6953C83.2164 8.75458 77.5816 3.11975 70.6409 3.11975H70.5683Z" fill="#2F2F2F"/>
<path d="M181.862 96.9529C175.719 96.9529 170.738 91.971 170.738 85.8284V15.6953C170.738 9.55266 175.719 4.5708 181.862 4.5708H184.281C190.423 4.5708 195.405 9.55266 195.405 15.6953V66.4813C195.405 71.0279 199.081 74.7038 203.628 74.7038H226.215C232.358 74.7038 237.34 79.6857 237.34 85.8284C237.34 91.971 232.358 96.9529 226.215 96.9529H181.886H181.862Z" fill="#2F2F2F"/>
<path d="M184.281 6.02181C189.625 6.02181 193.954 10.3507 193.954 15.6953V66.4813C193.954 71.8259 198.283 76.1548 203.628 76.1548H226.215C231.56 76.1548 235.889 80.4837 235.889 85.8283C235.889 91.173 231.56 95.5019 226.215 95.5019H181.886C176.542 95.5019 172.213 91.173 172.213 85.8283V15.6953C172.213 10.3507 176.542 6.02181 181.886 6.02181H184.305M184.305 3.11975H181.886C174.946 3.11975 169.311 8.75458 169.311 15.6953V85.8283C169.311 92.7691 174.946 98.4039 181.886 98.4039H226.215C233.156 98.4039 238.791 92.7691 238.791 85.8283C238.791 78.8876 233.156 73.2528 226.215 73.2528H203.628C199.903 73.2528 196.856 70.2056 196.856 66.4813V15.6953C196.856 8.75458 191.221 3.11975 184.281 3.11975H184.305Z" fill="#2F2F2F"/>
<path d="M394.655 96.9287C388.561 96.9287 383.579 91.971 383.579 85.8525V75.3809C383.579 70.0363 379.299 67.1585 375.26 67.1585C372.358 67.1585 369.843 68.6337 368.319 71.1971L356.252 91.5115C354.268 94.8489 350.617 96.9287 346.723 96.9287H339.033C332.938 96.9287 327.956 91.971 327.956 85.8525V15.6711C327.956 9.55265 332.938 4.59497 339.033 4.59497H341.499C347.594 4.59497 352.576 9.55265 352.576 15.6711V25.6832C352.576 30.8344 356.808 33.9057 360.895 33.9057C363.773 33.9057 366.288 32.4547 367.811 29.9396L379.903 9.93959C381.886 6.65059 385.514 4.59497 389.383 4.59497H397.122C403.241 4.59497 408.198 9.57683 408.198 15.6711V85.8525C408.198 91.9469 403.241 96.9287 397.122 96.9287H394.631H394.655Z" fill="#2F2F2F"/>
<path d="M397.122 6.02192C402.443 6.02192 406.771 10.3508 406.771 15.6712V85.8526C406.771 91.1731 402.467 95.502 397.122 95.502H394.631C389.311 95.502 384.982 91.1973 384.982 85.8526V75.381C384.982 69.3835 380.145 65.7317 375.236 65.7317C372.116 65.7317 368.996 67.2069 367.062 70.4717L354.994 90.7861C353.253 93.7124 350.109 95.502 346.699 95.502H339.008C333.688 95.502 329.359 91.1973 329.359 85.8526V15.6712C329.359 10.3508 333.688 6.02192 339.008 6.02192H341.475C346.796 6.02192 351.125 10.3266 351.125 15.6712V25.6833C351.125 31.6809 355.961 35.3327 360.871 35.3327C363.966 35.3327 367.062 33.8816 369.021 30.6652L381.112 10.6652C382.854 7.78733 385.973 6.02192 389.359 6.02192H397.098M397.098 3.14404H389.359C385.006 3.14404 380.919 5.46569 378.67 9.16581L366.578 29.1658C364.837 32.0195 362.273 32.4548 360.895 32.4548C357.557 32.4548 354.002 30.0848 354.002 25.6592V15.6471C354.002 8.75468 348.392 3.14404 341.499 3.14404H339.033C332.14 3.14404 326.505 8.75468 326.505 15.6712V85.8526C326.505 92.745 332.116 98.3557 339.008 98.3557H346.699C351.1 98.3557 355.212 96.0098 357.461 92.2372L369.528 71.9228C371.245 69.0207 373.857 68.5854 375.236 68.5854C378.573 68.5854 382.128 70.9554 382.128 75.381V85.8526C382.128 92.745 387.739 98.3557 394.631 98.3557H397.122C404.015 98.3557 409.625 92.745 409.625 85.8526V15.6712C409.625 8.77887 404.015 3.14404 397.098 3.14404Z" fill="#2F2F2F"/>
<path d="M460.073 98.6457C453.495 98.549 447.11 97.2189 441.112 94.7521C435.26 92.237 430.157 88.8029 425.973 84.4982C421.669 80.1693 418.404 75.0665 416.034 68.8755C413.615 62.9746 412.479 56.5659 412.6 49.2624C412.721 42.0798 414.051 35.7195 416.687 29.7461C419.275 23.7727 422.684 18.7666 427.134 14.4861C431.463 10.3265 436.687 7.06168 442.612 4.76422C448.416 2.58767 454.51 1.47522 460.774 1.47522H461.693C470.713 1.64451 478.67 3.72431 485.296 7.69046C489.891 10.52 494.196 14.2926 498.09 18.8876C501.379 22.7811 500.919 28.6336 497.05 31.8984L494.075 34.4136C492.455 35.7678 490.423 36.5417 488.343 36.5417C485.659 36.5417 483.168 35.3325 481.499 33.2285C479.879 31.1971 478.065 29.4075 476.106 27.9081C472.358 25.127 467.545 23.6518 461.862 23.555H461.427C458.186 23.555 455.067 24.1838 452.213 25.4172C449.262 26.7473 446.82 28.5127 444.764 30.786C442.539 33.2527 440.895 35.9613 439.734 39.1294C438.525 42.2491 437.872 45.7799 437.823 49.6493C437.751 53.5913 438.259 57.0012 439.371 60.0726C440.339 63.2648 441.886 66.0701 444.015 68.4643C446.046 71.0036 448.561 72.9142 451.463 74.1959C454.268 75.6227 457.437 76.3241 461.185 76.3966H461.814C464.571 76.3966 466.989 76.1064 469.166 75.4776C471.318 74.8972 473.47 73.9057 475.599 72.503C477.412 71.2697 479.275 69.601 480.992 67.6663C482.757 65.5139 485.296 64.3047 487.957 64.3047C490.206 64.3047 492.334 65.1753 493.978 66.7473L496.856 69.5042C500.411 72.9142 500.605 78.6941 497.291 82.37C493.398 86.6989 489.19 90.1572 484.45 92.9625C477.751 96.7352 469.891 98.6215 461.112 98.6215H460.073V98.6457Z" fill="#2F2F2F"/>
<path d="M460.774 2.95042C461.064 2.95042 461.354 2.95042 461.669 2.95042C470.472 3.09553 478.186 5.12697 484.571 8.94801C489.045 11.705 493.18 15.3325 497.001 19.8549C499.758 23.1197 499.371 28.1016 496.131 30.8585L493.156 33.3736C491.753 34.5586 490.036 35.1632 488.343 35.1632C486.191 35.1632 484.063 34.2201 482.612 32.4063C480.919 30.2781 479.033 28.416 476.953 26.844C472.914 23.8452 467.884 22.2975 461.862 22.2007C461.717 22.2007 461.572 22.2007 461.427 22.2007C457.848 22.2007 454.534 22.9262 451.632 24.1596C448.489 25.5623 445.877 27.4486 443.7 29.8912C441.403 32.4305 439.637 35.3325 438.404 38.6941C437.05 42.1524 436.445 45.8525 436.397 49.6977C436.324 53.6397 436.808 57.2431 438.041 60.6288C439.057 64.0145 440.726 66.9649 442.95 69.4801C445.054 72.0919 447.715 74.1717 450.907 75.5744C453.881 77.0738 457.316 77.8235 461.185 77.8718C461.403 77.8718 461.62 77.8718 461.838 77.8718C464.595 77.8718 467.183 77.5816 469.577 76.8803C471.947 76.2515 474.22 75.1632 476.397 73.7364C478.356 72.4305 480.314 70.6409 482.08 68.6578C482.08 68.6578 482.104 68.6094 482.128 68.6094C483.652 66.7473 485.804 65.7799 487.981 65.7799C489.77 65.7799 491.584 66.4571 493.011 67.8114L495.889 70.5683C498.912 73.4704 499.057 78.3071 496.252 81.4268C492.43 85.659 488.295 89.0447 483.748 91.7291C477.388 95.3083 469.843 97.1947 461.137 97.1947C460.798 97.1947 460.459 97.1947 460.121 97.1947C453.47 97.0738 447.352 95.7437 441.693 93.3978C435.937 90.9311 431.052 87.5937 427.013 83.4825C422.781 79.2503 419.637 74.2443 417.388 68.3434C415.018 62.5635 413.93 56.2515 414.051 49.2624C414.172 42.3942 415.453 36.1306 418.017 30.3023C420.484 24.5949 423.773 19.7098 428.15 15.5018C432.31 11.5115 437.291 8.34341 443.144 6.07013C448.609 4.01451 454.462 2.87787 460.798 2.87787M460.798 0C454.365 0 448.102 1.13664 442.128 3.36155C435.985 5.73156 430.641 9.11729 426.167 13.3978C421.572 17.8235 418.041 22.9746 415.381 29.1173C412.672 35.2358 411.294 41.7896 411.173 49.1657C411.052 56.6626 412.213 63.2648 414.728 69.3833C417.146 75.6953 420.532 80.9674 424.982 85.4414C429.287 89.8428 434.534 93.3978 440.556 95.9855C446.747 98.549 453.301 99.9033 460.048 100C460.411 100 460.75 100 461.112 100C470.157 100 478.235 98.0411 485.127 94.1717C490.036 91.2696 494.365 87.7388 498.356 83.289C502.177 79.0326 501.959 72.3821 497.848 68.4402L494.97 65.6832C493.059 63.8452 490.568 62.8537 487.956 62.8537C484.837 62.8537 481.911 64.2564 479.903 66.7231C478.307 68.5369 476.542 70.133 474.8 71.2938C472.817 72.5998 470.81 73.5187 468.827 74.0508C466.723 74.6554 464.45 74.9456 461.814 74.9456H461.209C457.678 74.873 454.728 74.2201 452.164 72.9383C452.116 72.9383 452.068 72.89 452.019 72.8658C449.311 71.6808 446.989 69.9154 445.151 67.5937C445.127 67.5695 445.103 67.5212 445.054 67.497C443.071 65.2479 441.62 62.636 440.75 59.7098C440.75 59.6614 440.725 59.6131 440.701 59.5647C439.637 56.6626 439.154 53.422 439.226 49.6493C439.299 45.9492 439.903 42.5877 441.04 39.6372C442.152 36.6143 443.7 34.0508 445.804 31.7291C447.715 29.601 450.012 27.9565 452.793 26.6989C455.453 25.5623 458.356 24.9819 461.427 24.9819H461.814C467.183 25.0786 471.705 26.4571 475.236 29.0689C477.074 30.4716 478.815 32.1645 480.363 34.1233C482.322 36.5659 485.224 37.9686 488.343 37.9686C490.762 37.9686 493.132 37.0979 495.018 35.5018L497.993 32.9867C502.467 29.1898 502.999 22.4426 499.202 17.9444C495.212 13.2285 490.81 9.35913 486.094 6.45707C479.178 2.3942 471.004 0.241838 461.717 0.0725514C461.403 0.0725514 461.088 0.0725514 460.774 0.0725514L460.798 0Z" fill="#2F2F2F"/>
<path d="M510.085 96.9529C506.989 96.9529 504.474 94.4378 504.474 91.3423V10.1814C504.474 7.08592 506.989 4.5708 510.085 4.5708H571.415C571.584 4.5708 571.753 4.59498 571.898 4.66754C572.721 4.95774 576.856 6.57806 577.485 9.5043C577.485 9.60103 577.509 9.69777 577.509 9.81869V20.2177C577.509 20.2177 577.509 20.387 577.509 20.4837C576.904 23.9178 574.099 26.433 570.883 26.433C570.713 26.433 570.544 26.433 570.375 26.433C568.368 26.2637 566.022 25.9976 563.507 25.7316C558.307 25.127 552.431 24.4741 547.062 24.4741C540.701 24.4741 532.842 26.312 530.181 29.7945C529.19 31.1004 528.924 32.5756 529.408 34.2927C530.06 36.7111 532.044 38.6941 534.704 39.5889C537.316 40.4837 540.58 40.8949 544.643 40.8949C550.157 40.8949 556.106 40.0968 561.354 39.3955C563.434 39.1053 565.393 38.8634 567.134 38.67C567.279 38.67 567.424 38.67 567.594 38.67C571.56 38.67 574.607 44.3773 574.946 45.0303C575.042 45.2238 575.115 45.4656 575.115 45.6833V54.3169C575.115 54.5587 575.067 54.8005 574.946 54.994C574.631 55.5744 571.85 60.5805 568.271 60.5805C568.102 60.5805 567.932 60.5805 567.739 60.5563C566.433 60.3628 565.03 60.121 563.507 59.8791C559.347 59.1536 554.607 58.3314 548.875 58.3314C541.499 58.3314 529.141 59.3955 529.141 66.5781C529.141 73.3737 540.193 74.8005 549.456 74.8005C554.704 74.8005 559.008 74.0508 562.805 73.3979C565.901 72.8658 568.561 72.3822 571.221 72.3822C576.203 72.3822 577.509 77.5817 577.509 80.3386V91.439C577.509 94.5345 574.994 97.0496 571.898 97.0496H510.085V96.9529Z" fill="#2F2F2F"/>
<path d="M571.415 6.02182C571.415 6.02182 575.574 7.52122 576.058 9.81868V20.2177C575.599 22.8537 573.446 24.9577 570.859 24.9577C570.738 24.9577 570.617 24.9577 570.472 24.9577C564.329 24.4741 555.115 22.9747 547.037 22.9747C538.96 22.9747 525.562 25.8284 527.981 34.6313C528.803 37.6542 531.27 39.9275 534.22 40.919C537.243 41.9348 540.846 42.3217 544.619 42.3217C552.455 42.3217 561.112 40.7498 567.279 40.0726C567.376 40.0726 567.473 40.0726 567.57 40.0726C570.762 40.0726 573.64 45.6591 573.64 45.6591V54.2927C573.64 54.2927 571.052 59.1053 568.247 59.1053C568.15 59.1053 568.029 59.1053 567.908 59.1053C562.999 58.4281 556.832 56.8562 548.851 56.8562C537.34 56.8562 527.666 59.2987 527.666 66.5539C527.666 73.809 537.34 76.2274 549.432 76.2274C558.96 76.2274 565.441 73.809 571.197 73.809C576.034 73.809 576.034 80.3144 576.034 80.3144V91.4148C576.034 93.7123 574.172 95.5744 571.874 95.5744H510.06C507.763 95.5744 505.901 93.7123 505.901 91.4148V10.1814C505.901 7.88397 507.763 6.02182 510.06 6.02182H571.391M571.391 3.11976H510.06C506.167 3.11976 502.999 6.28784 502.999 10.1814V91.3423C502.999 95.2359 506.167 98.4039 510.06 98.4039H571.874C575.768 98.4039 578.936 95.2359 578.936 91.3423V80.2419C578.936 75.7195 576.518 70.8344 571.197 70.8344C568.416 70.8344 565.562 71.3423 562.539 71.8501C558.791 72.5031 554.559 73.2528 549.432 73.2528C543.749 73.2528 530.568 72.5998 530.568 66.4813C530.568 60.3628 543.362 59.6857 548.851 59.6857C554.341 59.6857 559.105 60.5079 563.216 61.2092C564.74 61.4753 566.167 61.7171 567.497 61.9106C567.739 61.9348 567.981 61.9589 568.223 61.9589C572.551 61.9589 575.599 56.6627 576.155 55.5986C576.372 55.1875 576.493 54.7038 576.493 54.2201V45.5865C576.493 45.127 576.372 44.6675 576.179 44.2564C575.574 43.0714 572.261 37.098 567.521 37.098C567.328 37.098 567.11 37.098 566.917 37.1222C565.151 37.3157 563.192 37.5817 561.088 37.8477C555.889 38.549 549.988 39.3471 544.571 39.3471C540.653 39.3471 537.557 38.936 535.091 38.1137C532.914 37.3882 531.245 35.7195 530.713 33.809C530.351 32.5031 530.52 31.5115 531.245 30.5684C533.615 27.4728 541.112 25.8042 546.989 25.8042C552.285 25.8042 558.114 26.4813 563.289 27.0617C565.804 27.3519 568.15 27.618 570.206 27.7872C570.399 27.7872 570.617 27.8114 570.81 27.8114C574.752 27.8114 578.138 24.8126 578.863 20.6772C578.888 20.5079 578.912 20.3386 578.912 20.1693V9.77031C578.912 9.57684 578.912 9.35918 578.839 9.16571C578.065 5.56233 573.664 3.72436 572.334 3.26487C572.019 3.14395 571.681 3.09558 571.342 3.09558L571.391 3.11976Z" fill="#2F2F2F"/>
<path d="M150.085 96.7112C147.352 96.7112 144.933 94.8732 144.087 92.1404L138.96 75.7196C138.428 74.0026 136.929 72.8417 135.26 72.8417C134.921 72.8417 134.559 72.8901 134.22 72.9868L114.921 78.791C113.664 79.1779 112.672 80.1936 112.261 81.5237L108.924 92.1646C108.077 94.8974 105.659 96.7353 102.926 96.7353H92.237C90.2781 96.7353 88.4643 95.7922 87.2551 94.1719C85.9734 92.4064 85.5864 90.109 86.2394 88.005L104.933 17.5092C105.828 14.1718 107.449 11.2698 109.649 9.1658C114.268 4.6918 119.299 4.6918 123.362 4.6918H130.447C130.786 4.66762 131.149 4.64343 131.487 4.64343C134.994 4.64343 137.509 5.32058 140.822 8.92397C143.144 11.4633 144.933 14.7039 145.998 18.2831L166.771 88.005C167.424 90.109 167.037 92.4064 165.756 94.1477C164.547 95.7922 162.733 96.7112 160.774 96.7112H150.085ZM125.441 18.67C116.832 18.67 113.761 28.6579 113.761 38.0171C113.761 47.3762 116.832 57.3641 125.441 57.3641C134.051 57.3641 137.122 51.7535 137.122 38.0171C137.122 24.2807 133.736 18.67 125.441 18.67Z" fill="#2F2F2F"/>
<path d="M131.487 5.82839C134.752 5.82839 136.904 6.43298 139.927 9.72198C142.249 12.2371 143.869 15.3326 144.837 18.6216L165.611 88.3435C166.699 91.8743 164.232 95.5261 160.75 95.5261H150.06C147.86 95.5261 145.901 94.0267 145.2 91.8018L140.073 75.381C139.371 73.1077 137.364 71.6567 135.236 71.6567C134.776 71.6567 134.317 71.7292 133.857 71.8502L114.559 77.6543C112.938 78.1379 111.632 79.468 111.1 81.1851L107.763 91.826C107.062 94.0509 105.103 95.5503 102.926 95.5503H92.237C88.7545 95.5503 86.2878 91.8985 87.3761 88.3677L106.094 17.8236C106.868 14.8973 108.295 12.1404 110.472 10.0364C114.704 5.9493 119.25 5.90094 123.337 5.90094C125.707 5.90094 128.077 5.90094 130.423 5.90094C130.786 5.90094 131.125 5.90094 131.463 5.90094M125.417 58.6458C136.179 58.6458 138.307 49.4318 138.307 38.0896C138.307 26.7474 136.179 17.5333 125.417 17.5333C116.59 17.5333 112.527 26.7474 112.527 38.0896C112.527 49.4318 116.614 58.6458 125.417 58.6458ZM131.463 3.48256C131.1 3.48256 130.738 3.48256 130.351 3.48256H126.796H123.313H123.289C119.25 3.48256 113.736 3.48256 108.779 8.29513C106.433 10.5684 104.692 13.6398 103.748 17.219L85.0302 87.7631C84.2805 90.1331 84.74 92.8417 86.2636 94.9215C87.6904 96.8804 89.867 97.9928 92.237 97.9928H102.926C106.191 97.9928 109.069 95.8163 110.085 92.5757L113.422 81.9348C113.712 80.9916 114.414 80.2661 115.284 80.0001L134.583 74.196C134.8 74.1234 135.042 74.0992 135.284 74.0992C136.421 74.0992 137.437 74.9215 137.823 76.1307L142.95 92.5515C143.966 95.7921 146.844 97.9928 150.109 97.9928H160.798C163.144 97.9928 165.32 96.8804 166.771 94.9215C168.295 92.8659 168.73 90.1573 167.981 87.6664L147.207 17.9687C146.094 14.196 144.208 10.8102 141.765 8.12585C138.186 4.20807 135.308 3.45837 131.536 3.45837L131.463 3.48256ZM125.417 56.2274C117.678 56.2274 114.946 46.8683 114.946 38.0896C114.946 29.3109 117.703 19.9517 125.417 19.9517C133.132 19.9517 135.889 25.0303 135.889 38.0896C135.889 51.1488 132.963 56.2274 125.417 56.2274Z" fill="#2F2F2F"/>
<path d="M306.143 96.711C303.41 96.711 300.992 94.8731 300.145 92.1403L296.808 81.4994C296.397 80.1693 295.405 79.1536 294.148 78.7667L274.849 72.9626C274.51 72.8658 274.148 72.8175 273.809 72.8175C272.14 72.8175 270.665 73.9783 270.109 75.6953L264.982 92.1161C264.135 94.8489 261.717 96.6869 258.984 96.6869H248.295C246.336 96.6869 244.498 95.7437 243.313 94.1234C242.031 92.358 241.645 90.0605 242.297 87.9565L263.071 18.2588C264.135 14.6796 265.925 11.439 268.247 8.89967C271.536 5.29629 274.051 4.61914 277.582 4.61914C277.92 4.61914 278.283 4.61914 278.67 4.61914H285.732C289.77 4.61914 294.8 4.61914 299.42 9.11733C301.62 11.2455 303.241 14.1234 304.135 17.4607L322.854 88.0049C323.482 90.0605 323.12 92.3821 321.814 94.1234C320.605 95.7679 318.791 96.6869 316.832 96.6869H306.143V96.711ZM283.652 18.6699C275.357 18.6699 271.971 24.2806 271.971 38.017C271.971 51.7534 275.357 57.364 283.652 57.364C291.947 57.364 295.333 47.3761 295.333 38.017C295.333 28.6578 292.261 18.6699 283.652 18.6699Z" fill="#2F2F2F"/>
<path d="M277.606 5.82833C277.944 5.82833 278.283 5.82833 278.646 5.82833C281.016 5.82833 283.386 5.82833 285.732 5.82833C289.819 5.82833 294.365 5.8767 298.597 9.96376C300.774 12.0678 302.201 14.8247 302.975 17.7509L321.693 88.2951C322.781 91.8259 320.314 95.4777 316.832 95.4777H306.143C303.942 95.4777 301.983 93.9783 301.306 91.7534L297.969 81.1125C297.437 79.3954 296.131 78.0895 294.51 77.5817L275.212 71.7775C274.752 71.6324 274.293 71.5841 273.833 71.5841C271.681 71.5841 269.698 73.0351 268.996 75.3084L263.869 91.7292C263.168 93.9541 261.209 95.4535 259.008 95.4535H248.319C244.837 95.4535 242.37 91.8017 243.458 88.2709L264.232 18.549C265.2 15.26 266.844 12.1887 269.141 9.64937C272.164 6.36038 274.317 5.75578 277.582 5.75578M283.628 58.5006C292.455 58.5006 296.518 49.2866 296.518 37.9444C296.518 26.6022 292.43 17.3882 283.628 17.3882C272.866 17.3882 270.738 26.6022 270.738 37.9444C270.738 49.2866 272.866 58.5006 283.628 58.5006ZM277.582 3.3374C273.809 3.3374 270.931 4.11128 267.352 8.00488C264.909 10.6651 263.023 14.075 261.911 17.8477L241.137 87.5696C240.387 90.0121 240.822 92.7207 242.346 94.8005C243.773 96.7594 245.949 97.8719 248.319 97.8719H259.008C262.273 97.8719 265.151 95.6953 266.167 92.4305L271.294 76.0097C271.681 74.8005 272.697 73.9783 273.833 73.9783C274.075 73.9783 274.293 74.0025 274.534 74.075L293.833 79.8791C294.704 80.1451 295.381 80.8707 295.695 81.8138L299.033 92.4547C300.048 95.6953 302.926 97.8719 306.191 97.8719H316.88C319.226 97.8719 321.403 96.7594 322.854 94.8005C324.377 92.7449 324.813 90.0363 324.063 87.5454L305.369 17.098C304.426 13.543 302.684 10.4474 300.339 8.17416C295.357 3.36159 289.843 3.36159 285.804 3.36159H282.346H278.718C278.404 3.36159 278.017 3.36159 277.678 3.36159L277.582 3.3374ZM283.628 56.0823C276.082 56.0823 273.156 51.0037 273.156 37.9444C273.156 24.8852 276.082 19.8066 283.628 19.8066C291.173 19.8066 294.099 29.1657 294.099 37.9444C294.099 46.7231 291.342 56.0823 283.628 56.0823Z" fill="#2F2F2F"/>
</svg>