<svg xmlns="http://www.w3.org/2000/svg" width="115" height="50" fill="none">
  <rect width="114.7" height="49.7" x=".15" y=".15" fill="#555" rx="24.85"/>
  <rect width="114.7" height="49.7" x=".15" y=".15" stroke="#000" stroke-width=".3" rx="24.85"/>
  <path fill="#fff" d="M48.3498 31.22h-14.66V29.5h14.66v1.72Zm-6.34-1.02h-2.04v-3.94h2.04v3.94Zm4.64-7.18h-9.18v2.96h-2.06v-4.6h9.18v-2h-9.2v-1.7h11.26v5.34Zm.36 3.8h-11.6v-1.7h11.6v1.7Zm14.9935-6.98h-10.3v-1.68h10.3v1.68Zm2.78 11.04h-14.62v-1.74h14.62v1.74Zm-1.84-10.86c0 1.5067-.0334 2.8333-.1 3.98-.0667 1.1467-.2267 2.4867-.48 4.02l-2.06-.2c.2666-1.4267.4266-2.7067.48-3.84.0666-1.1467.1-2.4667.1-3.96v-1.86h2.06v1.86Zm17.0734 8.5h-2.06V16.58h2.06v11.94Zm.42 4.28h-11.06v-1.68h11.06v1.68Zm-9-1.02h-2.06v-4.46h2.06v4.46Zm-.18-14.12c.8134 0 1.5467.18 2.2.54.6667.3467 1.1867.84 1.56 1.48.3867.6267.58 1.3333.58 2.12 0 .8-.1933 1.52-.58 2.16-.3733.6267-.8933 1.12-1.56 1.48-.6533.3467-1.3866.52-2.2.52-.8 0-1.5333-.1733-2.2-.52-.6533-.36-1.1733-.8533-1.56-1.48-.3866-.64-.58-1.36-.58-2.16 0-.7867.1934-1.4933.58-2.12.3867-.64.9067-1.1333 1.56-1.48.6667-.36 1.4-.54 2.2-.54Zm0 1.82c-.44 0-.84.0933-1.2.28-.3466.1867-.6266.46-.84.82-.2.3467-.3.7533-.3 1.22 0 .48.1.9.3 1.26.2134.3467.4934.6133.84.8.36.1867.76.28 1.2.28.44 0 .8334-.0933 1.18-.28.36-.1867.64-.4533.84-.8.2-.36.3-.78.3-1.26 0-.4667-.1-.8733-.3-1.22-.2-.36-.48-.6333-.84-.82-.3466-.1867-.74-.28-1.18-.28Z"/>
</svg>