<svg xmlns="http://www.w3.org/2000/svg" width="240" height="42" fill="none">
  <path fill="#2F2F2F" d="M25.635 40.0901c-1.57 0-3.02-.85-3.79-2.21l-4.83-8.53c-.58-1.02-1.56-1.61-2.7-1.61-1.55 0-3.2 1.11-3.2 3.16v4.83c0 2.4-1.95001 4.36-4.36001 4.36h-1.49c-2.4 0-4.359999-1.95-4.359999-4.36V6.25013c0-2.41 1.949999-4.36 4.359999-4.36h4.14c1.55001 0 3.00001.83 3.77001 2.18l4.84 8.38997c.58 1.01 1.56 1.58 2.69 1.58 1.55 0 3.2-1.11 3.2-3.16V6.24013c0-2.4 1.95-4.36 4.36-4.36h1.24c2.54 0 4.6 2.06 4.6 4.6V35.7201c0 2.4-1.95 4.36-4.36 4.36h-4.12l.01.01Z"/>
  <path fill="#2F2F2F" d="M29.505 2.49004c2.21 0 4 1.79 4 4V35.73c0 2.07-1.68 3.76-3.76 3.76h-4.12c-1.35 0-2.6-.73-3.27-1.91l-4.83-8.53c-.75-1.32-1.99-1.91-3.23-1.91-1.91 0-3.8 1.42-3.8 3.76v4.83c0 2.07-1.68001 3.76-3.76001 3.76h-1.49c-2.07 0-3.76-1.68-3.76-3.76V6.25004c0-2.07 1.68-3.76 3.76-3.76h4.14c1.34001 0 2.58001.72 3.25001 1.88l4.84 8.38996c.75 1.3 1.99 1.89 3.21 1.89 1.91 0 3.8-1.42 3.8-3.76V6.25004c0-2.07 1.68-3.76 3.76-3.76h1.24m0-1.2h-1.24c-2.73 0-4.96 2.22-4.96 4.96V10.89c0 1.66-1.34 2.56-2.6 2.56-.53 0-1.53-.17-2.17-1.29l-4.82-8.38996c-.88-1.53-2.53-2.48-4.29001-2.48h-4.14c-2.74 0-4.959997 2.22-4.959997 4.96V35.74c0 2.73 2.219997 4.96 4.959997 4.96h1.49c2.73 0 4.96001-2.22 4.96001-4.96v-4.83c0-.95.43-1.54.79-1.87.48-.44 1.14-.69 1.81-.69.54 0 1.54.17 2.18 1.3l4.83 8.53c.88 1.55 2.53 2.51 4.31 2.51h4.12c2.73 0 4.96-2.22 4.96-4.96V6.49004c0-2.87-2.33-5.2-5.2-5.2h-.03ZM75.505 40.0901c-2.54 0-4.6-2.06-4.6-4.6V6.49014c0-2.54 2.06-4.6 4.6-4.6h1c2.54 0 4.6 2.06 4.6 4.6V27.4901c0 1.88 1.52 3.4 3.4 3.4h9.34c2.54 0 4.6 2.06 4.6 4.6 0 2.54-2.06 4.6-4.6 4.6h-18.34Z"/>
  <path fill="#2F2F2F" d="M76.505 2.49004c2.21 0 4 1.79 4 4V27.49c0 2.21 1.79 4 4 4h9.34c2.21 0 4 1.79 4 4s-1.79 4-4 4h-18.33c-2.21 0-4-1.79-4-4V6.49004c0-2.21 1.79-4 4-4h1m0-1.2h-1c-2.87 0-5.2 2.33-5.2 5.2V35.49c0 2.87 2.33 5.2 5.2 5.2h18.33c2.87 0 5.2-2.33 5.2-5.2s-2.33-5.2-5.2-5.2h-9.34c-1.54 0-2.8-1.26-2.8-2.8V6.49004c0-2.87-2.33-5.2-5.2-5.2h.01ZM163.495 40.0801c-2.52 0-4.58-2.05-4.58-4.58v-4.33c0-2.21-1.77-3.4-3.44-3.4-1.2 0-2.24.61-2.87 1.67l-4.99 8.4c-.82 1.38-2.33 2.24-3.94 2.24h-3.18c-2.52 0-4.58-2.05-4.58-4.58V6.48015c0-2.53 2.06-4.58 4.58-4.58h1.02c2.52 0 4.58 2.05 4.58 4.58v4.13995c0 2.13 1.75 3.4 3.44 3.4 1.19 0 2.23-.6 2.86-1.64l5-8.26995c.82-1.36 2.32-2.21 3.92-2.21h3.2c2.53 0 4.58 2.06 4.58 4.58V35.5001c0 2.52-2.05 4.58-4.58 4.58h-1.03.01Z"/>
  <path fill="#2F2F2F" d="M164.515 2.49005c2.2 0 3.99 1.79 3.99 3.99V35.5c0 2.2-1.78 3.99-3.99 3.99h-1.03c-2.2 0-3.99-1.78-3.99-3.99v-4.33c0-2.48-2-3.99-4.03-3.99-1.29 0-2.58.61-3.38 1.96l-4.99 8.4c-.72 1.21-2.02 1.95-3.43 1.95h-3.18c-2.2 0-3.99-1.78-3.99-3.99V6.48005c0-2.2 1.79-3.99 3.99-3.99h1.02c2.2 0 3.99 1.78 3.99 3.99V10.62c0 2.48 2 3.99 4.03 3.99 1.28 0 2.56-.6 3.37-1.93l5-8.26995c.72-1.19 2.01-1.92 3.41-1.92h3.2m0-1.19h-3.2c-1.8 0-3.49.96-4.42 2.49l-5 8.26995c-.72 1.18-1.78 1.36-2.35 1.36-1.38 0-2.85-.98-2.85-2.81V6.47005c0-2.85-2.32-5.17-5.17-5.17h-1.02c-2.85 0-5.18 2.32-5.18 5.18V35.5c0 2.85 2.32 5.17 5.17 5.17h3.18c1.82 0 3.52-.97 4.45-2.53l4.99-8.4c.71-1.2 1.79-1.38 2.36-1.38 1.38 0 2.85.98 2.85 2.81v4.33c0 2.85 2.32 5.17 5.17 5.17h1.03c2.85 0 5.17-2.32 5.17-5.17V6.48005c0-2.85-2.32-5.18-5.18-5.18ZM190.545 40.7901c-2.72-.04-5.36-.59-7.84-1.61-2.42-1.04-4.53-2.46-6.26-4.24-1.78-1.79-3.13-3.9-4.11-6.46-1-2.44-1.47-5.09-1.42-8.11.05-2.97.6-5.6 1.69-8.07 1.07-2.46999 2.48-4.53999 4.32-6.30999 1.79-1.72 3.95-3.07 6.4-4.02 2.4-.9 4.92-1.360003 7.51-1.360003h.38c3.73.07 7.02.930003 9.76 2.570003 1.9 1.17 3.68 2.73 5.29 4.63 1.36 1.61 1.17 4.02999-.43 5.37999l-1.23 1.04c-.67.56-1.51.88-2.37.88-1.11 0-2.14-.5-2.83-1.37-.67-.84-1.42-1.58-2.23-2.2-1.55-1.15-3.54-1.75999-5.89-1.79999h-.18c-1.34 0-2.63.25999-3.81.76999-1.22.55-2.23 1.28-3.08 2.22-.92 1.02-1.6 2.14-2.08 3.45-.5 1.29-.77 2.75-.79 4.35-.03 1.63.18 3.04.64 4.31.4 1.32 1.04 2.48 1.92 3.47.84 1.05 1.88 1.84 3.08 2.37 1.16.59 2.47.88 4.02.91h.26c1.14 0 2.14-.12 3.04-.38.89-.24 1.78-.65 2.66-1.23.75-.51 1.52-1.2 2.23-2 .73-.89 1.78-1.39 2.88-1.39.93 0 1.81.36 2.49 1.01l1.19 1.14c1.47 1.41 1.55 3.8.18 5.32-1.61 1.79-3.35 3.22-5.31 4.38-2.77 1.56-6.02 2.34-9.65 2.34h-.43v.01Z"/>
  <path fill="#2F2F2F" d="M190.835 1.22h.37c3.64.06 6.83.9 9.47 2.48 1.85 1.14 3.56 2.64 5.14 4.51 1.14 1.35.98 3.41-.36 4.55l-1.23 1.04c-.58.49-1.29.74-1.99.74-.89 0-1.77-.39-2.37-1.14-.7-.88-1.48-1.65-2.34-2.3-1.67-1.24-3.75-1.88-6.24-1.92h-.18c-1.48 0-2.85.3-4.05.81-1.3.58-2.38 1.36-3.28 2.37-.95 1.05-1.68 2.25-2.19 3.64-.56 1.43-.81 2.96-.83 4.55-.03 1.63.17 3.12.68 4.52.42 1.4 1.11 2.62 2.03 3.66.87 1.08 1.97 1.94 3.29 2.52 1.23.62 2.65.93 4.25.95h.27c1.14 0 2.21-.12 3.2-.41.98-.26 1.92-.71 2.82-1.3.81-.54 1.62-1.28 2.35-2.1 0 0 .01-.02.02-.02.63-.77 1.52-1.17 2.42-1.17.74 0 1.49.28 2.08.84l1.19 1.14c1.25 1.2 1.31 3.2.15 4.49-1.58 1.75-3.29 3.15-5.17 4.26-2.63 1.48-5.75 2.26-9.35 2.26h-.42c-2.75-.05-5.28-.6-7.62-1.57-2.38-1.02-4.4-2.4-6.07-4.1-1.75-1.75-3.05-3.82-3.98-6.26-.98-2.39-1.43-5-1.38-7.89.05-2.84.58-5.43 1.64-7.84 1.02-2.36 2.38-4.38 4.19-6.12 1.72-1.65 3.78-2.96 6.2-3.9 2.26-.85 4.68-1.32 7.3-1.32m0-1.19c-2.66 0-5.25.47-7.72 1.39-2.54.98-4.75 2.38-6.6 4.15-1.9 1.83-3.36 3.96-4.46 6.5-1.12 2.53-1.69 5.24-1.74 8.29-.05 3.1.43 5.83 1.47 8.36 1 2.61 2.4 4.79 4.24 6.64 1.78 1.82 3.95 3.29 6.44 4.36 2.56 1.06 5.27 1.62 8.06 1.66h.44c3.74 0 7.08-.81 9.93-2.41 2.03-1.2 3.82-2.66 5.47-4.5 1.58-1.76 1.49-4.51-.21-6.14l-1.19-1.14c-.79-.76-1.82-1.17-2.9-1.17-1.29 0-2.5.58-3.33 1.6-.66.75-1.39 1.41-2.11 1.89-.82.54-1.65.92-2.47 1.14-.87.25-1.81.37-2.9.37h-.25c-1.46-.03-2.68-.3-3.74-.83-.02 0-.04-.02-.06-.03-1.12-.49-2.08-1.22-2.84-2.18-.01-.01-.02-.03-.04-.04-.82-.93-1.42-2.01-1.78-3.22 0-.02-.01-.04-.02-.06-.44-1.2-.64-2.54-.61-4.1.03-1.53.28-2.92.75-4.14.46-1.25 1.1-2.31 1.97-3.27.79-.88 1.74-1.56 2.89-2.08 1.1-.47 2.3-.71 3.57-.71h.16c2.22.04 4.09.61 5.55 1.69.76.58 1.48 1.28 2.12 2.09.81 1.01 2.01 1.59 3.3 1.59 1 0 1.98-.36 2.76-1.02l1.23-1.04c1.85-1.57 2.07-4.36.5-6.22-1.65-1.95-3.47-3.55-5.42-4.75-2.86-1.68-6.24-2.57-10.08-2.64h-.39l.01-.03ZM211.225 40.0901c-1.28 0-2.32-1.04-2.32-2.32V4.21014c0-1.28 1.04-2.32 2.32-2.32h25.36c.07 0 .14.01.2.04.34.12 2.05.79 2.31 2 0 .04.01.08.01.13v4.41c-.25 1.42-1.41 2.45996-2.74 2.45996h-.21c-.83-.07-1.8-.18-2.84-.29-2.15-.25-4.58-.52-6.8-.52-2.63 0-5.88.76-6.98 2.2-.41.54-.52 1.15-.32 1.86.27 1 1.09 1.82 2.19 2.19 1.08.37 2.43.54 4.11.54 2.28 0 4.74-.33 6.91-.62.86-.12 1.67-.22 2.39-.3h.19c1.64 0 2.9 2.36 3.04 2.63.04.08.07.18.07.27v3.57c0 .1-.02.2-.07.28-.13.24-1.28 2.31-2.76 2.31-.07 0-.14 0-.22-.01-.54-.08-1.12-.18-1.75-.28-1.72-.3-3.68-.64-6.05-.64-3.05 0-8.16.44-8.16 3.41 0 2.81 4.57 3.4 8.4 3.4 2.17 0 3.95-.31 5.52-.58 1.28-.22 2.38-.42 3.48-.42 2.06 0 2.6 2.15 2.6 3.29v4.59c0 1.28-1.04 2.32-2.32 2.32h-25.56v-.04Z"/>
  <path fill="#2F2F2F" d="M236.585 2.49003s1.72.62 1.92 1.57v4.3c-.19 1.09-1.08 1.95997-2.15 1.95997h-.16c-2.54-.2-6.35-.81997-9.69-.81997s-8.88 1.17997-7.88 4.81997c.34 1.25 1.36 2.19 2.58 2.6 1.25.42 2.74.58 4.3.58 3.24 0 6.82-.65 9.37-.93h.12c1.32 0 2.51 2.31 2.51 2.31v3.57s-1.07 1.99-2.23 1.99h-.14c-2.03-.28-4.58-.93-7.88-.93-4.76 0-8.76 1.01-8.76 4.01s4 4 9 4c3.94 0 6.62-1 9-1 2 0 2 2.69 2 2.69v4.59c0 .95-.77 1.72-1.72 1.72h-25.56c-.95 0-1.72-.77-1.72-1.72V4.21003c0-.95.77-1.72 1.72-1.72h25.36m0-1.2h-25.36c-1.61 0-2.92 1.31-2.92 2.92V37.77c0 1.61 1.31 2.92 2.92 2.92h25.56c1.61 0 2.92-1.31 2.92-2.92v-4.59c0-1.87-1-3.89-3.2-3.89-1.15 0-2.33.21-3.58.42-1.55.27-3.3.58-5.42.58-2.35 0-7.8-.27-7.8-2.8s5.29-2.81 7.56-2.81c2.27 0 4.24.34 5.94.63.63.11 1.22.21 1.77.29.1.01.2.02.3.02 1.79 0 3.05-2.19 3.28-2.63.09-.17.14-.37.14-.57v-3.57c0-.19-.05-.38-.13-.55-.25-.49-1.62-2.96-3.58-2.96-.08 0-.17 0-.25.01-.73.08-1.54.19-2.41.3-2.15.29-4.59.62-6.83.62-1.62 0-2.9-.17-3.92-.51-.9-.3-1.59-.99-1.81-1.78-.15-.54-.08-.95.22-1.34.98-1.28 4.08-1.97 6.51-1.97 2.19 0 4.6.28 6.74.52 1.04.12 2.01.23 2.86.3.08 0 .17.01.25.01 1.63 0 3.03-1.24 3.33-2.94997.01-.07.02-.14.02-.21v-4.3c0-.08 0-.17-.03-.25-.32-1.49-2.14-2.25-2.69-2.44-.13-.05-.27-.07-.41-.07l.02.01ZM62.365 39.9899c-1.13 0-2.13-.76-2.48-1.89l-2.12-6.79c-.22-.71-.84-1.19-1.53-1.19-.14 0-.29.02-.43.06l-7.98 2.4c-.52.16-.93.58-1.1 1.13l-1.38 4.4c-.35 1.13-1.35 1.89-2.48 1.89h-4.42c-.81 0-1.56-.39-2.06-1.06-.53-.73-.69-1.68-.42-2.55l7.73-29.14998c.37-1.38 1.04-2.58 1.95-3.45 1.91-1.85 3.99-1.85 5.67-1.85h2.93c.14-.01.29-.02.43-.02 1.45 0 2.49.28 3.86 1.77.96 1.05 1.7 2.39 2.14 3.87l8.59 28.82998c.27.87.11 1.82-.42 2.54-.5.68-1.25 1.06-2.06 1.06h-4.42ZM52.175 7.71992c-3.56 0-4.83 4.12998-4.83 7.99998s1.27 8 4.83 8 4.83-2.32 4.83-8-1.4-7.99998-4.83-7.99998Z"/>
  <path fill="#2F2F2F" d="M54.675 2.40993c1.35 0 2.24.25 3.49 1.61.96 1.04 1.63 2.32 2.03 3.68l8.59 28.82997c.45 1.46-.57 2.97-2.01 2.97h-4.42c-.91 0-1.72-.62-2.01-1.54l-2.12-6.79c-.29-.94-1.12-1.54-2-1.54-.19 0-.38.03-.57.08l-7.98 2.4c-.67.2-1.21.75-1.43 1.46l-1.38 4.4c-.29.92-1.1 1.54-2 1.54h-4.42c-1.44 0-2.46-1.51-2.01-2.97l7.74-29.16997c.32-1.21.91-2.35 1.81-3.22 1.75-1.69 3.63-1.71 5.32-1.71H54.665m-2.5 21.80997c4.45 0 5.33-3.81 5.33-8.5 0-4.69-.88-8.49997-5.33-8.49997-3.65 0-5.33 3.80997-5.33 8.49997 0 4.69 1.69 8.5 5.33 8.5Zm2.5-22.80997h-3.38c-1.67 0-3.95 0-6 1.99-.97.94-1.69 2.21-2.08 3.69l-7.74 29.16997c-.31.98-.12 2.1.51 2.96.59.81 1.49 1.27 2.47 1.27h4.42c1.35 0 2.54-.9 2.96-2.24l1.38-4.4c.12-.39.41-.69.77-.8l7.98-2.4c.09-.03.19-.04.29-.04.47 0 .89.34 1.05.84l2.12 6.79c.42 1.34 1.61 2.25 2.96 2.25h4.42c.97 0 1.87-.46 2.47-1.27.63-.85.81-1.97.5-3l-8.59-28.81997c-.46-1.56-1.24-2.96-2.25-4.07-1.48-1.62-2.67-1.93-4.23-1.93l-.03.01Zm-2.5 21.80997c-3.2 0-4.33-3.87-4.33-7.5s1.14-7.49997 4.33-7.49997c3.19 0 4.33 2.09997 4.33 7.49997s-1.21 7.5-4.33 7.5ZM126.895 39.9899c-1.13 0-2.13-.76-2.48-1.89l-1.38-4.4c-.17-.55-.58-.97-1.1-1.13l-7.98-2.4c-.14-.04-.29-.06-.43-.06-.69 0-1.3.48-1.53 1.19l-2.12 6.79c-.35 1.13-1.35 1.89-2.48 1.89h-4.42c-.81 0-1.57-.39-2.06-1.06-.53-.73-.69-1.68-.42-2.55l8.59-28.81999c.44-1.48 1.18-2.82 2.14-3.87 1.36-1.49 2.4-1.77 3.86-1.77h3.37c1.67 0 3.75 0 5.66 1.86.91.88 1.58 2.07 1.95 3.45l7.74 29.16999c.26.85.11 1.81-.43 2.53-.5.68-1.25 1.06-2.06 1.06h-4.42v.01Zm-9.3-32.26999c-3.43 0-4.83 2.31999-4.83 7.99999s1.4 8 4.83 8 4.83-4.13 4.83-8-1.27-7.99999-4.83-7.99999Z"/>
  <path fill="#2F2F2F" d="M115.095 2.40988H118.455c1.69 0 3.57.02 5.32 1.71.9.87 1.49 2.01 1.81 3.22l7.74 29.17002c.45 1.46-.57 2.97-2.01 2.97h-4.42c-.91 0-1.72-.62-2-1.54l-1.38-4.4c-.22-.71-.76-1.25-1.43-1.46l-7.98-2.4c-.19-.06-.38-.08-.57-.08-.89 0-1.71.6-2 1.54l-2.12 6.79c-.29.92-1.1 1.54-2.01 1.54h-4.42c-1.44 0-2.46-1.51-2.01-2.97l8.59-28.83002c.4-1.36 1.08-2.63 2.03-3.68 1.25-1.36 2.14-1.61 3.49-1.61m2.5 21.81002c3.65 0 5.33-3.81 5.33-8.5 0-4.69-1.69-8.50002-5.33-8.50002-4.45 0-5.33 3.81002-5.33 8.50002 0 4.69.88 8.5 5.33 8.5Zm-2.5-22.81002c-1.56 0-2.75.32-4.23 1.93-1.01 1.1-1.79 2.51-2.25 4.07l-8.59 28.83002c-.31 1.01-.13 2.13.5 2.99.59.81 1.49 1.27 2.47 1.27h4.42c1.35 0 2.54-.9 2.96-2.25l2.12-6.79c.16-.5.58-.84 1.05-.84.1 0 .19.01.29.04l7.98 2.4c.36.11.64.41.77.8l1.38 4.4c.42 1.34 1.61 2.24 2.96 2.24h4.42c.97 0 1.87-.46 2.47-1.27.63-.85.81-1.97.5-3l-7.73-29.13002c-.39-1.47-1.11-2.75-2.08-3.69-2.06-1.99-4.34-1.99-6.01-1.99h-3.36l-.04-.01Zm2.5 21.81002c-3.12 0-4.33-2.1-4.33-7.5s1.21-7.50002 4.33-7.50002 4.33 3.87002 4.33 7.50002c0 3.63-1.14 7.5-4.33 7.5Z"/>
</svg>