<svg xmlns="http://www.w3.org/2000/svg" width="17" height="13" fill="none">
  <path fill="#6B6B6B" d="M13.5838 6.71624c1.5404-1.26526 2.5389-3.0714 2.7913-5.04875.0137-.11491.0048-.2314-.0265-.34284-.0312-.11144-.0841-.21563-.1556-.30663-.0715-.091003-.1602-.16703-.2611-.223742C15.831.737566 15.72.70128 15.6051.687491c-.115-.013789-.2315-.00481-.3429.026424-.1114.031233-.2156.08411-.3066.155611-.091.071501-.1671.160224-.2238.261114-.0567.10088-.093.21194-.1067.32685-.2092 1.4755-.944 2.82589-2.0693 3.80291-1.1253.97701-2.56549 1.51497-4.05575 1.51497-1.49025 0-2.93042-.53796-4.05572-1.51497-1.1253-.97702-1.86009-2.32741-2.06928-3.80291-.01379-.11491-.05007-.22597-.10679-.32685-.05671-.10089-.13273-.189613-.22374-.261114-.091-.071501-.19519-.124378-.30663-.155611-.11143-.031234-.22793-.040213-.34284-.026424-.1149.013789-.22597.050075-.32685.106787C.967314.85099.878588.927017.807087 1.01802c-.071501.091-.124378.19519-.155611.30663-.031234.11144-.040213.22793-.026424.34284C.875159 3.64354 1.87046 5.44948 3.40755 6.71624l-2.0125 2.03c-.14335.16739-.21825.38271-.20975.60292.00851.22022.0998.42912.25563.58495.15584.15579.36473.24709.58495.25559.22022.0085.43553-.0664.60292-.20971l2.28375-2.275c.84815.4299 1.76715.70263 2.7125.805V11.625c0 .2321.09219.4546.25628.6187.1641.1641.38666.2563.61872.2563.23207 0 .45463-.0922.61872-.2563.16409-.1641.25628-.3866.25628-.6187V8.50999c.94535-.10237 1.86435-.3751 2.71255-.805l2.2837 2.275c.1674.14331.3827.21821.6029.20971.2202-.0085.4291-.0998.585-.25559.1558-.15583.2471-.36473.2556-.58495.0085-.22021-.0664-.43553-.2097-.60292l-2.0213-2.03Z"/>
</svg>