<svg xmlns="http://www.w3.org/2000/svg" width="203" height="65" fill="none"><g filter="url(#a)"><rect width="77" height="57" x="4" y="2" fill="#fff" rx="10"/></g><path fill="#2F2F2F" d="M97.576 18.452c0-1.024.32-1.856.96-2.496.64-.6827 1.515-1.024 2.624-1.024 1.152 0 2.048.3413 2.688 1.024.64.64.96 1.472.96 2.496 0 .9813-.32 1.792-.96 2.432-.64.5973-1.536.896-2.688.896-1.109 0-1.984-.2987-2.624-.896-.64-.64-.96-1.4507-.96-2.432Zm0 22.08c0-1.024.32-1.856.96-2.496.64-.6827 1.515-1.024 2.624-1.024 1.152 0 2.048.3413 2.688 1.024.64.64.96 1.472.96 2.496 0 .9813-.32 1.792-.96 2.432-.64.5973-1.536.896-2.688.896-1.109 0-1.984-.2987-2.624-.896-.64-.64-.96-1.4507-.96-2.432Z"/><g filter="url(#b)"><rect width="77" height="57" x="122" y="2" fill="#D9D9D9" rx="10"/></g><defs><filter id="a" width="85" height="65" x="0" y="0" color-interpolation-filters="sRGB" filterUnits="userSpaceOnUse"><feFlood flood-opacity="0" result="BackgroundImageFix"/><feColorMatrix in="SourceAlpha" result="hardAlpha" values="0 0 0 0 0 0 0 0 0 0 0 0 0 0 0 0 0 0 127 0"/><feOffset dy="2"/><feGaussianBlur stdDeviation="2"/><feComposite in2="hardAlpha" operator="out"/><feColorMatrix values="0 0 0 0 0 0 0 0 0 0 0 0 0 0 0 0 0 0 0.25 0"/><feBlend in2="BackgroundImageFix" result="effect1_dropShadow_8_1316"/><feBlend in="SourceGraphic" in2="effect1_dropShadow_8_1316" result="shape"/></filter><filter id="b" width="85" height="65" x="118" y="0" color-interpolation-filters="sRGB" filterUnits="userSpaceOnUse"><feFlood flood-opacity="0" result="BackgroundImageFix"/><feColorMatrix in="SourceAlpha" result="hardAlpha" values="0 0 0 0 0 0 0 0 0 0 0 0 0 0 0 0 0 0 127 0"/><feOffset dy="2"/><feGaussianBlur stdDeviation="2"/><feComposite in2="hardAlpha" operator="out"/><feColorMatrix values="0 0 0 0 0 0 0 0 0 0 0 0 0 0 0 0 0 0 0.25 0"/><feBlend in2="BackgroundImageFix" result="effect1_dropShadow_8_1316"/><feBlend in="SourceGraphic" in2="effect1_dropShadow_8_1316" result="shape"/></filter></defs></svg>