<svg width="164" height="44" viewBox="0 0 164 44" fill="none" xmlns="http://www.w3.org/2000/svg">
<g opacity="0.08">
<path d="M25.7942 33.7967C24.8792 33.7967 24.024 33.307 23.5515 32.5247L20.2443 26.9711C19.8915 26.3799 19.3113 26.0455 18.6475 26.0455C17.7205 26.0455 16.7337 26.7083 16.7337 27.9325V31.193C16.7337 32.6262 15.5675 33.7967 14.1262 33.7967H12.96C11.5247 33.7967 10.3525 32.6322 10.3525 31.193V13.5409C10.3585 12.1017 11.5247 10.9373 12.966 10.9373H15.113C16.0161 10.9373 16.8713 11.415 17.3438 12.1913L20.657 17.6553C21.0098 18.2346 21.5899 18.569 22.2478 18.569C23.1748 18.569 24.1615 17.9062 24.1615 16.682V13.5409C24.1615 12.1077 25.3277 10.9373 26.769 10.9373H27.7917C29.3108 10.9373 30.5427 12.1674 30.5427 13.6842V31.193C30.5427 32.6262 29.3765 33.7967 27.9352 33.7967H25.8002H25.7942Z" fill="black"/>
<path d="M27.7861 11.2959C29.1078 11.2959 30.1783 12.3649 30.1783 13.6846V31.1935C30.1783 32.4296 29.1736 33.4388 27.9296 33.4388H25.7946C24.9991 33.4388 24.2695 33.0208 23.8628 32.34L20.5556 26.7864C20.1011 26.028 19.3715 25.6876 18.6478 25.6876C17.5056 25.6876 16.3752 26.5416 16.3752 27.9329V31.1935C16.3752 32.4296 15.3705 33.4388 14.1266 33.4388H12.9604C11.7224 33.4388 10.7117 32.4356 10.7117 31.1935V13.5413C10.7117 12.3052 11.7164 11.2959 12.9604 11.2959H15.1074C15.8908 11.2959 16.6204 11.708 17.0271 12.3768L20.3403 17.8409C20.7948 18.5873 21.5185 18.9277 22.2361 18.9277C23.3784 18.9277 24.5087 18.0738 24.5087 16.6824V13.5413C24.5087 12.3052 25.5135 11.2959 26.7574 11.2959H27.7801M27.7801 10.5793H26.7574C25.1247 10.5793 23.7911 11.9051 23.7911 13.5413V16.6824C23.7911 17.6796 22.9897 18.2111 22.2361 18.2111C21.9252 18.2111 21.345 18.1156 20.9563 17.4706L17.6491 12.0066C17.1168 11.1287 16.142 10.5793 15.1133 10.5793H12.9663C11.3277 10.5793 10 11.9051 10 13.5413V31.1994C10 32.8297 11.3277 34.1614 12.9663 34.1614H14.1325C15.7652 34.1614 17.0989 32.8357 17.0989 31.1994V27.9389C17.0989 27.3716 17.356 27.0193 17.5713 26.8222C17.8584 26.5595 18.2531 26.4102 18.6538 26.4102C18.9708 26.4102 19.5509 26.5057 19.9456 27.1626L23.2528 32.7162C23.7851 33.606 24.7599 34.1614 25.8005 34.1614H27.9356C29.5683 34.1614 30.9019 32.8357 30.9019 31.1994V13.6846C30.9019 11.9707 29.5085 10.5793 27.7921 10.5793H27.7801Z" fill="black"/>
<path d="M55.9866 33.7967C54.4676 33.7967 53.2356 32.5665 53.2356 31.0497V13.6842C53.2356 12.1674 54.4676 10.9373 55.9866 10.9373H56.8598C58.3788 10.9373 59.6108 12.1674 59.6108 13.6842V26.2724C59.6108 27.3951 60.5258 28.3028 61.6442 28.3028H67.23C68.7491 28.3028 69.981 29.5329 69.981 31.0497C69.981 32.5665 68.7491 33.7967 67.23 33.7967H55.9807H55.9866Z" fill="black"/>
<path d="M56.8628 11.2959C58.1845 11.2959 59.255 12.3649 59.255 13.6846V26.2668C59.255 27.5866 60.3255 28.6555 61.6472 28.6555H67.233C68.5547 28.6555 69.6252 29.7244 69.6252 31.0442C69.6252 32.3639 68.5547 33.4328 67.233 33.4328H55.9836C54.662 33.4328 53.5914 32.3639 53.5914 31.0442V13.6846C53.5914 12.3649 54.662 11.2959 55.9836 11.2959H56.8568M56.8568 10.5793H55.9836C54.2672 10.5793 52.8738 11.9707 52.8738 13.6846V31.0501C52.8738 32.764 54.2672 34.1554 55.9836 34.1554H67.233C68.9494 34.1554 70.3429 32.764 70.3429 31.0501C70.3429 29.3363 68.9494 27.9449 67.233 27.9449H61.6472C60.7262 27.9449 59.9726 27.1925 59.9726 26.2728V13.6846C59.9726 11.9707 58.5792 10.5793 56.8628 10.5793H56.8568Z" fill="black"/>
<path d="M108.074 33.7913C106.591 33.7913 105.383 32.5612 105.383 31.0503V28.4586C105.383 27.1329 104.348 26.4223 103.379 26.4223C102.686 26.4223 102.076 26.7866 101.705 27.4196L98.7804 32.4477C98.296 33.2778 97.4109 33.7913 96.466 33.7913H94.606C93.1229 33.7913 91.9148 32.5612 91.9148 31.0503V13.6848C91.9148 12.174 93.1229 10.9438 94.606 10.9438H95.4612C96.9444 10.9438 98.1525 12.174 98.1525 13.6848V16.1631C98.1525 17.441 99.1751 18.1994 100.156 18.1994C100.844 18.1994 101.454 17.8411 101.819 17.22L104.749 12.2696C105.233 11.4514 106.113 10.9438 107.051 10.9438H108.929C110.413 10.9438 111.621 12.174 111.621 13.6848V31.0503C111.621 32.5612 110.413 33.7913 108.929 33.7913H108.074Z" fill="black"/>
<path d="M108.928 11.2956C110.22 11.2956 111.261 12.3645 111.261 13.6842V31.0498C111.261 32.3695 110.214 33.4384 108.928 33.4384H108.073C106.781 33.4384 105.741 32.3695 105.741 31.0498V28.4581C105.741 26.9711 104.569 26.0634 103.378 26.0634C102.625 26.0634 101.871 26.4277 101.399 27.2339L98.4744 32.262C98.0558 32.9846 97.2902 33.4324 96.4709 33.4324H94.611C93.3192 33.4324 92.2786 32.3635 92.2786 31.0438V13.6842C92.2786 12.3645 93.3252 11.2956 94.611 11.2956H95.4662C96.758 11.2956 97.7986 12.3645 97.7986 13.6842V16.1625C97.7986 17.6494 98.9708 18.5571 100.161 18.5571C100.908 18.5571 101.656 18.1988 102.128 17.4046L105.059 12.4541C105.484 11.7375 106.237 11.3016 107.056 11.3016H108.934M108.934 10.5909H107.056C105.998 10.5909 104.999 11.1642 104.449 12.0898L101.518 17.0403C101.1 17.745 100.49 17.8465 100.161 17.8465C99.3595 17.8465 98.5103 17.2553 98.5103 16.1625V13.6842C98.5103 11.9764 97.1467 10.585 95.4662 10.585H94.611C92.9304 10.585 91.5669 11.9764 91.5669 13.6842V31.0498C91.5669 32.7576 92.9304 34.149 94.611 34.149H96.4709C97.5414 34.149 98.5462 33.5638 99.0904 32.6263L102.015 27.5982C102.428 26.8875 103.049 26.78 103.378 26.78C104.18 26.78 105.029 27.3712 105.029 28.464V31.0557C105.029 32.7636 106.393 34.155 108.073 34.155H108.928C110.609 34.155 111.972 32.7636 111.972 31.0557V13.6842C111.972 11.9764 110.609 10.585 108.928 10.585L108.934 10.5909Z" fill="black"/>
<path d="M124.796 34.3515C123.145 34.3515 121.542 34.0529 120.035 33.4677C118.558 32.8765 117.266 32.0464 116.196 31.0014C115.095 29.9504 114.258 28.7023 113.636 27.1855C113.002 25.7404 112.691 24.1579 112.691 22.3544C112.691 20.551 113.002 18.9984 113.636 17.5174C114.258 16.0305 115.095 14.7824 116.19 13.7075C117.26 12.6625 118.546 11.8324 120.023 11.2412C121.536 10.65 123.139 10.3574 124.79 10.3574C127.05 10.3574 129.048 10.8411 130.728 11.7906C131.889 12.4714 132.983 13.385 133.976 14.5017C134.383 14.9616 134.586 15.5527 134.544 16.1678C134.502 16.7769 134.227 17.3323 133.772 17.7264L133.037 18.3594C132.63 18.7117 132.11 18.9028 131.578 18.9028C130.926 18.9028 130.31 18.6162 129.885 18.1146C129.472 17.6189 129.006 17.189 128.51 16.8247C127.559 16.1499 126.351 15.8095 124.921 15.8095C124.066 15.8095 123.253 15.9767 122.505 16.3052C121.77 16.6456 121.166 17.0875 120.663 17.6607C120.119 18.2758 119.718 18.9566 119.437 19.7389C119.144 20.5152 119.001 21.387 119.001 22.3425C119.001 23.298 119.144 24.1579 119.437 24.9103C119.688 25.6926 120.089 26.3793 120.633 26.9646C121.154 27.5856 121.788 28.0454 122.529 28.35C123.241 28.6904 124.036 28.8516 124.975 28.8516C125.729 28.8516 126.387 28.768 126.973 28.5888C127.511 28.4395 128.043 28.1828 128.575 27.8304C129.024 27.5199 129.484 27.1019 129.903 26.6182C130.346 26.0688 130.986 25.7583 131.667 25.7583C132.218 25.7583 132.738 25.9613 133.145 26.3375L133.874 27.0064C134.777 27.8364 134.855 29.2636 134.036 30.1833C133.079 31.2701 132.038 32.142 130.86 32.8466C129.132 33.8379 127.086 34.3395 124.778 34.3395L124.796 34.3515Z" fill="black"/>
<path d="M124.797 10.7106C127.003 10.7106 128.941 11.1824 130.562 12.102C131.692 12.7649 132.745 13.6427 133.72 14.7415C134.425 15.5357 134.348 16.7659 133.546 17.4586L132.811 18.0916C132.458 18.3961 132.015 18.5514 131.585 18.5514C131.058 18.5514 130.532 18.3304 130.167 17.8945C129.731 17.375 129.252 16.9271 128.726 16.5449C127.703 15.8223 126.435 15.464 124.928 15.464C123.983 15.464 123.122 15.6611 122.369 15.9896C121.585 16.3538 120.939 16.8256 120.401 17.4347C119.833 18.0737 119.402 18.7962 119.109 19.6263C118.786 20.4862 118.649 21.4058 118.649 22.3493C118.649 23.2929 118.786 24.2125 119.109 25.0426C119.378 25.8786 119.809 26.6011 120.377 27.2103C120.915 27.8492 121.591 28.3508 122.398 28.6852C123.152 29.0435 124.013 29.2108 124.982 29.2108C125.736 29.2108 126.435 29.1271 127.081 28.9361C127.673 28.7689 128.241 28.4942 128.78 28.1299C129.264 27.7955 129.749 27.3536 130.179 26.852C130.179 26.852 130.185 26.84 130.191 26.834C130.574 26.3623 131.124 26.1115 131.674 26.1115C132.117 26.1115 132.553 26.2667 132.912 26.5952L133.642 27.264C134.407 27.9687 134.467 29.163 133.779 29.9453C132.84 31.0082 131.818 31.8622 130.687 32.5429C129.043 33.4864 127.081 33.9881 124.791 33.9881C123.122 33.9881 121.585 33.6835 120.162 33.1281C118.708 32.5429 117.471 31.7368 116.448 30.7395C115.371 29.7124 114.564 28.4882 113.972 27.0431C113.35 25.6278 113.057 24.0692 113.057 22.3493C113.057 20.6295 113.356 19.1008 113.972 17.6556C114.564 16.2404 115.371 15.0162 116.448 13.9592C117.471 12.9619 118.708 12.1558 120.162 11.5705C121.591 11.0152 123.122 10.7106 124.791 10.7106M124.791 10C123.098 10 121.454 10.3046 119.899 10.9077C118.374 11.5228 117.046 12.3767 115.94 13.4516C114.803 14.5623 113.942 15.8462 113.302 17.3809C112.65 18.9037 112.333 20.528 112.333 22.3493C112.333 24.1707 112.65 25.8308 113.308 27.3297C113.942 28.8823 114.809 30.1662 115.945 31.2531C117.04 32.322 118.368 33.1759 119.887 33.791C121.448 34.4001 123.092 34.7047 124.785 34.7047C127.159 34.7047 129.264 34.1851 131.04 33.164C132.26 32.4295 133.325 31.5337 134.312 30.423C135.257 29.3541 135.173 27.7059 134.12 26.7445L133.391 26.0756C132.918 25.6457 132.308 25.4068 131.668 25.4068C130.879 25.4068 130.131 25.7651 129.629 26.3921C129.234 26.852 128.798 27.2461 128.367 27.5447C127.877 27.8731 127.374 28.112 126.884 28.2493C126.316 28.4165 125.7 28.5001 124.976 28.5001C124.085 28.5001 123.343 28.3508 122.697 28.0403C122.686 28.0403 122.674 28.0284 122.662 28.0224C121.974 27.7417 121.388 27.3118 120.915 26.7504C120.909 26.7445 120.903 26.7325 120.891 26.7266C120.383 26.1772 120.012 25.5382 119.779 24.8216C119.779 24.8097 119.773 24.7977 119.767 24.7858C119.492 24.0751 119.354 23.2749 119.354 22.3493C119.354 21.4237 119.492 20.6056 119.767 19.8771C120.036 19.1247 120.413 18.4857 120.927 17.9064C121.4 17.375 121.962 16.957 122.656 16.6345C123.343 16.3299 124.109 16.1747 124.916 16.1747C126.268 16.1747 127.404 16.4971 128.301 17.1301C128.768 17.4705 129.21 17.8826 129.605 18.3543C130.095 18.9336 130.807 19.268 131.567 19.268C132.189 19.268 132.793 19.0411 133.259 18.635L133.995 18.002C134.527 17.5422 134.844 16.9032 134.892 16.1986C134.94 15.4879 134.706 14.8072 134.234 14.2757C133.217 13.1232 132.093 12.1916 130.903 11.4929C129.162 10.5076 127.105 10.006 124.779 10.006L124.791 10Z" fill="black"/>
<path d="M137.153 33.7967C136.387 33.7967 135.765 33.1756 135.765 32.4113V12.3227C135.765 11.5583 136.387 10.9373 137.153 10.9373H151.972C152.738 10.9373 153.36 11.5583 153.36 12.3227V14.8905C153.36 15.7325 152.678 16.4192 151.835 16.4192C151.793 16.4192 151.751 16.4192 151.709 16.4192C151.213 16.3774 150.633 16.3117 150.011 16.246C148.725 16.0968 147.272 15.9355 145.944 15.9355C144.371 15.9355 142.427 16.3894 141.77 17.2493C141.524 17.5717 141.459 17.936 141.578 18.36C141.746 18.9631 142.248 19.4588 142.924 19.6797C143.564 19.8887 144.359 19.9962 145.346 19.9962C146.709 19.9962 148.181 19.7992 149.478 19.626C149.993 19.5543 150.477 19.4886 150.914 19.4468C150.98 19.4409 151.039 19.4349 151.105 19.4349C152.062 19.4349 152.846 20.2172 152.846 21.1786V23.3105C152.846 24.1704 152.146 24.8631 151.285 24.8631C151.213 24.8631 151.141 24.8631 151.069 24.8512C150.746 24.8034 150.399 24.7437 150.023 24.684C148.994 24.5048 147.822 24.3018 146.404 24.3018C144.58 24.3018 141.524 24.5645 141.524 26.3381C141.524 28.0161 144.257 28.3685 146.548 28.3685C147.846 28.3685 148.91 28.1833 149.849 28.0221C150.615 27.8907 151.273 27.7713 151.93 27.7713C153.001 27.7713 153.635 28.5058 153.635 29.736V32.4352C153.635 33.1995 153.013 33.8206 152.247 33.8206H137.153V33.7967Z" fill="black"/>
<path d="M151.979 11.2959C152.547 11.2959 153.007 11.7558 153.007 12.3231V14.8909C153.007 15.5418 152.481 16.0613 151.841 16.0613C151.811 16.0613 151.781 16.0613 151.745 16.0613C150.226 15.9419 147.948 15.5716 145.95 15.5716C143.953 15.5716 140.64 16.2763 141.238 18.45C141.447 19.2084 142.075 19.7697 142.822 20.0205C143.564 20.2653 144.437 20.349 145.358 20.349C147.296 20.349 149.437 19.9608 150.962 19.7936C151.01 19.7936 151.064 19.7876 151.111 19.7876C151.865 19.7876 152.493 20.3967 152.493 21.173V23.3049C152.493 23.9797 151.943 24.4992 151.291 24.4992C151.237 24.4992 151.177 24.4992 151.123 24.4873C149.909 24.3201 148.384 23.9319 146.411 23.9319C143.564 23.9319 141.172 24.5351 141.172 26.3266C141.172 28.1181 143.564 28.7152 146.554 28.7152C148.911 28.7152 150.513 28.1181 151.937 28.1181C153.133 28.1181 153.282 29.1571 153.282 29.7244V32.4236C153.282 32.9909 152.822 33.4507 152.254 33.4507H137.159C136.591 33.4507 136.13 32.9909 136.13 32.4236V12.3231C136.13 11.7558 136.591 11.2959 137.159 11.2959H151.979ZM151.979 10.5793H137.159C136.196 10.5793 135.413 11.3616 135.413 12.3231V32.4117C135.413 33.3731 136.196 34.1554 137.159 34.1554H152.254C153.217 34.1554 154 33.3731 154 32.4117V29.7125C154 28.2793 153.211 27.3895 151.937 27.3895C151.249 27.3895 150.543 27.5149 149.796 27.6403C148.869 27.8016 147.822 27.9867 146.554 27.9867C145.149 27.9867 141.89 27.8254 141.89 26.3146C141.89 24.8038 145.053 24.6366 146.411 24.6366C147.768 24.6366 148.947 24.8396 149.963 25.0128C150.34 25.0785 150.693 25.1382 151.022 25.186C151.111 25.1979 151.201 25.2039 151.291 25.2039C152.349 25.2039 153.211 24.344 153.211 23.293V21.1611C153.211 20.5998 152.989 20.0683 152.595 19.6742C152.2 19.28 151.674 19.065 151.117 19.065C151.04 19.065 150.968 19.065 150.89 19.077C150.454 19.1248 149.969 19.1905 149.449 19.2621C148.163 19.4353 146.704 19.6324 145.364 19.6324C144.425 19.6324 143.648 19.5308 143.056 19.3397C142.494 19.1546 142.075 18.7545 141.943 18.2648C141.854 17.9424 141.895 17.6975 142.075 17.4646C142.661 16.7003 144.515 16.2882 145.968 16.2882C147.278 16.2882 148.719 16.4554 149.999 16.5988C150.621 16.6704 151.201 16.7361 151.71 16.7779C151.757 16.7779 151.811 16.7839 151.859 16.7839C152.361 16.7839 152.834 16.5868 153.193 16.2285C153.552 15.8702 153.743 15.3985 153.743 14.8909V12.3231C153.743 11.3616 152.959 10.5793 151.997 10.5793H151.979Z" fill="black"/>
<path d="M47.7852 33.6056C47.0855 33.6056 46.4755 33.1398 46.2542 32.4411L44.9864 28.3864C44.8608 27.9803 44.5079 27.7056 44.1192 27.7056C44.0355 27.7056 43.9577 27.7175 43.874 27.7414L39.1015 29.1746C38.8085 29.2642 38.5752 29.5031 38.4796 29.8136L37.6542 32.4411C37.433 33.1398 36.823 33.6056 36.1232 33.6056H33.4798C32.9775 33.6056 32.517 33.3667 32.206 32.9487C31.8771 32.5008 31.7814 31.9156 31.9488 31.3841L36.6017 13.8633C36.7751 13.2065 37.0921 12.6153 37.5107 12.1435C38.7307 10.782 40.0823 10.782 41.1708 10.782H42.9231C43.0068 10.776 43.0965 10.77 43.1802 10.77C44.0833 10.77 44.7412 10.9551 45.6023 11.9345C46.1406 12.5376 46.5473 13.2781 46.7865 14.0723L51.9537 31.3901C52.1211 31.9216 52.0194 32.5068 51.6905 32.9547C51.3855 33.3727 50.919 33.6116 50.4167 33.6116H47.7733L47.7852 33.6056ZM41.9483 20.8263C41.6253 20.8263 41.2246 20.9935 41.0811 21.4652C40.9794 21.7937 41.0332 22.14 41.2306 22.4147C41.41 22.6536 41.6672 22.7909 41.9423 22.7909C42.026 22.7909 42.1097 22.779 42.1935 22.7551C42.4267 22.6834 42.6181 22.5222 42.7437 22.2953C42.8752 22.0445 42.9051 21.7459 42.8214 21.4712C42.6779 20.9994 42.2772 20.8322 41.9542 20.8322L41.9483 20.8263Z" fill="black"/>
<path d="M43.1844 11.1168C44.0156 11.1168 44.5599 11.272 45.3493 12.1618C45.8636 12.741 46.2404 13.4338 46.4557 14.1683L51.6229 31.486C51.892 32.3579 51.282 33.2596 50.4208 33.2596H47.7774C47.2332 33.2596 46.7487 32.8894 46.5753 32.34L45.3074 28.2852C45.134 27.7239 44.6376 27.3656 44.1113 27.3656C43.9977 27.3656 43.8841 27.3835 43.7704 27.4134L38.998 28.8466C38.5973 28.966 38.2744 29.2944 38.1428 29.7184L37.3175 32.3459C37.144 32.8953 36.6596 33.2656 36.1214 33.2656H33.478C32.6168 33.2656 32.0068 32.3639 32.2759 31.492L36.9347 13.9533C37.0902 13.374 37.3653 12.8247 37.766 12.3768C38.8724 11.1406 40.0864 11.1287 41.1689 11.1287C41.755 11.1287 42.3411 11.1287 42.9212 11.1287C43.0109 11.1287 43.0946 11.1287 43.1784 11.1287M41.9344 23.1496C42.0481 23.1496 42.1677 23.1317 42.2873 23.0959C42.981 22.8869 43.3638 22.1046 43.1425 21.376C42.9631 20.7848 42.4488 20.4922 41.9404 20.4922C41.4321 20.4922 40.9237 20.7848 40.7443 21.3701C40.4632 22.2718 41.1151 23.1436 41.9344 23.1436M43.1844 10.4241C43.0946 10.4241 43.0049 10.4241 42.9093 10.4241H41.1749C41.1749 10.4241 41.1749 10.4241 41.1689 10.4241C40.0745 10.4241 38.5794 10.4241 37.2577 11.905C36.8031 12.4126 36.4623 13.0575 36.2709 13.7622L31.6121 31.3009C31.4207 31.916 31.5343 32.6147 31.929 33.1461C32.2998 33.6537 32.868 33.9404 33.484 33.9404H36.1273C36.9766 33.9404 37.7241 33.3731 37.9873 32.537L38.8126 29.9095C38.8784 29.7065 39.0219 29.5512 39.2073 29.4975L43.9798 28.0643C44.0276 28.0523 44.0755 28.0404 44.1233 28.0404C44.3625 28.0404 44.5778 28.2136 44.6615 28.4763L45.9294 32.5311C46.1926 33.3731 46.9401 33.9404 47.7894 33.9404H50.4327C51.0487 33.9404 51.6109 33.6478 51.9877 33.1461C52.3824 32.6147 52.496 31.91 52.2987 31.271L47.1315 13.9593C46.8803 13.1173 46.4437 12.335 45.8756 11.69C44.9307 10.6211 44.1771 10.4121 43.1903 10.4121L43.1844 10.4241ZM41.9404 22.445C41.7789 22.445 41.6234 22.3614 41.5098 22.2061C41.3782 22.0269 41.3424 21.7941 41.4081 21.5671C41.5218 21.2029 41.8447 21.173 41.9464 21.173C42.0481 21.173 42.371 21.2029 42.4846 21.5671C42.5444 21.7523 42.5265 21.9553 42.4368 22.1225C42.359 22.2658 42.2394 22.3733 42.0959 22.4151C42.0421 22.433 41.9942 22.439 41.9464 22.439L41.9404 22.445Z" fill="black"/>
<path d="M86.6207 33.8269C85.921 33.8269 85.3109 33.3611 85.0897 32.6624L84.2644 30.0349C84.1687 29.7184 83.9294 29.4795 83.6424 29.3959L78.8699 27.9627C78.7922 27.9388 78.7085 27.9269 78.6247 27.9269C78.23 27.9269 77.8832 28.2016 77.7576 28.6017L76.4897 32.6564C76.2744 33.3551 75.6584 33.8209 74.9587 33.8209H72.3153C71.8129 33.8209 71.3524 33.5821 71.0414 33.164C70.7125 32.7162 70.6168 32.1309 70.7843 31.5995L75.9514 14.2877C76.1907 13.4934 76.5973 12.753 77.1356 12.1498C78.0028 11.1764 78.6546 10.9854 79.5577 10.9854C79.6414 10.9854 79.7311 10.9854 79.8268 10.9854H81.5731C82.6556 10.9854 84.0132 10.9854 85.2332 12.3529C85.6518 12.8246 85.9688 13.4158 86.1422 14.0727L90.8011 31.6114C90.9625 32.1309 90.8668 32.7162 90.5379 33.164C90.2329 33.5821 89.7664 33.8209 89.2641 33.8209H86.6207V33.8269ZM80.7957 21.0476C80.4727 21.0476 80.072 21.2148 79.9285 21.6865C79.8448 21.9612 79.8747 22.2598 80.0062 22.5106C80.1258 22.7375 80.3232 22.9048 80.5505 22.9704C80.6342 22.9943 80.7179 23.0063 80.8016 23.0063C81.0767 23.0063 81.3339 22.8689 81.5133 22.6301C81.7107 22.3613 81.7705 22.015 81.6628 21.6806C81.5133 21.2088 81.1186 21.0416 80.7957 21.0416V21.0476Z" fill="black"/>
<path d="M79.5581 11.3374C79.6418 11.3374 79.7255 11.3374 79.8152 11.3374C80.4013 11.3374 80.9874 11.3374 81.5675 11.3374C82.65 11.3374 83.864 11.3493 84.9704 12.5854C85.3711 13.0333 85.6462 13.5827 85.8017 14.1619L90.4605 31.7006C90.7297 32.5725 90.1196 33.4742 89.2585 33.4742H86.6151C86.0708 33.4742 85.5864 33.104 85.419 32.5546L84.5937 29.9271C84.4621 29.5031 84.1391 29.1806 83.7384 29.0552L78.966 27.622C78.8524 27.5862 78.7387 27.5742 78.6251 27.5742C78.0928 27.5742 77.6024 27.9325 77.429 28.4939L76.1611 32.5486C75.9877 33.098 75.5033 33.4682 74.959 33.4682H72.3157C71.4545 33.4682 70.8445 32.5665 71.1136 31.6947L76.2807 14.3769C76.502 13.6364 76.8788 12.9437 77.3871 12.3704C78.1706 11.4807 78.7208 11.3254 79.5521 11.3254M80.796 23.3463C81.6213 23.3463 82.2732 22.4745 81.9862 21.5727C81.8008 20.9875 81.2924 20.6949 80.79 20.6949C80.2877 20.6949 79.7734 20.9875 79.588 21.5787C79.3607 22.3073 79.7494 23.0895 80.4432 23.2985C80.5628 23.3344 80.6824 23.3523 80.796 23.3523M79.5521 10.6387C78.5713 10.6387 77.8117 10.8477 76.8668 11.9166C76.2987 12.5615 75.8621 13.3438 75.6109 14.1858L70.4438 31.5036C70.2464 32.1366 70.366 32.8353 70.7547 33.3727C71.1255 33.8803 71.6937 34.1669 72.3097 34.1669H74.9531C75.8023 34.1669 76.5499 33.5996 76.813 32.7576L78.0809 28.7029C78.1646 28.4401 78.3799 28.2669 78.6191 28.2669C78.667 28.2669 78.7148 28.2729 78.7627 28.2908L83.5351 29.724C83.7145 29.7778 83.864 29.933 83.9298 30.1361L84.7551 32.7636C85.0183 33.6056 85.7658 34.1669 86.6151 34.1669H89.2585C89.8744 34.1669 90.4366 33.8743 90.8134 33.3727C91.2081 32.8412 91.3217 32.1366 91.1244 31.4976L86.4715 13.9888C86.2861 13.2841 85.9453 12.6392 85.4848 12.1316C84.1631 10.6506 82.6619 10.6506 81.5675 10.6506H79.8332C79.7375 10.6446 79.6478 10.6387 79.5581 10.6387H79.5521ZM80.796 22.6596C80.7482 22.6596 80.6944 22.6536 80.6465 22.6357C80.503 22.5939 80.3834 22.4864 80.3056 22.3431C80.2159 22.1759 80.198 21.9728 80.2518 21.7877C80.3654 21.4175 80.6944 21.3936 80.79 21.3936C80.8857 21.3936 81.2147 21.4235 81.3283 21.7877C81.4001 22.0146 81.3642 22.2475 81.2266 22.4267C81.113 22.576 80.9575 22.6656 80.796 22.6656V22.6596Z" fill="black"/>
<path d="M41.6928 23.926C42.7927 23.926 43.6844 22.3218 43.6844 20.3429C43.6844 18.364 42.7927 16.7598 41.6928 16.7598C40.5928 16.7598 39.7012 18.364 39.7012 20.3429C39.7012 22.3218 40.5928 23.926 41.6928 23.926Z" fill="white"/>
<path d="M81.3844 24.0874C82.4843 24.0874 83.376 22.4832 83.376 20.5043C83.376 18.5254 82.4843 16.9211 81.3844 16.9211C80.2845 16.9211 79.3928 18.5254 79.3928 20.5043C79.3928 22.4832 80.2845 24.0874 81.3844 24.0874Z" fill="white"/>
</g>
</svg>
