<svg xmlns="http://www.w3.org/2000/svg" width="116" height="62" fill="none">
  <g filter="url(#a)">
    <path fill="#F0F2F0" fill-rule="evenodd" d="M60.3729 2.51942c-1.0758-2.313165-4.3645-2.313164-5.4403 0l-3.2953 7.0853H13c-7.1797 0-13 5.82028-13 12.99998v25.7366c0 7.1797 5.8203 13 13 13h90c7.18 0 13-5.8203 13-13V22.6047c0-7.1797-5.82-12.99998-13-12.99998H63.6682l-3.2953-7.0853Z" clip-rule="evenodd"/>
  </g>
  <path fill="#B3261E" d="M34.8683 28.2697h-.88v-4.85h.88v4.85Zm1.1-2.06h-1.45v-.74h1.45v.74Zm-1.1 4.12h-4.37v.8h-.86v-1.36h4.36v-.55h-4.38v-.6h5.25v1.71Zm.28 1.23h-5.51v-.62h5.51v.62Zm-3.66-3.71h-.87v-1.09h.87v1.09Zm-2.92-.38c1.0266 0 1.9333-.0133 2.72-.04.7866-.0266 1.5433-.09 2.27-.19l.05.57c-.7467.1267-1.5167.21-2.31.25-.7867.0334-1.6667.05-2.64.05l-.09-.64Zm4.76-2.84h-4.57v-.61h4.57v.61Zm-2.29.23c.58 0 1.04.0967 1.38.29.3466.1867.52.4467.52.78 0 .34-.1734.6067-.52.8-.34.1934-.8.29-1.38.29-.58 0-1.04-.0966-1.38-.29-.34-.1933-.51-.46-.51-.8 0-.3333.17-.5933.51-.78.3466-.1933.8066-.29 1.38-.29Zm0 .58c-.3267 0-.5834.0434-.77.13-.1867.0867-.28.2067-.28.36 0 .16.0933.2867.28.38.1866.0867.4433.13.77.13.3333 0 .5933-.0433.78-.13.1866-.0933.28-.22.28-.38 0-.1533-.0934-.2733-.28-.36-.1867-.0866-.4467-.13-.78-.13Zm.45-1.09h-.87v-.99h.87v.99Zm12.1286 3.78h-7.24v-.72h7.24v.72Zm-3.2-.43h-.85v-1.58h.85v1.58Zm2.35-1.14h-5.49v-.71h5.49v.71Zm-.05-2.06h-4.58v1.79h-.86v-2.49h5.44v.7Zm-2.74 4.15c.86 0 1.53.13 2.01.39.4866.26.73.63.73 1.11 0 .4667-.2434.83-.73 1.09-.48.26-1.15.39-2.01.39-.86 0-1.5334-.13-2.02-.39-.4867-.26-.73-.6233-.73-1.09 0-.48.2433-.85.73-1.11.4866-.26 1.16-.39 2.02-.39Zm0 .7c-.6 0-1.06.07-1.38.21-.32.1334-.48.33-.48.59 0 .26.16.4567.48.59.32.1334.78.2 1.38.2.6 0 1.06-.0666 1.38-.2.32-.1333.48-.33.48-.59 0-.26-.16-.4566-.48-.59-.32-.14-.78-.21-1.38-.21Zm10.7185 2.3h-.87v-8.23h.87v8.23Zm-4.24-7.6c.3934 0 .7434.12 1.05.36.3134.2334.5567.5667.73 1 .1734.4334.26.94.26 1.52 0 .58-.0866 1.0867-.26 1.52-.1733.4334-.4166.77-.73 1.01-.3066.2334-.6566.35-1.05.35-.4 0-.7566-.1166-1.07-.35-.3066-.24-.5466-.5766-.72-1.01-.1733-.4333-.26-.94-.26-1.52 0-.58.0867-1.0866.26-1.52.1734-.44.4134-.7766.72-1.01.3134-.2333.67-.35 1.07-.35Zm0 .8c-.24 0-.4533.0834-.64.25-.18.1667-.32.4067-.42.72-.1.3134-.15.6834-.15 1.11 0 .4267.05.7967.15 1.11.1.3067.24.5434.42.71.1867.1667.4.25.64.25.2334 0 .44-.0833.62-.25.1867-.1666.33-.4066.43-.72.1-.3133.15-.68.15-1.1 0-.42-.05-.7866-.15-1.1-.1-.32-.2433-.5633-.43-.73-.18-.1666-.3866-.25-.62-.25Zm14.2841 6.79h-.82v-8.22h.82v8.22Zm-2.18-4.58h-1.46v-.73h1.46v.73Zm.57 4.17h-.82v-7.63h.82v7.63Zm-2.96-5.53c0 .6134-.07 1.2034-.21 1.77-.14.5667-.3467 1.0734-.62 1.52-.2733.4467-.6033.7934-.99 1.04l-.53-.67c.3667-.2266.6767-.5333.93-.92.2533-.3866.4433-.8133.57-1.28.1267-.4733.19-.96.19-1.46v-.97h.66v.97Zm.17 0c0 .48.06.9467.18 1.4.1267.4467.3133.8534.56 1.22.2467.36.55.6467.91.86l-.51.66c-.3933-.24-.7233-.57-.99-.99-.2667-.4266-.4667-.91-.6-1.45-.1333-.54-.2-1.1066-.2-1.7v-.97h.65v.97Zm1.35-.63h-3.61v-.73h3.61v.73Zm6.2586-1.37c.4 0 .7567.08 1.07.24.32.1534.5667.3734.74.66.18.28.27.5967.27.95 0 .3534-.09.67-.27.95-.1733.28-.42.4967-.74.65-.3133.1534-.67.23-1.07.23-.3933 0-.75-.0766-1.07-.23-.32-.16-.57-.3766-.75-.65-.18-.28-.27-.5966-.27-.95 0-.3533.09-.67.27-.95.18-.2866.43-.5066.75-.66.32-.16.6767-.24 1.07-.24Zm0 .75c-.2333 0-.4433.0467-.63.14-.1867.0867-.3333.2134-.44.38-.1067.1667-.16.3567-.16.57 0 .22.0533.4167.16.59.1067.1667.2533.2967.44.39.1867.0934.3967.14.63.14.24 0 .4533-.0466.64-.14.1867-.0933.3333-.2233.44-.39.1067-.1666.16-.36.16-.58 0-.22-.0533-.4133-.16-.58-.1067-.1666-.2533-.2933-.44-.38-.1867-.0933-.4-.14-.64-.14Zm4.34 3.14h-.88v-4.17h.88v4.17Zm0 2.47h-4.36v1.15h-.84v-1.82h4.33v-.71h-4.36v-.7h5.23v2.08Zm.24 1.47h-5.44v-.71h5.44v.71Zm9.2341-3.52h-.88v-4.59h.88v4.59Zm1.13-1.91h-1.38v-.75h1.38v.75Zm-6.14 1.09h-.86v-3.33h.86v3.33Zm-.21-.46c.6133 0 1.2133-.0266 1.8-.08.5866-.0533 1.1833-.1466 1.79-.28l.11.74c-.6334.1267-1.2534.22-1.86.28-.6067.0534-1.22.08-1.84.08h-.65v-.74h.65Zm2.98 2.3c0 .4267-.1234.8167-.37 1.17-.2467.3534-.59.65-1.03.89-.4334.24-.9267.4067-1.48.5l-.35-.7c.48-.0666.91-.19 1.29-.37.38-.1866.6766-.41.89-.67.2133-.26.32-.5333.32-.82v-.23h.73v.23Zm.18 0c0 .2734.1066.5434.32.81.2133.26.51.4867.89.68.3866.1867.8166.3167 1.29.39l-.34.69c-.5534-.0933-1.05-.2633-1.49-.51-.4334-.2466-.7734-.5466-1.02-.9-.2467-.36-.37-.7466-.37-1.16v-.23h.72v.23Zm2.18.1h-5.27v-.72h5.27v.72Zm8.6186-.71h-7.22v-.72h7.22v.72Zm-.81 3.05h-5.5v-.73h5.5v.73Zm-4.63-.5h-.87v-1.88h.87v1.88Zm1.83-7.28c.5733 0 1.07.0667 1.49.2.4266.1334.7533.3267.98.58.2333.2467.35.54.35.88 0 .34-.1167.6367-.35.89-.2267.2467-.5534.4367-.98.57-.42.1334-.9167.2-1.49.2-.5734 0-1.0734-.0666-1.5-.2-.4267-.1333-.7567-.3233-.99-.57-.2334-.2533-.35-.55-.35-.89 0-.34.1166-.6333.35-.88.2333-.2533.5633-.4466.99-.58.4266-.1333.9266-.2 1.5-.2Zm0 .72c-.4 0-.7467.04-1.04.12-.2934.0734-.52.18-.68.32-.1534.14-.23.3067-.23.5 0 .2934.1733.5234.52.69.3466.16.8233.24 1.43.24.6 0 1.07-.08 1.41-.24.3466-.1666.52-.3966.52-.69 0-.1933-.0767-.36-.23-.5-.1534-.14-.3767-.2466-.67-.32-.2934-.08-.6367-.12-1.03-.12Zm-50.4846 16.85c0 .88-.1066 1.68-.32 2.4-.2066.72-.5766 1.3934-1.11 2.02-.5266.62-1.2533 1.17-2.18 1.65l-.47-.69c.8134-.4133 1.4567-.8833 1.93-1.41.4734-.5266.8067-1.1033 1-1.73.2-.6333.3-1.3466.3-2.14v-.1h.85Zm-.32.72h-3.31v-.72h3.31v.72Zm-3.59 2.3-.13-.79 3.13-.2v.69l-3 .3Zm5.97 4.34h-.87v-8.2h.87v8.2Zm1.22-4.19h-1.44v-.74h1.44v.74Zm5.1286-.21h-1.47v-.72h1.47v.72Zm-3.98 1.78c.6467 0 1.17-.0133 1.57-.04.4067-.0266.8167-.08 1.23-.16l.08.72c-.42.0867-.83.1434-1.23.17-.3933.02-.9433.03-1.65.03h-.51v-.72h.51Zm2.45-3.89h-2.13v4.15h-.83v-4.87h2.96v.72Zm-.35 2.19h-2.03v-.69h2.03v.69Zm3.92 4.34h-.84v-8.22h.84v8.22Zm-1.64-.41h-.81v-7.63h.81v7.63Zm8.4686-6.29h-5.12v-.73h5.12v.73Zm1.34 5.6h-7.22v-.73h7.22v.73Zm-3.63-.37h-.86v-3.26h.86v3.26Zm2.84-5.16c0 .7-.0167 1.33-.05 1.89-.0333.5534-.12 1.2034-.26 1.95l-.88-.1c.1333-.7.2167-1.3266.25-1.88.0333-.5533.05-1.1733.05-1.86v-.8h.89v.8Zm7.9086 6.64h-.87v-8.23h.87v8.23Zm-5.46-2.7c.7533 0 1.43-.02 2.03-.06.6067-.04 1.2333-.1166 1.88-.23l.07.73c-.6533.1134-1.29.1934-1.91.24-.62.04-1.31.06-2.07.06h-.68v-.74h.68Zm3.03-1.77h-2.82v2.04h-.89v-2.75h2.82v-1.58h-2.83v-.73h3.72v3.02Zm12.2341.66h-.87v-4.42h.87v4.42Zm-4.35 1.3h3.49v-.91h.86v3.3h-5.19v-3.3h.84v.91Zm3.49 1.66v-.96h-3.49v.96h3.49Zm-3.44-7c.4 0 .76.0834 1.08.25.3266.16.58.3867.76.68.18.2867.27.6134.27.98 0 .3734-.09.7067-.27 1-.18.2867-.4334.51-.76.67-.32.16-.68.24-1.08.24s-.7634-.08-1.09-.24c-.32-.16-.5734-.3833-.76-.67-.18-.2933-.27-.6266-.27-1 0-.3666.09-.6933.27-.98.1866-.2933.44-.52.76-.68.3266-.1666.69-.25 1.09-.25Zm0 .75c-.2467 0-.4667.05-.66.15-.1867.0934-.3367.23-.45.41-.1067.1734-.16.3734-.16.6 0 .2267.0533.43.16.61.1066.1734.2566.31.45.41.1933.0934.4133.14.66.14.24 0 .4533-.0466.64-.14.1933-.1.3433-.2366.45-.41.1066-.18.16-.3833.16-.61 0-.2266-.0534-.4266-.16-.6-.1067-.18-.2567-.3166-.45-.41-.1867-.1-.4-.15-.64-.15Zm12.0686 7.09h-.87v-8.22h.87v8.22Zm-5.24-2.33h-.87v-5.08h.87v5.08Zm-.2-.52c.64 0 1.2766-.03 1.91-.09.6333-.06 1.2666-.1566 1.9-.29l.12.75c-.66.14-1.3134.24-1.96.3-.64.06-1.2967.09-1.97.09h-.67v-.76h.67Zm12.7986 2.86h-.87v-8.23h.87v8.23Zm1.26-4.31h-1.45v-.74h1.45v.74Zm-6.45 1.53c.76 0 1.4166-.0166 1.97-.05.5533-.04 1.11-.1133 1.67-.22l.1.76c-.5867.1067-1.1634.18-1.73.22-.56.0334-1.23.05-2.01.05h-.65v-.76h.65Zm3.06-3.92h-2.84v4.28h-.87v-5.01h3.71v.73Zm4.2486 5.67c0-.16.05-.29.15-.39.1-.1066.2366-.16.41-.16.18 0 .32.0534.42.16.1.1.15.23.15.39 0 .1534-.05.28-.15.38-.1.0934-.24.14-.42.14-.1734 0-.31-.0466-.41-.14-.1-.1-.15-.2266-.15-.38Z"/>
  <defs>
    <filter id="a" width="116" height="60.5568" x="0" y=".784546" color-interpolation-filters="sRGB" filterUnits="userSpaceOnUse">
      <feFlood flood-opacity="0" result="BackgroundImageFix"/>
      <feBlend in="SourceGraphic" in2="BackgroundImageFix" result="shape"/>
      <feColorMatrix in="SourceAlpha" result="hardAlpha" values="0 0 0 0 0 0 0 0 0 0 0 0 0 0 0 0 0 0 127 0"/>
      <feOffset/>
      <feGaussianBlur stdDeviation="2"/>
      <feComposite in2="hardAlpha" k2="-1" k3="1" operator="arithmetic"/>
      <feColorMatrix values="0 0 0 0 0 0 0 0 0 0 0 0 0 0 0 0 0 0 0.25 0"/>
      <feBlend in2="shape" result="effect1_innerShadow_218_412"/>
    </filter>
  </defs>
</svg>