<svg xmlns="http://www.w3.org/2000/svg" width="167" height="72" fill="none">
  <g filter="url(#a)">
    <path fill="#F0F2F0" fill-rule="evenodd" d="M126.598 1.5c-1.155-2-4.041-2-5.196 0L115.34 12H13C5.8203 12 0 17.8203 0 25v34c0 7.1797 5.8203 13 13 13h141c7.18 0 13-5.8203 13-13V25c0-7.1797-5.82-13-13-13h-21.34l-6.062-10.5Z" clip-rule="evenodd"/>
  </g>
  <path fill="#B3261E" d="M30.0858 30.487c0 .968-.1173 1.848-.352 2.64-.2273.792-.6343 1.5327-1.221 2.222-.5793.682-1.3786 1.287-2.398 1.815l-.517-.759c.8947-.4547 1.6024-.9717 2.123-1.551.5207-.5793.8874-1.2137 1.1-1.903.22-.6967.33-1.4813.33-2.354v-.11h.935Zm-.352.792h-3.641v-.792h3.641v.792Zm-3.949 2.53-.143-.869 3.443-.22v.759l-3.3.33Zm6.567 4.774h-.957v-9.02h.957v9.02Zm1.342-4.609h-1.584v-.814h1.584v.814Zm5.6415-.231h-1.617v-.792h1.617v.792Zm-4.378 1.958c.7113 0 1.287-.0147 1.727-.044.4473-.0293.8983-.088 1.353-.176l.088.792c-.462.0953-.913.1577-1.353.187-.4327.022-1.0377.033-1.815.033h-.561v-.792h.561Zm2.695-4.279h-2.343v4.565h-.913V30.63h3.256v.792Zm-.385 2.409h-2.233v-.759h2.233v.759Zm4.312 4.774h-.924v-9.042h.924v9.042Zm-1.804-.451h-.891v-8.393h.891v8.393Zm9.3154-6.919h-5.632v-.803h5.632v.803Zm1.474 6.16h-7.942v-.803h7.942v.803Zm-3.993-.407h-.946v-3.586h.946v3.586Zm3.124-5.676c0 .77-.0183 1.463-.055 2.079-.0366.6087-.132 1.3237-.286 2.145l-.968-.11c.1467-.77.2384-1.4593.275-2.068.0367-.6087.055-1.2907.055-2.046v-.88h.979v.88Zm8.6995 7.304h-.957v-9.053h.957v9.053Zm-6.006-2.97c.8287 0 1.573-.022 2.233-.066.6673-.044 1.3567-.1283 2.068-.253l.077.803c-.7187.1247-1.419.2127-2.101.264-.682.044-1.441.066-2.277.066h-.748v-.814h.748Zm3.333-1.947h-3.102v2.244h-.979v-3.025h3.102V31.18h-3.113v-.803h4.092v3.322Zm11.9334.759h-7.975v-.737h7.975v.737Zm-.979 2.629h-5.082v.957h-.968v-1.617h5.093v-.649h-5.104v-.693h6.061v2.002Zm.275 1.408h-6.325v-.693h6.325v.693Zm-.297-6.732h-5.005v.902h-.946v-1.54h4.983v-.638h-5.005v-.682h5.973v1.958Zm.143 1.364h-6.094v-.693h6.094v.693Zm6.3625-1.672-1.474.825v-.99l1.969-1.155h.506V38h-1.001v-6.545Zm11.0639 7.15H83.3v-9.042h.924v9.042Zm-.627-4.686H81.98v-.792h1.617v.792Zm-3.08-3.201c0 .8433-.1027 1.6243-.308 2.343-.198.7187-.539 1.386-1.023 2.002-.4767.616-1.1147 1.1587-1.914 1.628l-.572-.693c1.034-.594 1.7746-1.309 2.222-2.145.4473-.8433.671-1.826.671-2.948v-.187h.924Zm-.627.803h-2.805v-.803h2.805v.803Zm2.354 6.655h-.891v-8.371h.891v8.371Zm12.5224.44h-.957v-9.053h.957v9.053Zm-4.664-8.36c.4327 0 .8177.132 1.155.396.3447.2567.6124.6233.803 1.1.1907.4767.286 1.034.286 1.672 0 .638-.0953 1.1953-.286 1.672-.1906.4767-.4583.847-.803 1.111-.3373.2567-.7223.385-1.155.385-.44 0-.8323-.1283-1.177-.385-.3373-.264-.6013-.6343-.792-1.111-.1906-.4767-.286-1.034-.286-1.672 0-.638.0954-1.1953.286-1.672.1907-.484.4547-.8543.792-1.111.3447-.2567.737-.385 1.177-.385Zm0 .88c-.264 0-.4986.0917-.704.275-.198.1833-.352.4473-.462.792-.11.3447-.165.7517-.165 1.221 0 .4693.055.8763.165 1.221.11.3373.264.5977.462.781.2054.1833.44.275.704.275.2567 0 .484-.0917.682-.275.2054-.1833.363-.4473.473-.792.11-.3447.165-.748.165-1.21 0-.462-.055-.8653-.165-1.21-.11-.352-.2676-.6197-.473-.803-.198-.1833-.4253-.275-.682-.275Zm8.8315-.209c0 .8947-.2127 1.6867-.638 2.376-.418.682-1.0084 1.166-1.771 1.452l-.495-.781c.4473-.1613.8286-.396 1.144-.704.3226-.308.5646-.6637.726-1.067.1686-.4033.253-.8287.253-1.276v-.88h.781v.88Zm.176.088c0 .396.0843.7737.253 1.133.1686.3593.407.6783.7151.957.315.2713.686.4803 1.111.627l-.506.781c-.484-.1833-.9058-.4473-1.2651-.792-.352-.3447-.6234-.748-.814-1.21-.1834-.4693-.275-.968-.275-1.496v-.968h.781v.968Zm3.8281 3.993h-.968v-5.445h.968v5.445Zm1.243-2.365h-1.507v-.814h1.507v.814Zm-4.059 2.585c.902 0 1.61.1503 2.123.451.521.2933.781.7003.781 1.221 0 .5353-.26.9497-.781 1.243-.513.2933-1.221.44-2.123.44-.9168 0-1.6355-.1467-2.1561-.44-.5134-.2933-.77-.7077-.77-1.243 0-.5207.2603-.9277.781-1.221.5206-.3007 1.2356-.451 2.1451-.451Zm0 .77c-.6235 0-1.1075.0807-1.4521.242-.3447.154-.517.374-.517.66 0 .2933.1723.5207.517.682.3446.154.8286.231 1.4521.231.623 0 1.104-.077 1.441-.231.345-.1613.517-.3887.517-.682 0-.286-.172-.506-.517-.66-.337-.1613-.818-.242-1.441-.242Zm14.722 1.485h-7.964v-.803h7.964v.803Zm-3.52-.594h-.957V34.59h.957v2.299Zm-2.585-5.17h4.224V30.19h.957v4.642h-6.138V30.19h.957v1.529Zm4.224 2.321v-1.518h-4.224v1.518h4.224Zm5.389 4.565h-.979v-3.399h.979v3.399Zm3.025 0h-.968v-3.399h.968v3.399Zm2.002-3.135h-7.975v-.792h7.975v.792Zm-4.015-5.555c.616 0 1.158.0807 1.628.242.469.1613.836.3923 1.1.693.264.3007.396.6527.396 1.056 0 .396-.132.7443-.396 1.045-.264.2933-.631.5207-1.1.682-.47.1613-1.012.242-1.628.242-.609 0-1.148-.0807-1.617-.242-.47-.1613-.836-.3887-1.1-.682-.257-.3007-.385-.649-.385-1.045 0-.4033.128-.7553.385-1.056.264-.3007.63-.5317 1.1-.693.469-.1613 1.008-.242 1.617-.242Zm0 .792c-.426 0-.8.0477-1.122.143-.316.0953-.561.2347-.737.418-.169.176-.253.3887-.253.638 0 .242.084.4547.253.638.176.176.421.3117.737.407.322.0953.696.143 1.122.143.432 0 .806-.0477 1.122-.143.322-.0953.572-.231.748-.407.176-.1833.264-.396.264-.638 0-.2493-.088-.462-.264-.638-.176-.1833-.426-.3227-.748-.418-.316-.0953-.69-.143-1.122-.143Zm8.875 1.144h-4.312v-.803h4.312v.803Zm-2.156.539c.367 0 .693.088.979.264.294.176.521.4217.682.737.162.3153.242.6747.242 1.078 0 .4033-.08.7663-.242 1.089-.161.3153-.388.5647-.682.748-.286.176-.612.264-.979.264-.359 0-.682-.088-.968-.264-.286-.1833-.513-.4327-.682-.748-.161-.3227-.242-.6857-.242-1.089s.081-.7627.242-1.078c.169-.3153.396-.561.682-.737.286-.176.609-.264.968-.264Zm0 .825c-.308 0-.561.1173-.759.352-.19.2273-.286.528-.286.902s.096.6783.286.913c.198.2273.451.341.759.341.206 0 .385-.0513.539-.154.162-.1027.286-.2493.374-.44.096-.1907.143-.4107.143-.66 0-.2493-.047-.4657-.143-.649-.088-.1907-.212-.3373-.374-.44-.154-.11-.333-.165-.539-.165Zm5.335 5.39h-.913v-9.042h.913v9.042Zm-.616-4.477h-1.595v-.803h1.595v.803Zm-1.276 4.048h-.891v-8.415h.891v8.415Zm-2.959-6.633h-.957v-1.705h.957v1.705Zm8.26-1.287c.432 0 .817.132 1.155.396.344.2567.612.6233.803 1.1.19.4767.286 1.034.286 1.672 0 .638-.096 1.1953-.286 1.672-.191.4767-.459.847-.803 1.111-.338.2567-.723.385-1.155.385-.433 0-.822-.1283-1.166-.385-.338-.264-.602-.6343-.792-1.111-.191-.4767-.286-1.034-.286-1.672 0-.638.095-1.1953.286-1.672.19-.4767.454-.8433.792-1.1.344-.264.733-.396 1.166-.396Zm0 .88c-.257 0-.488.0917-.693.275-.198.1833-.352.451-.462.803-.11.3447-.165.748-.165 1.21 0 .462.055.8653.165 1.21.11.3447.264.6087.462.792.205.1833.436.275.693.275.256 0 .484-.0917.682-.275.205-.1833.363-.4473.473-.792.11-.3447.165-.748.165-1.21 0-.462-.055-.8653-.165-1.21-.11-.352-.268-.6197-.473-.803-.198-.1833-.426-.275-.682-.275Zm5.797 1.474h-1.595v-.836h1.595v.836Zm0 2.662h-1.595v-.814h1.595v.814Zm-1.342 3.333h-.957v-9.042h.957v9.042ZM41.3535 53.493h-.957v-1.485h.957v1.485Zm3.839 2.112h-.946v-9.042h.946v9.042Zm-7.161-2.464h.671c.9827-.0073 1.881-.0293 2.695-.066.814-.0367 1.584-.1063 2.31-.209l.066.726c-.858.154-1.749.2567-2.673.308-.924.044-1.9067.066-2.948.066l-.121-.825Zm5.489-4.708h-5.313v-.781h5.313v.781Zm-2.662.451c.418 0 .7883.0697 1.111.209.33.1393.583.3373.759.594.1833.2567.275.55.275.88 0 .33-.0917.6233-.275.88-.176.2493-.4253.4437-.748.583-.3227.1393-.6967.209-1.122.209-.418 0-.7883-.0697-1.111-.209-.3227-.1393-.572-.3337-.748-.583-.176-.2567-.264-.55-.264-.88 0-.33.088-.6233.264-.88.176-.2567.4253-.4547.748-.594.3227-.1393.693-.209 1.111-.209Zm0 .759c-.3593 0-.6527.0843-.88.253-.2273.1687-.341.3923-.341.671 0 .2787.1137.5023.341.671.2273.1613.5207.242.88.242.374 0 .671-.0807.891-.242.2273-.1687.341-.3923.341-.671 0-.2787-.1137-.5023-.341-.671-.2273-.1687-.5243-.253-.891-.253Zm.495-1.573h-.957v-1.474h.957v1.474Zm8.5344 5.082h-.946V51.15h.946v2.002Zm3.883.275h-.957v-6.853h.957v6.853Zm.209 1.991h-6.314v-.803h6.314v.803Zm-5.346-.594h-.968v-2.057h.968v2.057Zm-1.463-4.136c.968-.0147 1.8517-.0403 2.651-.077.8067-.0367 1.5694-.099 2.288-.187l.066.704c-.8433.1467-1.7343.2457-2.673.297-.9313.044-1.903.066-2.915.066l-.121-.792.704-.011Zm5.874 1.892h-1.98v-.693h1.98v.693Zm-3.718-5.654c.4254 0 .7994.066 1.122.198.33.132.583.319.759.561.1834.2347.275.5097.275.825 0 .3153-.0916.594-.275.836-.176.2347-.429.418-.759.55-.3226.132-.6966.198-1.122.198-.4253 0-.803-.066-1.133-.198-.3226-.132-.5756-.3153-.759-.55-.1833-.242-.275-.5207-.275-.836 0-.3153.0917-.5903.275-.825.1834-.242.4364-.429.759-.561.33-.132.7077-.198 1.133-.198Zm0 .726c-.3813 0-.6893.077-.924.231-.2346.154-.352.363-.352.627s.1174.473.352.627c.2347.1467.5427.22.924.22.3667 0 .6637-.077.891-.231.2347-.154.352-.3593.352-.616 0-.264-.1173-.473-.352-.627-.2273-.154-.5243-.231-.891-.231Zm12.5275 7.931h-.957v-9.02h.957v9.02Zm1.331-4.609h-1.584v-.814h1.584v.814Zm-3.619-3.443c0 1.3787-.319 2.6143-.957 3.707-.6307 1.0927-1.6353 1.991-3.014 2.695l-.528-.748c1.1953-.6233 2.0863-1.3933 2.673-2.31.594-.9167.891-1.98.891-3.19v-.154h.935Zm-.451.814h-3.619v-.814h3.619v.814Zm11.7024 3.08h-.957v-4.862h.957v4.862Zm-4.785 1.43h3.839v-1.001h.946v3.63h-5.709v-3.63h.924v1.001Zm3.839 1.826v-1.056h-3.839v1.056h3.839Zm-3.784-7.7c.44 0 .836.0917 1.188.275.3594.176.638.4253.836.748.198.3153.297.6747.297 1.078 0 .4107-.099.7773-.297 1.1-.198.3153-.4766.561-.836.737-.352.176-.748.264-1.188.264-.44 0-.8396-.088-1.199-.264-.352-.176-.6306-.4217-.836-.737-.198-.3227-.297-.6893-.297-1.1 0-.4033.099-.7627.297-1.078.2054-.3227.484-.572.836-.748.3594-.1833.759-.275 1.199-.275Zm0 .825c-.2713 0-.5133.055-.726.165-.2053.1027-.3703.253-.495.451-.1173.1907-.176.4107-.176.66 0 .2493.0587.473.176.671.1174.1907.2824.341.495.451.2127.1027.4547.154.726.154.264 0 .4987-.0513.704-.154.2127-.11.3777-.2603.495-.451.1174-.198.176-.4217.176-.671 0-.2493-.0586-.4693-.176-.66-.1173-.198-.2823-.3483-.495-.451-.2053-.11-.44-.165-.704-.165Zm13.2535 7.81h-.957v-9.053h.957v9.053Zm-4.664-8.36c.4327 0 .8177.132 1.155.396.3447.2567.6123.6233.803 1.1.1907.4767.286 1.034.286 1.672 0 .638-.0953 1.1953-.286 1.672-.1907.4767-.4583.847-.803 1.111-.3373.2567-.7223.385-1.155.385-.44 0-.8323-.1283-1.177-.385-.3373-.264-.6013-.6343-.792-1.111-.1907-.4767-.286-1.034-.286-1.672 0-.638.0953-1.1953.286-1.672.1907-.484.4547-.8543.792-1.111.3447-.2567.737-.385 1.177-.385Zm0 .88c-.264 0-.4987.0917-.704.275-.198.1833-.352.4473-.462.792-.11.3447-.165.7517-.165 1.221 0 .4693.055.8763.165 1.221.11.3373.264.5977.462.781.2053.1833.44.275.704.275.2567 0 .484-.0917.682-.275.2053-.1833.363-.4473.473-.792.11-.3447.165-.748.165-1.21 0-.462-.055-.8653-.165-1.21-.11-.352-.2677-.6197-.473-.803-.198-.1833-.4253-.275-.682-.275Zm15.0415 7.447h-.957v-9.02h.957v9.02Zm1.331-4.609h-1.584v-.814h1.584v.814Zm-3.619-3.443c0 1.3787-.319 2.6143-.957 3.707-.6307 1.0927-1.6354 1.991-3.014 2.695l-.528-.748c1.1953-.6233 2.0863-1.3933 2.673-2.31.594-.9167.891-1.98.891-3.19v-.154h.935Zm-.451.814h-3.619v-.814h3.619v.814Zm11.5264 1.441h-6.006v-.803h6.006v.803Zm-5.049-.451h-.957v-2.596h.957v2.596Zm5.962 2.2h-7.964v-.803h7.964v.803Zm-4.004.726c.946 0 1.683.1467 2.211.44.5354.286.803.6893.803 1.21 0 .528-.2676.935-.803 1.221-.528.2933-1.265.44-2.211.44s-1.6866-.1467-2.222-.44c-.5353-.286-.803-.693-.803-1.221 0-.5207.2677-.924.803-1.21.5354-.2933 1.276-.44 2.222-.44Zm0 .77c-.66 0-1.166.077-1.518.231-.352.1467-.528.363-.528.649 0 .286.176.506.528.66.3594.154.8654.231 1.518.231.6527 0 1.155-.077 1.507-.231.3594-.154.539-.374.539-.66 0-.286-.176-.5023-.528-.649-.352-.154-.858-.231-1.518-.231Zm11.4278-1.199h-.957v-5.269h.957v5.269Zm1.254-2.178h-1.65v-.814h1.65v.814Zm-5.885 3.421h3.674v-.858h.957v3.267h-5.588v-3.267h.957v.858Zm3.674 1.628v-.869h-3.674v.869h3.674Zm-.704-6.457h-5.181v-.792h5.181v.792Zm-2.585.352c.418 0 .784.066 1.1.198.322.132.572.319.748.561.176.2347.264.5097.264.825 0 .3153-.088.594-.264.836-.176.242-.426.429-.748.561-.316.132-.682.198-1.1.198-.426 0-.8-.066-1.122-.198-.316-.132-.561-.3153-.737-.55-.176-.242-.264-.5243-.264-.847 0-.3153.088-.5903.264-.825.176-.242.425-.429.748-.561.322-.132.693-.198 1.111-.198Zm0 .737c-.36 0-.649.077-.869.231-.213.154-.319.3593-.319.616 0 .264.106.473.319.627.22.1467.513.22.88.22.359 0 .645-.0733.858-.22.22-.154.33-.363.33-.627 0-.2567-.11-.462-.33-.616-.22-.154-.51-.231-.869-.231Zm.484-1.452h-.968v-1.386h.968v1.386Zm12.681 7.722h-.957v-9.042h.957v9.042Zm-5.764-2.563h-.957v-5.588h.957v5.588Zm-.22-.572c.704 0 1.404-.033 2.101-.099.697-.066 1.393-.1723 2.09-.319l.132.825c-.726.154-1.445.264-2.156.33-.704.066-1.426.099-2.167.099h-.737v-.836h.737Zm14.079 3.146h-.957v-9.053h.957v9.053Zm1.386-4.741h-1.595v-.814h1.595v.814Zm-7.095 1.683c.836 0 1.558-.0183 2.167-.055.608-.044 1.221-.1247 1.837-.242l.11.836c-.646.1173-1.28.198-1.903.242-.616.0367-1.353.055-2.211.055h-.715v-.836h.715Zm3.366-4.312h-3.124v4.708h-.957v-5.511h4.081v.803Zm4.673 6.237c0-.176.055-.319.165-.429.11-.1173.26-.176.451-.176.198 0 .352.0587.462.176.11.11.165.253.165.429 0 .1687-.055.308-.165.418-.11.1027-.264.154-.462.154-.191 0-.341-.0513-.451-.154-.11-.11-.165-.2493-.165-.418Z"/>
  <defs>
    <filter id="a" width="167" height="72" x="0" y="0" color-interpolation-filters="sRGB" filterUnits="userSpaceOnUse">
      <feFlood flood-opacity="0" result="BackgroundImageFix"/>
      <feBlend in="SourceGraphic" in2="BackgroundImageFix" result="shape"/>
      <feColorMatrix in="SourceAlpha" result="hardAlpha" values="0 0 0 0 0 0 0 0 0 0 0 0 0 0 0 0 0 0 127 0"/>
      <feOffset/>
      <feGaussianBlur stdDeviation="2"/>
      <feComposite in2="hardAlpha" k2="-1" k3="1" operator="arithmetic"/>
      <feColorMatrix values="0 0 0 0 0 0 0 0 0 0 0 0 0 0 0 0 0 0 0.25 0"/>
      <feBlend in2="shape" result="effect1_innerShadow_8_988"/>
    </filter>
  </defs>
</svg>