<svg xmlns="http://www.w3.org/2000/svg" width="181" height="49" fill="none">
  <g filter="url(#a)">
    <path fill="#F7F7F7" fill-rule="evenodd" d="M93.0496 46.8887c-1.1733 1.8919-3.9259 1.8919-5.0992 0L81.8183 37H8c-4.41828 0-8-3.5817-8-8V9.99997c0-4.41827 3.58172-8 8-8h165c4.418 0 8 3.58173 8 8V29c0 4.4183-3.582 8-8 8H99.1817l-6.1321 9.8887Z" clip-rule="evenodd"/>
  </g>
  <path fill="#000" d="M34.304 24.594h-.814v-8.976h.814v8.976Zm-5.819-5.863h2.486v-2.354h.803v6.072H27.66v-6.072h.825v2.354Zm2.486 3.025v-2.354h-2.486v2.354h2.486Zm7.8317-.451h-.792v-1.661h.792v1.661Zm2.783 0h-.825v-1.661h.825v1.661Zm-1.771-5.577c.9607 0 1.7087.1357 2.244.407.5354.2713.803.6527.803 1.144 0 .4913-.2676.8727-.803 1.144-.5353.2713-1.2833.407-2.244.407-.968 0-1.7233-.1357-2.266-.407-.5353-.2713-.803-.6527-.803-1.144 0-.4913.2677-.8727.803-1.144.5427-.2713 1.298-.407 2.266-.407Zm0 .638c-.7113 0-1.2613.0807-1.65.242-.3813.154-.572.3777-.572.671 0 .2933.1907.5207.572.682.3887.154.9387.231 1.65.231.7114 0 1.2577-.077 1.639-.231.3887-.1613.583-.3887.583-.682 0-.2933-.1943-.517-.583-.671-.3813-.1613-.9276-.242-1.639-.242Zm3.927 3.674h-7.854v-.671h7.854v.671Zm-1.001 2.893h-5.093v1.078h-.792v-1.683h5.082v-.792h-5.104v-.627h5.907v2.024Zm.242 1.551h-6.127v-.649h6.127v.649Zm4.4108-8.206c.4473 0 .847.088 1.199.264.352.176.627.4253.825.748.2053.3153.308.682.308 1.1 0 .4107-.1027.7773-.308 1.1-.198.3153-.473.561-.825.737-.352.176-.7517.264-1.199.264-.4473 0-.847-.088-1.199-.264-.352-.176-.6307-.4217-.836-.737-.2053-.3227-.308-.6893-.308-1.1 0-.418.1027-.7847.308-1.1.2053-.3227.484-.572.836-.748.3593-.176.759-.264 1.199-.264Zm0 .715c-.2933 0-.5573.0587-.792.176-.2273.1173-.407.2823-.539.495-.132.2127-.198.4547-.198.726 0 .264.066.5023.198.715s.3117.3777.539.495c.2347.1173.4987.176.792.176.2933 0 .5573-.0587.792-.176.2347-.1173.418-.2823.55-.495.132-.2127.198-.451.198-.715 0-.2713-.066-.5133-.198-.726s-.3153-.3777-.55-.495c-.2347-.1173-.4987-.176-.792-.176Zm4.268 7.601h-.803v-8.976h.803v8.976Zm-7.029-2.651c1.0927 0 2.0973-.0183 3.014-.055.924-.044 1.804-.1283 2.64-.253l.077.616c-.8653.1687-1.7453.2787-2.64.33-.8873.044-1.8847.066-2.992.066l-.099-.704Zm17.012-.165c0 .704-.2273 1.2503-.682 1.639-.4547.3887-1.0707.583-1.848.583h-2.684v-7.788h2.442c.814 0 1.441.1687 1.881.506.44.3373.66.858.66 1.562 0 .374-.11.7077-.33 1.001-.2127.286-.506.4987-.88.638.2933.066.5463.1907.759.374.22.176.3887.396.506.66.1173.2567.176.5317.176.825Zm-4.345-2.167h1.606c.5133 0 .913-.1173 1.199-.352.286-.2347.429-.5683.429-1.001 0-.4547-.1393-.7883-.418-1.001-.2713-.2127-.6857-.319-1.243-.319h-1.573v2.673Zm3.476 2.178c0-.2933-.0587-.55-.176-.77-.1173-.2273-.297-.3997-.539-.517-.2347-.1247-.5353-.187-.902-.187h-1.859v2.97h1.815c.5207 0 .9277-.132 1.221-.396.2933-.2713.44-.638.44-1.1Zm4.8577-5.577h.792L69.3842 24h-.891l-.77-2.101h-3.377l-.77 2.101h-.902l2.959-7.788Zm.396 1.067-1.419 3.905h2.849l-1.43-3.905Zm4.7198-1.067h.869v7.073h3.751V24h-4.62v-7.788Zm8.7193 0h.792L83.2193 24h-.891l-.77-2.101h-3.377l-.77 2.101h-.902l2.959-7.788Zm.396 1.067-1.419 3.905h2.849l-1.43-3.905Zm5.5888.418V24h-.869v-7.788h.869l4.169 6.314v-6.314h.858V24h-.88l-4.147-6.303Zm12.8192 3.85c-.0587.5207-.2054.9717-.44 1.353-.2274.3813-.55.6783-.968.891-.418.2127-.9204.319-1.507.319-.6014 0-1.1294-.1467-1.584-.44-.4474-.3007-.7957-.7187-1.045-1.254-.2494-.5427-.374-1.166-.374-1.87v-.869c0-.7113.1246-1.3347.374-1.87.2566-.5427.616-.9607 1.078-1.254.462-.3007 1.0046-.451 1.628-.451.836 0 1.496.231 1.98.693.484.4547.77 1.0853.858 1.892h-.88c-.0807-.616-.2787-1.078-.594-1.386-.308-.3153-.7627-.473-1.364-.473-.4694 0-.869.1173-1.199.352-.3227.2273-.572.5573-.748.99-.1687.4253-.253.924-.253 1.496v.88c0 .55.0806 1.0413.242 1.474.1613.4253.3996.7627.715 1.012.3153.242.704.363 1.166.363.6453 0 1.122-.1503 1.43-.451.3153-.308.517-.7737.605-1.397h.88Zm1.7577-5.335h4.851v.726h-3.982v2.695h3.476v.704h-3.476v2.948h4.026V24h-4.895v-7.788Zm12.505 8.36h-.803v-8.954h.803v8.954Zm1.375-4.631h-1.595v-.693h1.595v.693Zm-3.619-3.355c0 1.342-.319 2.5557-.957 3.641-.638 1.078-1.635 1.9653-2.992 2.662l-.44-.638c1.196-.6233 2.094-1.4007 2.695-2.332.602-.9387.902-2.0093.902-3.212v-.121h.792Zm-.374.693h-3.619v-.693h3.619v.693Zm9.884-.242c0 .77-.223 1.4483-.671 2.035-.44.5867-1.037 1.0047-1.793 1.254l-.396-.671c.44-.132.825-.33 1.155-.594.338-.264.598-.572.781-.924.184-.352.275-.7187.275-1.1v-.715h.649v.715Zm.154-.011c0 .3447.088.6783.264 1.001.184.3227.437.6087.759.858.33.242.708.429 1.133.561l-.396.649c-.733-.2273-1.32-.6197-1.76-1.177-.44-.5573-.66-1.188-.66-1.892v-.704h.66v.704Zm1.903-.231h-4.642v-.66h4.642v.66Zm1.914 3.443h-.814v-4.62h.814v4.62Zm1.265-1.991h-1.628v-.682h1.628v.682Zm-1.265 4.576h-4.719v1.375h-.781v-1.98h4.697v-.902h-4.719v-.66h5.522v2.167Zm.297 1.683h-5.797v-.66h5.797v.66Zm8.476-4.433h-3.993v-3.839h3.993v3.839Zm-3.201-.671h2.42v-2.497h-2.42v2.497Zm5.61 1.331h-.814v-5.115h.814v5.115Zm1.265-2.277h-1.496v-.693h1.496v.693Zm-3.718 3.344c0 .4547-.139.8727-.418 1.254-.271.3813-.649.7003-1.133.957-.476.264-1.004.4437-1.584.539l-.319-.649c.514-.0807.979-.2237 1.397-.429.426-.2053.763-.4547 1.012-.748.25-.2933.374-.6013.374-.924v-.231h.671v.231Zm.165 0c0 .3153.125.6233.374.924.25.2933.583.5463 1.001.759.426.2053.888.352 1.386.44l-.308.627c-.579-.0953-1.107-.275-1.584-.539-.476-.264-.858-.5867-1.144-.968-.278-.3813-.418-.7957-.418-1.243v-.231h.693v.231Zm2.431.132h-5.698v-.671h5.698v.671Zm4.114-5.61c.425 0 .803.1283 1.133.385.33.2567.587.6197.77 1.089.183.4693.275 1.0193.275 1.65 0 .6233-.092 1.1697-.275 1.639-.183.4693-.44.836-.77 1.1-.33.2567-.708.385-1.133.385-.425 0-.807-.1283-1.144-.385-.33-.264-.59-.6307-.781-1.1-.183-.4693-.275-1.0157-.275-1.639 0-.6307.092-1.1807.275-1.65.191-.4693.451-.8323.781-1.089.337-.2567.719-.385 1.144-.385Zm0 .737c-.279 0-.528.099-.748.297-.213.1907-.378.4693-.495.836-.117.3593-.176.7737-.176 1.243 0 .4767.059.8947.176 1.254.117.3593.282.638.495.836.22.198.469.297.748.297.271 0 .513-.099.726-.297.213-.198.378-.4767.495-.836.125-.3593.187-.7773.187-1.254 0-.4693-.062-.8837-.187-1.243-.117-.3667-.282-.6453-.495-.836-.213-.198-.455-.297-.726-.297Zm4.367 7.535h-.803v-8.976h.803v8.976Zm1.419-4.697h-1.595v-.704h1.595v.704Zm3.322 3.014h-.803v-2.673h.803v2.673Zm3.223 0h-.825v-2.673h.825v2.673Zm1.925.528h-7.876v-.693h7.876v.693Zm-3.949-7.26c.608 0 1.151.0953 1.628.286.484.1907.858.462 1.122.814.271.352.407.759.407 1.221 0 .4547-.136.858-.407 1.21-.264.3447-.635.6123-1.111.803-.477.1907-1.023.286-1.639.286-.616 0-1.163-.0953-1.639-.286-.477-.1907-.851-.4583-1.122-.803-.264-.352-.396-.7553-.396-1.21 0-.462.132-.8653.396-1.21.271-.352.645-.6233 1.122-.814.484-.198 1.03-.297 1.639-.297Zm0 .66c-.462 0-.873.0697-1.232.209-.36.132-.638.3263-.836.583-.198.2493-.297.5353-.297.858 0 .33.099.6197.297.869.198.2493.476.4437.836.583.359.132.77.198 1.232.198.462 0 .872-.066 1.232-.198.366-.1393.649-.3337.847-.583.205-.2493.308-.539.308-.869 0-.3227-.103-.6087-.308-.858-.198-.2567-.481-.451-.847-.583-.36-.1393-.77-.209-1.232-.209Z"/>
  <defs>
    <filter id="a" width="181" height="46.3076" x="0" y="2" color-interpolation-filters="sRGB" filterUnits="userSpaceOnUse">
      <feFlood flood-opacity="0" result="BackgroundImageFix"/>
      <feBlend in="SourceGraphic" in2="BackgroundImageFix" result="shape"/>
      <feColorMatrix in="SourceAlpha" result="hardAlpha" values="0 0 0 0 0 0 0 0 0 0 0 0 0 0 0 0 0 0 127 0"/>
      <feOffset/>
      <feGaussianBlur stdDeviation="2"/>
      <feComposite in2="hardAlpha" k2="-1" k3="1" operator="arithmetic"/>
      <feColorMatrix values="0 0 0 0 0 0 0 0 0 0 0 0 0 0 0 0 0 0 0.25 0"/>
      <feBlend in2="shape" result="effect1_innerShadow_1224_930"/>
    </filter>
  </defs>
</svg>