<svg xmlns="http://www.w3.org/2000/svg" width="144" height="63" fill="none">
  <g filter="url(#a)">
    <path fill="#F0F2F0" fill-rule="evenodd" d="M74.1669 2.17065c-1.1547-1.999996-4.0414-1.999995-5.1961.00001l-4.8695 8.43414H13c-7.1797 0-13 5.8203-13 13v25.7365c0 7.1797 5.8203 13 13 13h118c7.18 0 13-5.8203 13-13V23.6048c0-7.1797-5.82-13-13-13H79.0364l-4.8695-8.43415Z" clip-rule="evenodd"/>
  </g>
  <path fill="#B3261E" d="M28.3313 25.6598c0 .8134-.1933 1.5334-.58 2.16-.38.62-.9167 1.06-1.61 1.32l-.45-.71c.4067-.1466.7533-.36 1.04-.64.2933-.28.5133-.6033.66-.97.1533-.3666.23-.7533.23-1.16v-.8h.71v.8Zm.16.08c0 .36.0767.7034.23 1.03.1533.3267.37.6167.65.87.2867.2467.6233.4367 1.01.57l-.46.71c-.44-.1666-.8233-.4066-1.15-.72-.32-.3133-.5667-.68-.74-1.1-.1667-.4266-.25-.88-.25-1.36v-.88h.71v.88Zm3.48 3.63h-.88v-4.95h.88v4.95Zm1.13-2.15h-1.37v-.74h1.37v.74Zm-3.69 2.35c.82 0 1.4633.1367 1.93.41.4733.2667.71.6367.71 1.11 0 .4867-.2367.8634-.71 1.13-.4667.2667-1.11.4-1.93.4-.8333 0-1.4867-.1333-1.96-.4-.4667-.2666-.7-.6433-.7-1.13 0-.4733.2367-.8433.71-1.11.4733-.2733 1.1233-.41 1.95-.41Zm0 .7c-.5667 0-1.0067.0734-1.32.22-.3133.14-.47.34-.47.6 0 .2667.1567.4734.47.62.3133.14.7533.21 1.32.21.5667 0 1.0033-.07 1.31-.21.3133-.1466.47-.3533.47-.62 0-.26-.1567-.46-.47-.6-.3067-.1466-.7433-.22-1.31-.22Zm10.8786 2.37h-.82v-8.22h.82v8.22Zm-.61-4.24h-1.46v-.73h1.46v.73Zm-1.2 3.82h-.81v-7.62h.81v7.62Zm-4.19-2.3c.62 0 1.14-.0133 1.56-.04.4267-.0333.8567-.0933 1.29-.18l.07.74c-.4467.0934-.8867.1567-1.32.19-.4333.0267-.9667.04-1.6.04h-.53v-.75h.53Zm2.43-3.79h-2.09v4.14h-.87v-4.86h2.96v.72Zm7.2086-.25c0 .5-.09.9767-.27 1.43-.1733.4467-.43.8367-.77 1.17-.3333.3267-.73.5734-1.19.74l-.44-.71c.4-.14.7467-.3433 1.04-.61.2933-.2733.5167-.5833.67-.93.16-.3533.24-.7166.24-1.09v-.63h.72v.63Zm.18-.01c0 .3467.0733.6834.22 1.01.1533.3267.37.6167.65.87.2867.2534.6233.45 1.01.59l-.43.7c-.4467-.16-.8333-.3966-1.16-.71-.3267-.32-.5767-.69-.75-1.11-.1733-.4266-.26-.8766-.26-1.35v-.62h.72v.62Zm3.13 1.38h-1.69v-.74h1.69v.74Zm-1.45-1.57h-4.28v-.72h4.28v.72Zm2.08 6.96h-.89v-2.17h-4.49v-.73h5.38v2.9Zm0-3.31h-.89v-4.91h.89v4.91Zm4.7586-4.41c.5533 0 1.05.0967 1.49.29.4467.1867.7967.4534 1.05.8.26.3467.39.7467.39 1.2 0 .4534-.13.8567-.39 1.21-.2533.3467-.6033.6167-1.05.81-.44.1934-.9367.29-1.49.29s-1.0533-.0966-1.5-.29c-.44-.1933-.79-.4633-1.05-.81-.2533-.3533-.38-.7566-.38-1.21 0-.4533.1267-.8533.38-1.2.26-.3466.61-.6133 1.05-.8.4467-.1933.9467-.29 1.5-.29Zm0 .72c-.4 0-.76.0667-1.08.2-.3133.1267-.56.31-.74.55-.18.24-.27.5134-.27.82 0 .3134.09.59.27.83.18.2334.4267.4167.74.55.32.1267.68.19 1.08.19s.7567-.0633 1.07-.19c.32-.1333.57-.3166.75-.55.18-.24.27-.5166.27-.83 0-.3066-.09-.58-.27-.82-.18-.24-.43-.4233-.75-.55-.3133-.1333-.67-.2-1.07-.2Zm3.63 5.94h-7.24v-.74h7.24v.74Zm7.7586.08h-7.24v-.74h7.24v.74Zm-3.2-.43h-.87v-1.99h.87v1.99Zm2.33-3.66h-4.62v1.56h-.88v-2.26h4.63v-1.13h-4.64v-.73h5.51v2.56Zm.18 1.92h-5.68v-.73h5.68v.73Zm9.834 3.16h-.88v-8.23h.88v8.23Zm-5.27-5.44h2.08v-2.1h.87v5.59h-3.83v-5.59h.88v2.1Zm2.08 2.75v-2.04h-2.08v2.04h2.08Zm7.1386-.32h-.85v-1.54h.85v1.54Zm2.54 0h-.88v-1.54h.88v1.54Zm-1.69-5.12c.8934 0 1.5867.1234 2.08.37.4934.2467.74.5934.74 1.04 0 .4534-.2466.8034-.74 1.05-.4933.24-1.1866.36-2.08.36-.9 0-1.6-.12-2.1-.36-.4933-.2466-.74-.5966-.74-1.05 0-.4466.2467-.7933.74-1.04.5-.2466 1.2-.37 2.1-.37Zm0 .67c-.6266 0-1.1066.0634-1.44.19-.3266.1267-.49.31-.49.55 0 .2467.1634.4334.49.56.3334.12.8134.18 1.44.18.6334 0 1.1134-.06 1.44-.18.3267-.1266.49-.3133.49-.56 0-.24-.1666-.4233-.5-.55-.3266-.1266-.8033-.19-1.43-.19Zm3.61 3.31h-7.22v-.71h7.22v.71Zm-.91 2.66h-4.58v.9h-.86v-1.54h4.58v-.63h-4.6v-.67h5.46v1.94Zm.22 1.4h-5.66v-.69h5.66v.69Zm7.7886.09h-.87v-8.23h.87v8.23Zm-4.24-7.6c.3934 0 .7434.12 1.05.36.3134.2334.5567.5667.73 1 .1734.4334.26.94.26 1.52 0 .58-.0866 1.0867-.26 1.52-.1733.4334-.4166.77-.73 1.01-.3066.2334-.6566.35-1.05.35-.4 0-.7566-.1166-1.07-.35-.3066-.24-.5466-.5766-.72-1.01-.1733-.4333-.26-.94-.26-1.52 0-.58.0867-1.0866.26-1.52.1734-.44.4134-.7766.72-1.01.3134-.2333.67-.35 1.07-.35Zm0 .8c-.24 0-.4533.0834-.64.25-.18.1667-.32.4067-.42.72-.1.3134-.15.6834-.15 1.11 0 .4267.05.7967.15 1.11.1.3067.24.5434.42.71.1867.1667.4.25.64.25.2334 0 .44-.0833.62-.25.1867-.1666.33-.4066.43-.72.1-.3133.15-.68.15-1.1 0-.42-.05-.7866-.15-1.1-.1-.32-.2433-.5633-.43-.73-.18-.1666-.3866-.25-.62-.25Zm13.7341 3.16h-.88v-4.59h.88v4.59Zm1.13-1.91h-1.38v-.75h1.38v.75Zm-6.14 1.09h-.86v-3.33h.86v3.33Zm-.21-.46c.6133 0 1.2133-.0266 1.8-.08.5867-.0533 1.1833-.1466 1.79-.28l.11.74c-.6333.1267-1.2533.22-1.86.28-.6067.0534-1.22.08-1.84.08h-.65v-.74h.65Zm2.98 2.3c0 .4267-.1233.8167-.37 1.17-.2467.3534-.59.65-1.03.89-.4333.24-.9267.4067-1.48.5l-.35-.7c.48-.0666.91-.19 1.29-.37.38-.1866.6767-.41.89-.67.2133-.26.32-.5333.32-.82v-.23h.73v.23Zm.18 0c0 .2734.1067.5434.32.81.2133.26.51.4867.89.68.3867.1867.8167.3167 1.29.39l-.34.69c-.5533-.0933-1.05-.2633-1.49-.51-.4333-.2466-.7733-.5466-1.02-.9-.2467-.36-.37-.7466-.37-1.16v-.23h.72v.23Zm2.18.1h-5.27v-.72h5.27v.72Zm3.529-5.08c.393 0 .743.12 1.05.36.313.2334.556.5667.73 1 .173.4334.26.94.26 1.52 0 .58-.087 1.0867-.26 1.52-.174.4334-.417.77-.73 1.01-.307.2334-.657.35-1.05.35-.394 0-.747-.1166-1.06-.35-.307-.24-.547-.5766-.72-1.01-.1738-.4333-.2604-.94-.2604-1.52 0-.58.0866-1.0866.2604-1.52.173-.4333.413-.7666.72-1 .313-.24.666-.36 1.06-.36Zm0 .8c-.234 0-.444.0834-.63.25-.18.1667-.32.41-.42.73-.1.3134-.15.68-.15 1.1 0 .42.05.7867.15 1.1.1.3134.24.5534.42.72.186.1667.396.25.63.25.233 0 .44-.0833.62-.25.186-.1666.33-.4066.43-.72.1-.3133.15-.68.15-1.1 0-.42-.05-.7866-.15-1.1-.1-.32-.244-.5633-.43-.73-.18-.1666-.387-.25-.62-.25Zm4.05 6.79h-.87v-8.22h.87v8.22Zm1.26-4.25h-1.45v-.75h1.45v.75Zm2.898 2.64h-.86v-2.39h.86v2.39Zm2.95 0h-.89v-2.39h.89v2.39Zm1.71.59h-7.24v-.74h7.24v.74Zm-3.63-6.72c.56 0 1.064.09 1.51.27.447.18.794.4334 1.04.76.254.3267.38.7.38 1.12 0 .4267-.126.8034-.38 1.13-.246.32-.593.57-1.04.75-.44.1734-.943.26-1.51.26-.566 0-1.073-.0866-1.52-.26-.44-.18-.786-.43-1.04-.75-.246-.3266-.37-.7033-.37-1.13 0-.42.124-.7933.37-1.12.254-.3266.604-.58 1.05-.76.447-.18.95-.27 1.51-.27Zm0 .71c-.406 0-.766.06-1.08.18-.313.1134-.556.28-.73.5-.173.22-.26.4734-.26.76 0 .2867.087.54.26.76.174.22.417.39.73.51.314.1134.674.17 1.08.17.407 0 .767-.0566 1.08-.17.32-.12.567-.29.74-.51.18-.22.27-.4733.27-.76 0-.2866-.09-.54-.27-.76-.173-.22-.42-.3866-.74-.5-.313-.12-.673-.18-1.08-.18Zm4.689 6.01c0-.16.05-.29.15-.39.1-.1066.236-.16.41-.16.18 0 .32.0534.42.16.1.1.15.23.15.39 0 .1534-.05.28-.15.38-.1.0934-.24.14-.42.14-.174 0-.31-.0466-.41-.14-.1-.1-.15-.2266-.15-.38Zm-89.755 10.64c0 .88-.1067 1.68-.32 2.4-.2067.72-.5767 1.3934-1.11 2.02-.5267.62-1.2533 1.17-2.18 1.65l-.47-.69c.8133-.4133 1.4567-.8833 1.93-1.41.4733-.5266.8067-1.1033 1-1.73.2-.6333.3-1.3466.3-2.14v-.1h.85Zm-.32.72h-3.31v-.72h3.31v.72Zm-3.59 2.3-.13-.79 3.13-.2v.69l-3 .3Zm5.97 4.34h-.87v-8.2h.87v8.2Zm1.22-4.19h-1.44v-.74h1.44v.74Zm5.1286-.21h-1.47v-.72h1.47v.72Zm-3.98 1.78c.6467 0 1.17-.0133 1.57-.04.4067-.0266.8167-.08 1.23-.16l.08.72c-.42.0867-.83.1434-1.23.17-.3933.02-.9433.03-1.65.03h-.51v-.72h.51Zm2.45-3.89h-2.13v4.15h-.83v-4.87h2.96v.72Zm-.35 2.19h-2.03v-.69h2.03v.69Zm3.92 4.34h-.84v-8.22h.84v8.22Zm-1.64-.41h-.81v-7.63h.81v7.63Zm8.4686-6.29h-5.12v-.73h5.12v.73Zm1.34 5.6h-7.22v-.73h7.22v.73Zm-3.63-.37h-.86v-3.26h.86v3.26Zm2.84-5.16c0 .7-.0167 1.33-.05 1.89-.0333.5534-.12 1.2034-.26 1.95l-.88-.1c.1333-.7.2167-1.3266.25-1.88.0333-.5533.05-1.1733.05-1.86v-.8h.89v.8Zm7.9086 6.64h-.87v-8.23h.87v8.23Zm-5.46-2.7c.7533 0 1.43-.02 2.03-.06.6067-.04 1.2333-.1166 1.88-.23l.07.73c-.6533.1134-1.29.1934-1.91.24-.62.04-1.31.06-2.07.06h-.68v-.74h.68Zm3.03-1.77h-2.82v2.04h-.89v-2.75h2.82v-1.58h-2.83v-.73h3.72v3.02Zm11.914 1.09h-.88v-4.85h.88v4.85Zm1.1-2.06h-1.45v-.74h1.45v.74Zm-1.1 4.12h-4.37v.8h-.86v-1.36h4.36v-.55h-4.38v-.6h5.25v1.71Zm.28 1.23h-5.51v-.62h5.51v.62Zm-3.66-3.71h-.87v-1.09h.87v1.09Zm-2.92-.38c1.0267 0 1.9334-.0133 2.72-.04.7867-.0266 1.5434-.09 2.27-.19l.05.57c-.7466.1267-1.5166.21-2.31.25-.7866.0334-1.6666.05-2.64.05l-.09-.64Zm4.76-2.84h-4.57v-.61h4.57v.61Zm-2.29.23c.58 0 1.04.0967 1.38.29.3467.1867.52.4467.52.78 0 .34-.1733.6067-.52.8-.34.1934-.8.29-1.38.29-.58 0-1.04-.0966-1.38-.29-.34-.1933-.51-.46-.51-.8 0-.3333.17-.5933.51-.78.3467-.1933.8067-.29 1.38-.29Zm0 .58c-.3266 0-.5833.0434-.77.13-.1866.0867-.28.2067-.28.36 0 .16.0934.2867.28.38.1867.0867.4434.13.77.13.3334 0 .5934-.0433.78-.13.1867-.0933.28-.22.28-.38 0-.1533-.0933-.2733-.28-.36-.1866-.0866-.4466-.13-.78-.13Zm.45-1.09h-.87v-.99h.87v.99Zm12.1286 3.78h-7.24v-.72h7.24v.72Zm-3.2-.43h-.85v-1.58h.85v1.58Zm2.35-1.14h-5.49v-.71h5.49v.71Zm-.05-2.06h-4.58v1.79h-.86v-2.49h5.44v.7Zm-2.74 4.15c.86 0 1.53.13 2.01.39.4867.26.73.63.73 1.11 0 .4667-.2433.83-.73 1.09-.48.26-1.15.39-2.01.39-.86 0-1.5333-.13-2.02-.39-.4866-.26-.73-.6233-.73-1.09 0-.48.2434-.85.73-1.11.4867-.26 1.16-.39 2.02-.39Zm0 .7c-.6 0-1.06.07-1.38.21-.32.1334-.48.33-.48.59 0 .26.16.4567.48.59.32.1334.78.2 1.38.2.6 0 1.06-.0666 1.38-.2.32-.1333.48-.33.48-.59 0-.26-.16-.4566-.48-.59-.32-.14-.78-.21-1.38-.21Zm7.7686-5.78c.8934 0 1.5867.12 2.08.36.4934.24.74.5867.74 1.04 0 .4534-.2466.8034-.74 1.05-.4933.2467-1.1866.37-2.08.37-.9 0-1.6-.1233-2.1-.37-.4933-.2466-.74-.5966-.74-1.05 0-.4533.2467-.8.74-1.04.5-.24 1.2-.36 2.1-.36Zm0 .66c-.62 0-1.0966.0667-1.43.2-.3333.1267-.5.3067-.5.54 0 .2467.1634.4334.49.56.3334.1267.8134.19 1.44.19.6334 0 1.1134-.0633 1.44-.19.3267-.1266.49-.3133.49-.56 0-.2333-.1666-.4133-.5-.54-.3266-.1333-.8033-.2-1.43-.2Zm3.61 3.37h-7.22v-.71h7.22v.71Zm-.91 2.56h-4.58v.9h-.86v-1.54h4.58v-.63h-4.6v-.67h5.46v1.94Zm.22 1.4h-5.66v-.69h5.66v.69Zm9.6841-5.56h-5.46v-.73h5.46v.73Zm.84 1.43h-7.25v-.72h7.25v.72Zm-5.43-1.79h-.87v-2.1h.87v2.1Zm4.53 4.45h-4.58v.94h-.88v-1.59h4.59v-.67h-4.61v-.69h5.48v2.01Zm.26 1.44h-5.72v-.7h5.72v.7Zm7.7586.12h-.87v-8.23h.87v8.23Zm-.68-5.66h-1.67v-.74h1.67v.74Zm-5.02 3.03c.6867 0 1.2867-.0133 1.8-.04.5133-.0333 1.05-.0966 1.61-.19l.07.74c-.5667.0934-1.1133.1567-1.64.19-.52.0267-1.1333.04-1.84.04h-.61v-.74h.61Zm2.88-1.86h-2.63v2.03h-.86v-2.74h2.63v-1.58h-2.66v-.72h3.52v3.01Zm2.11 1.07h-1.69v-.74h1.69v.74Zm5.7386-3.64c0 .4734-.14.91-.42 1.31-.2734.3934-.65.7234-1.13.99-.4734.2667-1.0034.45-1.59.55l-.33-.71c.5-.0733.9566-.2166 1.37-.43.4133-.2133.74-.47.98-.77.24-.3.36-.6133.36-.94v-.31h.76v.31Zm.24 0c0 .3267.1197.64.3597.94.24.3.567.5567.98.77.414.2134.87.3567 1.37.43l-.32.71c-.593-.1-1.13-.2833-1.61-.55-.473-.2666-.8497-.5966-1.1297-.99-.2734-.4-.41-.8366-.41-1.31v-.31h.76v.31Zm-.08 7.04h-.87v-3.08h.87v3.08Zm3.1897-2.85h-7.2197v-.73h7.2197v.73Zm-.68-4.16h-5.8697v-.7h5.8697v.7Zm5.819 2.42h-1.46v-.74h1.46v.74Zm-2.34-1.36c0 .5934-.073 1.17-.22 1.73-.14.5534-.35 1.05-.63 1.49-.273.4334-.603.77-.99 1.01l-.53-.66c.36-.2266.667-.5266.92-.9.253-.38.443-.8.57-1.26.133-.46.2-.93.2-1.41v-1.5h.68v1.5Zm.16-.03c0 .4467.057.89.17 1.33.12.4334.297.83.53 1.19.24.36.533.65.88.87l-.49.69c-.387-.24-.713-.5733-.98-1-.26-.4266-.457-.9033-.59-1.43-.127-.5333-.19-1.0833-.19-1.65v-1.47h.67v1.47Zm4.39 5.99h-.83v-8.22h.83v8.22Zm-1.64-.4h-.82v-7.65h.82v7.65Zm5.168-1.21h-.86v-2.39h.86v2.39Zm2.95 0h-.89v-2.39h.89v2.39Zm1.71.59h-7.24v-.74h7.24v.74Zm-3.63-6.72c.56 0 1.064.09 1.51.27.447.18.794.4334 1.04.76.254.3267.38.7.38 1.12 0 .4267-.126.8034-.38 1.13-.246.32-.593.57-1.04.75-.44.1734-.943.26-1.51.26-.566 0-1.073-.0866-1.52-.26-.44-.18-.786-.43-1.04-.75-.246-.3266-.37-.7033-.37-1.13 0-.42.124-.7933.37-1.12.254-.3266.604-.58 1.05-.76.447-.18.95-.27 1.51-.27Zm0 .71c-.406 0-.766.06-1.08.18-.313.1134-.556.28-.73.5-.173.22-.26.4734-.26.76 0 .2867.087.54.26.76.174.22.417.39.73.51.314.1134.674.17 1.08.17.407 0 .767-.0566 1.08-.17.32-.12.567-.29.74-.51.18-.22.27-.4733.27-.76 0-.2866-.09-.54-.27-.76-.173-.22-.42-.3866-.74-.5-.313-.12-.673-.18-1.08-.18Zm4.749-.63h.95l-.07 5.1h-.82l-.06-5.1Zm-.03 6.66c0-.1533.047-.2766.14-.37.093-.1.223-.15.39-.15s.297.05.39.15c.1.0934.15.2167.15.37 0 .1467-.05.2667-.15.36-.093.0934-.223.14-.39.14s-.297-.0466-.39-.14c-.093-.0933-.14-.2133-.14-.36Z"/>
  <defs>
    <filter id="a" width="144" height="61.6707" x="0" y=".670654" color-interpolation-filters="sRGB" filterUnits="userSpaceOnUse">
      <feFlood flood-opacity="0" result="BackgroundImageFix"/>
      <feBlend in="SourceGraphic" in2="BackgroundImageFix" result="shape"/>
      <feColorMatrix in="SourceAlpha" result="hardAlpha" values="0 0 0 0 0 0 0 0 0 0 0 0 0 0 0 0 0 0 127 0"/>
      <feOffset/>
      <feGaussianBlur stdDeviation="2"/>
      <feComposite in2="hardAlpha" k2="-1" k3="1" operator="arithmetic"/>
      <feColorMatrix values="0 0 0 0 0 0 0 0 0 0 0 0 0 0 0 0 0 0 0.25 0"/>
      <feBlend in2="shape" result="effect1_innerShadow_8_1261"/>
    </filter>
  </defs>
</svg>